{"id": "T0", "fps": {"num": 30, "den": 1}, "width": 1280, "height": 720, "sample_rate": 44100, "channels": 2, "channel_layout": 3, "settings": {}, "clips": [{"alpha": {"Points": [{"co": {"X": 1, "Y": 1}, "interpolation": 2}]}, "anchor": 0, "channel_filter": {"Points": [{"co": {"X": 1, "Y": -1}, "interpolation": 2}]}, "channel_mapping": {"Points": [{"co": {"X": 1, "Y": -1}, "interpolation": 2}]}, "crop_height": {"Points": [{"co": {"X": 1, "Y": -1}, "interpolation": 2}]}, "crop_width": {"Points": [{"co": {"X": 1, "Y": -1}, "interpolation": 2}]}, "crop_x": {"Points": [{"co": {"X": 1, "Y": 0}, "interpolation": 2}]}, "crop_y": {"Points": [{"co": {"X": 1, "Y": 0}, "interpolation": 2}]}, "display": 0, "duration": 10.218542098999023, "effects": [], "end": 8.233333333333333, "gravity": 4, "has_audio": {"Points": [{"co": {"X": 1, "Y": 0}, "interpolation": 2}]}, "has_video": {"Points": [{"co": {"X": 1, "Y": -1}, "interpolation": 2}]}, "id": "NV0NG7QBG8", "layer": 4, "location_x": {"Points": [{"co": {"X": 1, "Y": 0}, "interpolation": 2}]}, "location_y": {"Points": [{"co": {"X": 1, "Y": 0}, "interpolation": 2}]}, "mixing": 0, "perspective_c1_x": {"Points": [{"co": {"X": 1, "Y": -1}, "interpolation": 2}]}, "perspective_c1_y": {"Points": [{"co": {"X": 1, "Y": -1}, "interpolation": 2}]}, "perspective_c2_x": {"Points": [{"co": {"X": 1, "Y": -1}, "interpolation": 2}]}, "perspective_c2_y": {"Points": [{"co": {"X": 1, "Y": -1}, "interpolation": 2}]}, "perspective_c3_x": {"Points": [{"co": {"X": 1, "Y": -1}, "interpolation": 2}]}, "perspective_c3_y": {"Points": [{"co": {"X": 1, "Y": -1}, "interpolation": 2}]}, "perspective_c4_x": {"Points": [{"co": {"X": 1, "Y": -1}, "interpolation": 2}]}, "perspective_c4_y": {"Points": [{"co": {"X": 1, "Y": -1}, "interpolation": 2}]}, "position": 6.9, "reader": {"acodec": "pcm_s16le", "audio_bit_rate": 1536000, "audio_stream_index": 1, "audio_timebase": {"den": 48000, "num": 1}, "channel_layout": 3, "channels": 2, "display_ratio": {"den": 9, "num": 16}, "duration": 10.218542098999023, "file_size": "40334264", "fps": {"den": 1001, "num": 24000}, "has_audio": true, "has_single_image": false, "has_video": true, "height": 1080, "interlaced_frame": false, "metadata": {"com.apple.quicktime.make": "Canon", "com.apple.quicktime.model": "Canon EOS 5D Mark III", "com.apple.quicktime.rating.user": "0.000000", "compatible_brands": "qt  CAEP", "creation_time": "2022-02-27T12:44:00.000000Z", "language": "eng", "major_brand": "qt", "minor_version": "537331968", "timecode": "03:31:15:02"}, "path": "IMG_3057.MOV", "pixel_format": 12, "pixel_ratio": {"den": 1, "num": 1}, "sample_rate": 48000, "top_field_first": true, "type": "FFmpegReader", "vcodec": "h264", "video_bit_rate": 3947164, "video_length": "245", "video_stream_index": 0, "video_timebase": {"den": 24000, "num": 1}, "width": 1920}, "rotation": {"Points": [{"co": {"X": 1, "Y": 0}, "interpolation": 2}]}, "scale": 1, "scale_x": {"Points": [{"co": {"X": 1, "Y": 1}, "interpolation": 2}]}, "scale_y": {"Points": [{"co": {"X": 1, "Y": 1}, "interpolation": 2}]}, "shear_x": {"Points": [{"co": {"X": 1, "Y": 0}, "interpolation": 2}]}, "shear_y": {"Points": [{"co": {"X": 1, "Y": 0}, "interpolation": 2}]}, "start": 4.4, "time": {"Points": [{"co": {"X": 1, "Y": 1}, "interpolation": 2}]}, "volume": {"Points": [{"co": {"X": 1, "Y": 1}, "interpolation": 2}]}, "wave_color": {"alpha": {"Points": [{"co": {"X": 1, "Y": 255}, "handle_left": {"X": 0.5, "Y": 1}, "handle_right": {"X": 0.5, "Y": 0}, "handle_type": 0, "interpolation": 0}]}, "blue": {"Points": [{"co": {"X": 1, "Y": 255}, "handle_left": {"X": 0.5, "Y": 1}, "handle_right": {"X": 0.5, "Y": 0}, "handle_type": 0, "interpolation": 0}]}, "green": {"Points": [{"co": {"X": 1, "Y": 123}, "handle_left": {"X": 0.5, "Y": 1}, "handle_right": {"X": 0.5, "Y": 0}, "handle_type": 0, "interpolation": 0}]}, "red": {"Points": [{"co": {"X": 1, "Y": 0}, "handle_left": {"X": 0.5, "Y": 1}, "handle_right": {"X": 0.5, "Y": 0}, "handle_type": 0, "interpolation": 0}]}}, "waveform": false, "file_id": "VWKO8LVPQE", "title": "IMG_3057.MOV", "image": "../../../.openshot_qt/thumbnail/VWKO8LVPQE.png"}, {"alpha": {"Points": [{"co": {"X": 1, "Y": 1}, "interpolation": 2}]}, "anchor": 0, "channel_filter": {"Points": [{"co": {"X": 1, "Y": -1}, "interpolation": 2}]}, "channel_mapping": {"Points": [{"co": {"X": 1, "Y": -1}, "interpolation": 2}]}, "crop_height": {"Points": [{"co": {"X": 1, "Y": -1}, "interpolation": 2}]}, "crop_width": {"Points": [{"co": {"X": 1, "Y": -1}, "interpolation": 2}]}, "crop_x": {"Points": [{"co": {"X": 1, "Y": 0}, "interpolation": 2}]}, "crop_y": {"Points": [{"co": {"X": 1, "Y": 0}, "interpolation": 2}]}, "display": 0, "duration": 47.338958740234375, "effects": [], "end": 31.166666666666668, "gravity": 4, "has_audio": {"Points": [{"co": {"X": 1, "Y": 0}, "interpolation": 2}]}, "has_video": {"Points": [{"co": {"X": 1, "Y": -1}, "interpolation": 2}]}, "id": "2JX6RFY40N", "layer": 4, "location_x": {"Points": [{"co": {"X": 1, "Y": 0}, "interpolation": 2}]}, "location_y": {"Points": [{"co": {"X": 1, "Y": 0}, "interpolation": 2}]}, "mixing": 0, "perspective_c1_x": {"Points": [{"co": {"X": 1, "Y": -1}, "interpolation": 2}]}, "perspective_c1_y": {"Points": [{"co": {"X": 1, "Y": -1}, "interpolation": 2}]}, "perspective_c2_x": {"Points": [{"co": {"X": 1, "Y": -1}, "interpolation": 2}]}, "perspective_c2_y": {"Points": [{"co": {"X": 1, "Y": -1}, "interpolation": 2}]}, "perspective_c3_x": {"Points": [{"co": {"X": 1, "Y": -1}, "interpolation": 2}]}, "perspective_c3_y": {"Points": [{"co": {"X": 1, "Y": -1}, "interpolation": 2}]}, "perspective_c4_x": {"Points": [{"co": {"X": 1, "Y": -1}, "interpolation": 2}]}, "perspective_c4_y": {"Points": [{"co": {"X": 1, "Y": -1}, "interpolation": 2}]}, "position": 10.8, "reader": {"acodec": "pcm_s16le", "audio_bit_rate": 1536000, "audio_stream_index": 1, "audio_timebase": {"den": 48000, "num": 1}, "channel_layout": 3, "channels": 2, "display_ratio": {"den": 9, "num": 16}, "duration": 47.338958740234375, "file_size": "184532412", "fps": {"den": 1001, "num": 24000}, "has_audio": true, "has_single_image": false, "has_video": true, "height": 1080, "interlaced_frame": false, "metadata": {"com.apple.quicktime.make": "Canon", "com.apple.quicktime.model": "Canon EOS 5D Mark III", "com.apple.quicktime.rating.user": "0.000000", "compatible_brands": "qt  CAEP", "creation_time": "2022-02-27T12:19:58.000000Z", "language": "eng", "major_brand": "qt", "minor_version": "537331968", "timecode": "03:30:12:13"}, "path": "IMG_3054.MOV", "pixel_format": 12, "pixel_ratio": {"den": 1, "num": 1}, "sample_rate": 48000, "top_field_first": true, "type": "FFmpegReader", "vcodec": "h264", "video_bit_rate": 3898108, "video_length": "1135", "video_stream_index": 0, "video_timebase": {"den": 24000, "num": 1}, "width": 1920}, "rotation": {"Points": [{"co": {"X": 1, "Y": 0}, "interpolation": 2}]}, "scale": 1, "scale_x": {"Points": [{"co": {"X": 1, "Y": 1}, "interpolation": 2}]}, "scale_y": {"Points": [{"co": {"X": 1, "Y": 1}, "interpolation": 2}]}, "shear_x": {"Points": [{"co": {"X": 1, "Y": 0}, "interpolation": 2}]}, "shear_y": {"Points": [{"co": {"X": 1, "Y": 0}, "interpolation": 2}]}, "start": 29.6, "time": {"Points": [{"co": {"X": 1, "Y": 1}, "interpolation": 2}]}, "volume": {"Points": [{"co": {"X": 1, "Y": 1}, "interpolation": 2}]}, "wave_color": {"alpha": {"Points": [{"co": {"X": 1, "Y": 255}, "handle_left": {"X": 0.5, "Y": 1}, "handle_right": {"X": 0.5, "Y": 0}, "handle_type": 0, "interpolation": 0}]}, "blue": {"Points": [{"co": {"X": 1, "Y": 255}, "handle_left": {"X": 0.5, "Y": 1}, "handle_right": {"X": 0.5, "Y": 0}, "handle_type": 0, "interpolation": 0}]}, "green": {"Points": [{"co": {"X": 1, "Y": 123}, "handle_left": {"X": 0.5, "Y": 1}, "handle_right": {"X": 0.5, "Y": 0}, "handle_type": 0, "interpolation": 0}]}, "red": {"Points": [{"co": {"X": 1, "Y": 0}, "handle_left": {"X": 0.5, "Y": 1}, "handle_right": {"X": 0.5, "Y": 0}, "handle_type": 0, "interpolation": 0}]}}, "waveform": false, "file_id": "VOMLWGHCC8", "title": "IMG_3054.MOV", "image": "../../../.openshot_qt/thumbnail/2JX6RFY40N-677.png"}, {"alpha": {"Points": [{"co": {"X": 1, "Y": 1}, "interpolation": 2}]}, "anchor": 0, "channel_filter": {"Points": [{"co": {"X": 1, "Y": -1}, "interpolation": 2}]}, "channel_mapping": {"Points": [{"co": {"X": 1, "Y": -1}, "interpolation": 2}]}, "crop_height": {"Points": [{"co": {"X": 1, "Y": -1}, "interpolation": 2}]}, "crop_width": {"Points": [{"co": {"X": 1, "Y": -1}, "interpolation": 2}]}, "crop_x": {"Points": [{"co": {"X": 1, "Y": 0}, "interpolation": 2}]}, "crop_y": {"Points": [{"co": {"X": 1, "Y": 0}, "interpolation": 2}]}, "display": 0, "duration": 47.338958740234375, "effects": [], "end": 45.833333333333336, "gravity": 4, "has_audio": {"Points": [{"co": {"X": 1, "Y": 0}, "interpolation": 2}]}, "has_video": {"Points": [{"co": {"X": 1, "Y": -1}, "interpolation": 2}]}, "layer": 4, "location_x": {"Points": [{"co": {"X": 1, "Y": 0}, "interpolation": 2}]}, "location_y": {"Points": [{"co": {"X": 1, "Y": 0}, "interpolation": 2}]}, "mixing": 0, "perspective_c1_x": {"Points": [{"co": {"X": 1, "Y": -1}, "interpolation": 2}]}, "perspective_c1_y": {"Points": [{"co": {"X": 1, "Y": -1}, "interpolation": 2}]}, "perspective_c2_x": {"Points": [{"co": {"X": 1, "Y": -1}, "interpolation": 2}]}, "perspective_c2_y": {"Points": [{"co": {"X": 1, "Y": -1}, "interpolation": 2}]}, "perspective_c3_x": {"Points": [{"co": {"X": 1, "Y": -1}, "interpolation": 2}]}, "perspective_c3_y": {"Points": [{"co": {"X": 1, "Y": -1}, "interpolation": 2}]}, "perspective_c4_x": {"Points": [{"co": {"X": 1, "Y": -1}, "interpolation": 2}]}, "perspective_c4_y": {"Points": [{"co": {"X": 1, "Y": -1}, "interpolation": 2}]}, "position": 12.366666666666667, "reader": {"acodec": "pcm_s16le", "audio_bit_rate": 1536000, "audio_stream_index": 1, "audio_timebase": {"den": 48000, "num": 1}, "channel_layout": 3, "channels": 2, "display_ratio": {"den": 9, "num": 16}, "duration": 47.338958740234375, "file_size": "184532412", "fps": {"den": 1001, "num": 24000}, "has_audio": true, "has_single_image": false, "has_video": true, "height": 1080, "interlaced_frame": false, "metadata": {"com.apple.quicktime.make": "Canon", "com.apple.quicktime.model": "Canon EOS 5D Mark III", "com.apple.quicktime.rating.user": "0.000000", "compatible_brands": "qt  CAEP", "creation_time": "2022-02-27T12:19:58.000000Z", "language": "eng", "major_brand": "qt", "minor_version": "537331968", "timecode": "03:30:12:13"}, "path": "IMG_3054.MOV", "pixel_format": 12, "pixel_ratio": {"den": 1, "num": 1}, "sample_rate": 48000, "top_field_first": true, "type": "FFmpegReader", "vcodec": "h264", "video_bit_rate": 3898108, "video_length": "1135", "video_stream_index": 0, "video_timebase": {"den": 24000, "num": 1}, "width": 1920}, "rotation": {"Points": [{"co": {"X": 1, "Y": 0}, "interpolation": 2}]}, "scale": 1, "scale_x": {"Points": [{"co": {"X": 1, "Y": 1}, "interpolation": 2}]}, "scale_y": {"Points": [{"co": {"X": 1, "Y": 1}, "interpolation": 2}]}, "shear_x": {"Points": [{"co": {"X": 1, "Y": 0}, "interpolation": 2}]}, "shear_y": {"Points": [{"co": {"X": 1, "Y": 0}, "interpolation": 2}]}, "start": 42.63333333333333, "time": {"Points": [{"co": {"X": 1, "Y": 1}, "interpolation": 2}]}, "volume": {"Points": [{"co": {"X": 1, "Y": 1}, "interpolation": 2}]}, "wave_color": {"alpha": {"Points": [{"co": {"X": 1, "Y": 255}, "handle_left": {"X": 0.5, "Y": 1}, "handle_right": {"X": 0.5, "Y": 0}, "handle_type": 0, "interpolation": 0}]}, "blue": {"Points": [{"co": {"X": 1, "Y": 255}, "handle_left": {"X": 0.5, "Y": 1}, "handle_right": {"X": 0.5, "Y": 0}, "handle_type": 0, "interpolation": 0}]}, "green": {"Points": [{"co": {"X": 1, "Y": 123}, "handle_left": {"X": 0.5, "Y": 1}, "handle_right": {"X": 0.5, "Y": 0}, "handle_type": 0, "interpolation": 0}]}, "red": {"Points": [{"co": {"X": 1, "Y": 0}, "handle_left": {"X": 0.5, "Y": 1}, "handle_right": {"X": 0.5, "Y": 0}, "handle_type": 0, "interpolation": 0}]}}, "waveform": false, "file_id": "VOMLWGHCC8", "title": "IMG_3054.MOV", "image": "../../../.openshot_qt/thumbnail/OARSWZH0XP-882.png", "id": "OARSWZH0XP"}, {"alpha": {"Points": [{"co": {"X": 1, "Y": 1}, "interpolation": 2}]}, "anchor": 0, "channel_filter": {"Points": [{"co": {"X": 1, "Y": -1}, "interpolation": 2}]}, "channel_mapping": {"Points": [{"co": {"X": 1, "Y": -1}, "interpolation": 2}]}, "crop_height": {"Points": [{"co": {"X": 1, "Y": -1}, "interpolation": 2}]}, "crop_width": {"Points": [{"co": {"X": 1, "Y": -1}, "interpolation": 2}]}, "crop_x": {"Points": [{"co": {"X": 1, "Y": 0}, "interpolation": 2}]}, "crop_y": {"Points": [{"co": {"X": 1, "Y": 0}, "interpolation": 2}]}, "display": 0, "duration": 6.519999980926514, "effects": [], "end": 6.533333333333333, "gravity": 4, "has_audio": {"Points": [{"co": {"X": 1, "Y": 0}, "interpolation": 2}]}, "has_video": {"Points": [{"co": {"X": 1, "Y": -1}, "interpolation": 2}]}, "id": "XHFM7KKOXC", "layer": 4, "location_x": {"Points": [{"co": {"X": 1, "Y": 0}, "interpolation": 2}]}, "location_y": {"Points": [{"co": {"X": 1, "Y": 0}, "interpolation": 2}]}, "mixing": 0, "perspective_c1_x": {"Points": [{"co": {"X": 1, "Y": -1}, "interpolation": 2}]}, "perspective_c1_y": {"Points": [{"co": {"X": 1, "Y": -1}, "interpolation": 2}]}, "perspective_c2_x": {"Points": [{"co": {"X": 1, "Y": -1}, "interpolation": 2}]}, "perspective_c2_y": {"Points": [{"co": {"X": 1, "Y": -1}, "interpolation": 2}]}, "perspective_c3_x": {"Points": [{"co": {"X": 1, "Y": -1}, "interpolation": 2}]}, "perspective_c3_y": {"Points": [{"co": {"X": 1, "Y": -1}, "interpolation": 2}]}, "perspective_c4_x": {"Points": [{"co": {"X": 1, "Y": -1}, "interpolation": 2}]}, "perspective_c4_y": {"Points": [{"co": {"X": 1, "Y": -1}, "interpolation": 2}]}, "position": 41.53333333333333, "reader": {"acodec": "pcm_s16le", "audio_bit_rate": 1536000, "audio_stream_index": 1, "audio_timebase": {"den": 48000, "num": 1}, "channel_layout": 3, "channels": 2, "display_ratio": {"den": 9, "num": 16}, "duration": 6.519999980926514, "file_size": "21697280", "fps": {"den": 1, "num": 50}, "has_audio": true, "has_single_image": false, "has_video": true, "height": 720, "interlaced_frame": false, "metadata": {"com.apple.quicktime.make": "Canon", "com.apple.quicktime.model": "Canon EOS 5D Mark III", "com.apple.quicktime.rating.user": "0.000000", "compatible_brands": "qt  CAEP", "creation_time": "2022-02-27T13:14:41.000000Z", "language": "eng", "major_brand": "qt", "minor_version": "537331968", "timecode": "03:33:31:17"}, "path": "IMG_3073.MOV", "pixel_format": 12, "pixel_ratio": {"den": 1, "num": 1}, "sample_rate": 48000, "top_field_first": true, "type": "FFmpegReader", "vcodec": "h264", "video_bit_rate": 3327803, "video_length": "326", "video_stream_index": 0, "video_timebase": {"den": 50000, "num": 1}, "width": 1280}, "rotation": {"Points": [{"co": {"X": 1, "Y": 0}, "interpolation": 2}]}, "scale": 1, "scale_x": {"Points": [{"co": {"X": 1, "Y": 1}, "interpolation": 2}]}, "scale_y": {"Points": [{"co": {"X": 1, "Y": 1}, "interpolation": 2}]}, "shear_x": {"Points": [{"co": {"X": 1, "Y": 0}, "interpolation": 2}]}, "shear_y": {"Points": [{"co": {"X": 1, "Y": 0}, "interpolation": 2}]}, "start": 3.8, "time": {"Points": [{"co": {"X": 1, "Y": 1}, "interpolation": 2}]}, "volume": {"Points": [{"co": {"X": 1, "Y": 1}, "interpolation": 2}]}, "wave_color": {"alpha": {"Points": [{"co": {"X": 1, "Y": 255}, "handle_left": {"X": 0.5, "Y": 1}, "handle_right": {"X": 0.5, "Y": 0}, "handle_type": 0, "interpolation": 0}]}, "blue": {"Points": [{"co": {"X": 1, "Y": 255}, "handle_left": {"X": 0.5, "Y": 1}, "handle_right": {"X": 0.5, "Y": 0}, "handle_type": 0, "interpolation": 0}]}, "green": {"Points": [{"co": {"X": 1, "Y": 123}, "handle_left": {"X": 0.5, "Y": 1}, "handle_right": {"X": 0.5, "Y": 0}, "handle_type": 0, "interpolation": 0}]}, "red": {"Points": [{"co": {"X": 1, "Y": 0}, "handle_left": {"X": 0.5, "Y": 1}, "handle_right": {"X": 0.5, "Y": 0}, "handle_type": 0, "interpolation": 0}]}}, "waveform": false, "file_id": "V2VIXWD96O", "title": "IMG_3073.MOV", "image": "../../../.openshot_qt/thumbnail/V2VIXWD96O.png"}, {"alpha": {"Points": [{"co": {"X": 1, "Y": 1}, "interpolation": 2}]}, "anchor": 0, "channel_filter": {"Points": [{"co": {"X": 1, "Y": -1}, "interpolation": 2}]}, "channel_mapping": {"Points": [{"co": {"X": 1, "Y": -1}, "interpolation": 2}]}, "crop_height": {"Points": [{"co": {"X": 1, "Y": -1}, "interpolation": 2}]}, "crop_width": {"Points": [{"co": {"X": 1, "Y": -1}, "interpolation": 2}]}, "crop_x": {"Points": [{"co": {"X": 1, "Y": 0}, "interpolation": 2}]}, "crop_y": {"Points": [{"co": {"X": 1, "Y": 0}, "interpolation": 2}]}, "display": 0, "duration": 8.520000457763672, "effects": [], "end": 7.833333333333333, "gravity": 4, "has_audio": {"Points": [{"co": {"X": 1, "Y": 0}, "interpolation": 2}]}, "has_video": {"Points": [{"co": {"X": 1, "Y": -1}, "interpolation": 2}]}, "id": "UYHKCS2IK0", "layer": 4, "location_x": {"Points": [{"co": {"X": 1, "Y": 0}, "interpolation": 2}]}, "location_y": {"Points": [{"co": {"X": 1, "Y": 0}, "interpolation": 2}]}, "mixing": 0, "perspective_c1_x": {"Points": [{"co": {"X": 1, "Y": -1}, "interpolation": 2}]}, "perspective_c1_y": {"Points": [{"co": {"X": 1, "Y": -1}, "interpolation": 2}]}, "perspective_c2_x": {"Points": [{"co": {"X": 1, "Y": -1}, "interpolation": 2}]}, "perspective_c2_y": {"Points": [{"co": {"X": 1, "Y": -1}, "interpolation": 2}]}, "perspective_c3_x": {"Points": [{"co": {"X": 1, "Y": -1}, "interpolation": 2}]}, "perspective_c3_y": {"Points": [{"co": {"X": 1, "Y": -1}, "interpolation": 2}]}, "perspective_c4_x": {"Points": [{"co": {"X": 1, "Y": -1}, "interpolation": 2}]}, "perspective_c4_y": {"Points": [{"co": {"X": 1, "Y": -1}, "interpolation": 2}]}, "position": 44.36666666666667, "reader": {"acodec": "pcm_s16le", "audio_bit_rate": 1536000, "audio_stream_index": 1, "audio_timebase": {"den": 48000, "num": 1}, "channel_layout": 3, "channels": 2, "display_ratio": {"den": 9, "num": 16}, "duration": 8.520000457763672, "file_size": "29150332", "fps": {"den": 1, "num": 50}, "has_audio": true, "has_single_image": false, "has_video": true, "height": 720, "interlaced_frame": false, "metadata": {"com.apple.quicktime.make": "Canon", "com.apple.quicktime.model": "Canon EOS 5D Mark III", "com.apple.quicktime.rating.user": "0.000000", "compatible_brands": "qt  CAEP", "creation_time": "2022-02-27T13:28:25.000000Z", "language": "eng", "major_brand": "qt", "minor_version": "537331968", "timecode": "03:36:01:02"}, "path": "IMG_3092.MOV", "pixel_format": 12, "pixel_ratio": {"den": 1, "num": 1}, "sample_rate": 48000, "top_field_first": true, "type": "FFmpegReader", "vcodec": "h264", "video_bit_rate": 3421400, "video_length": "426", "video_stream_index": 0, "video_timebase": {"den": 50000, "num": 1}, "width": 1280}, "rotation": {"Points": [{"co": {"X": 1, "Y": 0}, "interpolation": 2}]}, "scale": 1, "scale_x": {"Points": [{"co": {"X": 1, "Y": 1}, "interpolation": 2}]}, "scale_y": {"Points": [{"co": {"X": 1, "Y": 1}, "interpolation": 2}]}, "shear_x": {"Points": [{"co": {"X": 1, "Y": 0}, "interpolation": 2}]}, "shear_y": {"Points": [{"co": {"X": 1, "Y": 0}, "interpolation": 2}]}, "start": 5.8, "time": {"Points": [{"co": {"X": 1, "Y": 1}, "interpolation": 2}]}, "volume": {"Points": [{"co": {"X": 1, "Y": 1}, "interpolation": 2}]}, "wave_color": {"alpha": {"Points": [{"co": {"X": 1, "Y": 255}, "handle_left": {"X": 0.5, "Y": 1}, "handle_right": {"X": 0.5, "Y": 0}, "handle_type": 0, "interpolation": 0}]}, "blue": {"Points": [{"co": {"X": 1, "Y": 255}, "handle_left": {"X": 0.5, "Y": 1}, "handle_right": {"X": 0.5, "Y": 0}, "handle_type": 0, "interpolation": 0}]}, "green": {"Points": [{"co": {"X": 1, "Y": 123}, "handle_left": {"X": 0.5, "Y": 1}, "handle_right": {"X": 0.5, "Y": 0}, "handle_type": 0, "interpolation": 0}]}, "red": {"Points": [{"co": {"X": 1, "Y": 0}, "handle_left": {"X": 0.5, "Y": 1}, "handle_right": {"X": 0.5, "Y": 0}, "handle_type": 0, "interpolation": 0}]}}, "waveform": false, "file_id": "VQEIJK9WTM", "title": "IMG_3092.MOV", "image": "../../../.openshot_qt/thumbnail/VQEIJK9WTM.png"}, {"alpha": {"Points": [{"co": {"X": 1, "Y": 1}, "interpolation": 2}]}, "anchor": 0, "channel_filter": {"Points": [{"co": {"X": 1, "Y": -1}, "interpolation": 2}]}, "channel_mapping": {"Points": [{"co": {"X": 1, "Y": -1}, "interpolation": 2}]}, "crop_height": {"Points": [{"co": {"X": 1, "Y": -1}, "interpolation": 2}]}, "crop_width": {"Points": [{"co": {"X": 1, "Y": -1}, "interpolation": 2}]}, "crop_x": {"Points": [{"co": {"X": 1, "Y": 0}, "interpolation": 2}]}, "crop_y": {"Points": [{"co": {"X": 1, "Y": 0}, "interpolation": 2}]}, "display": 0, "duration": 43.68000030517578, "effects": [], "end": 7.2, "gravity": 4, "has_audio": {"Points": [{"co": {"X": 1, "Y": 0}, "interpolation": 2}]}, "has_video": {"Points": [{"co": {"X": 1, "Y": -1}, "interpolation": 2}]}, "id": "UD5OJO0NJK", "layer": 4, "location_x": {"Points": [{"co": {"X": 1, "Y": 0}, "interpolation": 2}]}, "location_y": {"Points": [{"co": {"X": 1, "Y": 0}, "interpolation": 2}]}, "mixing": 0, "perspective_c1_x": {"Points": [{"co": {"X": 1, "Y": -1}, "interpolation": 2}]}, "perspective_c1_y": {"Points": [{"co": {"X": 1, "Y": -1}, "interpolation": 2}]}, "perspective_c2_x": {"Points": [{"co": {"X": 1, "Y": -1}, "interpolation": 2}]}, "perspective_c2_y": {"Points": [{"co": {"X": 1, "Y": -1}, "interpolation": 2}]}, "perspective_c3_x": {"Points": [{"co": {"X": 1, "Y": -1}, "interpolation": 2}]}, "perspective_c3_y": {"Points": [{"co": {"X": 1, "Y": -1}, "interpolation": 2}]}, "perspective_c4_x": {"Points": [{"co": {"X": 1, "Y": -1}, "interpolation": 2}]}, "perspective_c4_y": {"Points": [{"co": {"X": 1, "Y": -1}, "interpolation": 2}]}, "position": 46.4, "reader": {"acodec": "pcm_s16le", "audio_bit_rate": 1536000, "audio_stream_index": 1, "audio_timebase": {"den": 48000, "num": 1}, "channel_layout": 3, "channels": 2, "display_ratio": {"den": 9, "num": 16}, "duration": 43.68000030517578, "file_size": "137423256", "fps": {"den": 1, "num": 50}, "has_audio": true, "has_single_image": false, "has_video": true, "height": 720, "interlaced_frame": false, "metadata": {"com.apple.quicktime.make": "Canon", "com.apple.quicktime.model": "Canon EOS 5D Mark III", "com.apple.quicktime.rating.user": "0.000000", "compatible_brands": "qt  CAEP", "creation_time": "2022-02-27T13:37:44.000000Z", "language": "eng", "major_brand": "qt", "minor_version": "537331968", "timecode": "03:39:29:00"}, "path": "IMG_3103.MOV", "pixel_format": 12, "pixel_ratio": {"den": 1, "num": 1}, "sample_rate": 48000, "top_field_first": true, "type": "FFmpegReader", "vcodec": "h264", "video_bit_rate": 3146136, "video_length": "2184", "video_stream_index": 0, "video_timebase": {"den": 50000, "num": 1}, "width": 1280}, "rotation": {"Points": [{"co": {"X": 1, "Y": 0}, "interpolation": 2}]}, "scale": 1, "scale_x": {"Points": [{"co": {"X": 1, "Y": 1}, "interpolation": 2}]}, "scale_y": {"Points": [{"co": {"X": 1, "Y": 1}, "interpolation": 2}]}, "shear_x": {"Points": [{"co": {"X": 1, "Y": 0}, "interpolation": 2}]}, "shear_y": {"Points": [{"co": {"X": 1, "Y": 0}, "interpolation": 2}]}, "start": 3.9, "time": {"Points": [{"co": {"X": 1, "Y": 1}, "interpolation": 2}]}, "volume": {"Points": [{"co": {"X": 1, "Y": 1}, "interpolation": 2}]}, "wave_color": {"alpha": {"Points": [{"co": {"X": 1, "Y": 255}, "handle_left": {"X": 0.5, "Y": 1}, "handle_right": {"X": 0.5, "Y": 0}, "handle_type": 0, "interpolation": 0}]}, "blue": {"Points": [{"co": {"X": 1, "Y": 255}, "handle_left": {"X": 0.5, "Y": 1}, "handle_right": {"X": 0.5, "Y": 0}, "handle_type": 0, "interpolation": 0}]}, "green": {"Points": [{"co": {"X": 1, "Y": 123}, "handle_left": {"X": 0.5, "Y": 1}, "handle_right": {"X": 0.5, "Y": 0}, "handle_type": 0, "interpolation": 0}]}, "red": {"Points": [{"co": {"X": 1, "Y": 0}, "handle_left": {"X": 0.5, "Y": 1}, "handle_right": {"X": 0.5, "Y": 0}, "handle_type": 0, "interpolation": 0}]}}, "waveform": false, "file_id": "Y66OCRHISG", "title": "IMG_3103.MOV", "image": "../../../.openshot_qt/thumbnail/UD5OJO0NJK-131.png"}, {"alpha": {"Points": [{"co": {"X": 1, "Y": 1}, "interpolation": 2}]}, "anchor": 0, "channel_filter": {"Points": [{"co": {"X": 1, "Y": -1}, "interpolation": 2}]}, "channel_mapping": {"Points": [{"co": {"X": 1, "Y": -1}, "interpolation": 2}]}, "crop_height": {"Points": [{"co": {"X": 1, "Y": -1}, "interpolation": 2}]}, "crop_width": {"Points": [{"co": {"X": 1, "Y": -1}, "interpolation": 2}]}, "crop_x": {"Points": [{"co": {"X": 1, "Y": 0}, "interpolation": 2}]}, "crop_y": {"Points": [{"co": {"X": 1, "Y": 0}, "interpolation": 2}]}, "display": 0, "duration": 11.84000015258789, "effects": [], "end": 6.233333333333333, "gravity": 4, "has_audio": {"Points": [{"co": {"X": 1, "Y": 0}, "interpolation": 2}]}, "has_video": {"Points": [{"co": {"X": 1, "Y": -1}, "interpolation": 2}]}, "id": "MQV641IZ9F", "layer": 4, "location_x": {"Points": [{"co": {"X": 1, "Y": 0}, "interpolation": 2}]}, "location_y": {"Points": [{"co": {"X": 1, "Y": 0}, "interpolation": 2}]}, "mixing": 0, "perspective_c1_x": {"Points": [{"co": {"X": 1, "Y": -1}, "interpolation": 2}]}, "perspective_c1_y": {"Points": [{"co": {"X": 1, "Y": -1}, "interpolation": 2}]}, "perspective_c2_x": {"Points": [{"co": {"X": 1, "Y": -1}, "interpolation": 2}]}, "perspective_c2_y": {"Points": [{"co": {"X": 1, "Y": -1}, "interpolation": 2}]}, "perspective_c3_x": {"Points": [{"co": {"X": 1, "Y": -1}, "interpolation": 2}]}, "perspective_c3_y": {"Points": [{"co": {"X": 1, "Y": -1}, "interpolation": 2}]}, "perspective_c4_x": {"Points": [{"co": {"X": 1, "Y": -1}, "interpolation": 2}]}, "perspective_c4_y": {"Points": [{"co": {"X": 1, "Y": -1}, "interpolation": 2}]}, "position": 21.5, "reader": {"acodec": "pcm_s16le", "audio_bit_rate": 1536000, "audio_stream_index": 1, "audio_timebase": {"den": 48000, "num": 1}, "channel_layout": 3, "channels": 2, "display_ratio": {"den": 9, "num": 16}, "duration": 11.84000015258789, "file_size": "40149720", "fps": {"den": 1, "num": 50}, "has_audio": true, "has_single_image": false, "has_video": true, "height": 720, "interlaced_frame": false, "metadata": {"com.apple.quicktime.make": "Canon", "com.apple.quicktime.model": "Canon EOS 5D Mark III", "com.apple.quicktime.rating.user": "0.000000", "compatible_brands": "qt  CAEP", "creation_time": "2022-02-27T14:12:50.000000Z", "language": "eng", "major_brand": "qt", "minor_version": "537331968", "timecode": "03:46:25:00"}, "path": "IMG_3127.MOV", "pixel_format": 12, "pixel_ratio": {"den": 1, "num": 1}, "sample_rate": 48000, "top_field_first": true, "type": "FFmpegReader", "vcodec": "h264", "video_bit_rate": 3391023, "video_length": "592", "video_stream_index": 0, "video_timebase": {"den": 50000, "num": 1}, "width": 1280}, "rotation": {"Points": [{"co": {"X": 1, "Y": 0}, "interpolation": 2}]}, "scale": 1, "scale_x": {"Points": [{"co": {"X": 1, "Y": 1}, "interpolation": 2}]}, "scale_y": {"Points": [{"co": {"X": 1, "Y": 1}, "interpolation": 2}]}, "shear_x": {"Points": [{"co": {"X": 1, "Y": 0}, "interpolation": 2}]}, "shear_y": {"Points": [{"co": {"X": 1, "Y": 0}, "interpolation": 2}]}, "start": 4, "time": {"Points": [{"co": {"X": 1, "Y": 1}, "interpolation": 2}]}, "volume": {"Points": [{"co": {"X": 1, "Y": 1}, "interpolation": 2}]}, "wave_color": {"alpha": {"Points": [{"co": {"X": 1, "Y": 255}, "handle_left": {"X": 0.5, "Y": 1}, "handle_right": {"X": 0.5, "Y": 0}, "handle_type": 0, "interpolation": 0}]}, "blue": {"Points": [{"co": {"X": 1, "Y": 255}, "handle_left": {"X": 0.5, "Y": 1}, "handle_right": {"X": 0.5, "Y": 0}, "handle_type": 0, "interpolation": 0}]}, "green": {"Points": [{"co": {"X": 1, "Y": 123}, "handle_left": {"X": 0.5, "Y": 1}, "handle_right": {"X": 0.5, "Y": 0}, "handle_type": 0, "interpolation": 0}]}, "red": {"Points": [{"co": {"X": 1, "Y": 0}, "handle_left": {"X": 0.5, "Y": 1}, "handle_right": {"X": 0.5, "Y": 0}, "handle_type": 0, "interpolation": 0}]}}, "waveform": false, "file_id": "1WQ5T6PFW3", "title": "IMG_3127.MOV", "image": "../../../.openshot_qt/thumbnail/1WQ5T6PFW3.png"}, {"alpha": {"Points": [{"co": {"X": 1, "Y": 1}, "interpolation": 2}]}, "anchor": 0, "channel_filter": {"Points": [{"co": {"X": 1, "Y": -1}, "interpolation": 2}]}, "channel_mapping": {"Points": [{"co": {"X": 1, "Y": -1}, "interpolation": 2}]}, "crop_height": {"Points": [{"co": {"X": 1, "Y": -1}, "interpolation": 2}]}, "crop_width": {"Points": [{"co": {"X": 1, "Y": -1}, "interpolation": 2}]}, "crop_x": {"Points": [{"co": {"X": 1, "Y": 0}, "interpolation": 2}]}, "crop_y": {"Points": [{"co": {"X": 1, "Y": 0}, "interpolation": 2}]}, "display": 0, "duration": 86.0, "effects": [], "end": 18.633333333333333, "gravity": 4, "has_audio": {"Points": [{"co": {"X": 1, "Y": 0}, "interpolation": 2}]}, "has_video": {"Points": [{"co": {"X": 1, "Y": -1}, "interpolation": 2}]}, "layer": 4, "location_x": {"Points": [{"co": {"X": 1, "Y": 0}, "interpolation": 2}]}, "location_y": {"Points": [{"co": {"X": 1, "Y": 0}, "interpolation": 2}]}, "mixing": 0, "perspective_c1_x": {"Points": [{"co": {"X": 1, "Y": -1}, "interpolation": 2}]}, "perspective_c1_y": {"Points": [{"co": {"X": 1, "Y": -1}, "interpolation": 2}]}, "perspective_c2_x": {"Points": [{"co": {"X": 1, "Y": -1}, "interpolation": 2}]}, "perspective_c2_y": {"Points": [{"co": {"X": 1, "Y": -1}, "interpolation": 2}]}, "perspective_c3_x": {"Points": [{"co": {"X": 1, "Y": -1}, "interpolation": 2}]}, "perspective_c3_y": {"Points": [{"co": {"X": 1, "Y": -1}, "interpolation": 2}]}, "perspective_c4_x": {"Points": [{"co": {"X": 1, "Y": -1}, "interpolation": 2}]}, "perspective_c4_y": {"Points": [{"co": {"X": 1, "Y": -1}, "interpolation": 2}]}, "position": 49.7, "reader": {"acodec": "pcm_s16le", "audio_bit_rate": 1536000, "audio_stream_index": 1, "audio_timebase": {"den": 48000, "num": 1}, "channel_layout": 3, "channels": 2, "display_ratio": {"den": 9, "num": 16}, "duration": 43.68000030517578, "file_size": "137423256", "fps": {"den": 1, "num": 50}, "has_audio": true, "has_single_image": false, "has_video": true, "height": 720, "interlaced_frame": false, "metadata": {"com.apple.quicktime.make": "Canon", "com.apple.quicktime.model": "Canon EOS 5D Mark III", "com.apple.quicktime.rating.user": "0.000000", "compatible_brands": "qt  CAEP", "creation_time": "2022-02-27T13:37:44.000000Z", "language": "eng", "major_brand": "qt", "minor_version": "537331968", "timecode": "03:39:29:00"}, "path": "IMG_3103.MOV", "pixel_format": 12, "pixel_ratio": {"den": 1, "num": 1}, "sample_rate": 48000, "top_field_first": true, "type": "FFmpegReader", "vcodec": "h264", "video_bit_rate": 3146136, "video_length": "2184", "video_stream_index": 0, "video_timebase": {"den": 50000, "num": 1}, "width": 1280}, "rotation": {"Points": [{"co": {"X": 1, "Y": 0}, "interpolation": 2}]}, "scale": 1, "scale_x": {"Points": [{"co": {"X": 1, "Y": 1}, "interpolation": 2}]}, "scale_y": {"Points": [{"co": {"X": 1, "Y": 1}, "interpolation": 2}]}, "shear_x": {"Points": [{"co": {"X": 1, "Y": 0}, "interpolation": 2}]}, "shear_y": {"Points": [{"co": {"X": 1, "Y": 0}, "interpolation": 2}]}, "start": 13.666666666666666, "time": {"Points": [{"co": {"X": 387, "Y": 387}, "interpolation": 1}, {"co": {"X": 607, "Y": 497}, "interpolation": 1}]}, "volume": {"Points": [{"co": {"X": 1, "Y": 1}, "interpolation": 2}]}, "wave_color": {"alpha": {"Points": [{"co": {"X": 1, "Y": 255}, "handle_left": {"X": 0.5, "Y": 1}, "handle_right": {"X": 0.5, "Y": 0}, "handle_type": 0, "interpolation": 0}]}, "blue": {"Points": [{"co": {"X": 1, "Y": 255}, "handle_left": {"X": 0.5, "Y": 1}, "handle_right": {"X": 0.5, "Y": 0}, "handle_type": 0, "interpolation": 0}]}, "green": {"Points": [{"co": {"X": 1, "Y": 123}, "handle_left": {"X": 0.5, "Y": 1}, "handle_right": {"X": 0.5, "Y": 0}, "handle_type": 0, "interpolation": 0}]}, "red": {"Points": [{"co": {"X": 1, "Y": 0}, "handle_left": {"X": 0.5, "Y": 1}, "handle_right": {"X": 0.5, "Y": 0}, "handle_type": 0, "interpolation": 0}]}}, "waveform": false, "file_id": "Y66OCRHISG", "title": "IMG_3103.MOV", "image": "../../../.openshot_qt/thumbnail/MFHOLEWIIM-644.png", "id": "MFHOLEWIIM"}, {"alpha": {"Points": [{"co": {"X": 1, "Y": 1}, "interpolation": 2}]}, "anchor": 0, "channel_filter": {"Points": [{"co": {"X": 1, "Y": -1}, "interpolation": 2}]}, "channel_mapping": {"Points": [{"co": {"X": 1, "Y": -1}, "interpolation": 2}]}, "crop_height": {"Points": [{"co": {"X": 1, "Y": -1}, "interpolation": 2}]}, "crop_width": {"Points": [{"co": {"X": 1, "Y": -1}, "interpolation": 2}]}, "crop_x": {"Points": [{"co": {"X": 1, "Y": 0}, "interpolation": 2}]}, "crop_y": {"Points": [{"co": {"X": 1, "Y": 0}, "interpolation": 2}]}, "display": 0, "duration": 43.68000030517578, "effects": [], "end": 37.06666666666667, "gravity": 4, "has_audio": {"Points": [{"co": {"X": 1, "Y": 0}, "interpolation": 2}]}, "has_video": {"Points": [{"co": {"X": 1, "Y": -1}, "interpolation": 2}]}, "layer": 4, "location_x": {"Points": [{"co": {"X": 1, "Y": 0}, "interpolation": 2}]}, "location_y": {"Points": [{"co": {"X": 1, "Y": 0}, "interpolation": 2}]}, "mixing": 0, "perspective_c1_x": {"Points": [{"co": {"X": 1, "Y": -1}, "interpolation": 2}]}, "perspective_c1_y": {"Points": [{"co": {"X": 1, "Y": -1}, "interpolation": 2}]}, "perspective_c2_x": {"Points": [{"co": {"X": 1, "Y": -1}, "interpolation": 2}]}, "perspective_c2_y": {"Points": [{"co": {"X": 1, "Y": -1}, "interpolation": 2}]}, "perspective_c3_x": {"Points": [{"co": {"X": 1, "Y": -1}, "interpolation": 2}]}, "perspective_c3_y": {"Points": [{"co": {"X": 1, "Y": -1}, "interpolation": 2}]}, "perspective_c4_x": {"Points": [{"co": {"X": 1, "Y": -1}, "interpolation": 2}]}, "perspective_c4_y": {"Points": [{"co": {"X": 1, "Y": -1}, "interpolation": 2}]}, "position": 54.666666666666664, "reader": {"acodec": "pcm_s16le", "audio_bit_rate": 1536000, "audio_stream_index": 1, "audio_timebase": {"den": 48000, "num": 1}, "channel_layout": 3, "channels": 2, "display_ratio": {"den": 9, "num": 16}, "duration": 43.68000030517578, "file_size": "137423256", "fps": {"den": 1, "num": 50}, "has_audio": true, "has_single_image": false, "has_video": true, "height": 720, "interlaced_frame": false, "metadata": {"com.apple.quicktime.make": "Canon", "com.apple.quicktime.model": "Canon EOS 5D Mark III", "com.apple.quicktime.rating.user": "0.000000", "compatible_brands": "qt  CAEP", "creation_time": "2022-02-27T13:37:44.000000Z", "language": "eng", "major_brand": "qt", "minor_version": "537331968", "timecode": "03:39:29:00"}, "path": "IMG_3103.MOV", "pixel_format": 12, "pixel_ratio": {"den": 1, "num": 1}, "sample_rate": 48000, "top_field_first": true, "type": "FFmpegReader", "vcodec": "h264", "video_bit_rate": 3146136, "video_length": "2184", "video_stream_index": 0, "video_timebase": {"den": 50000, "num": 1}, "width": 1280}, "rotation": {"Points": [{"co": {"X": 1, "Y": 0}, "interpolation": 2}]}, "scale": 1, "scale_x": {"Points": [{"co": {"X": 1, "Y": 1}, "interpolation": 2}]}, "scale_y": {"Points": [{"co": {"X": 1, "Y": 1}, "interpolation": 2}]}, "shear_x": {"Points": [{"co": {"X": 1, "Y": 0}, "interpolation": 2}]}, "shear_y": {"Points": [{"co": {"X": 1, "Y": 0}, "interpolation": 2}]}, "start": 34, "time": {"Points": [{"co": {"X": 1, "Y": 1}, "interpolation": 2}]}, "volume": {"Points": [{"co": {"X": 1, "Y": 1}, "interpolation": 2}]}, "wave_color": {"alpha": {"Points": [{"co": {"X": 1, "Y": 255}, "handle_left": {"X": 0.5, "Y": 1}, "handle_right": {"X": 0.5, "Y": 0}, "handle_type": 0, "interpolation": 0}]}, "blue": {"Points": [{"co": {"X": 1, "Y": 255}, "handle_left": {"X": 0.5, "Y": 1}, "handle_right": {"X": 0.5, "Y": 0}, "handle_type": 0, "interpolation": 0}]}, "green": {"Points": [{"co": {"X": 1, "Y": 123}, "handle_left": {"X": 0.5, "Y": 1}, "handle_right": {"X": 0.5, "Y": 0}, "handle_type": 0, "interpolation": 0}]}, "red": {"Points": [{"co": {"X": 1, "Y": 0}, "handle_left": {"X": 0.5, "Y": 1}, "handle_right": {"X": 0.5, "Y": 0}, "handle_type": 0, "interpolation": 0}]}}, "waveform": false, "file_id": "Y66OCRHISG", "title": "IMG_3103.MOV", "image": "../../../.openshot_qt/thumbnail/CQJCVBCVZK-831.png", "id": "CQJCVBCVZK"}, {"alpha": {"Points": [{"co": {"X": 1, "Y": 1}, "interpolation": 2}]}, "anchor": 0, "channel_filter": {"Points": [{"co": {"X": 1, "Y": -1}, "interpolation": 2}]}, "channel_mapping": {"Points": [{"co": {"X": 1, "Y": -1}, "interpolation": 2}]}, "crop_height": {"Points": [{"co": {"X": 1, "Y": -1}, "interpolation": 2}]}, "crop_width": {"Points": [{"co": {"X": 1, "Y": -1}, "interpolation": 2}]}, "crop_x": {"Points": [{"co": {"X": 1, "Y": 0}, "interpolation": 2}]}, "crop_y": {"Points": [{"co": {"X": 1, "Y": 0}, "interpolation": 2}]}, "display": 0, "duration": 16.68000030517578, "effects": [], "end": 9.966666666666667, "gravity": 4, "has_audio": {"Points": [{"co": {"X": 1, "Y": 0}, "interpolation": 2}]}, "has_video": {"Points": [{"co": {"X": 1, "Y": -1}, "interpolation": 2}]}, "id": "HX6BQL5OH3", "layer": 4, "location_x": {"Points": [{"co": {"X": 1, "Y": 0}, "interpolation": 2}]}, "location_y": {"Points": [{"co": {"X": 1, "Y": 0}, "interpolation": 2}]}, "mixing": 0, "perspective_c1_x": {"Points": [{"co": {"X": 1, "Y": -1}, "interpolation": 2}]}, "perspective_c1_y": {"Points": [{"co": {"X": 1, "Y": -1}, "interpolation": 2}]}, "perspective_c2_x": {"Points": [{"co": {"X": 1, "Y": -1}, "interpolation": 2}]}, "perspective_c2_y": {"Points": [{"co": {"X": 1, "Y": -1}, "interpolation": 2}]}, "perspective_c3_x": {"Points": [{"co": {"X": 1, "Y": -1}, "interpolation": 2}]}, "perspective_c3_y": {"Points": [{"co": {"X": 1, "Y": -1}, "interpolation": 2}]}, "perspective_c4_x": {"Points": [{"co": {"X": 1, "Y": -1}, "interpolation": 2}]}, "perspective_c4_y": {"Points": [{"co": {"X": 1, "Y": -1}, "interpolation": 2}]}, "position": 36.266666666666666, "reader": {"acodec": "pcm_s16le", "audio_bit_rate": 1536000, "audio_stream_index": 1, "audio_timebase": {"den": 48000, "num": 1}, "channel_layout": 3, "channels": 2, "display_ratio": {"den": 9, "num": 16}, "duration": 16.68000030517578, "file_size": "57019648", "fps": {"den": 1, "num": 50}, "has_audio": true, "has_single_image": false, "has_video": true, "height": 720, "interlaced_frame": false, "metadata": {"com.apple.quicktime.make": "Canon", "com.apple.quicktime.model": "Canon EOS 5D Mark III", "com.apple.quicktime.rating.user": "0.000000", "compatible_brands": "qt  CAEP", "creation_time": "2022-02-27T14:21:08.000000Z", "language": "eng", "major_brand": "qt", "minor_version": "537331968", "timecode": "03:48:06:03"}, "path": "IMG_3135.MOV", "pixel_format": 12, "pixel_ratio": {"den": 1, "num": 1}, "sample_rate": 48000, "top_field_first": true, "type": "FFmpegReader", "vcodec": "h264", "video_bit_rate": 3418444, "video_length": "834", "video_stream_index": 0, "video_timebase": {"den": 50000, "num": 1}, "width": 1280}, "rotation": {"Points": [{"co": {"X": 1, "Y": 0}, "interpolation": 2}]}, "scale": 1, "scale_x": {"Points": [{"co": {"X": 1, "Y": 1}, "interpolation": 2}]}, "scale_y": {"Points": [{"co": {"X": 1, "Y": 1}, "interpolation": 2}]}, "shear_x": {"Points": [{"co": {"X": 1, "Y": 0}, "interpolation": 2}]}, "shear_y": {"Points": [{"co": {"X": 1, "Y": 0}, "interpolation": 2}]}, "start": 4.7, "time": {"Points": [{"co": {"X": 1, "Y": 1}, "interpolation": 2}]}, "volume": {"Points": [{"co": {"X": 1, "Y": 1}, "interpolation": 2}]}, "wave_color": {"alpha": {"Points": [{"co": {"X": 1, "Y": 255}, "handle_left": {"X": 0.5, "Y": 1}, "handle_right": {"X": 0.5, "Y": 0}, "handle_type": 0, "interpolation": 0}]}, "blue": {"Points": [{"co": {"X": 1, "Y": 255}, "handle_left": {"X": 0.5, "Y": 1}, "handle_right": {"X": 0.5, "Y": 0}, "handle_type": 0, "interpolation": 0}]}, "green": {"Points": [{"co": {"X": 1, "Y": 123}, "handle_left": {"X": 0.5, "Y": 1}, "handle_right": {"X": 0.5, "Y": 0}, "handle_type": 0, "interpolation": 0}]}, "red": {"Points": [{"co": {"X": 1, "Y": 0}, "handle_left": {"X": 0.5, "Y": 1}, "handle_right": {"X": 0.5, "Y": 0}, "handle_type": 0, "interpolation": 0}]}}, "waveform": false, "file_id": "1WWW15Z1J8", "title": "IMG_3135.MOV", "image": "../../../.openshot_qt/thumbnail/1WWW15Z1J8.png"}, {"alpha": {"Points": [{"co": {"X": 1, "Y": 1}, "interpolation": 2}]}, "anchor": 0, "channel_filter": {"Points": [{"co": {"X": 1, "Y": -1}, "interpolation": 2}]}, "channel_mapping": {"Points": [{"co": {"X": 1, "Y": -1}, "interpolation": 2}]}, "crop_height": {"Points": [{"co": {"X": 1, "Y": -1}, "interpolation": 2}]}, "crop_width": {"Points": [{"co": {"X": 1, "Y": -1}, "interpolation": 2}]}, "crop_x": {"Points": [{"co": {"X": 1, "Y": 0}, "interpolation": 2}]}, "crop_y": {"Points": [{"co": {"X": 1, "Y": 0}, "interpolation": 2}]}, "display": 0, "duration": 17.920000076293945, "effects": [], "end": 12.733333333333333, "gravity": 4, "has_audio": {"Points": [{"co": {"X": 1, "Y": 0}, "interpolation": 2}]}, "has_video": {"Points": [{"co": {"X": 1, "Y": -1}, "interpolation": 2}]}, "layer": 4, "location_x": {"Points": [{"co": {"X": 1, "Y": 0}, "interpolation": 2}]}, "location_y": {"Points": [{"co": {"X": 1, "Y": 0}, "interpolation": 2}]}, "mixing": 0, "perspective_c1_x": {"Points": [{"co": {"X": 1, "Y": -1}, "interpolation": 2}]}, "perspective_c1_y": {"Points": [{"co": {"X": 1, "Y": -1}, "interpolation": 2}]}, "perspective_c2_x": {"Points": [{"co": {"X": 1, "Y": -1}, "interpolation": 2}]}, "perspective_c2_y": {"Points": [{"co": {"X": 1, "Y": -1}, "interpolation": 2}]}, "perspective_c3_x": {"Points": [{"co": {"X": 1, "Y": -1}, "interpolation": 2}]}, "perspective_c3_y": {"Points": [{"co": {"X": 1, "Y": -1}, "interpolation": 2}]}, "perspective_c4_x": {"Points": [{"co": {"X": 1, "Y": -1}, "interpolation": 2}]}, "perspective_c4_y": {"Points": [{"co": {"X": 1, "Y": -1}, "interpolation": 2}]}, "position": 57.63333333333333, "reader": {"acodec": "pcm_s16le", "audio_bit_rate": 1536000, "audio_stream_index": 1, "audio_timebase": {"den": 48000, "num": 1}, "channel_layout": 3, "channels": 2, "display_ratio": {"den": 9, "num": 16}, "duration": 17.920000076293945, "file_size": "60158508", "fps": {"den": 1, "num": 50}, "has_audio": true, "has_single_image": false, "has_video": true, "height": 720, "interlaced_frame": false, "metadata": {"com.apple.quicktime.make": "Canon", "com.apple.quicktime.model": "Canon EOS 5D Mark III", "com.apple.quicktime.rating.user": "0.000000", "compatible_brands": "qt  CAEP", "creation_time": "2022-02-27T14:25:32.000000Z", "language": "eng", "major_brand": "qt", "minor_version": "537331968", "timecode": "03:48:47:21"}, "path": "IMG_3138.MOV", "pixel_format": 12, "pixel_ratio": {"den": 1, "num": 1}, "sample_rate": 48000, "top_field_first": true, "type": "FFmpegReader", "vcodec": "h264", "video_bit_rate": 3357059, "video_length": "896", "video_stream_index": 0, "video_timebase": {"den": 50000, "num": 1}, "width": 1280}, "rotation": {"Points": [{"co": {"X": 1, "Y": 0}, "interpolation": 2}]}, "scale": 1, "scale_x": {"Points": [{"co": {"X": 1, "Y": 1}, "interpolation": 2}]}, "scale_y": {"Points": [{"co": {"X": 1, "Y": 1}, "interpolation": 2}]}, "shear_x": {"Points": [{"co": {"X": 1, "Y": 0}, "interpolation": 2}]}, "shear_y": {"Points": [{"co": {"X": 1, "Y": 0}, "interpolation": 2}]}, "start": 9.666666666666666, "time": {"Points": [{"co": {"X": 1, "Y": 1}, "interpolation": 2}]}, "volume": {"Points": [{"co": {"X": 1, "Y": 1}, "interpolation": 2}]}, "wave_color": {"alpha": {"Points": [{"co": {"X": 1, "Y": 255}, "handle_left": {"X": 0.5, "Y": 1}, "handle_right": {"X": 0.5, "Y": 0}, "handle_type": 0, "interpolation": 0}]}, "blue": {"Points": [{"co": {"X": 1, "Y": 255}, "handle_left": {"X": 0.5, "Y": 1}, "handle_right": {"X": 0.5, "Y": 0}, "handle_type": 0, "interpolation": 0}]}, "green": {"Points": [{"co": {"X": 1, "Y": 123}, "handle_left": {"X": 0.5, "Y": 1}, "handle_right": {"X": 0.5, "Y": 0}, "handle_type": 0, "interpolation": 0}]}, "red": {"Points": [{"co": {"X": 1, "Y": 0}, "handle_left": {"X": 0.5, "Y": 1}, "handle_right": {"X": 0.5, "Y": 0}, "handle_type": 0, "interpolation": 0}]}}, "waveform": false, "file_id": "HZ1UEBOBX1", "title": "IMG_3138.MOV", "image": "../../../.openshot_qt/thumbnail/W1JZCMBKQ8-304.png", "id": "W1JZCMBKQ8"}, {"alpha": {"Points": [{"co": {"X": 1, "Y": 1}, "interpolation": 2}]}, "anchor": 0, "channel_filter": {"Points": [{"co": {"X": 1, "Y": -1}, "interpolation": 2}]}, "channel_mapping": {"Points": [{"co": {"X": 1, "Y": -1}, "interpolation": 2}]}, "crop_height": {"Points": [{"co": {"X": 1, "Y": -1}, "interpolation": 2}]}, "crop_width": {"Points": [{"co": {"X": 1, "Y": -1}, "interpolation": 2}]}, "crop_x": {"Points": [{"co": {"X": 1, "Y": 0}, "interpolation": 2}]}, "crop_y": {"Points": [{"co": {"X": 1, "Y": 0}, "interpolation": 2}]}, "display": 0, "duration": 17.959999084472656, "effects": [], "end": 8.266666666666667, "gravity": 4, "has_audio": {"Points": [{"co": {"X": 1, "Y": 0}, "interpolation": 2}]}, "has_video": {"Points": [{"co": {"X": 1, "Y": -1}, "interpolation": 2}]}, "layer": 4, "location_x": {"Points": [{"co": {"X": 1, "Y": 0}, "interpolation": 2}]}, "location_y": {"Points": [{"co": {"X": 1, "Y": 0}, "interpolation": 2}]}, "mixing": 0, "perspective_c1_x": {"Points": [{"co": {"X": 1, "Y": -1}, "interpolation": 2}]}, "perspective_c1_y": {"Points": [{"co": {"X": 1, "Y": -1}, "interpolation": 2}]}, "perspective_c2_x": {"Points": [{"co": {"X": 1, "Y": -1}, "interpolation": 2}]}, "perspective_c2_y": {"Points": [{"co": {"X": 1, "Y": -1}, "interpolation": 2}]}, "perspective_c3_x": {"Points": [{"co": {"X": 1, "Y": -1}, "interpolation": 2}]}, "perspective_c3_y": {"Points": [{"co": {"X": 1, "Y": -1}, "interpolation": 2}]}, "perspective_c4_x": {"Points": [{"co": {"X": 1, "Y": -1}, "interpolation": 2}]}, "perspective_c4_y": {"Points": [{"co": {"X": 1, "Y": -1}, "interpolation": 2}]}, "position": 60.666666666666664, "reader": {"acodec": "pcm_s16le", "audio_bit_rate": 1536000, "audio_stream_index": 1, "audio_timebase": {"den": 48000, "num": 1}, "channel_layout": 3, "channels": 2, "display_ratio": {"den": 9, "num": 16}, "duration": 17.959999084472656, "file_size": "52995188", "fps": {"den": 1, "num": 50}, "has_audio": true, "has_single_image": false, "has_video": true, "height": 720, "interlaced_frame": false, "metadata": {"com.apple.quicktime.make": "Canon", "com.apple.quicktime.model": "Canon EOS 5D Mark III", "com.apple.quicktime.rating.user": "0.000000", "compatible_brands": "qt  CAEP", "creation_time": "2022-02-27T14:27:03.000000Z", "language": "eng", "major_brand": "qt", "minor_version": "537331968", "timecode": "03:49:27:05"}, "path": "IMG_3142.MOV", "pixel_format": 12, "pixel_ratio": {"den": 1, "num": 1}, "sample_rate": 48000, "top_field_first": true, "type": "FFmpegReader", "vcodec": "h264", "video_bit_rate": 2950734, "video_length": "898", "video_stream_index": 0, "video_timebase": {"den": 50000, "num": 1}, "width": 1280}, "rotation": {"Points": [{"co": {"X": 1, "Y": 0}, "interpolation": 2}]}, "scale": 1, "scale_x": {"Points": [{"co": {"X": 1, "Y": 1}, "interpolation": 2}]}, "scale_y": {"Points": [{"co": {"X": 1, "Y": 1}, "interpolation": 2}]}, "shear_x": {"Points": [{"co": {"X": 1, "Y": 0}, "interpolation": 2}]}, "shear_y": {"Points": [{"co": {"X": 1, "Y": 0}, "interpolation": 2}]}, "start": 5.066666666666666, "time": {"Points": [{"co": {"X": 1, "Y": 1}, "interpolation": 2}]}, "volume": {"Points": [{"co": {"X": 1, "Y": 1}, "interpolation": 2}]}, "wave_color": {"alpha": {"Points": [{"co": {"X": 1, "Y": 255}, "handle_left": {"X": 0.5, "Y": 1}, "handle_right": {"X": 0.5, "Y": 0}, "handle_type": 0, "interpolation": 0}]}, "blue": {"Points": [{"co": {"X": 1, "Y": 255}, "handle_left": {"X": 0.5, "Y": 1}, "handle_right": {"X": 0.5, "Y": 0}, "handle_type": 0, "interpolation": 0}]}, "green": {"Points": [{"co": {"X": 1, "Y": 123}, "handle_left": {"X": 0.5, "Y": 1}, "handle_right": {"X": 0.5, "Y": 0}, "handle_type": 0, "interpolation": 0}]}, "red": {"Points": [{"co": {"X": 1, "Y": 0}, "handle_left": {"X": 0.5, "Y": 1}, "handle_right": {"X": 0.5, "Y": 0}, "handle_type": 0, "interpolation": 0}]}}, "waveform": false, "file_id": "MKYTBHIHX6", "title": "IMG_3142.MOV", "image": "../../../.openshot_qt/thumbnail/GYBZTH1KAP-219.png", "id": "GYBZTH1KAP"}, {"alpha": {"Points": [{"co": {"X": 1, "Y": 1}, "interpolation": 2}]}, "anchor": 0, "channel_filter": {"Points": [{"co": {"X": 1, "Y": -1}, "interpolation": 2}]}, "channel_mapping": {"Points": [{"co": {"X": 1, "Y": -1}, "interpolation": 2}]}, "crop_height": {"Points": [{"co": {"X": 1, "Y": -1}, "interpolation": 2}]}, "crop_width": {"Points": [{"co": {"X": 1, "Y": -1}, "interpolation": 2}]}, "crop_x": {"Points": [{"co": {"X": 1, "Y": 0}, "interpolation": 2}]}, "crop_y": {"Points": [{"co": {"X": 1, "Y": 0}, "interpolation": 2}]}, "display": 0, "duration": 24.0, "effects": [], "end": 7.8, "gravity": 4, "has_audio": {"Points": [{"co": {"X": 1, "Y": 0}, "interpolation": 2}]}, "has_video": {"Points": [{"co": {"X": 1, "Y": -1}, "interpolation": 2}]}, "layer": 4, "location_x": {"Points": [{"co": {"X": 1, "Y": 0}, "interpolation": 2}]}, "location_y": {"Points": [{"co": {"X": 1, "Y": 0}, "interpolation": 2}]}, "mixing": 0, "perspective_c1_x": {"Points": [{"co": {"X": 1, "Y": -1}, "interpolation": 2}]}, "perspective_c1_y": {"Points": [{"co": {"X": 1, "Y": -1}, "interpolation": 2}]}, "perspective_c2_x": {"Points": [{"co": {"X": 1, "Y": -1}, "interpolation": 2}]}, "perspective_c2_y": {"Points": [{"co": {"X": 1, "Y": -1}, "interpolation": 2}]}, "perspective_c3_x": {"Points": [{"co": {"X": 1, "Y": -1}, "interpolation": 2}]}, "perspective_c3_y": {"Points": [{"co": {"X": 1, "Y": -1}, "interpolation": 2}]}, "perspective_c4_x": {"Points": [{"co": {"X": 1, "Y": -1}, "interpolation": 2}]}, "perspective_c4_y": {"Points": [{"co": {"X": 1, "Y": -1}, "interpolation": 2}]}, "position": 63.766666666666666, "reader": {"acodec": "pcm_s16le", "audio_bit_rate": 1536000, "audio_stream_index": 1, "audio_timebase": {"den": 48000, "num": 1}, "channel_layout": 3, "channels": 2, "display_ratio": {"den": 9, "num": 16}, "duration": 24.0, "file_size": "81139212", "fps": {"den": 1, "num": 50}, "has_audio": true, "has_single_image": false, "has_video": true, "height": 720, "interlaced_frame": false, "metadata": {"com.apple.quicktime.make": "Canon", "com.apple.quicktime.model": "Canon EOS 5D Mark III", "com.apple.quicktime.rating.user": "0.000000", "compatible_brands": "qt  CAEP", "creation_time": "2022-02-27T14:30:47.000000Z", "language": "eng", "major_brand": "qt", "minor_version": "537331968", "timecode": "03:51:23:13"}, "path": "IMG_3148.MOV", "pixel_format": 12, "pixel_ratio": {"den": 1, "num": 1}, "sample_rate": 48000, "top_field_first": true, "type": "FFmpegReader", "vcodec": "h264", "video_bit_rate": 3380800, "video_length": "1200", "video_stream_index": 0, "video_timebase": {"den": 50000, "num": 1}, "width": 1280}, "rotation": {"Points": [{"co": {"X": 1, "Y": 0}, "interpolation": 2}]}, "scale": 1, "scale_x": {"Points": [{"co": {"X": 1, "Y": 1}, "interpolation": 2}]}, "scale_y": {"Points": [{"co": {"X": 1, "Y": 1}, "interpolation": 2}]}, "shear_x": {"Points": [{"co": {"X": 1, "Y": 0}, "interpolation": 2}]}, "shear_y": {"Points": [{"co": {"X": 1, "Y": 0}, "interpolation": 2}]}, "start": 3.7666666666666666, "time": {"Points": [{"co": {"X": 1, "Y": 1}, "interpolation": 2}]}, "volume": {"Points": [{"co": {"X": 1, "Y": 1}, "interpolation": 2}]}, "wave_color": {"alpha": {"Points": [{"co": {"X": 1, "Y": 255}, "handle_left": {"X": 0.5, "Y": 1}, "handle_right": {"X": 0.5, "Y": 0}, "handle_type": 0, "interpolation": 0}]}, "blue": {"Points": [{"co": {"X": 1, "Y": 255}, "handle_left": {"X": 0.5, "Y": 1}, "handle_right": {"X": 0.5, "Y": 0}, "handle_type": 0, "interpolation": 0}]}, "green": {"Points": [{"co": {"X": 1, "Y": 123}, "handle_left": {"X": 0.5, "Y": 1}, "handle_right": {"X": 0.5, "Y": 0}, "handle_type": 0, "interpolation": 0}]}, "red": {"Points": [{"co": {"X": 1, "Y": 0}, "handle_left": {"X": 0.5, "Y": 1}, "handle_right": {"X": 0.5, "Y": 0}, "handle_type": 0, "interpolation": 0}]}}, "waveform": false, "file_id": "XF7SCBZ832", "title": "IMG_3148.MOV", "image": "../../../.openshot_qt/thumbnail/H1KWGZT4W9-134.png", "id": "H1KWGZT4W9"}, {"alpha": {"Points": [{"co": {"X": 1, "Y": 1}, "interpolation": 2}]}, "anchor": 0, "channel_filter": {"Points": [{"co": {"X": 1, "Y": -1}, "interpolation": 2}]}, "channel_mapping": {"Points": [{"co": {"X": 1, "Y": -1}, "interpolation": 2}]}, "crop_height": {"Points": [{"co": {"X": 1, "Y": -1}, "interpolation": 2}]}, "crop_width": {"Points": [{"co": {"X": 1, "Y": -1}, "interpolation": 2}]}, "crop_x": {"Points": [{"co": {"X": 1, "Y": 0}, "interpolation": 2}]}, "crop_y": {"Points": [{"co": {"X": 1, "Y": 0}, "interpolation": 2}]}, "display": 0, "duration": 9.640000343322754, "effects": [], "end": 4.933333333333334, "gravity": 4, "has_audio": {"Points": [{"co": {"X": 1, "Y": 0}, "interpolation": 2}]}, "has_video": {"Points": [{"co": {"X": 1, "Y": -1}, "interpolation": 2}]}, "id": "EN6EA6W1VG", "layer": 4, "location_x": {"Points": [{"co": {"X": 1, "Y": 0}, "interpolation": 2}]}, "location_y": {"Points": [{"co": {"X": 1, "Y": 0}, "interpolation": 2}]}, "mixing": 0, "perspective_c1_x": {"Points": [{"co": {"X": 1, "Y": -1}, "interpolation": 2}]}, "perspective_c1_y": {"Points": [{"co": {"X": 1, "Y": -1}, "interpolation": 2}]}, "perspective_c2_x": {"Points": [{"co": {"X": 1, "Y": -1}, "interpolation": 2}]}, "perspective_c2_y": {"Points": [{"co": {"X": 1, "Y": -1}, "interpolation": 2}]}, "perspective_c3_x": {"Points": [{"co": {"X": 1, "Y": -1}, "interpolation": 2}]}, "perspective_c3_y": {"Points": [{"co": {"X": 1, "Y": -1}, "interpolation": 2}]}, "perspective_c4_x": {"Points": [{"co": {"X": 1, "Y": -1}, "interpolation": 2}]}, "perspective_c4_y": {"Points": [{"co": {"X": 1, "Y": -1}, "interpolation": 2}]}, "position": 67.8, "reader": {"acodec": "pcm_s16le", "audio_bit_rate": 1536000, "audio_stream_index": 1, "audio_timebase": {"den": 48000, "num": 1}, "channel_layout": 3, "channels": 2, "display_ratio": {"den": 9, "num": 16}, "duration": 9.640000343322754, "file_size": "32265824", "fps": {"den": 1, "num": 50}, "has_audio": true, "has_single_image": false, "has_video": true, "height": 720, "interlaced_frame": false, "metadata": {"com.apple.quicktime.make": "Canon", "com.apple.quicktime.model": "Canon EOS 5D Mark III", "com.apple.quicktime.rating.user": "0.000000", "compatible_brands": "qt  CAEP", "creation_time": "2022-02-27T15:18:00.000000Z", "language": "eng", "major_brand": "qt", "minor_version": "537331968", "timecode": "03:56:34:07"}, "path": "IMG_3172.MOV", "pixel_format": 12, "pixel_ratio": {"den": 1, "num": 1}, "sample_rate": 48000, "top_field_first": true, "type": "FFmpegReader", "vcodec": "h264", "video_bit_rate": 3347077, "video_length": "482", "video_stream_index": 0, "video_timebase": {"den": 50000, "num": 1}, "width": 1280}, "rotation": {"Points": [{"co": {"X": 1, "Y": 0}, "interpolation": 2}]}, "scale": 1, "scale_x": {"Points": [{"co": {"X": 1, "Y": 1}, "interpolation": 2}]}, "scale_y": {"Points": [{"co": {"X": 1, "Y": 1}, "interpolation": 2}]}, "shear_x": {"Points": [{"co": {"X": 1, "Y": 0}, "interpolation": 2}]}, "shear_y": {"Points": [{"co": {"X": 1, "Y": 0}, "interpolation": 2}]}, "start": 2.8, "time": {"Points": [{"co": {"X": 1, "Y": 1}, "interpolation": 2}]}, "volume": {"Points": [{"co": {"X": 1, "Y": 1}, "interpolation": 2}]}, "wave_color": {"alpha": {"Points": [{"co": {"X": 1, "Y": 255}, "handle_left": {"X": 0.5, "Y": 1}, "handle_right": {"X": 0.5, "Y": 0}, "handle_type": 0, "interpolation": 0}]}, "blue": {"Points": [{"co": {"X": 1, "Y": 255}, "handle_left": {"X": 0.5, "Y": 1}, "handle_right": {"X": 0.5, "Y": 0}, "handle_type": 0, "interpolation": 0}]}, "green": {"Points": [{"co": {"X": 1, "Y": 123}, "handle_left": {"X": 0.5, "Y": 1}, "handle_right": {"X": 0.5, "Y": 0}, "handle_type": 0, "interpolation": 0}]}, "red": {"Points": [{"co": {"X": 1, "Y": 0}, "handle_left": {"X": 0.5, "Y": 1}, "handle_right": {"X": 0.5, "Y": 0}, "handle_type": 0, "interpolation": 0}]}}, "waveform": false, "file_id": "SG7D5AQ9RD", "title": "IMG_3172.MOV", "image": "../../../.openshot_qt/thumbnail/SG7D5AQ9RD.png"}, {"alpha": {"Points": [{"co": {"X": 1, "Y": 1}, "interpolation": 2}]}, "anchor": 0, "channel_filter": {"Points": [{"co": {"X": 1, "Y": -1}, "interpolation": 2}]}, "channel_mapping": {"Points": [{"co": {"X": 1, "Y": -1}, "interpolation": 2}]}, "crop_height": {"Points": [{"co": {"X": 1, "Y": -1}, "interpolation": 2}]}, "crop_width": {"Points": [{"co": {"X": 1, "Y": -1}, "interpolation": 2}]}, "crop_x": {"Points": [{"co": {"X": 1, "Y": 0}, "interpolation": 2}]}, "crop_y": {"Points": [{"co": {"X": 1, "Y": 0}, "interpolation": 2}]}, "display": 0, "duration": 16.600000381469727, "effects": [], "end": 14.4, "gravity": 4, "has_audio": {"Points": [{"co": {"X": 1, "Y": 0}, "interpolation": 2}]}, "has_video": {"Points": [{"co": {"X": 1, "Y": -1}, "interpolation": 2}]}, "id": "5SYPU4Q50A", "layer": 4, "location_x": {"Points": [{"co": {"X": 1, "Y": 0}, "interpolation": 2}]}, "location_y": {"Points": [{"co": {"X": 1, "Y": 0}, "interpolation": 2}]}, "mixing": 0, "perspective_c1_x": {"Points": [{"co": {"X": 1, "Y": -1}, "interpolation": 2}]}, "perspective_c1_y": {"Points": [{"co": {"X": 1, "Y": -1}, "interpolation": 2}]}, "perspective_c2_x": {"Points": [{"co": {"X": 1, "Y": -1}, "interpolation": 2}]}, "perspective_c2_y": {"Points": [{"co": {"X": 1, "Y": -1}, "interpolation": 2}]}, "perspective_c3_x": {"Points": [{"co": {"X": 1, "Y": -1}, "interpolation": 2}]}, "perspective_c3_y": {"Points": [{"co": {"X": 1, "Y": -1}, "interpolation": 2}]}, "perspective_c4_x": {"Points": [{"co": {"X": 1, "Y": -1}, "interpolation": 2}]}, "perspective_c4_y": {"Points": [{"co": {"X": 1, "Y": -1}, "interpolation": 2}]}, "position": 69.9, "reader": {"acodec": "pcm_s16le", "audio_bit_rate": 1536000, "audio_stream_index": 1, "audio_timebase": {"den": 48000, "num": 1}, "channel_layout": 3, "channels": 2, "display_ratio": {"den": 9, "num": 16}, "duration": 16.600000381469727, "file_size": "56759100", "fps": {"den": 1, "num": 50}, "has_audio": true, "has_single_image": false, "has_video": true, "height": 720, "interlaced_frame": false, "metadata": {"com.apple.quicktime.make": "Canon", "com.apple.quicktime.model": "Canon EOS 5D Mark III", "com.apple.quicktime.rating.user": "0.000000", "compatible_brands": "qt  CAEP", "creation_time": "2022-02-27T15:18:54.000000Z", "language": "eng", "major_brand": "qt", "minor_version": "537331968", "timecode": "03:56:52:15"}, "path": "IMG_3174.MOV", "pixel_format": 12, "pixel_ratio": {"den": 1, "num": 1}, "sample_rate": 48000, "top_field_first": true, "type": "FFmpegReader", "vcodec": "h264", "video_bit_rate": 3419222, "video_length": "830", "video_stream_index": 0, "video_timebase": {"den": 50000, "num": 1}, "width": 1280}, "rotation": {"Points": [{"co": {"X": 1, "Y": 180}, "handle_left": {"X": 0.5, "Y": 1}, "handle_right": {"X": 0.5, "Y": 0}, "handle_type": 0, "interpolation": 0}]}, "scale": 1, "scale_x": {"Points": [{"co": {"X": 1, "Y": 1}, "interpolation": 2}]}, "scale_y": {"Points": [{"co": {"X": 1, "Y": 1}, "interpolation": 2}]}, "shear_x": {"Points": [{"co": {"X": 1, "Y": 0}, "interpolation": 2}]}, "shear_y": {"Points": [{"co": {"X": 1, "Y": 0}, "interpolation": 2}]}, "start": 10.1, "time": {"Points": [{"co": {"X": 1, "Y": 1}, "interpolation": 2}]}, "volume": {"Points": [{"co": {"X": 1, "Y": 1}, "interpolation": 2}]}, "wave_color": {"alpha": {"Points": [{"co": {"X": 1, "Y": 255}, "handle_left": {"X": 0.5, "Y": 1}, "handle_right": {"X": 0.5, "Y": 0}, "handle_type": 0, "interpolation": 0}]}, "blue": {"Points": [{"co": {"X": 1, "Y": 255}, "handle_left": {"X": 0.5, "Y": 1}, "handle_right": {"X": 0.5, "Y": 0}, "handle_type": 0, "interpolation": 0}]}, "green": {"Points": [{"co": {"X": 1, "Y": 123}, "handle_left": {"X": 0.5, "Y": 1}, "handle_right": {"X": 0.5, "Y": 0}, "handle_type": 0, "interpolation": 0}]}, "red": {"Points": [{"co": {"X": 1, "Y": 0}, "handle_left": {"X": 0.5, "Y": 1}, "handle_right": {"X": 0.5, "Y": 0}, "handle_type": 0, "interpolation": 0}]}}, "waveform": false, "file_id": "1ZTQITZ8CE", "title": "IMG_3174.MOV", "image": "../../../.openshot_qt/thumbnail/1ZTQITZ8CE.png"}, {"alpha": {"Points": [{"co": {"X": 1, "Y": 1}, "interpolation": 2}]}, "anchor": 0, "channel_filter": {"Points": [{"co": {"X": 1, "Y": -1}, "interpolation": 2}]}, "channel_mapping": {"Points": [{"co": {"X": 1, "Y": -1}, "interpolation": 2}]}, "crop_height": {"Points": [{"co": {"X": 1, "Y": -1}, "interpolation": 2}]}, "crop_width": {"Points": [{"co": {"X": 1, "Y": -1}, "interpolation": 2}]}, "crop_x": {"Points": [{"co": {"X": 1, "Y": 0}, "interpolation": 2}]}, "crop_y": {"Points": [{"co": {"X": 1, "Y": 0}, "interpolation": 2}]}, "display": 0, "duration": 8.079999923706055, "effects": [], "end": 6.866666666666666, "gravity": 4, "has_audio": {"Points": [{"co": {"X": 1, "Y": 0}, "interpolation": 2}]}, "has_video": {"Points": [{"co": {"X": 1, "Y": -1}, "interpolation": 2}]}, "id": "4S0Y9TLC20", "layer": 4, "location_x": {"Points": [{"co": {"X": 1, "Y": 0}, "interpolation": 2}]}, "location_y": {"Points": [{"co": {"X": 1, "Y": 0}, "interpolation": 2}]}, "mixing": 0, "perspective_c1_x": {"Points": [{"co": {"X": 1, "Y": -1}, "interpolation": 2}]}, "perspective_c1_y": {"Points": [{"co": {"X": 1, "Y": -1}, "interpolation": 2}]}, "perspective_c2_x": {"Points": [{"co": {"X": 1, "Y": -1}, "interpolation": 2}]}, "perspective_c2_y": {"Points": [{"co": {"X": 1, "Y": -1}, "interpolation": 2}]}, "perspective_c3_x": {"Points": [{"co": {"X": 1, "Y": -1}, "interpolation": 2}]}, "perspective_c3_y": {"Points": [{"co": {"X": 1, "Y": -1}, "interpolation": 2}]}, "perspective_c4_x": {"Points": [{"co": {"X": 1, "Y": -1}, "interpolation": 2}]}, "perspective_c4_y": {"Points": [{"co": {"X": 1, "Y": -1}, "interpolation": 2}]}, "position": 74.16666666666667, "reader": {"acodec": "pcm_s16le", "audio_bit_rate": 1536000, "audio_stream_index": 1, "audio_timebase": {"den": 48000, "num": 1}, "channel_layout": 3, "channels": 2, "display_ratio": {"den": 9, "num": 16}, "duration": 8.079999923706055, "file_size": "27898032", "fps": {"den": 1, "num": 50}, "has_audio": true, "has_single_image": false, "has_video": true, "height": 720, "interlaced_frame": false, "metadata": {"com.apple.quicktime.make": "Canon", "com.apple.quicktime.model": "Canon EOS 5D Mark III", "com.apple.quicktime.rating.user": "0.000000", "compatible_brands": "qt  CAEP", "creation_time": "2022-02-27T15:21:04.000000Z", "language": "eng", "major_brand": "qt", "minor_version": "537331968", "timecode": "03:57:09:05"}, "path": "IMG_3175.MOV", "pixel_format": 12, "pixel_ratio": {"den": 1, "num": 1}, "sample_rate": 48000, "top_field_first": true, "type": "FFmpegReader", "vcodec": "h264", "video_bit_rate": 3452726, "video_length": "404", "video_stream_index": 0, "video_timebase": {"den": 50000, "num": 1}, "width": 1280}, "rotation": {"Points": [{"co": {"X": 1, "Y": 0}, "interpolation": 2}]}, "scale": 1, "scale_x": {"Points": [{"co": {"X": 1, "Y": 1}, "interpolation": 2}]}, "scale_y": {"Points": [{"co": {"X": 1, "Y": 1}, "interpolation": 2}]}, "shear_x": {"Points": [{"co": {"X": 1, "Y": 0}, "interpolation": 2}]}, "shear_y": {"Points": [{"co": {"X": 1, "Y": 0}, "interpolation": 2}]}, "start": 2.6, "time": {"Points": [{"co": {"X": 1, "Y": 1}, "interpolation": 2}]}, "volume": {"Points": [{"co": {"X": 1, "Y": 1}, "interpolation": 2}]}, "wave_color": {"alpha": {"Points": [{"co": {"X": 1, "Y": 255}, "handle_left": {"X": 0.5, "Y": 1}, "handle_right": {"X": 0.5, "Y": 0}, "handle_type": 0, "interpolation": 0}]}, "blue": {"Points": [{"co": {"X": 1, "Y": 255}, "handle_left": {"X": 0.5, "Y": 1}, "handle_right": {"X": 0.5, "Y": 0}, "handle_type": 0, "interpolation": 0}]}, "green": {"Points": [{"co": {"X": 1, "Y": 123}, "handle_left": {"X": 0.5, "Y": 1}, "handle_right": {"X": 0.5, "Y": 0}, "handle_type": 0, "interpolation": 0}]}, "red": {"Points": [{"co": {"X": 1, "Y": 0}, "handle_left": {"X": 0.5, "Y": 1}, "handle_right": {"X": 0.5, "Y": 0}, "handle_type": 0, "interpolation": 0}]}}, "waveform": false, "file_id": "4HUL4ZDZLH", "title": "IMG_3175.MOV", "image": "../../../.openshot_qt/thumbnail/4HUL4ZDZLH.png"}, {"alpha": {"Points": [{"co": {"X": 1, "Y": 1}, "interpolation": 2}]}, "anchor": 0, "channel_filter": {"Points": [{"co": {"X": 1, "Y": -1}, "interpolation": 2}]}, "channel_mapping": {"Points": [{"co": {"X": 1, "Y": -1}, "interpolation": 2}]}, "crop_height": {"Points": [{"co": {"X": 1, "Y": -1}, "interpolation": 2}]}, "crop_width": {"Points": [{"co": {"X": 1, "Y": -1}, "interpolation": 2}]}, "crop_x": {"Points": [{"co": {"X": 1, "Y": 0}, "interpolation": 2}]}, "crop_y": {"Points": [{"co": {"X": 1, "Y": 0}, "interpolation": 2}]}, "display": 0, "duration": 16.639999389648438, "effects": [], "end": 8.566666666666666, "gravity": 4, "has_audio": {"Points": [{"co": {"X": 1, "Y": 0}, "interpolation": 2}]}, "has_video": {"Points": [{"co": {"X": 1, "Y": -1}, "interpolation": 2}]}, "id": "IK5UHQ2SCJ", "layer": 4, "location_x": {"Points": [{"co": {"X": 1, "Y": 0}, "interpolation": 2}]}, "location_y": {"Points": [{"co": {"X": 1, "Y": 0}, "interpolation": 2}]}, "mixing": 0, "perspective_c1_x": {"Points": [{"co": {"X": 1, "Y": -1}, "interpolation": 2}]}, "perspective_c1_y": {"Points": [{"co": {"X": 1, "Y": -1}, "interpolation": 2}]}, "perspective_c2_x": {"Points": [{"co": {"X": 1, "Y": -1}, "interpolation": 2}]}, "perspective_c2_y": {"Points": [{"co": {"X": 1, "Y": -1}, "interpolation": 2}]}, "perspective_c3_x": {"Points": [{"co": {"X": 1, "Y": -1}, "interpolation": 2}]}, "perspective_c3_y": {"Points": [{"co": {"X": 1, "Y": -1}, "interpolation": 2}]}, "perspective_c4_x": {"Points": [{"co": {"X": 1, "Y": -1}, "interpolation": 2}]}, "perspective_c4_y": {"Points": [{"co": {"X": 1, "Y": -1}, "interpolation": 2}]}, "position": 78.6, "reader": {"acodec": "pcm_s16le", "audio_bit_rate": 1536000, "audio_stream_index": 1, "audio_timebase": {"den": 48000, "num": 1}, "channel_layout": 3, "channels": 2, "display_ratio": {"den": 9, "num": 16}, "duration": 16.639999389648438, "file_size": "55883544", "fps": {"den": 1, "num": 50}, "has_audio": true, "has_single_image": false, "has_video": true, "height": 720, "interlaced_frame": false, "metadata": {"com.apple.quicktime.make": "Canon", "com.apple.quicktime.model": "Canon EOS 5D Mark III", "com.apple.quicktime.rating.user": "0.000000", "compatible_brands": "qt  CAEP", "creation_time": "2022-02-27T15:32:23.000000Z", "language": "eng", "major_brand": "qt", "minor_version": "537331968", "timecode": "04:00:07:07"}, "path": "IMG_3193.MOV", "pixel_format": 12, "pixel_ratio": {"den": 1, "num": 1}, "sample_rate": 48000, "top_field_first": true, "type": "FFmpegReader", "vcodec": "h264", "video_bit_rate": 3358386, "video_length": "832", "video_stream_index": 0, "video_timebase": {"den": 50000, "num": 1}, "width": 1280}, "rotation": {"Points": [{"co": {"X": 1, "Y": 0}, "interpolation": 2}]}, "scale": 1, "scale_x": {"Points": [{"co": {"X": 1, "Y": 1}, "interpolation": 2}]}, "scale_y": {"Points": [{"co": {"X": 1, "Y": 1}, "interpolation": 2}]}, "shear_x": {"Points": [{"co": {"X": 1, "Y": 0}, "interpolation": 2}]}, "shear_y": {"Points": [{"co": {"X": 1, "Y": 0}, "interpolation": 2}]}, "start": 3.8666666666666667, "time": {"Points": [{"co": {"X": 1, "Y": 1}, "interpolation": 2}]}, "volume": {"Points": [{"co": {"X": 1, "Y": 1}, "interpolation": 2}]}, "wave_color": {"alpha": {"Points": [{"co": {"X": 1, "Y": 255}, "handle_left": {"X": 0.5, "Y": 1}, "handle_right": {"X": 0.5, "Y": 0}, "handle_type": 0, "interpolation": 0}]}, "blue": {"Points": [{"co": {"X": 1, "Y": 255}, "handle_left": {"X": 0.5, "Y": 1}, "handle_right": {"X": 0.5, "Y": 0}, "handle_type": 0, "interpolation": 0}]}, "green": {"Points": [{"co": {"X": 1, "Y": 123}, "handle_left": {"X": 0.5, "Y": 1}, "handle_right": {"X": 0.5, "Y": 0}, "handle_type": 0, "interpolation": 0}]}, "red": {"Points": [{"co": {"X": 1, "Y": 0}, "handle_left": {"X": 0.5, "Y": 1}, "handle_right": {"X": 0.5, "Y": 0}, "handle_type": 0, "interpolation": 0}]}}, "waveform": false, "file_id": "UQYH58PEZ2", "title": "IMG_3193.MOV", "image": "../../../.openshot_qt/thumbnail/IK5UHQ2SCJ-194.png"}, {"alpha": {"Points": [{"co": {"X": 1, "Y": 1}, "interpolation": 2}]}, "anchor": 0, "channel_filter": {"Points": [{"co": {"X": 1, "Y": -1}, "interpolation": 2}]}, "channel_mapping": {"Points": [{"co": {"X": 1, "Y": -1}, "interpolation": 2}]}, "crop_height": {"Points": [{"co": {"X": 1, "Y": -1}, "interpolation": 2}]}, "crop_width": {"Points": [{"co": {"X": 1, "Y": -1}, "interpolation": 2}]}, "crop_x": {"Points": [{"co": {"X": 1, "Y": 0}, "interpolation": 2}]}, "crop_y": {"Points": [{"co": {"X": 1, "Y": 0}, "interpolation": 2}]}, "display": 0, "duration": 16.639999389648438, "effects": [], "end": 13.933333333333334, "gravity": 4, "has_audio": {"Points": [{"co": {"X": 1, "Y": 0}, "interpolation": 2}]}, "has_video": {"Points": [{"co": {"X": 1, "Y": -1}, "interpolation": 2}]}, "layer": 4, "location_x": {"Points": [{"co": {"X": 1, "Y": 0}, "interpolation": 2}]}, "location_y": {"Points": [{"co": {"X": 1, "Y": 0}, "interpolation": 2}]}, "mixing": 0, "perspective_c1_x": {"Points": [{"co": {"X": 1, "Y": -1}, "interpolation": 2}]}, "perspective_c1_y": {"Points": [{"co": {"X": 1, "Y": -1}, "interpolation": 2}]}, "perspective_c2_x": {"Points": [{"co": {"X": 1, "Y": -1}, "interpolation": 2}]}, "perspective_c2_y": {"Points": [{"co": {"X": 1, "Y": -1}, "interpolation": 2}]}, "perspective_c3_x": {"Points": [{"co": {"X": 1, "Y": -1}, "interpolation": 2}]}, "perspective_c3_y": {"Points": [{"co": {"X": 1, "Y": -1}, "interpolation": 2}]}, "perspective_c4_x": {"Points": [{"co": {"X": 1, "Y": -1}, "interpolation": 2}]}, "perspective_c4_y": {"Points": [{"co": {"X": 1, "Y": -1}, "interpolation": 2}]}, "position": 83.33333333333333, "reader": {"acodec": "pcm_s16le", "audio_bit_rate": 1536000, "audio_stream_index": 1, "audio_timebase": {"den": 48000, "num": 1}, "channel_layout": 3, "channels": 2, "display_ratio": {"den": 9, "num": 16}, "duration": 16.639999389648438, "file_size": "55883544", "fps": {"den": 1, "num": 50}, "has_audio": true, "has_single_image": false, "has_video": true, "height": 720, "interlaced_frame": false, "metadata": {"com.apple.quicktime.make": "Canon", "com.apple.quicktime.model": "Canon EOS 5D Mark III", "com.apple.quicktime.rating.user": "0.000000", "compatible_brands": "qt  CAEP", "creation_time": "2022-02-27T15:32:23.000000Z", "language": "eng", "major_brand": "qt", "minor_version": "537331968", "timecode": "04:00:07:07"}, "path": "IMG_3193.MOV", "pixel_format": 12, "pixel_ratio": {"den": 1, "num": 1}, "sample_rate": 48000, "top_field_first": true, "type": "FFmpegReader", "vcodec": "h264", "video_bit_rate": 3358386, "video_length": "832", "video_stream_index": 0, "video_timebase": {"den": 50000, "num": 1}, "width": 1280}, "rotation": {"Points": [{"co": {"X": 1, "Y": 0}, "interpolation": 2}]}, "scale": 1, "scale_x": {"Points": [{"co": {"X": 1, "Y": 1}, "interpolation": 2}]}, "scale_y": {"Points": [{"co": {"X": 1, "Y": 1}, "interpolation": 2}]}, "shear_x": {"Points": [{"co": {"X": 1, "Y": 0}, "interpolation": 2}]}, "shear_y": {"Points": [{"co": {"X": 1, "Y": 0}, "interpolation": 2}]}, "start": 11.033333333333333, "time": {"Points": [{"co": {"X": 1, "Y": 1}, "interpolation": 2}]}, "volume": {"Points": [{"co": {"X": 1, "Y": 1}, "interpolation": 2}]}, "wave_color": {"alpha": {"Points": [{"co": {"X": 1, "Y": 255}, "handle_left": {"X": 0.5, "Y": 1}, "handle_right": {"X": 0.5, "Y": 0}, "handle_type": 0, "interpolation": 0}]}, "blue": {"Points": [{"co": {"X": 1, "Y": 255}, "handle_left": {"X": 0.5, "Y": 1}, "handle_right": {"X": 0.5, "Y": 0}, "handle_type": 0, "interpolation": 0}]}, "green": {"Points": [{"co": {"X": 1, "Y": 123}, "handle_left": {"X": 0.5, "Y": 1}, "handle_right": {"X": 0.5, "Y": 0}, "handle_type": 0, "interpolation": 0}]}, "red": {"Points": [{"co": {"X": 1, "Y": 0}, "handle_left": {"X": 0.5, "Y": 1}, "handle_right": {"X": 0.5, "Y": 0}, "handle_type": 0, "interpolation": 0}]}}, "waveform": false, "file_id": "UQYH58PEZ2", "title": "IMG_3193.MOV", "image": "../../../.openshot_qt/thumbnail/35BSJY0TQ2-488.png", "id": "35BSJY0TQ2"}, {"alpha": {"Points": [{"co": {"X": 1, "Y": 1}, "interpolation": 2}]}, "anchor": 0, "channel_filter": {"Points": [{"co": {"X": 1, "Y": -1}, "interpolation": 2}]}, "channel_mapping": {"Points": [{"co": {"X": 1, "Y": -1}, "interpolation": 2}]}, "crop_height": {"Points": [{"co": {"X": 1, "Y": -1}, "interpolation": 2}]}, "crop_width": {"Points": [{"co": {"X": 1, "Y": -1}, "interpolation": 2}]}, "crop_x": {"Points": [{"co": {"X": 1, "Y": 0}, "interpolation": 2}]}, "crop_y": {"Points": [{"co": {"X": 1, "Y": 0}, "interpolation": 2}]}, "display": 0, "duration": 9.039999961853027, "effects": [], "end": 7.633333333333334, "gravity": 4, "has_audio": {"Points": [{"co": {"X": 1, "Y": 0}, "interpolation": 2}]}, "has_video": {"Points": [{"co": {"X": 1, "Y": -1}, "interpolation": 2}]}, "id": "U4EPU5UZ3Q", "layer": 4, "location_x": {"Points": [{"co": {"X": 1, "Y": 0}, "interpolation": 2}]}, "location_y": {"Points": [{"co": {"X": 1, "Y": 0}, "interpolation": 2}]}, "mixing": 0, "perspective_c1_x": {"Points": [{"co": {"X": 1, "Y": -1}, "interpolation": 2}]}, "perspective_c1_y": {"Points": [{"co": {"X": 1, "Y": -1}, "interpolation": 2}]}, "perspective_c2_x": {"Points": [{"co": {"X": 1, "Y": -1}, "interpolation": 2}]}, "perspective_c2_y": {"Points": [{"co": {"X": 1, "Y": -1}, "interpolation": 2}]}, "perspective_c3_x": {"Points": [{"co": {"X": 1, "Y": -1}, "interpolation": 2}]}, "perspective_c3_y": {"Points": [{"co": {"X": 1, "Y": -1}, "interpolation": 2}]}, "perspective_c4_x": {"Points": [{"co": {"X": 1, "Y": -1}, "interpolation": 2}]}, "perspective_c4_y": {"Points": [{"co": {"X": 1, "Y": -1}, "interpolation": 2}]}, "position": 86.23333333333333, "reader": {"acodec": "pcm_s16le", "audio_bit_rate": 1536000, "audio_stream_index": 1, "audio_timebase": {"den": 48000, "num": 1}, "channel_layout": 3, "channels": 2, "display_ratio": {"den": 9, "num": 16}, "duration": 9.039999961853027, "file_size": "28647472", "fps": {"den": 1, "num": 50}, "has_audio": true, "has_single_image": false, "has_video": true, "height": 720, "interlaced_frame": false, "metadata": {"com.apple.quicktime.make": "Canon", "com.apple.quicktime.model": "Canon EOS 5D Mark III", "com.apple.quicktime.rating.user": "0.000000", "compatible_brands": "qt  CAEP", "creation_time": "2022-02-27T15:45:47.000000Z", "language": "eng", "major_brand": "qt", "minor_version": "537331968", "timecode": "04:03:49:02"}, "path": "IMG_3211.MOV", "pixel_format": 12, "pixel_ratio": {"den": 1, "num": 1}, "sample_rate": 48000, "top_field_first": true, "type": "FFmpegReader", "vcodec": "h264", "video_bit_rate": 3168968, "video_length": "452", "video_stream_index": 0, "video_timebase": {"den": 50000, "num": 1}, "width": 1280}, "rotation": {"Points": [{"co": {"X": 1, "Y": 0}, "interpolation": 2}]}, "scale": 1, "scale_x": {"Points": [{"co": {"X": 1, "Y": 1}, "interpolation": 2}]}, "scale_y": {"Points": [{"co": {"X": 1, "Y": 1}, "interpolation": 2}]}, "shear_x": {"Points": [{"co": {"X": 1, "Y": 0}, "interpolation": 2}]}, "shear_y": {"Points": [{"co": {"X": 1, "Y": 0}, "interpolation": 2}]}, "start": 3.2, "time": {"Points": [{"co": {"X": 1, "Y": 1}, "interpolation": 2}]}, "volume": {"Points": [{"co": {"X": 1, "Y": 1}, "interpolation": 2}]}, "wave_color": {"alpha": {"Points": [{"co": {"X": 1, "Y": 255}, "handle_left": {"X": 0.5, "Y": 1}, "handle_right": {"X": 0.5, "Y": 0}, "handle_type": 0, "interpolation": 0}]}, "blue": {"Points": [{"co": {"X": 1, "Y": 255}, "handle_left": {"X": 0.5, "Y": 1}, "handle_right": {"X": 0.5, "Y": 0}, "handle_type": 0, "interpolation": 0}]}, "green": {"Points": [{"co": {"X": 1, "Y": 123}, "handle_left": {"X": 0.5, "Y": 1}, "handle_right": {"X": 0.5, "Y": 0}, "handle_type": 0, "interpolation": 0}]}, "red": {"Points": [{"co": {"X": 1, "Y": 0}, "handle_left": {"X": 0.5, "Y": 1}, "handle_right": {"X": 0.5, "Y": 0}, "handle_type": 0, "interpolation": 0}]}}, "waveform": false, "file_id": "57WP9KO9OA", "title": "IMG_3211.MOV", "image": "../../../.openshot_qt/thumbnail/57WP9KO9OA.png"}, {"alpha": {"Points": [{"co": {"X": 1, "Y": 1}, "interpolation": 2}]}, "anchor": 0, "channel_filter": {"Points": [{"co": {"X": 1, "Y": -1}, "interpolation": 2}]}, "channel_mapping": {"Points": [{"co": {"X": 1, "Y": -1}, "interpolation": 2}]}, "crop_height": {"Points": [{"co": {"X": 1, "Y": -1}, "interpolation": 2}]}, "crop_width": {"Points": [{"co": {"X": 1, "Y": -1}, "interpolation": 2}]}, "crop_x": {"Points": [{"co": {"X": 1, "Y": 0}, "interpolation": 2}]}, "crop_y": {"Points": [{"co": {"X": 1, "Y": 0}, "interpolation": 2}]}, "display": 0, "duration": 16.600000381469727, "effects": [], "end": 8.7, "gravity": 4, "has_audio": {"Points": [{"co": {"X": 1, "Y": 0}, "interpolation": 2}]}, "has_video": {"Points": [{"co": {"X": 1, "Y": -1}, "interpolation": 2}]}, "id": "Q5XG9II2QN", "layer": 4, "location_x": {"Points": [{"co": {"X": 1, "Y": 0}, "interpolation": 2}]}, "location_y": {"Points": [{"co": {"X": 1, "Y": 0}, "interpolation": 2}]}, "mixing": 0, "perspective_c1_x": {"Points": [{"co": {"X": 1, "Y": -1}, "interpolation": 2}]}, "perspective_c1_y": {"Points": [{"co": {"X": 1, "Y": -1}, "interpolation": 2}]}, "perspective_c2_x": {"Points": [{"co": {"X": 1, "Y": -1}, "interpolation": 2}]}, "perspective_c2_y": {"Points": [{"co": {"X": 1, "Y": -1}, "interpolation": 2}]}, "perspective_c3_x": {"Points": [{"co": {"X": 1, "Y": -1}, "interpolation": 2}]}, "perspective_c3_y": {"Points": [{"co": {"X": 1, "Y": -1}, "interpolation": 2}]}, "perspective_c4_x": {"Points": [{"co": {"X": 1, "Y": -1}, "interpolation": 2}]}, "perspective_c4_y": {"Points": [{"co": {"X": 1, "Y": -1}, "interpolation": 2}]}, "position": 90.73333333333333, "reader": {"acodec": "pcm_s16le", "audio_bit_rate": 1536000, "audio_stream_index": 1, "audio_timebase": {"den": 48000, "num": 1}, "channel_layout": 3, "channels": 2, "display_ratio": {"den": 9, "num": 16}, "duration": 16.600000381469727, "file_size": "54148348", "fps": {"den": 1, "num": 50}, "has_audio": true, "has_single_image": false, "has_video": true, "height": 720, "interlaced_frame": false, "metadata": {"com.apple.quicktime.make": "Canon", "com.apple.quicktime.model": "Canon EOS 5D Mark III", "com.apple.quicktime.rating.user": "0.000000", "compatible_brands": "qt  CAEP", "creation_time": "2022-02-27T15:46:30.000000Z", "language": "eng", "major_brand": "qt", "minor_version": "537331968", "timecode": "04:03:58:03"}, "path": "IMG_3212.MOV", "pixel_format": 12, "pixel_ratio": {"den": 1, "num": 1}, "sample_rate": 48000, "top_field_first": true, "type": "FFmpegReader", "vcodec": "h264", "video_bit_rate": 3261948, "video_length": "830", "video_stream_index": 0, "video_timebase": {"den": 50000, "num": 1}, "width": 1280}, "rotation": {"Points": [{"co": {"X": 1, "Y": 0}, "interpolation": 2}]}, "scale": 1, "scale_x": {"Points": [{"co": {"X": 1, "Y": 1}, "interpolation": 2}]}, "scale_y": {"Points": [{"co": {"X": 1, "Y": 1}, "interpolation": 2}]}, "shear_x": {"Points": [{"co": {"X": 1, "Y": 0}, "interpolation": 2}]}, "shear_y": {"Points": [{"co": {"X": 1, "Y": 0}, "interpolation": 2}]}, "start": 2, "time": {"Points": [{"co": {"X": 1, "Y": 1}, "interpolation": 2}]}, "volume": {"Points": [{"co": {"X": 1, "Y": 1}, "interpolation": 2}]}, "wave_color": {"alpha": {"Points": [{"co": {"X": 1, "Y": 255}, "handle_left": {"X": 0.5, "Y": 1}, "handle_right": {"X": 0.5, "Y": 0}, "handle_type": 0, "interpolation": 0}]}, "blue": {"Points": [{"co": {"X": 1, "Y": 255}, "handle_left": {"X": 0.5, "Y": 1}, "handle_right": {"X": 0.5, "Y": 0}, "handle_type": 0, "interpolation": 0}]}, "green": {"Points": [{"co": {"X": 1, "Y": 123}, "handle_left": {"X": 0.5, "Y": 1}, "handle_right": {"X": 0.5, "Y": 0}, "handle_type": 0, "interpolation": 0}]}, "red": {"Points": [{"co": {"X": 1, "Y": 0}, "handle_left": {"X": 0.5, "Y": 1}, "handle_right": {"X": 0.5, "Y": 0}, "handle_type": 0, "interpolation": 0}]}}, "waveform": false, "file_id": "GA1SNBFUK6", "title": "IMG_3212.MOV", "image": "../../../.openshot_qt/thumbnail/Q5XG9II2QN-76.png"}, {"alpha": {"Points": [{"co": {"X": 1, "Y": 1}, "interpolation": 2}]}, "anchor": 0, "channel_filter": {"Points": [{"co": {"X": 1, "Y": -1}, "interpolation": 2}]}, "channel_mapping": {"Points": [{"co": {"X": 1, "Y": -1}, "interpolation": 2}]}, "crop_height": {"Points": [{"co": {"X": 1, "Y": -1}, "interpolation": 2}]}, "crop_width": {"Points": [{"co": {"X": 1, "Y": -1}, "interpolation": 2}]}, "crop_x": {"Points": [{"co": {"X": 1, "Y": 0}, "interpolation": 2}]}, "crop_y": {"Points": [{"co": {"X": 1, "Y": 0}, "interpolation": 2}]}, "display": 0, "duration": 16.600000381469727, "effects": [], "end": 15, "gravity": 4, "has_audio": {"Points": [{"co": {"X": 1, "Y": 0}, "interpolation": 2}]}, "has_video": {"Points": [{"co": {"X": 1, "Y": -1}, "interpolation": 2}]}, "layer": 4, "location_x": {"Points": [{"co": {"X": 1, "Y": 0}, "interpolation": 2}]}, "location_y": {"Points": [{"co": {"X": 1, "Y": 0}, "interpolation": 2}]}, "mixing": 0, "perspective_c1_x": {"Points": [{"co": {"X": 1, "Y": -1}, "interpolation": 2}]}, "perspective_c1_y": {"Points": [{"co": {"X": 1, "Y": -1}, "interpolation": 2}]}, "perspective_c2_x": {"Points": [{"co": {"X": 1, "Y": -1}, "interpolation": 2}]}, "perspective_c2_y": {"Points": [{"co": {"X": 1, "Y": -1}, "interpolation": 2}]}, "perspective_c3_x": {"Points": [{"co": {"X": 1, "Y": -1}, "interpolation": 2}]}, "perspective_c3_y": {"Points": [{"co": {"X": 1, "Y": -1}, "interpolation": 2}]}, "perspective_c4_x": {"Points": [{"co": {"X": 1, "Y": -1}, "interpolation": 2}]}, "perspective_c4_y": {"Points": [{"co": {"X": 1, "Y": -1}, "interpolation": 2}]}, "position": 97.36666666666666, "reader": {"acodec": "pcm_s16le", "audio_bit_rate": 1536000, "audio_stream_index": 1, "audio_timebase": {"den": 48000, "num": 1}, "channel_layout": 3, "channels": 2, "display_ratio": {"den": 9, "num": 16}, "duration": 16.600000381469727, "file_size": "54148348", "fps": {"den": 1, "num": 50}, "has_audio": true, "has_single_image": false, "has_video": true, "height": 720, "interlaced_frame": false, "metadata": {"com.apple.quicktime.make": "Canon", "com.apple.quicktime.model": "Canon EOS 5D Mark III", "com.apple.quicktime.rating.user": "0.000000", "compatible_brands": "qt  CAEP", "creation_time": "2022-02-27T15:46:30.000000Z", "language": "eng", "major_brand": "qt", "minor_version": "537331968", "timecode": "04:03:58:03"}, "path": "IMG_3212.MOV", "pixel_format": 12, "pixel_ratio": {"den": 1, "num": 1}, "sample_rate": 48000, "top_field_first": true, "type": "FFmpegReader", "vcodec": "h264", "video_bit_rate": 3261948, "video_length": "830", "video_stream_index": 0, "video_timebase": {"den": 50000, "num": 1}, "width": 1280}, "rotation": {"Points": [{"co": {"X": 1, "Y": 0}, "interpolation": 2}]}, "scale": 1, "scale_x": {"Points": [{"co": {"X": 1, "Y": 1}, "interpolation": 2}]}, "scale_y": {"Points": [{"co": {"X": 1, "Y": 1}, "interpolation": 2}]}, "shear_x": {"Points": [{"co": {"X": 1, "Y": 0}, "interpolation": 2}]}, "shear_y": {"Points": [{"co": {"X": 1, "Y": 0}, "interpolation": 2}]}, "start": 12.166666666666666, "time": {"Points": [{"co": {"X": 1, "Y": 1}, "interpolation": 2}]}, "volume": {"Points": [{"co": {"X": 1, "Y": 1}, "interpolation": 2}]}, "wave_color": {"alpha": {"Points": [{"co": {"X": 1, "Y": 255}, "handle_left": {"X": 0.5, "Y": 1}, "handle_right": {"X": 0.5, "Y": 0}, "handle_type": 0, "interpolation": 0}]}, "blue": {"Points": [{"co": {"X": 1, "Y": 255}, "handle_left": {"X": 0.5, "Y": 1}, "handle_right": {"X": 0.5, "Y": 0}, "handle_type": 0, "interpolation": 0}]}, "green": {"Points": [{"co": {"X": 1, "Y": 123}, "handle_left": {"X": 0.5, "Y": 1}, "handle_right": {"X": 0.5, "Y": 0}, "handle_type": 0, "interpolation": 0}]}, "red": {"Points": [{"co": {"X": 1, "Y": 0}, "handle_left": {"X": 0.5, "Y": 1}, "handle_right": {"X": 0.5, "Y": 0}, "handle_type": 0, "interpolation": 0}]}}, "waveform": false, "file_id": "GA1SNBFUK6", "title": "IMG_3212.MOV", "image": "../../../.openshot_qt/thumbnail/7WJOOKZ1U8-439.png", "id": "7WJOOKZ1U8"}, {"alpha": {"Points": [{"co": {"X": 1, "Y": 1}, "interpolation": 2}]}, "anchor": 0, "channel_filter": {"Points": [{"co": {"X": 1, "Y": -1}, "interpolation": 2}]}, "channel_mapping": {"Points": [{"co": {"X": 1, "Y": -1}, "interpolation": 2}]}, "crop_height": {"Points": [{"co": {"X": 1, "Y": -1}, "interpolation": 2}]}, "crop_width": {"Points": [{"co": {"X": 1, "Y": -1}, "interpolation": 2}]}, "crop_x": {"Points": [{"co": {"X": 1, "Y": 0}, "interpolation": 2}]}, "crop_y": {"Points": [{"co": {"X": 1, "Y": 0}, "interpolation": 2}]}, "display": 0, "duration": 24.440000534057617, "effects": [], "end": 12.5, "gravity": 4, "has_audio": {"Points": [{"co": {"X": 1, "Y": 0}, "interpolation": 2}]}, "has_video": {"Points": [{"co": {"X": 1, "Y": -1}, "interpolation": 2}]}, "id": "KH48V4QAFU", "layer": 4, "location_x": {"Points": [{"co": {"X": 1, "Y": 0}, "interpolation": 2}]}, "location_y": {"Points": [{"co": {"X": 1, "Y": 0}, "interpolation": 2}]}, "mixing": 0, "perspective_c1_x": {"Points": [{"co": {"X": 1, "Y": -1}, "interpolation": 2}]}, "perspective_c1_y": {"Points": [{"co": {"X": 1, "Y": -1}, "interpolation": 2}]}, "perspective_c2_x": {"Points": [{"co": {"X": 1, "Y": -1}, "interpolation": 2}]}, "perspective_c2_y": {"Points": [{"co": {"X": 1, "Y": -1}, "interpolation": 2}]}, "perspective_c3_x": {"Points": [{"co": {"X": 1, "Y": -1}, "interpolation": 2}]}, "perspective_c3_y": {"Points": [{"co": {"X": 1, "Y": -1}, "interpolation": 2}]}, "perspective_c4_x": {"Points": [{"co": {"X": 1, "Y": -1}, "interpolation": 2}]}, "perspective_c4_y": {"Points": [{"co": {"X": 1, "Y": -1}, "interpolation": 2}]}, "position": 100.2, "reader": {"acodec": "pcm_s16le", "audio_bit_rate": 1536000, "audio_stream_index": 1, "audio_timebase": {"den": 48000, "num": 1}, "channel_layout": 3, "channels": 2, "display_ratio": {"den": 9, "num": 16}, "duration": 24.440000534057617, "file_size": "76122736", "fps": {"den": 1, "num": 50}, "has_audio": true, "has_single_image": false, "has_video": true, "height": 720, "interlaced_frame": false, "metadata": {"com.apple.quicktime.make": "Canon", "com.apple.quicktime.model": "Canon EOS 5D Mark III", "com.apple.quicktime.rating.user": "0.000000", "compatible_brands": "qt  CAEP", "creation_time": "2022-02-27T15:46:50.000000Z", "language": "eng", "major_brand": "qt", "minor_version": "537331968", "timecode": "04:04:14:18"}, "path": "IMG_3213.MOV", "pixel_format": 12, "pixel_ratio": {"den": 1, "num": 1}, "sample_rate": 48000, "top_field_first": true, "type": "FFmpegReader", "vcodec": "h264", "video_bit_rate": 3114678, "video_length": "1222", "video_stream_index": 0, "video_timebase": {"den": 50000, "num": 1}, "width": 1280}, "rotation": {"Points": [{"co": {"X": 1, "Y": 0}, "interpolation": 2}]}, "scale": 1, "scale_x": {"Points": [{"co": {"X": 1, "Y": 1}, "interpolation": 2}]}, "scale_y": {"Points": [{"co": {"X": 1, "Y": 1}, "interpolation": 2}]}, "shear_x": {"Points": [{"co": {"X": 1, "Y": 0}, "interpolation": 2}]}, "shear_y": {"Points": [{"co": {"X": 1, "Y": 0}, "interpolation": 2}]}, "start": 9.1, "time": {"Points": [{"co": {"X": 1, "Y": 1}, "interpolation": 2}]}, "volume": {"Points": [{"co": {"X": 1, "Y": 1}, "interpolation": 2}]}, "wave_color": {"alpha": {"Points": [{"co": {"X": 1, "Y": 255}, "handle_left": {"X": 0.5, "Y": 1}, "handle_right": {"X": 0.5, "Y": 0}, "handle_type": 0, "interpolation": 0}]}, "blue": {"Points": [{"co": {"X": 1, "Y": 255}, "handle_left": {"X": 0.5, "Y": 1}, "handle_right": {"X": 0.5, "Y": 0}, "handle_type": 0, "interpolation": 0}]}, "green": {"Points": [{"co": {"X": 1, "Y": 123}, "handle_left": {"X": 0.5, "Y": 1}, "handle_right": {"X": 0.5, "Y": 0}, "handle_type": 0, "interpolation": 0}]}, "red": {"Points": [{"co": {"X": 1, "Y": 0}, "handle_left": {"X": 0.5, "Y": 1}, "handle_right": {"X": 0.5, "Y": 0}, "handle_type": 0, "interpolation": 0}]}}, "waveform": false, "file_id": "9H86ZQ9HQL", "title": "IMG_3213.MOV", "image": "../../../.openshot_qt/thumbnail/9H86ZQ9HQL.png"}, {"alpha": {"Points": [{"co": {"X": 1, "Y": 1}, "interpolation": 2}]}, "anchor": 0, "channel_filter": {"Points": [{"co": {"X": 1, "Y": -1}, "interpolation": 2}]}, "channel_mapping": {"Points": [{"co": {"X": 1, "Y": -1}, "interpolation": 2}]}, "crop_height": {"Points": [{"co": {"X": 1, "Y": -1}, "interpolation": 2}]}, "crop_width": {"Points": [{"co": {"X": 1, "Y": -1}, "interpolation": 2}]}, "crop_x": {"Points": [{"co": {"X": 1, "Y": 0}, "interpolation": 2}]}, "crop_y": {"Points": [{"co": {"X": 1, "Y": 0}, "interpolation": 2}]}, "display": 0, "duration": 24.440000534057617, "effects": [], "end": 17.733333333333334, "gravity": 4, "has_audio": {"Points": [{"co": {"X": 1, "Y": 0}, "interpolation": 2}]}, "has_video": {"Points": [{"co": {"X": 1, "Y": -1}, "interpolation": 2}]}, "layer": 4, "location_x": {"Points": [{"co": {"X": 1, "Y": 0}, "interpolation": 2}]}, "location_y": {"Points": [{"co": {"X": 1, "Y": 0}, "interpolation": 2}]}, "mixing": 0, "perspective_c1_x": {"Points": [{"co": {"X": 1, "Y": -1}, "interpolation": 2}]}, "perspective_c1_y": {"Points": [{"co": {"X": 1, "Y": -1}, "interpolation": 2}]}, "perspective_c2_x": {"Points": [{"co": {"X": 1, "Y": -1}, "interpolation": 2}]}, "perspective_c2_y": {"Points": [{"co": {"X": 1, "Y": -1}, "interpolation": 2}]}, "perspective_c3_x": {"Points": [{"co": {"X": 1, "Y": -1}, "interpolation": 2}]}, "perspective_c3_y": {"Points": [{"co": {"X": 1, "Y": -1}, "interpolation": 2}]}, "perspective_c4_x": {"Points": [{"co": {"X": 1, "Y": -1}, "interpolation": 2}]}, "perspective_c4_y": {"Points": [{"co": {"X": 1, "Y": -1}, "interpolation": 2}]}, "position": 103.6, "reader": {"acodec": "pcm_s16le", "audio_bit_rate": 1536000, "audio_stream_index": 1, "audio_timebase": {"den": 48000, "num": 1}, "channel_layout": 3, "channels": 2, "display_ratio": {"den": 9, "num": 16}, "duration": 24.440000534057617, "file_size": "76122736", "fps": {"den": 1, "num": 50}, "has_audio": true, "has_single_image": false, "has_video": true, "height": 720, "interlaced_frame": false, "metadata": {"com.apple.quicktime.make": "Canon", "com.apple.quicktime.model": "Canon EOS 5D Mark III", "com.apple.quicktime.rating.user": "0.000000", "compatible_brands": "qt  CAEP", "creation_time": "2022-02-27T15:46:50.000000Z", "language": "eng", "major_brand": "qt", "minor_version": "537331968", "timecode": "04:04:14:18"}, "path": "IMG_3213.MOV", "pixel_format": 12, "pixel_ratio": {"den": 1, "num": 1}, "sample_rate": 48000, "top_field_first": true, "type": "FFmpegReader", "vcodec": "h264", "video_bit_rate": 3114678, "video_length": "1222", "video_stream_index": 0, "video_timebase": {"den": 50000, "num": 1}, "width": 1280}, "rotation": {"Points": [{"co": {"X": 1, "Y": 0}, "interpolation": 2}]}, "scale": 1, "scale_x": {"Points": [{"co": {"X": 1, "Y": 1}, "interpolation": 2}]}, "scale_y": {"Points": [{"co": {"X": 1, "Y": 1}, "interpolation": 2}]}, "shear_x": {"Points": [{"co": {"X": 1, "Y": 0}, "interpolation": 2}]}, "shear_y": {"Points": [{"co": {"X": 1, "Y": 0}, "interpolation": 2}]}, "start": 14.266666666666667, "time": {"Points": [{"co": {"X": 1, "Y": 1}, "interpolation": 2}]}, "volume": {"Points": [{"co": {"X": 1, "Y": 1}, "interpolation": 2}]}, "wave_color": {"alpha": {"Points": [{"co": {"X": 1, "Y": 255}, "handle_left": {"X": 0.5, "Y": 1}, "handle_right": {"X": 0.5, "Y": 0}, "handle_type": 0, "interpolation": 0}]}, "blue": {"Points": [{"co": {"X": 1, "Y": 255}, "handle_left": {"X": 0.5, "Y": 1}, "handle_right": {"X": 0.5, "Y": 0}, "handle_type": 0, "interpolation": 0}]}, "green": {"Points": [{"co": {"X": 1, "Y": 123}, "handle_left": {"X": 0.5, "Y": 1}, "handle_right": {"X": 0.5, "Y": 0}, "handle_type": 0, "interpolation": 0}]}, "red": {"Points": [{"co": {"X": 1, "Y": 0}, "handle_left": {"X": 0.5, "Y": 1}, "handle_right": {"X": 0.5, "Y": 0}, "handle_type": 0, "interpolation": 0}]}}, "waveform": false, "file_id": "9H86ZQ9HQL", "title": "IMG_3213.MOV", "image": "../../../.openshot_qt/thumbnail/GUO2L2I1DH-629.png", "id": "GUO2L2I1DH"}, {"alpha": {"Points": [{"co": {"X": 1, "Y": 1}, "interpolation": 2}]}, "anchor": 0, "channel_filter": {"Points": [{"co": {"X": 1, "Y": -1}, "interpolation": 2}]}, "channel_mapping": {"Points": [{"co": {"X": 1, "Y": -1}, "interpolation": 2}]}, "crop_height": {"Points": [{"co": {"X": 1, "Y": -1}, "interpolation": 2}]}, "crop_width": {"Points": [{"co": {"X": 1, "Y": -1}, "interpolation": 2}]}, "crop_x": {"Points": [{"co": {"X": 1, "Y": 0}, "interpolation": 2}]}, "crop_y": {"Points": [{"co": {"X": 1, "Y": 0}, "interpolation": 2}]}, "display": 0, "duration": 22.479999542236328, "effects": [], "end": 13.5, "gravity": 4, "has_audio": {"Points": [{"co": {"X": 1, "Y": 0}, "interpolation": 2}]}, "has_video": {"Points": [{"co": {"X": 1, "Y": -1}, "interpolation": 2}]}, "id": "EKF2U8T65A", "layer": 4, "location_x": {"Points": [{"co": {"X": 1, "Y": 0}, "interpolation": 2}]}, "location_y": {"Points": [{"co": {"X": 1, "Y": 0}, "interpolation": 2}]}, "mixing": 0, "perspective_c1_x": {"Points": [{"co": {"X": 1, "Y": -1}, "interpolation": 2}]}, "perspective_c1_y": {"Points": [{"co": {"X": 1, "Y": -1}, "interpolation": 2}]}, "perspective_c2_x": {"Points": [{"co": {"X": 1, "Y": -1}, "interpolation": 2}]}, "perspective_c2_y": {"Points": [{"co": {"X": 1, "Y": -1}, "interpolation": 2}]}, "perspective_c3_x": {"Points": [{"co": {"X": 1, "Y": -1}, "interpolation": 2}]}, "perspective_c3_y": {"Points": [{"co": {"X": 1, "Y": -1}, "interpolation": 2}]}, "perspective_c4_x": {"Points": [{"co": {"X": 1, "Y": -1}, "interpolation": 2}]}, "perspective_c4_y": {"Points": [{"co": {"X": 1, "Y": -1}, "interpolation": 2}]}, "position": 106.96666666666667, "reader": {"acodec": "pcm_s16le", "audio_bit_rate": 1536000, "audio_stream_index": 1, "audio_timebase": {"den": 48000, "num": 1}, "channel_layout": 3, "channels": 2, "display_ratio": {"den": 9, "num": 16}, "duration": 22.479999542236328, "file_size": "75669948", "fps": {"den": 1, "num": 50}, "has_audio": true, "has_single_image": false, "has_video": true, "height": 720, "interlaced_frame": false, "metadata": {"com.apple.quicktime.make": "Canon", "com.apple.quicktime.model": "Canon EOS 5D Mark III", "com.apple.quicktime.rating.user": "0.000000", "compatible_brands": "qt  CAEP", "creation_time": "2022-02-27T15:47:16.000000Z", "language": "eng", "major_brand": "qt", "minor_version": "537331968", "timecode": "04:04:39:04"}, "path": "IMG_3214.MOV", "pixel_format": 12, "pixel_ratio": {"den": 1, "num": 1}, "sample_rate": 48000, "top_field_first": true, "type": "FFmpegReader", "vcodec": "h264", "video_bit_rate": 3366100, "video_length": "1124", "video_stream_index": 0, "video_timebase": {"den": 50000, "num": 1}, "width": 1280}, "rotation": {"Points": [{"co": {"X": 1, "Y": 0}, "interpolation": 2}]}, "scale": 1, "scale_x": {"Points": [{"co": {"X": 1, "Y": 1}, "interpolation": 2}]}, "scale_y": {"Points": [{"co": {"X": 1, "Y": 1}, "interpolation": 2}]}, "shear_x": {"Points": [{"co": {"X": 1, "Y": 0}, "interpolation": 2}]}, "shear_y": {"Points": [{"co": {"X": 1, "Y": 0}, "interpolation": 2}]}, "start": 9, "time": {"Points": [{"co": {"X": 1, "Y": 1}, "interpolation": 2}]}, "volume": {"Points": [{"co": {"X": 1, "Y": 1}, "interpolation": 2}]}, "wave_color": {"alpha": {"Points": [{"co": {"X": 1, "Y": 255}, "handle_left": {"X": 0.5, "Y": 1}, "handle_right": {"X": 0.5, "Y": 0}, "handle_type": 0, "interpolation": 0}]}, "blue": {"Points": [{"co": {"X": 1, "Y": 255}, "handle_left": {"X": 0.5, "Y": 1}, "handle_right": {"X": 0.5, "Y": 0}, "handle_type": 0, "interpolation": 0}]}, "green": {"Points": [{"co": {"X": 1, "Y": 123}, "handle_left": {"X": 0.5, "Y": 1}, "handle_right": {"X": 0.5, "Y": 0}, "handle_type": 0, "interpolation": 0}]}, "red": {"Points": [{"co": {"X": 1, "Y": 0}, "handle_left": {"X": 0.5, "Y": 1}, "handle_right": {"X": 0.5, "Y": 0}, "handle_type": 0, "interpolation": 0}]}}, "waveform": false, "file_id": "YTWXDKIQI8", "title": "IMG_3214.MOV", "image": "../../../.openshot_qt/thumbnail/YTWXDKIQI8.png"}, {"alpha": {"Points": [{"co": {"X": 1, "Y": 1}, "interpolation": 2}]}, "anchor": 0, "channel_filter": {"Points": [{"co": {"X": 1, "Y": -1}, "interpolation": 2}]}, "channel_mapping": {"Points": [{"co": {"X": 1, "Y": -1}, "interpolation": 2}]}, "crop_height": {"Points": [{"co": {"X": 1, "Y": -1}, "interpolation": 2}]}, "crop_width": {"Points": [{"co": {"X": 1, "Y": -1}, "interpolation": 2}]}, "crop_x": {"Points": [{"co": {"X": 1, "Y": 0}, "interpolation": 2}]}, "crop_y": {"Points": [{"co": {"X": 1, "Y": 0}, "interpolation": 2}]}, "display": 0, "duration": 22.479999542236328, "effects": [], "end": 21.166666666666668, "gravity": 4, "has_audio": {"Points": [{"co": {"X": 1, "Y": 0}, "interpolation": 2}]}, "has_video": {"Points": [{"co": {"X": 1, "Y": -1}, "interpolation": 2}]}, "layer": 4, "location_x": {"Points": [{"co": {"X": 1, "Y": 0}, "interpolation": 2}]}, "location_y": {"Points": [{"co": {"X": 1, "Y": 0}, "interpolation": 2}]}, "mixing": 0, "perspective_c1_x": {"Points": [{"co": {"X": 1, "Y": -1}, "interpolation": 2}]}, "perspective_c1_y": {"Points": [{"co": {"X": 1, "Y": -1}, "interpolation": 2}]}, "perspective_c2_x": {"Points": [{"co": {"X": 1, "Y": -1}, "interpolation": 2}]}, "perspective_c2_y": {"Points": [{"co": {"X": 1, "Y": -1}, "interpolation": 2}]}, "perspective_c3_x": {"Points": [{"co": {"X": 1, "Y": -1}, "interpolation": 2}]}, "perspective_c3_y": {"Points": [{"co": {"X": 1, "Y": -1}, "interpolation": 2}]}, "perspective_c4_x": {"Points": [{"co": {"X": 1, "Y": -1}, "interpolation": 2}]}, "perspective_c4_y": {"Points": [{"co": {"X": 1, "Y": -1}, "interpolation": 2}]}, "position": 111.56666666666666, "reader": {"acodec": "pcm_s16le", "audio_bit_rate": 1536000, "audio_stream_index": 1, "audio_timebase": {"den": 48000, "num": 1}, "channel_layout": 3, "channels": 2, "display_ratio": {"den": 9, "num": 16}, "duration": 22.479999542236328, "file_size": "75669948", "fps": {"den": 1, "num": 50}, "has_audio": true, "has_single_image": false, "has_video": true, "height": 720, "interlaced_frame": false, "metadata": {"com.apple.quicktime.make": "Canon", "com.apple.quicktime.model": "Canon EOS 5D Mark III", "com.apple.quicktime.rating.user": "0.000000", "compatible_brands": "qt  CAEP", "creation_time": "2022-02-27T15:47:16.000000Z", "language": "eng", "major_brand": "qt", "minor_version": "537331968", "timecode": "04:04:39:04"}, "path": "IMG_3214.MOV", "pixel_format": 12, "pixel_ratio": {"den": 1, "num": 1}, "sample_rate": 48000, "top_field_first": true, "type": "FFmpegReader", "vcodec": "h264", "video_bit_rate": 3366100, "video_length": "1124", "video_stream_index": 0, "video_timebase": {"den": 50000, "num": 1}, "width": 1280}, "rotation": {"Points": [{"co": {"X": 1, "Y": 0}, "interpolation": 2}]}, "scale": 1, "scale_x": {"Points": [{"co": {"X": 1, "Y": 1}, "interpolation": 2}]}, "scale_y": {"Points": [{"co": {"X": 1, "Y": 1}, "interpolation": 2}]}, "shear_x": {"Points": [{"co": {"X": 1, "Y": 0}, "interpolation": 2}]}, "shear_y": {"Points": [{"co": {"X": 1, "Y": 0}, "interpolation": 2}]}, "start": 17.466666666666665, "time": {"Points": [{"co": {"X": 1, "Y": 1}, "interpolation": 2}]}, "volume": {"Points": [{"co": {"X": 1, "Y": 1}, "interpolation": 2}]}, "wave_color": {"alpha": {"Points": [{"co": {"X": 1, "Y": 255}, "handle_left": {"X": 0.5, "Y": 1}, "handle_right": {"X": 0.5, "Y": 0}, "handle_type": 0, "interpolation": 0}]}, "blue": {"Points": [{"co": {"X": 1, "Y": 255}, "handle_left": {"X": 0.5, "Y": 1}, "handle_right": {"X": 0.5, "Y": 0}, "handle_type": 0, "interpolation": 0}]}, "green": {"Points": [{"co": {"X": 1, "Y": 123}, "handle_left": {"X": 0.5, "Y": 1}, "handle_right": {"X": 0.5, "Y": 0}, "handle_type": 0, "interpolation": 0}]}, "red": {"Points": [{"co": {"X": 1, "Y": 0}, "handle_left": {"X": 0.5, "Y": 1}, "handle_right": {"X": 0.5, "Y": 0}, "handle_type": 0, "interpolation": 0}]}}, "waveform": false, "file_id": "YTWXDKIQI8", "title": "IMG_3214.MOV", "image": "../../../.openshot_qt/thumbnail/IBHVL9N2ZK-679.png", "id": "IBHVL9N2ZK"}, {"alpha": {"Points": [{"co": {"X": 1, "Y": 1}, "interpolation": 2}]}, "anchor": 0, "channel_filter": {"Points": [{"co": {"X": 1, "Y": -1}, "interpolation": 2}]}, "channel_mapping": {"Points": [{"co": {"X": 1, "Y": -1}, "interpolation": 2}]}, "crop_height": {"Points": [{"co": {"X": 1, "Y": -1}, "interpolation": 2}]}, "crop_width": {"Points": [{"co": {"X": 1, "Y": -1}, "interpolation": 2}]}, "crop_x": {"Points": [{"co": {"X": 1, "Y": 0}, "interpolation": 2}]}, "crop_y": {"Points": [{"co": {"X": 1, "Y": 0}, "interpolation": 2}]}, "display": 0, "duration": 9.479999542236328, "effects": [], "end": 5.466666666666667, "gravity": 4, "has_audio": {"Points": [{"co": {"X": 1, "Y": 0}, "interpolation": 2}]}, "has_video": {"Points": [{"co": {"X": 1, "Y": -1}, "interpolation": 2}]}, "id": "4XFB9HOZ3G", "layer": 4, "location_x": {"Points": [{"co": {"X": 1, "Y": 0}, "interpolation": 2}]}, "location_y": {"Points": [{"co": {"X": 1, "Y": 0}, "interpolation": 2}]}, "mixing": 0, "perspective_c1_x": {"Points": [{"co": {"X": 1, "Y": -1}, "interpolation": 2}]}, "perspective_c1_y": {"Points": [{"co": {"X": 1, "Y": -1}, "interpolation": 2}]}, "perspective_c2_x": {"Points": [{"co": {"X": 1, "Y": -1}, "interpolation": 2}]}, "perspective_c2_y": {"Points": [{"co": {"X": 1, "Y": -1}, "interpolation": 2}]}, "perspective_c3_x": {"Points": [{"co": {"X": 1, "Y": -1}, "interpolation": 2}]}, "perspective_c3_y": {"Points": [{"co": {"X": 1, "Y": -1}, "interpolation": 2}]}, "perspective_c4_x": {"Points": [{"co": {"X": 1, "Y": -1}, "interpolation": 2}]}, "perspective_c4_y": {"Points": [{"co": {"X": 1, "Y": -1}, "interpolation": 2}]}, "position": 115.26666666666667, "reader": {"acodec": "pcm_s16le", "audio_bit_rate": 1536000, "audio_stream_index": 1, "audio_timebase": {"den": 48000, "num": 1}, "channel_layout": 3, "channels": 2, "display_ratio": {"den": 9, "num": 16}, "duration": 9.479999542236328, "file_size": "32393688", "fps": {"den": 1, "num": 50}, "has_audio": true, "has_single_image": false, "has_video": true, "height": 720, "interlaced_frame": false, "metadata": {"com.apple.quicktime.make": "Canon", "com.apple.quicktime.model": "Canon EOS 5D Mark III", "com.apple.quicktime.rating.user": "0.000000", "compatible_brands": "qt  CAEP", "creation_time": "2022-02-27T15:48:28.000000Z", "language": "eng", "major_brand": "qt", "minor_version": "537331968", "timecode": "04:05:01:16"}, "path": "IMG_3215.MOV", "pixel_format": 12, "pixel_ratio": {"den": 1, "num": 1}, "sample_rate": 48000, "top_field_first": true, "type": "FFmpegReader", "vcodec": "h264", "video_bit_rate": 3417055, "video_length": "474", "video_stream_index": 0, "video_timebase": {"den": 50000, "num": 1}, "width": 1280}, "rotation": {"Points": [{"co": {"X": 1, "Y": 0}, "interpolation": 2}]}, "scale": 1, "scale_x": {"Points": [{"co": {"X": 1, "Y": 1}, "interpolation": 2}]}, "scale_y": {"Points": [{"co": {"X": 1, "Y": 1}, "interpolation": 2}]}, "shear_x": {"Points": [{"co": {"X": 1, "Y": 0}, "interpolation": 2}]}, "shear_y": {"Points": [{"co": {"X": 1, "Y": 0}, "interpolation": 2}]}, "start": 3, "time": {"Points": [{"co": {"X": 1, "Y": 1}, "interpolation": 2}]}, "volume": {"Points": [{"co": {"X": 1, "Y": 1}, "interpolation": 2}]}, "wave_color": {"alpha": {"Points": [{"co": {"X": 1, "Y": 255}, "handle_left": {"X": 0.5, "Y": 1}, "handle_right": {"X": 0.5, "Y": 0}, "handle_type": 0, "interpolation": 0}]}, "blue": {"Points": [{"co": {"X": 1, "Y": 255}, "handle_left": {"X": 0.5, "Y": 1}, "handle_right": {"X": 0.5, "Y": 0}, "handle_type": 0, "interpolation": 0}]}, "green": {"Points": [{"co": {"X": 1, "Y": 123}, "handle_left": {"X": 0.5, "Y": 1}, "handle_right": {"X": 0.5, "Y": 0}, "handle_type": 0, "interpolation": 0}]}, "red": {"Points": [{"co": {"X": 1, "Y": 0}, "handle_left": {"X": 0.5, "Y": 1}, "handle_right": {"X": 0.5, "Y": 0}, "handle_type": 0, "interpolation": 0}]}}, "waveform": false, "file_id": "XBBVP3S87Y", "title": "IMG_3215.MOV", "image": "../../../.openshot_qt/thumbnail/4XFB9HOZ3G-226.png"}, {"alpha": {"Points": [{"co": {"X": 1, "Y": 1}, "interpolation": 2}]}, "anchor": 0, "channel_filter": {"Points": [{"co": {"X": 1, "Y": -1}, "interpolation": 2}]}, "channel_mapping": {"Points": [{"co": {"X": 1, "Y": -1}, "interpolation": 2}]}, "crop_height": {"Points": [{"co": {"X": 1, "Y": -1}, "interpolation": 2}]}, "crop_width": {"Points": [{"co": {"X": 1, "Y": -1}, "interpolation": 2}]}, "crop_x": {"Points": [{"co": {"X": 1, "Y": 0}, "interpolation": 2}]}, "crop_y": {"Points": [{"co": {"X": 1, "Y": 0}, "interpolation": 2}]}, "display": 0, "duration": 11.079999923706055, "effects": [], "end": 9.266666666666667, "gravity": 4, "has_audio": {"Points": [{"co": {"X": 1, "Y": 0}, "interpolation": 2}]}, "has_video": {"Points": [{"co": {"X": 1, "Y": -1}, "interpolation": 2}]}, "id": "69ZI9VJE6N", "layer": 4, "location_x": {"Points": [{"co": {"X": 1, "Y": 0}, "interpolation": 2}]}, "location_y": {"Points": [{"co": {"X": 1, "Y": 0}, "interpolation": 2}]}, "mixing": 0, "perspective_c1_x": {"Points": [{"co": {"X": 1, "Y": -1}, "interpolation": 2}]}, "perspective_c1_y": {"Points": [{"co": {"X": 1, "Y": -1}, "interpolation": 2}]}, "perspective_c2_x": {"Points": [{"co": {"X": 1, "Y": -1}, "interpolation": 2}]}, "perspective_c2_y": {"Points": [{"co": {"X": 1, "Y": -1}, "interpolation": 2}]}, "perspective_c3_x": {"Points": [{"co": {"X": 1, "Y": -1}, "interpolation": 2}]}, "perspective_c3_y": {"Points": [{"co": {"X": 1, "Y": -1}, "interpolation": 2}]}, "perspective_c4_x": {"Points": [{"co": {"X": 1, "Y": -1}, "interpolation": 2}]}, "perspective_c4_y": {"Points": [{"co": {"X": 1, "Y": -1}, "interpolation": 2}]}, "position": 117.5, "reader": {"acodec": "pcm_s16le", "audio_bit_rate": 1536000, "audio_stream_index": 1, "audio_timebase": {"den": 48000, "num": 1}, "channel_layout": 3, "channels": 2, "display_ratio": {"den": 9, "num": 16}, "duration": 11.079999923706055, "file_size": "38054488", "fps": {"den": 1, "num": 50}, "has_audio": true, "has_single_image": false, "has_video": true, "height": 720, "interlaced_frame": false, "metadata": {"com.apple.quicktime.make": "Canon", "com.apple.quicktime.model": "Canon EOS 5D Mark III", "com.apple.quicktime.rating.user": "0.000000", "compatible_brands": "qt  CAEP", "creation_time": "2022-02-27T15:49:27.000000Z", "language": "eng", "major_brand": "qt", "minor_version": "537331968", "timecode": "04:05:42:19"}, "path": "IMG_3219.MOV", "pixel_format": 12, "pixel_ratio": {"den": 1, "num": 1}, "sample_rate": 48000, "top_field_first": true, "type": "FFmpegReader", "vcodec": "h264", "video_bit_rate": 3434520, "video_length": "554", "video_stream_index": 0, "video_timebase": {"den": 50000, "num": 1}, "width": 1280}, "rotation": {"Points": [{"co": {"X": 1, "Y": 0}, "interpolation": 2}]}, "scale": 1, "scale_x": {"Points": [{"co": {"X": 1, "Y": 1}, "interpolation": 2}]}, "scale_y": {"Points": [{"co": {"X": 1, "Y": 1}, "interpolation": 2}]}, "shear_x": {"Points": [{"co": {"X": 1, "Y": 0}, "interpolation": 2}]}, "shear_y": {"Points": [{"co": {"X": 1, "Y": 0}, "interpolation": 2}]}, "start": 5.9, "time": {"Points": [{"co": {"X": 1, "Y": 1}, "interpolation": 2}]}, "volume": {"Points": [{"co": {"X": 1, "Y": 1}, "interpolation": 2}]}, "wave_color": {"alpha": {"Points": [{"co": {"X": 1, "Y": 255}, "handle_left": {"X": 0.5, "Y": 1}, "handle_right": {"X": 0.5, "Y": 0}, "handle_type": 0, "interpolation": 0}]}, "blue": {"Points": [{"co": {"X": 1, "Y": 255}, "handle_left": {"X": 0.5, "Y": 1}, "handle_right": {"X": 0.5, "Y": 0}, "handle_type": 0, "interpolation": 0}]}, "green": {"Points": [{"co": {"X": 1, "Y": 123}, "handle_left": {"X": 0.5, "Y": 1}, "handle_right": {"X": 0.5, "Y": 0}, "handle_type": 0, "interpolation": 0}]}, "red": {"Points": [{"co": {"X": 1, "Y": 0}, "handle_left": {"X": 0.5, "Y": 1}, "handle_right": {"X": 0.5, "Y": 0}, "handle_type": 0, "interpolation": 0}]}}, "waveform": false, "file_id": "JMM1VQN9L4", "title": "IMG_3219.MOV", "image": "../../../.openshot_qt/thumbnail/JMM1VQN9L4.png"}, {"alpha": {"Points": [{"co": {"X": 1, "Y": 1}, "interpolation": 2}]}, "anchor": 0, "channel_filter": {"Points": [{"co": {"X": 1, "Y": -1}, "interpolation": 2}]}, "channel_mapping": {"Points": [{"co": {"X": 1, "Y": -1}, "interpolation": 2}]}, "crop_height": {"Points": [{"co": {"X": 1, "Y": -1}, "interpolation": 2}]}, "crop_width": {"Points": [{"co": {"X": 1, "Y": -1}, "interpolation": 2}]}, "crop_x": {"Points": [{"co": {"X": 1, "Y": 0}, "interpolation": 2}]}, "crop_y": {"Points": [{"co": {"X": 1, "Y": 0}, "interpolation": 2}]}, "display": 0, "duration": 19.280000686645508, "effects": [], "end": 13.433333333333334, "gravity": 4, "has_audio": {"Points": [{"co": {"X": 1, "Y": 0}, "interpolation": 2}]}, "has_video": {"Points": [{"co": {"X": 1, "Y": -1}, "interpolation": 2}]}, "id": "P2QGMM9DKE", "layer": 4, "location_x": {"Points": [{"co": {"X": 1, "Y": 0}, "interpolation": 2}]}, "location_y": {"Points": [{"co": {"X": 1, "Y": 0}, "interpolation": 2}]}, "mixing": 0, "perspective_c1_x": {"Points": [{"co": {"X": 1, "Y": -1}, "interpolation": 2}]}, "perspective_c1_y": {"Points": [{"co": {"X": 1, "Y": -1}, "interpolation": 2}]}, "perspective_c2_x": {"Points": [{"co": {"X": 1, "Y": -1}, "interpolation": 2}]}, "perspective_c2_y": {"Points": [{"co": {"X": 1, "Y": -1}, "interpolation": 2}]}, "perspective_c3_x": {"Points": [{"co": {"X": 1, "Y": -1}, "interpolation": 2}]}, "perspective_c3_y": {"Points": [{"co": {"X": 1, "Y": -1}, "interpolation": 2}]}, "perspective_c4_x": {"Points": [{"co": {"X": 1, "Y": -1}, "interpolation": 2}]}, "perspective_c4_y": {"Points": [{"co": {"X": 1, "Y": -1}, "interpolation": 2}]}, "position": 120.86666666666666, "reader": {"acodec": "pcm_s16le", "audio_bit_rate": 1536000, "audio_stream_index": 1, "audio_timebase": {"den": 48000, "num": 1}, "channel_layout": 3, "channels": 2, "display_ratio": {"den": 9, "num": 16}, "duration": 19.280000686645508, "file_size": "66087668", "fps": {"den": 1, "num": 50}, "has_audio": true, "has_single_image": false, "has_video": true, "height": 720, "interlaced_frame": false, "metadata": {"com.apple.quicktime.make": "Canon", "com.apple.quicktime.model": "Canon EOS 5D Mark III", "com.apple.quicktime.rating.user": "0.000000", "compatible_brands": "qt  CAEP", "creation_time": "2022-02-27T16:04:31.000000Z", "language": "eng", "major_brand": "qt", "minor_version": "537331968", "timecode": "04:07:36:08"}, "path": "IMG_3229.MOV", "pixel_format": 12, "pixel_ratio": {"den": 1, "num": 1}, "sample_rate": 48000, "top_field_first": true, "type": "FFmpegReader", "vcodec": "h264", "video_bit_rate": 3427783, "video_length": "964", "video_stream_index": 0, "video_timebase": {"den": 50000, "num": 1}, "width": 1280}, "rotation": {"Points": [{"co": {"X": 1, "Y": 0}, "interpolation": 2}]}, "scale": 1, "scale_x": {"Points": [{"co": {"X": 1, "Y": 1}, "interpolation": 2}]}, "scale_y": {"Points": [{"co": {"X": 1, "Y": 1}, "interpolation": 2}]}, "shear_x": {"Points": [{"co": {"X": 1, "Y": 0}, "interpolation": 2}]}, "shear_y": {"Points": [{"co": {"X": 1, "Y": 0}, "interpolation": 2}]}, "start": 10.466666666666667, "time": {"Points": [{"co": {"X": 1, "Y": 1}, "interpolation": 2}]}, "volume": {"Points": [{"co": {"X": 1, "Y": 1}, "interpolation": 2}]}, "wave_color": {"alpha": {"Points": [{"co": {"X": 1, "Y": 255}, "handle_left": {"X": 0.5, "Y": 1}, "handle_right": {"X": 0.5, "Y": 0}, "handle_type": 0, "interpolation": 0}]}, "blue": {"Points": [{"co": {"X": 1, "Y": 255}, "handle_left": {"X": 0.5, "Y": 1}, "handle_right": {"X": 0.5, "Y": 0}, "handle_type": 0, "interpolation": 0}]}, "green": {"Points": [{"co": {"X": 1, "Y": 123}, "handle_left": {"X": 0.5, "Y": 1}, "handle_right": {"X": 0.5, "Y": 0}, "handle_type": 0, "interpolation": 0}]}, "red": {"Points": [{"co": {"X": 1, "Y": 0}, "handle_left": {"X": 0.5, "Y": 1}, "handle_right": {"X": 0.5, "Y": 0}, "handle_type": 0, "interpolation": 0}]}}, "waveform": false, "file_id": "K7P7UCSPFA", "title": "IMG_3229.MOV", "image": "../../../.openshot_qt/thumbnail/K7P7UCSPFA.png"}, {"alpha": {"Points": [{"co": {"X": 1, "Y": 1}, "interpolation": 2}]}, "anchor": 0, "channel_filter": {"Points": [{"co": {"X": 1, "Y": -1}, "interpolation": 2}]}, "channel_mapping": {"Points": [{"co": {"X": 1, "Y": -1}, "interpolation": 2}]}, "crop_height": {"Points": [{"co": {"X": 1, "Y": -1}, "interpolation": 2}]}, "crop_width": {"Points": [{"co": {"X": 1, "Y": -1}, "interpolation": 2}]}, "crop_x": {"Points": [{"co": {"X": 1, "Y": 0}, "interpolation": 2}]}, "crop_y": {"Points": [{"co": {"X": 1, "Y": 0}, "interpolation": 2}]}, "display": 0, "duration": 53.0, "effects": [], "end": 6.7, "gravity": 4, "has_audio": {"Points": [{"co": {"X": 1, "Y": 0}, "interpolation": 2}]}, "has_video": {"Points": [{"co": {"X": 1, "Y": -1}, "interpolation": 2}]}, "id": "S090BV28O3", "layer": 4, "location_x": {"Points": [{"co": {"X": 1, "Y": 0}, "interpolation": 2}]}, "location_y": {"Points": [{"co": {"X": 1, "Y": 0}, "interpolation": 2}]}, "mixing": 0, "perspective_c1_x": {"Points": [{"co": {"X": 1, "Y": -1}, "interpolation": 2}]}, "perspective_c1_y": {"Points": [{"co": {"X": 1, "Y": -1}, "interpolation": 2}]}, "perspective_c2_x": {"Points": [{"co": {"X": 1, "Y": -1}, "interpolation": 2}]}, "perspective_c2_y": {"Points": [{"co": {"X": 1, "Y": -1}, "interpolation": 2}]}, "perspective_c3_x": {"Points": [{"co": {"X": 1, "Y": -1}, "interpolation": 2}]}, "perspective_c3_y": {"Points": [{"co": {"X": 1, "Y": -1}, "interpolation": 2}]}, "perspective_c4_x": {"Points": [{"co": {"X": 1, "Y": -1}, "interpolation": 2}]}, "perspective_c4_y": {"Points": [{"co": {"X": 1, "Y": -1}, "interpolation": 2}]}, "position": 132.53333333333333, "reader": {"acodec": "pcm_s16le", "audio_bit_rate": 1536000, "audio_stream_index": 1, "audio_timebase": {"den": 48000, "num": 1}, "channel_layout": 3, "channels": 2, "display_ratio": {"den": 9, "num": 16}, "duration": 53.0, "file_size": "181311560", "fps": {"den": 1, "num": 50}, "has_audio": true, "has_single_image": false, "has_video": true, "height": 720, "interlaced_frame": false, "metadata": {"com.apple.quicktime.make": "Canon", "com.apple.quicktime.model": "Canon EOS 5D Mark III", "com.apple.quicktime.rating.user": "0.000000", "compatible_brands": "qt  CAEP", "creation_time": "2022-02-27T17:13:41.000000Z", "language": "eng", "major_brand": "qt", "minor_version": "537331968", "timecode": "04:09:36:20"}, "path": "IMG_3239.MOV", "pixel_format": 12, "pixel_ratio": {"den": 1, "num": 1}, "sample_rate": 48000, "top_field_first": true, "type": "FFmpegReader", "vcodec": "h264", "video_bit_rate": 3420972, "video_length": "2650", "video_stream_index": 0, "video_timebase": {"den": 50000, "num": 1}, "width": 1280}, "rotation": {"Points": [{"co": {"X": 1, "Y": 0}, "interpolation": 2}]}, "scale": 1, "scale_x": {"Points": [{"co": {"X": 1, "Y": 1}, "interpolation": 2}]}, "scale_y": {"Points": [{"co": {"X": 1, "Y": 1}, "interpolation": 2}]}, "shear_x": {"Points": [{"co": {"X": 1, "Y": 0}, "interpolation": 2}]}, "shear_y": {"Points": [{"co": {"X": 1, "Y": 0}, "interpolation": 2}]}, "start": 2.3, "time": {"Points": [{"co": {"X": 1, "Y": 1}, "interpolation": 2}]}, "volume": {"Points": [{"co": {"X": 1, "Y": 1}, "interpolation": 2}]}, "wave_color": {"alpha": {"Points": [{"co": {"X": 1, "Y": 255}, "handle_left": {"X": 0.5, "Y": 1}, "handle_right": {"X": 0.5, "Y": 0}, "handle_type": 0, "interpolation": 0}]}, "blue": {"Points": [{"co": {"X": 1, "Y": 255}, "handle_left": {"X": 0.5, "Y": 1}, "handle_right": {"X": 0.5, "Y": 0}, "handle_type": 0, "interpolation": 0}]}, "green": {"Points": [{"co": {"X": 1, "Y": 123}, "handle_left": {"X": 0.5, "Y": 1}, "handle_right": {"X": 0.5, "Y": 0}, "handle_type": 0, "interpolation": 0}]}, "red": {"Points": [{"co": {"X": 1, "Y": 0}, "handle_left": {"X": 0.5, "Y": 1}, "handle_right": {"X": 0.5, "Y": 0}, "handle_type": 0, "interpolation": 0}]}}, "waveform": false, "file_id": "GP0R3T69I4", "title": "IMG_3239.MOV", "image": "../../../.openshot_qt/thumbnail/S090BV28O3-66.png"}, {"alpha": {"Points": [{"co": {"X": 1, "Y": 1}, "interpolation": 2}]}, "anchor": 0, "channel_filter": {"Points": [{"co": {"X": 1, "Y": -1}, "interpolation": 2}]}, "channel_mapping": {"Points": [{"co": {"X": 1, "Y": -1}, "interpolation": 2}]}, "crop_height": {"Points": [{"co": {"X": 1, "Y": -1}, "interpolation": 2}]}, "crop_width": {"Points": [{"co": {"X": 1, "Y": -1}, "interpolation": 2}]}, "crop_x": {"Points": [{"co": {"X": 1, "Y": 0}, "interpolation": 2}]}, "crop_y": {"Points": [{"co": {"X": 1, "Y": 0}, "interpolation": 2}]}, "display": 0, "duration": 53.0, "effects": [], "end": 11.833333333333334, "gravity": 4, "has_audio": {"Points": [{"co": {"X": 1, "Y": 0}, "interpolation": 2}]}, "has_video": {"Points": [{"co": {"X": 1, "Y": -1}, "interpolation": 2}]}, "layer": 4, "location_x": {"Points": [{"co": {"X": 1, "Y": 0}, "interpolation": 2}]}, "location_y": {"Points": [{"co": {"X": 1, "Y": 0}, "interpolation": 2}]}, "mixing": 0, "perspective_c1_x": {"Points": [{"co": {"X": 1, "Y": -1}, "interpolation": 2}]}, "perspective_c1_y": {"Points": [{"co": {"X": 1, "Y": -1}, "interpolation": 2}]}, "perspective_c2_x": {"Points": [{"co": {"X": 1, "Y": -1}, "interpolation": 2}]}, "perspective_c2_y": {"Points": [{"co": {"X": 1, "Y": -1}, "interpolation": 2}]}, "perspective_c3_x": {"Points": [{"co": {"X": 1, "Y": -1}, "interpolation": 2}]}, "perspective_c3_y": {"Points": [{"co": {"X": 1, "Y": -1}, "interpolation": 2}]}, "perspective_c4_x": {"Points": [{"co": {"X": 1, "Y": -1}, "interpolation": 2}]}, "perspective_c4_y": {"Points": [{"co": {"X": 1, "Y": -1}, "interpolation": 2}]}, "position": 136.93333333333334, "reader": {"acodec": "pcm_s16le", "audio_bit_rate": 1536000, "audio_stream_index": 1, "audio_timebase": {"den": 48000, "num": 1}, "channel_layout": 3, "channels": 2, "display_ratio": {"den": 9, "num": 16}, "duration": 53.0, "file_size": "181311560", "fps": {"den": 1, "num": 50}, "has_audio": true, "has_single_image": false, "has_video": true, "height": 720, "interlaced_frame": false, "metadata": {"com.apple.quicktime.make": "Canon", "com.apple.quicktime.model": "Canon EOS 5D Mark III", "com.apple.quicktime.rating.user": "0.000000", "compatible_brands": "qt  CAEP", "creation_time": "2022-02-27T17:13:41.000000Z", "language": "eng", "major_brand": "qt", "minor_version": "537331968", "timecode": "04:09:36:20"}, "path": "IMG_3239.MOV", "pixel_format": 12, "pixel_ratio": {"den": 1, "num": 1}, "sample_rate": 48000, "top_field_first": true, "type": "FFmpegReader", "vcodec": "h264", "video_bit_rate": 3420972, "video_length": "2650", "video_stream_index": 0, "video_timebase": {"den": 50000, "num": 1}, "width": 1280}, "rotation": {"Points": [{"co": {"X": 1, "Y": 0}, "interpolation": 2}]}, "scale": 1, "scale_x": {"Points": [{"co": {"X": 1, "Y": 1}, "interpolation": 2}]}, "scale_y": {"Points": [{"co": {"X": 1, "Y": 1}, "interpolation": 2}]}, "shear_x": {"Points": [{"co": {"X": 1, "Y": 0}, "interpolation": 2}]}, "shear_y": {"Points": [{"co": {"X": 1, "Y": 0}, "interpolation": 2}]}, "start": 10.066666666666666, "time": {"Points": [{"co": {"X": 1, "Y": 1}, "interpolation": 2}]}, "volume": {"Points": [{"co": {"X": 1, "Y": 1}, "interpolation": 2}]}, "wave_color": {"alpha": {"Points": [{"co": {"X": 1, "Y": 255}, "handle_left": {"X": 0.5, "Y": 1}, "handle_right": {"X": 0.5, "Y": 0}, "handle_type": 0, "interpolation": 0}]}, "blue": {"Points": [{"co": {"X": 1, "Y": 255}, "handle_left": {"X": 0.5, "Y": 1}, "handle_right": {"X": 0.5, "Y": 0}, "handle_type": 0, "interpolation": 0}]}, "green": {"Points": [{"co": {"X": 1, "Y": 123}, "handle_left": {"X": 0.5, "Y": 1}, "handle_right": {"X": 0.5, "Y": 0}, "handle_type": 0, "interpolation": 0}]}, "red": {"Points": [{"co": {"X": 1, "Y": 0}, "handle_left": {"X": 0.5, "Y": 1}, "handle_right": {"X": 0.5, "Y": 0}, "handle_type": 0, "interpolation": 0}]}}, "waveform": false, "file_id": "GP0R3T69I4", "title": "IMG_3239.MOV", "image": "../../../.openshot_qt/thumbnail/EEBX6PFH0T-504.png", "id": "EEBX6PFH0T"}, {"alpha": {"Points": [{"co": {"X": 1, "Y": 1}, "interpolation": 2}]}, "anchor": 0, "channel_filter": {"Points": [{"co": {"X": 1, "Y": -1}, "interpolation": 2}]}, "channel_mapping": {"Points": [{"co": {"X": 1, "Y": -1}, "interpolation": 2}]}, "crop_height": {"Points": [{"co": {"X": 1, "Y": -1}, "interpolation": 2}]}, "crop_width": {"Points": [{"co": {"X": 1, "Y": -1}, "interpolation": 2}]}, "crop_x": {"Points": [{"co": {"X": 1, "Y": 0}, "interpolation": 2}]}, "crop_y": {"Points": [{"co": {"X": 1, "Y": 0}, "interpolation": 2}]}, "display": 0, "duration": 25.280000686645508, "effects": [], "end": 24.766666666666666, "gravity": 4, "has_audio": {"Points": [{"co": {"X": 1, "Y": 0}, "interpolation": 2}]}, "has_video": {"Points": [{"co": {"X": 1, "Y": -1}, "interpolation": 2}]}, "id": "93G86CMBRP", "layer": 4, "location_x": {"Points": [{"co": {"X": 1, "Y": 0}, "interpolation": 2}]}, "location_y": {"Points": [{"co": {"X": 1, "Y": 0}, "interpolation": 2}]}, "mixing": 0, "perspective_c1_x": {"Points": [{"co": {"X": 1, "Y": -1}, "interpolation": 2}]}, "perspective_c1_y": {"Points": [{"co": {"X": 1, "Y": -1}, "interpolation": 2}]}, "perspective_c2_x": {"Points": [{"co": {"X": 1, "Y": -1}, "interpolation": 2}]}, "perspective_c2_y": {"Points": [{"co": {"X": 1, "Y": -1}, "interpolation": 2}]}, "perspective_c3_x": {"Points": [{"co": {"X": 1, "Y": -1}, "interpolation": 2}]}, "perspective_c3_y": {"Points": [{"co": {"X": 1, "Y": -1}, "interpolation": 2}]}, "perspective_c4_x": {"Points": [{"co": {"X": 1, "Y": -1}, "interpolation": 2}]}, "perspective_c4_y": {"Points": [{"co": {"X": 1, "Y": -1}, "interpolation": 2}]}, "position": 138.7, "reader": {"acodec": "pcm_s16le", "audio_bit_rate": 1536000, "audio_stream_index": 1, "audio_timebase": {"den": 48000, "num": 1}, "channel_layout": 3, "channels": 2, "display_ratio": {"den": 9, "num": 16}, "duration": 25.280000686645508, "file_size": "86795292", "fps": {"den": 1, "num": 50}, "has_audio": true, "has_single_image": false, "has_video": true, "height": 720, "interlaced_frame": false, "metadata": {"com.apple.quicktime.make": "Canon", "com.apple.quicktime.model": "Canon EOS 5D Mark III", "com.apple.quicktime.rating.user": "0.000000", "compatible_brands": "qt  CAEP", "creation_time": "2022-02-27T17:15:31.000000Z", "language": "eng", "major_brand": "qt", "minor_version": "537331968", "timecode": "04:10:51:16"}, "path": "IMG_3241.MOV", "pixel_format": 12, "pixel_ratio": {"den": 1, "num": 1}, "sample_rate": 48000, "top_field_first": true, "type": "FFmpegReader", "vcodec": "h264", "video_bit_rate": 3433358, "video_length": "1264", "video_stream_index": 0, "video_timebase": {"den": 50000, "num": 1}, "width": 1280}, "rotation": {"Points": [{"co": {"X": 1, "Y": 0}, "interpolation": 2}]}, "scale": 1, "scale_x": {"Points": [{"co": {"X": 1, "Y": 1}, "interpolation": 2}]}, "scale_y": {"Points": [{"co": {"X": 1, "Y": 1}, "interpolation": 2}]}, "shear_x": {"Points": [{"co": {"X": 1, "Y": 0}, "interpolation": 2}]}, "shear_y": {"Points": [{"co": {"X": 1, "Y": 0}, "interpolation": 2}]}, "start": 22.1, "time": {"Points": [{"co": {"X": 1, "Y": 1}, "interpolation": 2}]}, "volume": {"Points": [{"co": {"X": 1, "Y": 1}, "interpolation": 2}]}, "wave_color": {"alpha": {"Points": [{"co": {"X": 1, "Y": 255}, "handle_left": {"X": 0.5, "Y": 1}, "handle_right": {"X": 0.5, "Y": 0}, "handle_type": 0, "interpolation": 0}]}, "blue": {"Points": [{"co": {"X": 1, "Y": 255}, "handle_left": {"X": 0.5, "Y": 1}, "handle_right": {"X": 0.5, "Y": 0}, "handle_type": 0, "interpolation": 0}]}, "green": {"Points": [{"co": {"X": 1, "Y": 123}, "handle_left": {"X": 0.5, "Y": 1}, "handle_right": {"X": 0.5, "Y": 0}, "handle_type": 0, "interpolation": 0}]}, "red": {"Points": [{"co": {"X": 1, "Y": 0}, "handle_left": {"X": 0.5, "Y": 1}, "handle_right": {"X": 0.5, "Y": 0}, "handle_type": 0, "interpolation": 0}]}}, "waveform": false, "file_id": "ERIGJC5OO2", "title": "IMG_3241.MOV", "image": "../../../.openshot_qt/thumbnail/ERIGJC5OO2.png"}, {"alpha": {"Points": [{"co": {"X": 1, "Y": 1}, "interpolation": 2}]}, "anchor": 0, "channel_filter": {"Points": [{"co": {"X": 1, "Y": -1}, "interpolation": 2}]}, "channel_mapping": {"Points": [{"co": {"X": 1, "Y": -1}, "interpolation": 2}]}, "crop_height": {"Points": [{"co": {"X": 1, "Y": -1}, "interpolation": 2}]}, "crop_width": {"Points": [{"co": {"X": 1, "Y": -1}, "interpolation": 2}]}, "crop_x": {"Points": [{"co": {"X": 1, "Y": 0}, "interpolation": 2}]}, "crop_y": {"Points": [{"co": {"X": 1, "Y": 0}, "interpolation": 2}]}, "display": 0, "duration": 25.68000030517578, "effects": [], "end": 14.800000000000006, "gravity": 4, "has_audio": {"Points": [{"co": {"X": 1, "Y": 0}, "interpolation": 2}]}, "has_video": {"Points": [{"co": {"X": 1, "Y": -1}, "interpolation": 2}]}, "id": "P8G7I0KOPM", "layer": 4, "location_x": {"Points": [{"co": {"X": 1, "Y": 0}, "interpolation": 2}]}, "location_y": {"Points": [{"co": {"X": 1, "Y": 0}, "interpolation": 2}]}, "mixing": 0, "perspective_c1_x": {"Points": [{"co": {"X": 1, "Y": -1}, "interpolation": 2}]}, "perspective_c1_y": {"Points": [{"co": {"X": 1, "Y": -1}, "interpolation": 2}]}, "perspective_c2_x": {"Points": [{"co": {"X": 1, "Y": -1}, "interpolation": 2}]}, "perspective_c2_y": {"Points": [{"co": {"X": 1, "Y": -1}, "interpolation": 2}]}, "perspective_c3_x": {"Points": [{"co": {"X": 1, "Y": -1}, "interpolation": 2}]}, "perspective_c3_y": {"Points": [{"co": {"X": 1, "Y": -1}, "interpolation": 2}]}, "perspective_c4_x": {"Points": [{"co": {"X": 1, "Y": -1}, "interpolation": 2}]}, "perspective_c4_y": {"Points": [{"co": {"X": 1, "Y": -1}, "interpolation": 2}]}, "position": 141.36666666666667, "reader": {"acodec": "pcm_s16le", "audio_bit_rate": 1536000, "audio_stream_index": 1, "audio_timebase": {"den": 48000, "num": 1}, "channel_layout": 3, "channels": 2, "display_ratio": {"den": 9, "num": 16}, "duration": 25.68000030517578, "file_size": "88008968", "fps": {"den": 1, "num": 50}, "has_audio": true, "has_single_image": false, "has_video": true, "height": 720, "interlaced_frame": false, "metadata": {"com.apple.quicktime.make": "Canon", "com.apple.quicktime.model": "Canon EOS 5D Mark III", "com.apple.quicktime.rating.user": "0.000000", "compatible_brands": "qt  CAEP", "creation_time": "2022-02-27T17:16:19.000000Z", "language": "eng", "major_brand": "qt", "minor_version": "537331968", "timecode": "04:11:27:24"}, "path": "IMG_3243.MOV", "pixel_format": 12, "pixel_ratio": {"den": 1, "num": 1}, "sample_rate": 48000, "top_field_first": true, "type": "FFmpegReader", "vcodec": "h264", "video_bit_rate": 3427140, "video_length": "1284", "video_stream_index": 0, "video_timebase": {"den": 50000, "num": 1}, "width": 1280}, "rotation": {"Points": [{"co": {"X": 1, "Y": 0}, "interpolation": 2}]}, "scale": 1, "scale_x": {"Points": [{"co": {"X": 1, "Y": 1}, "interpolation": 2}]}, "scale_y": {"Points": [{"co": {"X": 1, "Y": 1}, "interpolation": 2}]}, "shear_x": {"Points": [{"co": {"X": 1, "Y": 0}, "interpolation": 2}]}, "shear_y": {"Points": [{"co": {"X": 1, "Y": 0}, "interpolation": 2}]}, "start": 6.4, "time": {"Points": [{"co": {"X": 1, "Y": 1}, "interpolation": 2}]}, "volume": {"Points": [{"co": {"X": 1, "Y": 1}, "interpolation": 2}]}, "wave_color": {"alpha": {"Points": [{"co": {"X": 1, "Y": 255}, "handle_left": {"X": 0.5, "Y": 1}, "handle_right": {"X": 0.5, "Y": 0}, "handle_type": 0, "interpolation": 0}]}, "blue": {"Points": [{"co": {"X": 1, "Y": 255}, "handle_left": {"X": 0.5, "Y": 1}, "handle_right": {"X": 0.5, "Y": 0}, "handle_type": 0, "interpolation": 0}]}, "green": {"Points": [{"co": {"X": 1, "Y": 123}, "handle_left": {"X": 0.5, "Y": 1}, "handle_right": {"X": 0.5, "Y": 0}, "handle_type": 0, "interpolation": 0}]}, "red": {"Points": [{"co": {"X": 1, "Y": 0}, "handle_left": {"X": 0.5, "Y": 1}, "handle_right": {"X": 0.5, "Y": 0}, "handle_type": 0, "interpolation": 0}]}}, "waveform": false, "file_id": "2TZKOLOZK2", "title": "IMG_3243.MOV", "image": "../../../.openshot_qt/thumbnail/2TZKOLOZK2.png"}, {"alpha": {"Points": [{"co": {"X": 1, "Y": 1}, "interpolation": 2}]}, "anchor": 0, "channel_filter": {"Points": [{"co": {"X": 1, "Y": -1}, "interpolation": 2}]}, "channel_mapping": {"Points": [{"co": {"X": 1, "Y": -1}, "interpolation": 2}]}, "crop_height": {"Points": [{"co": {"X": 1, "Y": -1}, "interpolation": 2}]}, "crop_width": {"Points": [{"co": {"X": 1, "Y": -1}, "interpolation": 2}]}, "crop_x": {"Points": [{"co": {"X": 1, "Y": 0}, "interpolation": 2}]}, "crop_y": {"Points": [{"co": {"X": 1, "Y": 0}, "interpolation": 2}]}, "display": 0, "duration": 14.359999656677246, "effects": [], "end": 9.9, "gravity": 4, "has_audio": {"Points": [{"co": {"X": 1, "Y": 0}, "interpolation": 2}]}, "has_video": {"Points": [{"co": {"X": 1, "Y": -1}, "interpolation": 2}]}, "id": "3R67S3LX2Y", "layer": 4, "location_x": {"Points": [{"co": {"X": 1, "Y": 0}, "interpolation": 2}]}, "location_y": {"Points": [{"co": {"X": 1, "Y": 0}, "interpolation": 2}]}, "mixing": 0, "perspective_c1_x": {"Points": [{"co": {"X": 1, "Y": -1}, "interpolation": 2}]}, "perspective_c1_y": {"Points": [{"co": {"X": 1, "Y": -1}, "interpolation": 2}]}, "perspective_c2_x": {"Points": [{"co": {"X": 1, "Y": -1}, "interpolation": 2}]}, "perspective_c2_y": {"Points": [{"co": {"X": 1, "Y": -1}, "interpolation": 2}]}, "perspective_c3_x": {"Points": [{"co": {"X": 1, "Y": -1}, "interpolation": 2}]}, "perspective_c3_y": {"Points": [{"co": {"X": 1, "Y": -1}, "interpolation": 2}]}, "perspective_c4_x": {"Points": [{"co": {"X": 1, "Y": -1}, "interpolation": 2}]}, "perspective_c4_y": {"Points": [{"co": {"X": 1, "Y": -1}, "interpolation": 2}]}, "position": 130.63333333333333, "reader": {"acodec": "pcm_s16le", "audio_bit_rate": 1536000, "audio_stream_index": 1, "audio_timebase": {"den": 48000, "num": 1}, "channel_layout": 3, "channels": 2, "display_ratio": {"den": 9, "num": 16}, "duration": 14.359999656677246, "file_size": "49516112", "fps": {"den": 1, "num": 50}, "has_audio": true, "has_single_image": false, "has_video": true, "height": 720, "interlaced_frame": false, "metadata": {"com.apple.quicktime.make": "Canon", "com.apple.quicktime.model": "Canon EOS 5D Mark III", "com.apple.quicktime.rating.user": "0.000000", "compatible_brands": "qt  CAEP", "creation_time": "2022-02-27T17:21:09.000000Z", "language": "eng", "major_brand": "qt", "minor_version": "537331968", "timecode": "04:14:11:13"}, "path": "IMG_3252.MOV", "pixel_format": 12, "pixel_ratio": {"den": 1, "num": 1}, "sample_rate": 48000, "top_field_first": true, "type": "FFmpegReader", "vcodec": "h264", "video_bit_rate": 3448197, "video_length": "718", "video_stream_index": 0, "video_timebase": {"den": 50000, "num": 1}, "width": 1280}, "rotation": {"Points": [{"co": {"X": 1, "Y": 0}, "interpolation": 2}]}, "scale": 1, "scale_x": {"Points": [{"co": {"X": 1, "Y": 1}, "interpolation": 2}]}, "scale_y": {"Points": [{"co": {"X": 1, "Y": 1}, "interpolation": 2}]}, "shear_x": {"Points": [{"co": {"X": 1, "Y": 0}, "interpolation": 2}]}, "shear_y": {"Points": [{"co": {"X": 1, "Y": 0}, "interpolation": 2}]}, "start": 8, "time": {"Points": [{"co": {"X": 1, "Y": 1}, "interpolation": 2}]}, "volume": {"Points": [{"co": {"X": 1, "Y": 1}, "interpolation": 2}]}, "wave_color": {"alpha": {"Points": [{"co": {"X": 1, "Y": 255}, "handle_left": {"X": 0.5, "Y": 1}, "handle_right": {"X": 0.5, "Y": 0}, "handle_type": 0, "interpolation": 0}]}, "blue": {"Points": [{"co": {"X": 1, "Y": 255}, "handle_left": {"X": 0.5, "Y": 1}, "handle_right": {"X": 0.5, "Y": 0}, "handle_type": 0, "interpolation": 0}]}, "green": {"Points": [{"co": {"X": 1, "Y": 123}, "handle_left": {"X": 0.5, "Y": 1}, "handle_right": {"X": 0.5, "Y": 0}, "handle_type": 0, "interpolation": 0}]}, "red": {"Points": [{"co": {"X": 1, "Y": 0}, "handle_left": {"X": 0.5, "Y": 1}, "handle_right": {"X": 0.5, "Y": 0}, "handle_type": 0, "interpolation": 0}]}}, "waveform": false, "file_id": "HOXCMJH2EV", "title": "IMG_3252.MOV", "image": "../../../.openshot_qt/thumbnail/HOXCMJH2EV.png"}, {"alpha": {"Points": [{"co": {"X": 1, "Y": 1}, "interpolation": 2}]}, "anchor": 0, "channel_filter": {"Points": [{"co": {"X": 1, "Y": -1}, "interpolation": 2}]}, "channel_mapping": {"Points": [{"co": {"X": 1, "Y": -1}, "interpolation": 2}]}, "crop_height": {"Points": [{"co": {"X": 1, "Y": -1}, "interpolation": 2}]}, "crop_width": {"Points": [{"co": {"X": 1, "Y": -1}, "interpolation": 2}]}, "crop_x": {"Points": [{"co": {"X": 1, "Y": 0}, "interpolation": 2}]}, "crop_y": {"Points": [{"co": {"X": 1, "Y": 0}, "interpolation": 2}]}, "display": 0, "duration": 25.68000030517578, "effects": [], "end": 20.233333333333334, "gravity": 4, "has_audio": {"Points": [{"co": {"X": 1, "Y": 0}, "interpolation": 2}]}, "has_video": {"Points": [{"co": {"X": 1, "Y": -1}, "interpolation": 2}]}, "layer": 4, "location_x": {"Points": [{"co": {"X": 1, "Y": 0}, "interpolation": 2}]}, "location_y": {"Points": [{"co": {"X": 1, "Y": 0}, "interpolation": 2}]}, "mixing": 0, "perspective_c1_x": {"Points": [{"co": {"X": 1, "Y": -1}, "interpolation": 2}]}, "perspective_c1_y": {"Points": [{"co": {"X": 1, "Y": -1}, "interpolation": 2}]}, "perspective_c2_x": {"Points": [{"co": {"X": 1, "Y": -1}, "interpolation": 2}]}, "perspective_c2_y": {"Points": [{"co": {"X": 1, "Y": -1}, "interpolation": 2}]}, "perspective_c3_x": {"Points": [{"co": {"X": 1, "Y": -1}, "interpolation": 2}]}, "perspective_c3_y": {"Points": [{"co": {"X": 1, "Y": -1}, "interpolation": 2}]}, "perspective_c4_x": {"Points": [{"co": {"X": 1, "Y": -1}, "interpolation": 2}]}, "perspective_c4_y": {"Points": [{"co": {"X": 1, "Y": -1}, "interpolation": 2}]}, "position": 149.76666666666668, "reader": {"acodec": "pcm_s16le", "audio_bit_rate": 1536000, "audio_stream_index": 1, "audio_timebase": {"den": 48000, "num": 1}, "channel_layout": 3, "channels": 2, "display_ratio": {"den": 9, "num": 16}, "duration": 25.68000030517578, "file_size": "88008968", "fps": {"den": 1, "num": 50}, "has_audio": true, "has_single_image": false, "has_video": true, "height": 720, "interlaced_frame": false, "metadata": {"com.apple.quicktime.make": "Canon", "com.apple.quicktime.model": "Canon EOS 5D Mark III", "com.apple.quicktime.rating.user": "0.000000", "compatible_brands": "qt  CAEP", "creation_time": "2022-02-27T17:16:19.000000Z", "language": "eng", "major_brand": "qt", "minor_version": "537331968", "timecode": "04:11:27:24"}, "path": "IMG_3243.MOV", "pixel_format": 12, "pixel_ratio": {"den": 1, "num": 1}, "sample_rate": 48000, "top_field_first": true, "type": "FFmpegReader", "vcodec": "h264", "video_bit_rate": 3427140, "video_length": "1284", "video_stream_index": 0, "video_timebase": {"den": 50000, "num": 1}, "width": 1280}, "rotation": {"Points": [{"co": {"X": 1, "Y": 0}, "interpolation": 2}]}, "scale": 1, "scale_x": {"Points": [{"co": {"X": 1, "Y": 1}, "interpolation": 2}]}, "scale_y": {"Points": [{"co": {"X": 1, "Y": 1}, "interpolation": 2}]}, "shear_x": {"Points": [{"co": {"X": 1, "Y": 0}, "interpolation": 2}]}, "shear_y": {"Points": [{"co": {"X": 1, "Y": 0}, "interpolation": 2}]}, "start": 18.066666666666666, "time": {"Points": [{"co": {"X": 1, "Y": 1}, "interpolation": 2}]}, "volume": {"Points": [{"co": {"X": 1, "Y": 1}, "interpolation": 2}]}, "wave_color": {"alpha": {"Points": [{"co": {"X": 1, "Y": 255}, "handle_left": {"X": 0.5, "Y": 1}, "handle_right": {"X": 0.5, "Y": 0}, "handle_type": 0, "interpolation": 0}]}, "blue": {"Points": [{"co": {"X": 1, "Y": 255}, "handle_left": {"X": 0.5, "Y": 1}, "handle_right": {"X": 0.5, "Y": 0}, "handle_type": 0, "interpolation": 0}]}, "green": {"Points": [{"co": {"X": 1, "Y": 123}, "handle_left": {"X": 0.5, "Y": 1}, "handle_right": {"X": 0.5, "Y": 0}, "handle_type": 0, "interpolation": 0}]}, "red": {"Points": [{"co": {"X": 1, "Y": 0}, "handle_left": {"X": 0.5, "Y": 1}, "handle_right": {"X": 0.5, "Y": 0}, "handle_type": 0, "interpolation": 0}]}}, "waveform": false, "file_id": "2TZKOLOZK2", "title": "IMG_3243.MOV", "image": "../../../.openshot_qt/thumbnail/BPNUDKEDKN-744.png", "id": "BPNUDKEDKN"}, {"alpha": {"Points": [{"co": {"X": 1, "Y": 1}, "interpolation": 2}]}, "anchor": 0, "channel_filter": {"Points": [{"co": {"X": 1, "Y": -1}, "interpolation": 2}]}, "channel_mapping": {"Points": [{"co": {"X": 1, "Y": -1}, "interpolation": 2}]}, "crop_height": {"Points": [{"co": {"X": 1, "Y": -1}, "interpolation": 2}]}, "crop_width": {"Points": [{"co": {"X": 1, "Y": -1}, "interpolation": 2}]}, "crop_x": {"Points": [{"co": {"X": 1, "Y": 0}, "interpolation": 2}]}, "crop_y": {"Points": [{"co": {"X": 1, "Y": 0}, "interpolation": 2}]}, "display": 0, "duration": 6.900000095367432, "effects": [], "end": 6.900000095367432, "gravity": 4, "has_audio": {"Points": [{"co": {"X": 1, "Y": 0}, "interpolation": 2}]}, "has_video": {"Points": [{"co": {"X": 1, "Y": -1}, "interpolation": 2}]}, "id": "4XR3HGNOXJ", "layer": 4, "location_x": {"Points": [{"co": {"X": 1, "Y": 0}, "interpolation": 2}]}, "location_y": {"Points": [{"co": {"X": 1, "Y": 0}, "interpolation": 2}]}, "mixing": 0, "perspective_c1_x": {"Points": [{"co": {"X": 1, "Y": -1}, "interpolation": 2}]}, "perspective_c1_y": {"Points": [{"co": {"X": 1, "Y": -1}, "interpolation": 2}]}, "perspective_c2_x": {"Points": [{"co": {"X": 1, "Y": -1}, "interpolation": 2}]}, "perspective_c2_y": {"Points": [{"co": {"X": 1, "Y": -1}, "interpolation": 2}]}, "perspective_c3_x": {"Points": [{"co": {"X": 1, "Y": -1}, "interpolation": 2}]}, "perspective_c3_y": {"Points": [{"co": {"X": 1, "Y": -1}, "interpolation": 2}]}, "perspective_c4_x": {"Points": [{"co": {"X": 1, "Y": -1}, "interpolation": 2}]}, "perspective_c4_y": {"Points": [{"co": {"X": 1, "Y": -1}, "interpolation": 2}]}, "position": 0, "reader": {"acodec": "", "audio_bit_rate": 0, "audio_stream_index": -1, "audio_timebase": {"den": 1, "num": 1}, "channel_layout": 4, "channels": 0, "display_ratio": {"den": 9, "num": 16}, "duration": 6.900000095367432, "file_size": "64272199", "fps": {"den": 1, "num": 30}, "has_audio": false, "has_single_image": false, "has_video": true, "height": 1080, "interlaced_frame": false, "metadata": {"compatible_brands": "isommp41mp42", "creation_time": "2022-02-28T16:30:14.000000Z", "handler_name": "Core Media Video", "language": "und", "major_brand": "mp42", "minor_version": "1"}, "path": "20220228-213014-636.MP4", "pixel_format": 0, "pixel_ratio": {"den": 1, "num": 1}, "sample_rate": 0, "top_field_first": true, "type": "FFmpegReader", "vcodec": "h264", "video_bit_rate": 9314811, "video_length": "207", "video_stream_index": 0, "video_timebase": {"den": 600, "num": 1}, "width": 1920}, "rotation": {"Points": [{"co": {"X": 1, "Y": 0}, "interpolation": 2}]}, "scale": 1, "scale_x": {"Points": [{"co": {"X": 1, "Y": 1}, "interpolation": 2}]}, "scale_y": {"Points": [{"co": {"X": 1, "Y": 1}, "interpolation": 2}]}, "shear_x": {"Points": [{"co": {"X": 1, "Y": 0}, "interpolation": 2}]}, "shear_y": {"Points": [{"co": {"X": 1, "Y": 0}, "interpolation": 2}]}, "start": 0, "time": {"Points": [{"co": {"X": 1, "Y": 1}, "interpolation": 2}]}, "volume": {"Points": [{"co": {"X": 1, "Y": 1}, "interpolation": 2}]}, "wave_color": {"alpha": {"Points": [{"co": {"X": 1, "Y": 255}, "handle_left": {"X": 0.5, "Y": 1}, "handle_right": {"X": 0.5, "Y": 0}, "handle_type": 0, "interpolation": 0}]}, "blue": {"Points": [{"co": {"X": 1, "Y": 255}, "handle_left": {"X": 0.5, "Y": 1}, "handle_right": {"X": 0.5, "Y": 0}, "handle_type": 0, "interpolation": 0}]}, "green": {"Points": [{"co": {"X": 1, "Y": 123}, "handle_left": {"X": 0.5, "Y": 1}, "handle_right": {"X": 0.5, "Y": 0}, "handle_type": 0, "interpolation": 0}]}, "red": {"Points": [{"co": {"X": 1, "Y": 0}, "handle_left": {"X": 0.5, "Y": 1}, "handle_right": {"X": 0.5, "Y": 0}, "handle_type": 0, "interpolation": 0}]}}, "waveform": false, "file_id": "VM7KF5F56L", "title": "20220228-213014-636.MP4", "image": "../../../.openshot_qt/thumbnail/VM7KF5F56L.png"}, {"alpha": {"Points": [{"co": {"X": 1, "Y": 1}, "interpolation": 2}]}, "anchor": 0, "channel_filter": {"Points": [{"co": {"X": 1, "Y": -1}, "interpolation": 2}]}, "channel_mapping": {"Points": [{"co": {"X": 1, "Y": -1}, "interpolation": 2}]}, "crop_height": {"Points": [{"co": {"X": 1, "Y": -1}, "interpolation": 2}]}, "crop_width": {"Points": [{"co": {"X": 1, "Y": -1}, "interpolation": 2}]}, "crop_x": {"Points": [{"co": {"X": 1, "Y": 0}, "interpolation": 2}]}, "crop_y": {"Points": [{"co": {"X": 1, "Y": 0}, "interpolation": 2}]}, "display": 0, "duration": 6.923583507537842, "effects": [], "end": 6.633333333333334, "gravity": 4, "has_audio": {"Points": [{"co": {"X": 1, "Y": -1}, "interpolation": 2}]}, "has_video": {"Points": [{"co": {"X": 1, "Y": -1}, "interpolation": 2}]}, "id": "I2PE4NNNDT", "layer": 4, "location_x": {"Points": [{"co": {"X": 1, "Y": 0}, "interpolation": 2}]}, "location_y": {"Points": [{"co": {"X": 1, "Y": 0}, "interpolation": 2}]}, "mixing": 0, "perspective_c1_x": {"Points": [{"co": {"X": 1, "Y": -1}, "interpolation": 2}]}, "perspective_c1_y": {"Points": [{"co": {"X": 1, "Y": -1}, "interpolation": 2}]}, "perspective_c2_x": {"Points": [{"co": {"X": 1, "Y": -1}, "interpolation": 2}]}, "perspective_c2_y": {"Points": [{"co": {"X": 1, "Y": -1}, "interpolation": 2}]}, "perspective_c3_x": {"Points": [{"co": {"X": 1, "Y": -1}, "interpolation": 2}]}, "perspective_c3_y": {"Points": [{"co": {"X": 1, "Y": -1}, "interpolation": 2}]}, "perspective_c4_x": {"Points": [{"co": {"X": 1, "Y": -1}, "interpolation": 2}]}, "perspective_c4_y": {"Points": [{"co": {"X": 1, "Y": -1}, "interpolation": 2}]}, "position": 15.6, "reader": {"acodec": "pcm_s16le", "audio_bit_rate": 1536000, "audio_stream_index": 1, "audio_timebase": {"den": 48000, "num": 1}, "channel_layout": 3, "channels": 2, "display_ratio": {"den": 9, "num": 16}, "duration": 6.923583507537842, "file_size": "26653728", "fps": {"den": 1001, "num": 24000}, "has_audio": true, "has_single_image": false, "has_video": true, "height": 1080, "interlaced_frame": false, "metadata": {"com.apple.quicktime.make": "Canon", "com.apple.quicktime.model": "Canon EOS 5D Mark III", "com.apple.quicktime.rating.user": "0.000000", "compatible_brands": "qt  CAEP", "creation_time": "2022-02-27T11:49:48.000000Z", "language": "eng", "major_brand": "qt", "minor_version": "537331968", "timecode": "03:27:48:07"}, "path": "IMG_3046.MOV", "pixel_format": 12, "pixel_ratio": {"den": 1, "num": 1}, "sample_rate": 48000, "top_field_first": true, "type": "FFmpegReader", "vcodec": "h264", "video_bit_rate": 3849701, "video_length": "166", "video_stream_index": 0, "video_timebase": {"den": 24000, "num": 1}, "width": 1920}, "rotation": {"Points": [{"co": {"X": 1, "Y": 0}, "interpolation": 2}]}, "scale": 1, "scale_x": {"Points": [{"co": {"X": 1, "Y": 1}, "interpolation": 2}]}, "scale_y": {"Points": [{"co": {"X": 1, "Y": 1}, "interpolation": 2}]}, "shear_x": {"Points": [{"co": {"X": 1, "Y": 0}, "interpolation": 2}]}, "shear_y": {"Points": [{"co": {"X": 1, "Y": 0}, "interpolation": 2}]}, "start": 0.7333333333333333, "time": {"Points": [{"co": {"X": 1, "Y": 1}, "interpolation": 2}]}, "volume": {"Points": [{"co": {"X": 1, "Y": 1}, "interpolation": 2}]}, "wave_color": {"alpha": {"Points": [{"co": {"X": 1, "Y": 255}, "handle_left": {"X": 0.5, "Y": 1}, "handle_right": {"X": 0.5, "Y": 0}, "handle_type": 0, "interpolation": 0}]}, "blue": {"Points": [{"co": {"X": 1, "Y": 255}, "handle_left": {"X": 0.5, "Y": 1}, "handle_right": {"X": 0.5, "Y": 0}, "handle_type": 0, "interpolation": 0}]}, "green": {"Points": [{"co": {"X": 1, "Y": 123}, "handle_left": {"X": 0.5, "Y": 1}, "handle_right": {"X": 0.5, "Y": 0}, "handle_type": 0, "interpolation": 0}]}, "red": {"Points": [{"co": {"X": 1, "Y": 0}, "handle_left": {"X": 0.5, "Y": 1}, "handle_right": {"X": 0.5, "Y": 0}, "handle_type": 0, "interpolation": 0}]}}, "waveform": false, "file_id": "2UKHZXYB0I", "title": "IMG_3046.MOV", "image": "../../../.openshot_qt/thumbnail/2UKHZXYB0I.png"}, {"alpha": {"Points": [{"co": {"X": 1, "Y": 1}, "interpolation": 2}]}, "anchor": 0, "channel_filter": {"Points": [{"co": {"X": 1, "Y": -1}, "interpolation": 2}]}, "channel_mapping": {"Points": [{"co": {"X": 1, "Y": -1}, "interpolation": 2}]}, "crop_height": {"Points": [{"co": {"X": 1, "Y": -1}, "interpolation": 2}]}, "crop_width": {"Points": [{"co": {"X": 1, "Y": -1}, "interpolation": 2}]}, "crop_x": {"Points": [{"co": {"X": 1, "Y": 0}, "interpolation": 2}]}, "crop_y": {"Points": [{"co": {"X": 1, "Y": 0}, "interpolation": 2}]}, "display": 0, "duration": 6.8401665687561035, "effects": [], "end": 4.366666666666666, "gravity": 4, "has_audio": {"Points": [{"co": {"X": 1, "Y": -1}, "interpolation": 2}]}, "has_video": {"Points": [{"co": {"X": 1, "Y": -1}, "interpolation": 2}]}, "id": "WN706UU7J8", "layer": 4, "location_x": {"Points": [{"co": {"X": 1, "Y": 0}, "interpolation": 2}]}, "location_y": {"Points": [{"co": {"X": 1, "Y": 0}, "interpolation": 2}]}, "mixing": 0, "perspective_c1_x": {"Points": [{"co": {"X": 1, "Y": -1}, "interpolation": 2}]}, "perspective_c1_y": {"Points": [{"co": {"X": 1, "Y": -1}, "interpolation": 2}]}, "perspective_c2_x": {"Points": [{"co": {"X": 1, "Y": -1}, "interpolation": 2}]}, "perspective_c2_y": {"Points": [{"co": {"X": 1, "Y": -1}, "interpolation": 2}]}, "perspective_c3_x": {"Points": [{"co": {"X": 1, "Y": -1}, "interpolation": 2}]}, "perspective_c3_y": {"Points": [{"co": {"X": 1, "Y": -1}, "interpolation": 2}]}, "perspective_c4_x": {"Points": [{"co": {"X": 1, "Y": -1}, "interpolation": 2}]}, "perspective_c4_y": {"Points": [{"co": {"X": 1, "Y": -1}, "interpolation": 2}]}, "position": 23.733333333333334, "reader": {"acodec": "pcm_s16le", "audio_bit_rate": 1536000, "audio_stream_index": 1, "audio_timebase": {"den": 48000, "num": 1}, "channel_layout": 3, "channels": 2, "display_ratio": {"den": 9, "num": 16}, "duration": 6.8401665687561035, "file_size": "26020952", "fps": {"den": 1001, "num": 24000}, "has_audio": true, "has_single_image": false, "has_video": true, "height": 1080, "interlaced_frame": false, "metadata": {"com.apple.quicktime.make": "Canon", "com.apple.quicktime.model": "Canon EOS 5D Mark III", "com.apple.quicktime.rating.user": "0.000000", "compatible_brands": "qt  CAEP", "creation_time": "2022-02-27T12:56:18.000000Z", "language": "eng", "major_brand": "qt", "minor_version": "537331968", "timecode": "03:32:15:14"}, "path": "IMG_3061.MOV", "pixel_format": 12, "pixel_ratio": {"den": 1, "num": 1}, "sample_rate": 48000, "top_field_first": true, "type": "FFmpegReader", "vcodec": "h264", "video_bit_rate": 3804139, "video_length": "164", "video_stream_index": 0, "video_timebase": {"den": 24000, "num": 1}, "width": 1920}, "rotation": {"Points": [{"co": {"X": 1, "Y": 0}, "interpolation": 2}]}, "scale": 1, "scale_x": {"Points": [{"co": {"X": 1, "Y": 1}, "interpolation": 2}]}, "scale_y": {"Points": [{"co": {"X": 1, "Y": 1}, "interpolation": 2}]}, "shear_x": {"Points": [{"co": {"X": 1, "Y": 0}, "interpolation": 2}]}, "shear_y": {"Points": [{"co": {"X": 1, "Y": 0}, "interpolation": 2}]}, "start": 0.5, "time": {"Points": [{"co": {"X": 1, "Y": 1}, "interpolation": 2}]}, "volume": {"Points": [{"co": {"X": 1, "Y": 1}, "interpolation": 2}]}, "wave_color": {"alpha": {"Points": [{"co": {"X": 1, "Y": 255}, "handle_left": {"X": 0.5, "Y": 1}, "handle_right": {"X": 0.5, "Y": 0}, "handle_type": 0, "interpolation": 0}]}, "blue": {"Points": [{"co": {"X": 1, "Y": 255}, "handle_left": {"X": 0.5, "Y": 1}, "handle_right": {"X": 0.5, "Y": 0}, "handle_type": 0, "interpolation": 0}]}, "green": {"Points": [{"co": {"X": 1, "Y": 123}, "handle_left": {"X": 0.5, "Y": 1}, "handle_right": {"X": 0.5, "Y": 0}, "handle_type": 0, "interpolation": 0}]}, "red": {"Points": [{"co": {"X": 1, "Y": 0}, "handle_left": {"X": 0.5, "Y": 1}, "handle_right": {"X": 0.5, "Y": 0}, "handle_type": 0, "interpolation": 0}]}}, "waveform": false, "file_id": "FGH7RW3BXT", "title": "IMG_3061.MOV", "image": "../../../.openshot_qt/thumbnail/FGH7RW3BXT.png"}, {"alpha": {"Points": [{"co": {"X": 1, "Y": 1}, "interpolation": 2}]}, "anchor": 0, "channel_filter": {"Points": [{"co": {"X": 1, "Y": -1}, "interpolation": 2}]}, "channel_mapping": {"Points": [{"co": {"X": 1, "Y": -1}, "interpolation": 2}]}, "crop_height": {"Points": [{"co": {"X": 1, "Y": -1}, "interpolation": 2}]}, "crop_width": {"Points": [{"co": {"X": 1, "Y": -1}, "interpolation": 2}]}, "crop_x": {"Points": [{"co": {"X": 1, "Y": 0}, "interpolation": 2}]}, "crop_y": {"Points": [{"co": {"X": 1, "Y": 0}, "interpolation": 2}]}, "display": 0, "duration": 18.440000534057617, "effects": [], "end": 13.366666666666667, "gravity": 4, "has_audio": {"Points": [{"co": {"X": 1, "Y": -1}, "interpolation": 2}]}, "has_video": {"Points": [{"co": {"X": 1, "Y": -1}, "interpolation": 2}]}, "id": "73UAMGUSAB", "layer": 4, "location_x": {"Points": [{"co": {"X": 1, "Y": 0}, "interpolation": 2}]}, "location_y": {"Points": [{"co": {"X": 1, "Y": 0}, "interpolation": 2}]}, "mixing": 0, "perspective_c1_x": {"Points": [{"co": {"X": 1, "Y": -1}, "interpolation": 2}]}, "perspective_c1_y": {"Points": [{"co": {"X": 1, "Y": -1}, "interpolation": 2}]}, "perspective_c2_x": {"Points": [{"co": {"X": 1, "Y": -1}, "interpolation": 2}]}, "perspective_c2_y": {"Points": [{"co": {"X": 1, "Y": -1}, "interpolation": 2}]}, "perspective_c3_x": {"Points": [{"co": {"X": 1, "Y": -1}, "interpolation": 2}]}, "perspective_c3_y": {"Points": [{"co": {"X": 1, "Y": -1}, "interpolation": 2}]}, "perspective_c4_x": {"Points": [{"co": {"X": 1, "Y": -1}, "interpolation": 2}]}, "perspective_c4_y": {"Points": [{"co": {"X": 1, "Y": -1}, "interpolation": 2}]}, "position": 27.6, "reader": {"acodec": "pcm_s16le", "audio_bit_rate": 1536000, "audio_stream_index": 1, "audio_timebase": {"den": 48000, "num": 1}, "channel_layout": 3, "channels": 2, "display_ratio": {"den": 9, "num": 16}, "duration": 18.440000534057617, "file_size": "63498956", "fps": {"den": 1, "num": 50}, "has_audio": true, "has_single_image": false, "has_video": true, "height": 720, "interlaced_frame": false, "metadata": {"com.apple.quicktime.make": "Canon", "com.apple.quicktime.model": "Canon EOS 5D Mark III", "com.apple.quicktime.rating.user": "0.000000", "compatible_brands": "qt  CAEP", "creation_time": "2022-02-27T14:14:55.000000Z", "language": "eng", "major_brand": "qt", "minor_version": "537331968", "timecode": "03:47:16:21"}, "path": "IMG_3131.MOV", "pixel_format": 12, "pixel_ratio": {"den": 1, "num": 1}, "sample_rate": 48000, "top_field_first": true, "type": "FFmpegReader", "vcodec": "h264", "video_bit_rate": 3443544, "video_length": "922", "video_stream_index": 0, "video_timebase": {"den": 50000, "num": 1}, "width": 1280}, "rotation": {"Points": [{"co": {"X": 1, "Y": 0}, "interpolation": 2}]}, "scale": 1, "scale_x": {"Points": [{"co": {"X": 1, "Y": 1}, "interpolation": 2}]}, "scale_y": {"Points": [{"co": {"X": 1, "Y": 1}, "interpolation": 2}]}, "shear_x": {"Points": [{"co": {"X": 1, "Y": 0}, "interpolation": 2}]}, "shear_y": {"Points": [{"co": {"X": 1, "Y": 0}, "interpolation": 2}]}, "start": 4.7, "time": {"Points": [{"co": {"X": 1, "Y": 1}, "interpolation": 2}]}, "volume": {"Points": [{"co": {"X": 1, "Y": 1}, "interpolation": 2}]}, "wave_color": {"alpha": {"Points": [{"co": {"X": 1, "Y": 255}, "handle_left": {"X": 0.5, "Y": 1}, "handle_right": {"X": 0.5, "Y": 0}, "handle_type": 0, "interpolation": 0}]}, "blue": {"Points": [{"co": {"X": 1, "Y": 255}, "handle_left": {"X": 0.5, "Y": 1}, "handle_right": {"X": 0.5, "Y": 0}, "handle_type": 0, "interpolation": 0}]}, "green": {"Points": [{"co": {"X": 1, "Y": 123}, "handle_left": {"X": 0.5, "Y": 1}, "handle_right": {"X": 0.5, "Y": 0}, "handle_type": 0, "interpolation": 0}]}, "red": {"Points": [{"co": {"X": 1, "Y": 0}, "handle_left": {"X": 0.5, "Y": 1}, "handle_right": {"X": 0.5, "Y": 0}, "handle_type": 0, "interpolation": 0}]}}, "waveform": false, "file_id": "Q5HDEVQF4U", "title": "IMG_3131.MOV", "image": "../../../.openshot_qt/thumbnail/Q5HDEVQF4U.png"}, {"alpha": {"Points": [{"co": {"X": 1, "Y": 1}, "interpolation": 2}]}, "anchor": 0, "channel_filter": {"Points": [{"co": {"X": 1, "Y": -1}, "interpolation": 2}]}, "channel_mapping": {"Points": [{"co": {"X": 1, "Y": -1}, "interpolation": 2}]}, "crop_height": {"Points": [{"co": {"X": 1, "Y": -1}, "interpolation": 2}]}, "crop_width": {"Points": [{"co": {"X": 1, "Y": -1}, "interpolation": 2}]}, "crop_x": {"Points": [{"co": {"X": 1, "Y": 0}, "interpolation": 2}]}, "crop_y": {"Points": [{"co": {"X": 1, "Y": 0}, "interpolation": 2}]}, "display": 0, "duration": 86.0, "effects": [], "end": 24.266666666666666, "gravity": 4, "has_audio": {"Points": [{"co": {"X": 1, "Y": 0}, "interpolation": 2}]}, "has_video": {"Points": [{"co": {"X": 1, "Y": -1}, "interpolation": 2}]}, "id": "3A1XYS74LO", "layer": 4, "location_x": {"Points": [{"co": {"X": 1, "Y": 0}, "interpolation": 2}]}, "location_y": {"Points": [{"co": {"X": 1, "Y": 0}, "interpolation": 2}]}, "mixing": 0, "perspective_c1_x": {"Points": [{"co": {"X": 1, "Y": -1}, "interpolation": 2}]}, "perspective_c1_y": {"Points": [{"co": {"X": 1, "Y": -1}, "interpolation": 2}]}, "perspective_c2_x": {"Points": [{"co": {"X": 1, "Y": -1}, "interpolation": 2}]}, "perspective_c2_y": {"Points": [{"co": {"X": 1, "Y": -1}, "interpolation": 2}]}, "perspective_c3_x": {"Points": [{"co": {"X": 1, "Y": -1}, "interpolation": 2}]}, "perspective_c3_y": {"Points": [{"co": {"X": 1, "Y": -1}, "interpolation": 2}]}, "perspective_c4_x": {"Points": [{"co": {"X": 1, "Y": -1}, "interpolation": 2}]}, "perspective_c4_y": {"Points": [{"co": {"X": 1, "Y": -1}, "interpolation": 2}]}, "position": 126.93333333333334, "reader": {"acodec": "pcm_s16le", "audio_bit_rate": 1536000, "audio_stream_index": 1, "audio_timebase": {"den": 48000, "num": 1}, "channel_layout": 3, "channels": 2, "display_ratio": {"den": 9, "num": 16}, "duration": 43.7599983215332, "file_size": "149382536", "fps": {"den": 1, "num": 50}, "has_audio": true, "has_single_image": false, "has_video": true, "height": 720, "interlaced_frame": false, "metadata": {"com.apple.quicktime.make": "Canon", "com.apple.quicktime.model": "Canon EOS 5D Mark III", "com.apple.quicktime.rating.user": "0.000000", "compatible_brands": "qt  CAEP", "creation_time": "2022-02-27T13:21:26.000000Z", "language": "eng", "major_brand": "qt", "minor_version": "537331968", "timecode": "03:34:10:19"}, "path": "IMG_3080.MOV", "pixel_format": 12, "pixel_ratio": {"den": 1, "num": 1}, "sample_rate": 48000, "top_field_first": true, "type": "FFmpegReader", "vcodec": "h264", "video_bit_rate": 3413677, "video_length": "2188", "video_stream_index": 0, "video_timebase": {"den": 50000, "num": 1}, "width": 1280}, "rotation": {"Points": [{"co": {"X": 1, "Y": 0}, "interpolation": 2}]}, "scale": 1, "scale_x": {"Points": [{"co": {"X": 1, "Y": 1}, "interpolation": 2}]}, "scale_y": {"Points": [{"co": {"X": 1, "Y": 1}, "interpolation": 2}]}, "shear_x": {"Points": [{"co": {"X": 1, "Y": 0}, "interpolation": 2}]}, "shear_y": {"Points": [{"co": {"X": 1, "Y": 0}, "interpolation": 2}]}, "start": 20.566666666666666, "time": {"Points": [{"co": {"X": 618, "Y": 618}, "interpolation": 1}, {"co": {"X": 750, "Y": 684}, "interpolation": 1}]}, "volume": {"Points": [{"co": {"X": 1, "Y": 1}, "interpolation": 2}]}, "wave_color": {"alpha": {"Points": [{"co": {"X": 1, "Y": 255}, "handle_left": {"X": 0.5, "Y": 1}, "handle_right": {"X": 0.5, "Y": 0}, "handle_type": 0, "interpolation": 0}]}, "blue": {"Points": [{"co": {"X": 1, "Y": 255}, "handle_left": {"X": 0.5, "Y": 1}, "handle_right": {"X": 0.5, "Y": 0}, "handle_type": 0, "interpolation": 0}]}, "green": {"Points": [{"co": {"X": 1, "Y": 123}, "handle_left": {"X": 0.5, "Y": 1}, "handle_right": {"X": 0.5, "Y": 0}, "handle_type": 0, "interpolation": 0}]}, "red": {"Points": [{"co": {"X": 1, "Y": 0}, "handle_left": {"X": 0.5, "Y": 1}, "handle_right": {"X": 0.5, "Y": 0}, "handle_type": 0, "interpolation": 0}]}}, "waveform": false, "file_id": "H84MRBTAOP", "title": "IMG_3080.MOV", "image": "../../../.openshot_qt/thumbnail/H84MRBTAOP.png"}, {"alpha": {"Points": [{"co": {"X": 1, "Y": 1}, "interpolation": 2}]}, "anchor": 0, "channel_filter": {"Points": [{"co": {"X": 1, "Y": -1}, "interpolation": 2}]}, "channel_mapping": {"Points": [{"co": {"X": 1, "Y": -1}, "interpolation": 2}]}, "crop_height": {"Points": [{"co": {"X": 1, "Y": -1}, "interpolation": 2}]}, "crop_width": {"Points": [{"co": {"X": 1, "Y": -1}, "interpolation": 2}]}, "crop_x": {"Points": [{"co": {"X": 1, "Y": 0}, "interpolation": 2}]}, "crop_y": {"Points": [{"co": {"X": 1, "Y": 0}, "interpolation": 2}]}, "display": 0, "duration": 6.239999771118164, "effects": [], "end": 1.5333333333333674, "gravity": 4, "has_audio": {"Points": [{"co": {"X": 1, "Y": 0}, "interpolation": 2}]}, "has_video": {"Points": [{"co": {"X": 1, "Y": -1}, "interpolation": 2}]}, "id": "WA6RVER701", "layer": 4, "location_x": {"Points": [{"co": {"X": 1, "Y": 0}, "interpolation": 2}]}, "location_y": {"Points": [{"co": {"X": 1, "Y": 0}, "interpolation": 2}]}, "mixing": 0, "perspective_c1_x": {"Points": [{"co": {"X": 1, "Y": -1}, "interpolation": 2}]}, "perspective_c1_y": {"Points": [{"co": {"X": 1, "Y": -1}, "interpolation": 2}]}, "perspective_c2_x": {"Points": [{"co": {"X": 1, "Y": -1}, "interpolation": 2}]}, "perspective_c2_y": {"Points": [{"co": {"X": 1, "Y": -1}, "interpolation": 2}]}, "perspective_c3_x": {"Points": [{"co": {"X": 1, "Y": -1}, "interpolation": 2}]}, "perspective_c3_y": {"Points": [{"co": {"X": 1, "Y": -1}, "interpolation": 2}]}, "perspective_c4_x": {"Points": [{"co": {"X": 1, "Y": -1}, "interpolation": 2}]}, "perspective_c4_y": {"Points": [{"co": {"X": 1, "Y": -1}, "interpolation": 2}]}, "position": 123.83333333333333, "reader": {"acodec": "pcm_s16le", "audio_bit_rate": 1536000, "audio_stream_index": 1, "audio_timebase": {"den": 48000, "num": 1}, "channel_layout": 3, "channels": 2, "display_ratio": {"den": 9, "num": 16}, "duration": 6.239999771118164, "file_size": "20953892", "fps": {"den": 1, "num": 50}, "has_audio": true, "has_single_image": false, "has_video": true, "height": 720, "interlaced_frame": false, "metadata": {"com.apple.quicktime.make": "Canon", "com.apple.quicktime.model": "Canon EOS 5D Mark III", "com.apple.quicktime.rating.user": "0.000000", "compatible_brands": "qt  CAEP", "creation_time": "2022-02-27T13:22:19.000000Z", "language": "eng", "major_brand": "qt", "minor_version": "537331968", "timecode": "03:34:54:13"}, "path": "IMG_3081.MOV", "pixel_format": 12, "pixel_ratio": {"den": 1, "num": 1}, "sample_rate": 48000, "top_field_first": true, "type": "FFmpegReader", "vcodec": "h264", "video_bit_rate": 3357995, "video_length": "312", "video_stream_index": 0, "video_timebase": {"den": 50000, "num": 1}, "width": 1280}, "rotation": {"Points": [{"co": {"X": 1, "Y": 0}, "interpolation": 2}]}, "scale": 1, "scale_x": {"Points": [{"co": {"X": 1, "Y": 1}, "interpolation": 2}]}, "scale_y": {"Points": [{"co": {"X": 1, "Y": 1}, "interpolation": 2}]}, "shear_x": {"Points": [{"co": {"X": 1, "Y": 0}, "interpolation": 2}]}, "shear_y": {"Points": [{"co": {"X": 1, "Y": 0}, "interpolation": 2}]}, "start": 0.6333333333333333, "time": {"Points": [{"co": {"X": 1, "Y": 1}, "interpolation": 2}]}, "volume": {"Points": [{"co": {"X": 1, "Y": 1}, "interpolation": 2}]}, "wave_color": {"alpha": {"Points": [{"co": {"X": 1, "Y": 255}, "handle_left": {"X": 0.5, "Y": 1}, "handle_right": {"X": 0.5, "Y": 0}, "handle_type": 0, "interpolation": 0}]}, "blue": {"Points": [{"co": {"X": 1, "Y": 255}, "handle_left": {"X": 0.5, "Y": 1}, "handle_right": {"X": 0.5, "Y": 0}, "handle_type": 0, "interpolation": 0}]}, "green": {"Points": [{"co": {"X": 1, "Y": 123}, "handle_left": {"X": 0.5, "Y": 1}, "handle_right": {"X": 0.5, "Y": 0}, "handle_type": 0, "interpolation": 0}]}, "red": {"Points": [{"co": {"X": 1, "Y": 0}, "handle_left": {"X": 0.5, "Y": 1}, "handle_right": {"X": 0.5, "Y": 0}, "handle_type": 0, "interpolation": 0}]}}, "waveform": false, "file_id": "LZD7Y0SNKE", "title": "IMG_3081.MOV", "image": "../../../.openshot_qt/thumbnail/WA6RVER701-33.png"}, {"alpha": {"Points": [{"co": {"X": 1, "Y": 1}, "interpolation": 2}]}, "anchor": 0, "channel_filter": {"Points": [{"co": {"X": 1, "Y": -1}, "interpolation": 2}]}, "channel_mapping": {"Points": [{"co": {"X": 1, "Y": -1}, "interpolation": 2}]}, "crop_height": {"Points": [{"co": {"X": 1, "Y": -1}, "interpolation": 2}]}, "crop_width": {"Points": [{"co": {"X": 1, "Y": -1}, "interpolation": 2}]}, "crop_x": {"Points": [{"co": {"X": 1, "Y": 0}, "interpolation": 2}]}, "crop_y": {"Points": [{"co": {"X": 1, "Y": 0}, "interpolation": 2}]}, "display": 0, "duration": 0.0, "effects": [], "end": 2.1333333333333333, "gravity": 4, "has_audio": {"Points": [{"co": {"X": 1, "Y": 0}, "interpolation": 2}]}, "has_video": {"Points": [{"co": {"X": 1, "Y": -1}, "interpolation": 2}]}, "layer": 4, "location_x": {"Points": [{"co": {"X": 1, "Y": 0}, "interpolation": 2}]}, "location_y": {"Points": [{"co": {"X": 1, "Y": 0}, "interpolation": 2}]}, "mixing": 0, "perspective_c1_x": {"Points": [{"co": {"X": 1, "Y": -1}, "interpolation": 2}]}, "perspective_c1_y": {"Points": [{"co": {"X": 1, "Y": -1}, "interpolation": 2}]}, "perspective_c2_x": {"Points": [{"co": {"X": 1, "Y": -1}, "interpolation": 2}]}, "perspective_c2_y": {"Points": [{"co": {"X": 1, "Y": -1}, "interpolation": 2}]}, "perspective_c3_x": {"Points": [{"co": {"X": 1, "Y": -1}, "interpolation": 2}]}, "perspective_c3_y": {"Points": [{"co": {"X": 1, "Y": -1}, "interpolation": 2}]}, "perspective_c4_x": {"Points": [{"co": {"X": 1, "Y": -1}, "interpolation": 2}]}, "perspective_c4_y": {"Points": [{"co": {"X": 1, "Y": -1}, "interpolation": 2}]}, "position": 124.76666666666667, "reader": {"acodec": "pcm_s16le", "audio_bit_rate": 1536000, "audio_stream_index": 1, "audio_timebase": {"den": 48000, "num": 1}, "channel_layout": 3, "channels": 2, "display_ratio": {"den": 9, "num": 16}, "duration": 6.239999771118164, "file_size": "20953892", "fps": {"den": 1, "num": 50}, "has_audio": true, "has_single_image": false, "has_video": true, "height": 720, "interlaced_frame": false, "metadata": {"com.apple.quicktime.make": "Canon", "com.apple.quicktime.model": "Canon EOS 5D Mark III", "com.apple.quicktime.rating.user": "0.000000", "compatible_brands": "qt  CAEP", "creation_time": "2022-02-27T13:22:19.000000Z", "language": "eng", "major_brand": "qt", "minor_version": "537331968", "timecode": "03:34:54:13"}, "path": "IMG_3081.MOV", "pixel_format": 12, "pixel_ratio": {"den": 1, "num": 1}, "sample_rate": 48000, "top_field_first": true, "type": "FFmpegReader", "vcodec": "h264", "video_bit_rate": 3357995, "video_length": "312", "video_stream_index": 0, "video_timebase": {"den": 50000, "num": 1}, "width": 1280}, "rotation": {"Points": [{"co": {"X": 1, "Y": 0}, "interpolation": 2}]}, "scale": 1, "scale_x": {"Points": [{"co": {"X": 1, "Y": 1}, "interpolation": 2}]}, "scale_y": {"Points": [{"co": {"X": 1, "Y": 1}, "interpolation": 2}]}, "shear_x": {"Points": [{"co": {"X": 1, "Y": 0}, "interpolation": 2}]}, "shear_y": {"Points": [{"co": {"X": 1, "Y": 0}, "interpolation": 2}]}, "start": 1.6, "time": {"Points": [{"co": {"X": 49, "Y": 49}, "interpolation": 1}, {"co": {"X": 64, "Y": 109}, "interpolation": 1}]}, "volume": {"Points": [{"co": {"X": 1, "Y": 1}, "interpolation": 2}]}, "wave_color": {"alpha": {"Points": [{"co": {"X": 1, "Y": 255}, "handle_left": {"X": 0.5, "Y": 1}, "handle_right": {"X": 0.5, "Y": 0}, "handle_type": 0, "interpolation": 0}]}, "blue": {"Points": [{"co": {"X": 1, "Y": 255}, "handle_left": {"X": 0.5, "Y": 1}, "handle_right": {"X": 0.5, "Y": 0}, "handle_type": 0, "interpolation": 0}]}, "green": {"Points": [{"co": {"X": 1, "Y": 123}, "handle_left": {"X": 0.5, "Y": 1}, "handle_right": {"X": 0.5, "Y": 0}, "handle_type": 0, "interpolation": 0}]}, "red": {"Points": [{"co": {"X": 1, "Y": 0}, "handle_left": {"X": 0.5, "Y": 1}, "handle_right": {"X": 0.5, "Y": 0}, "handle_type": 0, "interpolation": 0}]}}, "waveform": false, "file_id": "LZD7Y0SNKE", "title": "IMG_3081.MOV", "image": "../../../.openshot_qt/thumbnail/YNUJ4DZ322-81.png", "id": "YNUJ4DZ322"}, {"alpha": {"Points": [{"co": {"X": 1, "Y": 1}, "interpolation": 2}]}, "anchor": 0, "channel_filter": {"Points": [{"co": {"X": 1, "Y": -1}, "interpolation": 2}]}, "channel_mapping": {"Points": [{"co": {"X": 1, "Y": -1}, "interpolation": 2}]}, "crop_height": {"Points": [{"co": {"X": 1, "Y": -1}, "interpolation": 2}]}, "crop_width": {"Points": [{"co": {"X": 1, "Y": -1}, "interpolation": 2}]}, "crop_x": {"Points": [{"co": {"X": 1, "Y": 0}, "interpolation": 2}]}, "crop_y": {"Points": [{"co": {"X": 1, "Y": 0}, "interpolation": 2}]}, "display": 0, "duration": 12.0, "effects": [], "end": 5.533333333333333, "gravity": 4, "has_audio": {"Points": [{"co": {"X": 1, "Y": 0}, "interpolation": 2}]}, "has_video": {"Points": [{"co": {"X": 1, "Y": -1}, "interpolation": 2}]}, "layer": 4, "location_x": {"Points": [{"co": {"X": 1, "Y": 0}, "interpolation": 2}]}, "location_y": {"Points": [{"co": {"X": 1, "Y": 0}, "interpolation": 2}]}, "mixing": 0, "perspective_c1_x": {"Points": [{"co": {"X": 1, "Y": -1}, "interpolation": 2}]}, "perspective_c1_y": {"Points": [{"co": {"X": 1, "Y": -1}, "interpolation": 2}]}, "perspective_c2_x": {"Points": [{"co": {"X": 1, "Y": -1}, "interpolation": 2}]}, "perspective_c2_y": {"Points": [{"co": {"X": 1, "Y": -1}, "interpolation": 2}]}, "perspective_c3_x": {"Points": [{"co": {"X": 1, "Y": -1}, "interpolation": 2}]}, "perspective_c3_y": {"Points": [{"co": {"X": 1, "Y": -1}, "interpolation": 2}]}, "perspective_c4_x": {"Points": [{"co": {"X": 1, "Y": -1}, "interpolation": 2}]}, "perspective_c4_y": {"Points": [{"co": {"X": 1, "Y": -1}, "interpolation": 2}]}, "position": 125.33333333333333, "reader": {"acodec": "pcm_s16le", "audio_bit_rate": 1536000, "audio_stream_index": 1, "audio_timebase": {"den": 48000, "num": 1}, "channel_layout": 3, "channels": 2, "display_ratio": {"den": 9, "num": 16}, "duration": 6.239999771118164, "file_size": "20953892", "fps": {"den": 1, "num": 50}, "has_audio": true, "has_single_image": false, "has_video": true, "height": 720, "interlaced_frame": false, "metadata": {"com.apple.quicktime.make": "Canon", "com.apple.quicktime.model": "Canon EOS 5D Mark III", "com.apple.quicktime.rating.user": "0.000000", "compatible_brands": "qt  CAEP", "creation_time": "2022-02-27T13:22:19.000000Z", "language": "eng", "major_brand": "qt", "minor_version": "537331968", "timecode": "03:34:54:13"}, "path": "IMG_3081.MOV", "pixel_format": 12, "pixel_ratio": {"den": 1, "num": 1}, "sample_rate": 48000, "top_field_first": true, "type": "FFmpegReader", "vcodec": "h264", "video_bit_rate": 3357995, "video_length": "312", "video_stream_index": 0, "video_timebase": {"den": 50000, "num": 1}, "width": 1280}, "rotation": {"Points": [{"co": {"X": 1, "Y": 0}, "interpolation": 2}]}, "scale": 1, "scale_x": {"Points": [{"co": {"X": 1, "Y": 1}, "interpolation": 2}]}, "scale_y": {"Points": [{"co": {"X": 1, "Y": 1}, "interpolation": 2}]}, "shear_x": {"Points": [{"co": {"X": 1, "Y": 0}, "interpolation": 2}]}, "shear_y": {"Points": [{"co": {"X": 1, "Y": 0}, "interpolation": 2}]}, "start": 3.6666666666666665, "time": {"Points": [{"co": {"X": 111, "Y": 111}, "interpolation": 1}, {"co": {"X": 211, "Y": 161}, "interpolation": 1}]}, "volume": {"Points": [{"co": {"X": 1, "Y": 1}, "interpolation": 2}]}, "wave_color": {"alpha": {"Points": [{"co": {"X": 1, "Y": 255}, "handle_left": {"X": 0.5, "Y": 1}, "handle_right": {"X": 0.5, "Y": 0}, "handle_type": 0, "interpolation": 0}]}, "blue": {"Points": [{"co": {"X": 1, "Y": 255}, "handle_left": {"X": 0.5, "Y": 1}, "handle_right": {"X": 0.5, "Y": 0}, "handle_type": 0, "interpolation": 0}]}, "green": {"Points": [{"co": {"X": 1, "Y": 123}, "handle_left": {"X": 0.5, "Y": 1}, "handle_right": {"X": 0.5, "Y": 0}, "handle_type": 0, "interpolation": 0}]}, "red": {"Points": [{"co": {"X": 1, "Y": 0}, "handle_left": {"X": 0.5, "Y": 1}, "handle_right": {"X": 0.5, "Y": 0}, "handle_type": 0, "interpolation": 0}]}}, "waveform": false, "file_id": "LZD7Y0SNKE", "title": "IMG_3081.MOV", "image": "../../../.openshot_qt/thumbnail/Y4QDR2VNMV-184.png", "id": "Y4QDR2VNMV"}, {"alpha": {"Points": [{"co": {"X": 1, "Y": 1}, "interpolation": 2}]}, "anchor": 0, "channel_filter": {"Points": [{"co": {"X": 1, "Y": -1}, "interpolation": 2}]}, "channel_mapping": {"Points": [{"co": {"X": 1, "Y": -1}, "interpolation": 2}]}, "crop_height": {"Points": [{"co": {"X": 1, "Y": -1}, "interpolation": 2}]}, "crop_width": {"Points": [{"co": {"X": 1, "Y": -1}, "interpolation": 2}]}, "crop_x": {"Points": [{"co": {"X": 1, "Y": 0}, "interpolation": 2}]}, "crop_y": {"Points": [{"co": {"X": 1, "Y": 0}, "interpolation": 2}]}, "display": 0, "duration": 24.31999969482422, "effects": [], "end": 16.566666666666666, "gravity": 4, "has_audio": {"Points": [{"co": {"X": 1, "Y": -1}, "interpolation": 2}]}, "has_video": {"Points": [{"co": {"X": 1, "Y": -1}, "interpolation": 2}]}, "id": "12AELMQJ87", "layer": 4, "location_x": {"Points": [{"co": {"X": 1, "Y": 0}, "interpolation": 2}]}, "location_y": {"Points": [{"co": {"X": 1, "Y": 0}, "interpolation": 2}]}, "mixing": 0, "perspective_c1_x": {"Points": [{"co": {"X": 1, "Y": -1}, "interpolation": 2}]}, "perspective_c1_y": {"Points": [{"co": {"X": 1, "Y": -1}, "interpolation": 2}]}, "perspective_c2_x": {"Points": [{"co": {"X": 1, "Y": -1}, "interpolation": 2}]}, "perspective_c2_y": {"Points": [{"co": {"X": 1, "Y": -1}, "interpolation": 2}]}, "perspective_c3_x": {"Points": [{"co": {"X": 1, "Y": -1}, "interpolation": 2}]}, "perspective_c3_y": {"Points": [{"co": {"X": 1, "Y": -1}, "interpolation": 2}]}, "perspective_c4_x": {"Points": [{"co": {"X": 1, "Y": -1}, "interpolation": 2}]}, "perspective_c4_y": {"Points": [{"co": {"X": 1, "Y": -1}, "interpolation": 2}]}, "position": 151.93333333333334, "reader": {"acodec": "pcm_s16le", "audio_bit_rate": 1536000, "audio_stream_index": 1, "audio_timebase": {"den": 48000, "num": 1}, "channel_layout": 3, "channels": 2, "display_ratio": {"den": 9, "num": 16}, "duration": 24.31999969482422, "file_size": "83570136", "fps": {"den": 1, "num": 50}, "has_audio": true, "has_single_image": false, "has_video": true, "height": 720, "interlaced_frame": false, "metadata": {"com.apple.quicktime.make": "Canon", "com.apple.quicktime.model": "Canon EOS 5D Mark III", "com.apple.quicktime.rating.user": "0.000000", "compatible_brands": "qt  CAEP", "creation_time": "2022-02-27T17:17:38.000000Z", "language": "eng", "major_brand": "qt", "minor_version": "537331968", "timecode": "04:12:16:22"}, "path": "IMG_3245.MOV", "pixel_format": 12, "pixel_ratio": {"den": 1, "num": 1}, "sample_rate": 48000, "top_field_first": true, "type": "FFmpegReader", "vcodec": "h264", "video_bit_rate": 3436272, "video_length": "1216", "video_stream_index": 0, "video_timebase": {"den": 50000, "num": 1}, "width": 1280}, "rotation": {"Points": [{"co": {"X": 1, "Y": 0}, "interpolation": 2}]}, "scale": 1, "scale_x": {"Points": [{"co": {"X": 1, "Y": 1}, "interpolation": 2}]}, "scale_y": {"Points": [{"co": {"X": 1, "Y": 1}, "interpolation": 2}]}, "shear_x": {"Points": [{"co": {"X": 1, "Y": 0}, "interpolation": 2}]}, "shear_y": {"Points": [{"co": {"X": 1, "Y": 0}, "interpolation": 2}]}, "start": 9.3, "time": {"Points": [{"co": {"X": 1, "Y": 1}, "interpolation": 2}]}, "volume": {"Points": [{"co": {"X": 1, "Y": 1}, "interpolation": 2}]}, "wave_color": {"alpha": {"Points": [{"co": {"X": 1, "Y": 255}, "handle_left": {"X": 0.5, "Y": 1}, "handle_right": {"X": 0.5, "Y": 0}, "handle_type": 0, "interpolation": 0}]}, "blue": {"Points": [{"co": {"X": 1, "Y": 255}, "handle_left": {"X": 0.5, "Y": 1}, "handle_right": {"X": 0.5, "Y": 0}, "handle_type": 0, "interpolation": 0}]}, "green": {"Points": [{"co": {"X": 1, "Y": 123}, "handle_left": {"X": 0.5, "Y": 1}, "handle_right": {"X": 0.5, "Y": 0}, "handle_type": 0, "interpolation": 0}]}, "red": {"Points": [{"co": {"X": 1, "Y": 0}, "handle_left": {"X": 0.5, "Y": 1}, "handle_right": {"X": 0.5, "Y": 0}, "handle_type": 0, "interpolation": 0}]}}, "waveform": false, "file_id": "UECQRO8Z6I", "title": "IMG_3245.MOV", "image": "../../../.openshot_qt/thumbnail/UECQRO8Z6I.png"}, {"alpha": {"Points": [{"co": {"X": 1, "Y": 1}, "interpolation": 2}]}, "anchor": 0, "channel_filter": {"Points": [{"co": {"X": 1, "Y": -1}, "interpolation": 2}]}, "channel_mapping": {"Points": [{"co": {"X": 1, "Y": -1}, "interpolation": 2}]}, "crop_height": {"Points": [{"co": {"X": 1, "Y": -1}, "interpolation": 2}]}, "crop_width": {"Points": [{"co": {"X": 1, "Y": -1}, "interpolation": 2}]}, "crop_x": {"Points": [{"co": {"X": 1, "Y": 0}, "interpolation": 2}]}, "crop_y": {"Points": [{"co": {"X": 1, "Y": 0}, "interpolation": 2}]}, "display": 0, "duration": 18.760000228881836, "effects": [], "end": 18.633333333333333, "gravity": 4, "has_audio": {"Points": [{"co": {"X": 1, "Y": -1}, "interpolation": 2}]}, "has_video": {"Points": [{"co": {"X": 1, "Y": -1}, "interpolation": 2}]}, "id": "D6SMHOE6VB", "layer": 4, "location_x": {"Points": [{"co": {"X": 1, "Y": 0}, "interpolation": 2}]}, "location_y": {"Points": [{"co": {"X": 1, "Y": 0}, "interpolation": 2}]}, "mixing": 0, "perspective_c1_x": {"Points": [{"co": {"X": 1, "Y": -1}, "interpolation": 2}]}, "perspective_c1_y": {"Points": [{"co": {"X": 1, "Y": -1}, "interpolation": 2}]}, "perspective_c2_x": {"Points": [{"co": {"X": 1, "Y": -1}, "interpolation": 2}]}, "perspective_c2_y": {"Points": [{"co": {"X": 1, "Y": -1}, "interpolation": 2}]}, "perspective_c3_x": {"Points": [{"co": {"X": 1, "Y": -1}, "interpolation": 2}]}, "perspective_c3_y": {"Points": [{"co": {"X": 1, "Y": -1}, "interpolation": 2}]}, "perspective_c4_x": {"Points": [{"co": {"X": 1, "Y": -1}, "interpolation": 2}]}, "perspective_c4_y": {"Points": [{"co": {"X": 1, "Y": -1}, "interpolation": 2}]}, "position": 159.2, "reader": {"acodec": "pcm_s16le", "audio_bit_rate": 1536000, "audio_stream_index": 1, "audio_timebase": {"den": 48000, "num": 1}, "channel_layout": 3, "channels": 2, "display_ratio": {"den": 9, "num": 16}, "duration": 18.760000228881836, "file_size": "64342204", "fps": {"den": 1, "num": 50}, "has_audio": true, "has_single_image": false, "has_video": true, "height": 720, "interlaced_frame": false, "metadata": {"com.apple.quicktime.make": "Canon", "com.apple.quicktime.model": "Canon EOS 5D Mark III", "com.apple.quicktime.rating.user": "0.000000", "compatible_brands": "qt  CAEP", "creation_time": "2022-02-27T17:28:58.000000Z", "language": "eng", "major_brand": "qt", "minor_version": "537331968", "timecode": "04:15:45:16"}, "path": "IMG_3257.MOV", "pixel_format": 12, "pixel_ratio": {"den": 1, "num": 1}, "sample_rate": 48000, "top_field_first": true, "type": "FFmpegReader", "vcodec": "h264", "video_bit_rate": 3429755, "video_length": "938", "video_stream_index": 0, "video_timebase": {"den": 50000, "num": 1}, "width": 1280}, "rotation": {"Points": [{"co": {"X": 1, "Y": 0}, "interpolation": 2}]}, "scale": 1, "scale_x": {"Points": [{"co": {"X": 1, "Y": 1}, "interpolation": 2}]}, "scale_y": {"Points": [{"co": {"X": 1, "Y": 1}, "interpolation": 2}]}, "shear_x": {"Points": [{"co": {"X": 1, "Y": 0}, "interpolation": 2}]}, "shear_y": {"Points": [{"co": {"X": 1, "Y": 0}, "interpolation": 2}]}, "start": 9.7, "time": {"Points": [{"co": {"X": 1, "Y": 1}, "interpolation": 2}]}, "volume": {"Points": [{"co": {"X": 1, "Y": 1}, "interpolation": 2}]}, "wave_color": {"alpha": {"Points": [{"co": {"X": 1, "Y": 255}, "handle_left": {"X": 0.5, "Y": 1}, "handle_right": {"X": 0.5, "Y": 0}, "handle_type": 0, "interpolation": 0}]}, "blue": {"Points": [{"co": {"X": 1, "Y": 255}, "handle_left": {"X": 0.5, "Y": 1}, "handle_right": {"X": 0.5, "Y": 0}, "handle_type": 0, "interpolation": 0}]}, "green": {"Points": [{"co": {"X": 1, "Y": 123}, "handle_left": {"X": 0.5, "Y": 1}, "handle_right": {"X": 0.5, "Y": 0}, "handle_type": 0, "interpolation": 0}]}, "red": {"Points": [{"co": {"X": 1, "Y": 0}, "handle_left": {"X": 0.5, "Y": 1}, "handle_right": {"X": 0.5, "Y": 0}, "handle_type": 0, "interpolation": 0}]}}, "waveform": false, "file_id": "H4PGDJ64LT", "title": "IMG_3257.MOV", "image": "../../../.openshot_qt/thumbnail/H4PGDJ64LT.png"}], "effects": [], "export_path": "", "import_path": "/home/student/\u0412\u0438\u0434\u0435\u043e/lyzhi/good", "files": [{"acodec": "pcm_s16le", "audio_bit_rate": 1536000, "audio_stream_index": 1, "audio_timebase": {"den": 48000, "num": 1}, "channel_layout": 3, "channels": 2, "display_ratio": {"den": 9, "num": 16}, "duration": 6.923583507537842, "file_size": "26653728", "fps": {"den": 1001, "num": 24000}, "has_audio": true, "has_single_image": false, "has_video": true, "height": 1080, "interlaced_frame": false, "metadata": {"com.apple.quicktime.make": "Canon", "com.apple.quicktime.model": "Canon EOS 5D Mark III", "com.apple.quicktime.rating.user": "0.000000", "compatible_brands": "qt  CAEP", "creation_time": "2022-02-27T11:49:48.000000Z", "language": "eng", "major_brand": "qt", "minor_version": "537331968", "timecode": "03:27:48:07"}, "path": "IMG_3046.MOV", "pixel_format": 12, "pixel_ratio": {"den": 1, "num": 1}, "sample_rate": 48000, "top_field_first": true, "type": "FFmpegReader", "vcodec": "h264", "video_bit_rate": 3849701, "video_length": "166", "video_stream_index": 0, "video_timebase": {"den": 24000, "num": 1}, "width": 1920, "media_type": "video", "id": "2UKHZXYB0I"}, {"acodec": "pcm_s16le", "audio_bit_rate": 1536000, "audio_stream_index": 1, "audio_timebase": {"den": 48000, "num": 1}, "channel_layout": 3, "channels": 2, "display_ratio": {"den": 9, "num": 16}, "duration": 35.03499984741211, "file_size": "136361380", "fps": {"den": 1001, "num": 24000}, "has_audio": true, "has_single_image": false, "has_video": true, "height": 1080, "interlaced_frame": false, "metadata": {"com.apple.quicktime.make": "Canon", "com.apple.quicktime.model": "Canon EOS 5D Mark III", "com.apple.quicktime.rating.user": "0.000000", "compatible_brands": "qt  CAEP", "creation_time": "2022-02-27T11:52:05.000000Z", "language": "eng", "major_brand": "qt", "minor_version": "537331968", "timecode": "03:28:37:05"}, "path": "IMG_3049.MOV", "pixel_format": 12, "pixel_ratio": {"den": 1, "num": 1}, "sample_rate": 48000, "top_field_first": true, "type": "FFmpegReader", "vcodec": "h264", "video_bit_rate": 3892147, "video_length": "840", "video_stream_index": 0, "video_timebase": {"den": 24000, "num": 1}, "width": 1920, "media_type": "video", "id": "AUNMBHYIZ9"}, {"acodec": "pcm_s16le", "audio_bit_rate": 1536000, "audio_stream_index": 1, "audio_timebase": {"den": 48000, "num": 1}, "channel_layout": 3, "channels": 2, "display_ratio": {"den": 9, "num": 16}, "duration": 47.338958740234375, "file_size": "184532412", "fps": {"den": 1001, "num": 24000}, "has_audio": true, "has_single_image": false, "has_video": true, "height": 1080, "interlaced_frame": false, "metadata": {"com.apple.quicktime.make": "Canon", "com.apple.quicktime.model": "Canon EOS 5D Mark III", "com.apple.quicktime.rating.user": "0.000000", "compatible_brands": "qt  CAEP", "creation_time": "2022-02-27T12:19:58.000000Z", "language": "eng", "major_brand": "qt", "minor_version": "537331968", "timecode": "03:30:12:13"}, "path": "IMG_3054.MOV", "pixel_format": 12, "pixel_ratio": {"den": 1, "num": 1}, "sample_rate": 48000, "top_field_first": true, "type": "FFmpegReader", "vcodec": "h264", "video_bit_rate": 3898108, "video_length": "1135", "video_stream_index": 0, "video_timebase": {"den": 24000, "num": 1}, "width": 1920, "media_type": "video", "id": "VOMLWGHCC8"}, {"acodec": "pcm_s16le", "audio_bit_rate": 1536000, "audio_stream_index": 1, "audio_timebase": {"den": 48000, "num": 1}, "channel_layout": 3, "channels": 2, "display_ratio": {"den": 9, "num": 16}, "duration": 7.25724983215332, "file_size": "26387304", "fps": {"den": 1001, "num": 24000}, "has_audio": true, "has_single_image": false, "has_video": true, "height": 1080, "interlaced_frame": false, "metadata": {"com.apple.quicktime.make": "Canon", "com.apple.quicktime.model": "Canon EOS 5D Mark III", "com.apple.quicktime.rating.user": "0.000000", "compatible_brands": "qt  CAEP", "creation_time": "2022-02-27T12:33:52.000000Z", "language": "eng", "major_brand": "qt", "minor_version": "537331968", "timecode": "03:31:07:20"}, "path": "IMG_3056.MOV", "pixel_format": 12, "pixel_ratio": {"den": 1, "num": 1}, "sample_rate": 48000, "top_field_first": true, "type": "FFmpegReader", "vcodec": "h264", "video_bit_rate": 3635992, "video_length": "174", "video_stream_index": 0, "video_timebase": {"den": 24000, "num": 1}, "width": 1920, "media_type": "video", "id": "829X1TLTND"}, {"acodec": "pcm_s16le", "audio_bit_rate": 1536000, "audio_stream_index": 1, "audio_timebase": {"den": 48000, "num": 1}, "channel_layout": 3, "channels": 2, "display_ratio": {"den": 9, "num": 16}, "duration": 10.218542098999023, "file_size": "40334264", "fps": {"den": 1001, "num": 24000}, "has_audio": true, "has_single_image": false, "has_video": true, "height": 1080, "interlaced_frame": false, "metadata": {"com.apple.quicktime.make": "Canon", "com.apple.quicktime.model": "Canon EOS 5D Mark III", "com.apple.quicktime.rating.user": "0.000000", "compatible_brands": "qt  CAEP", "creation_time": "2022-02-27T12:44:00.000000Z", "language": "eng", "major_brand": "qt", "minor_version": "537331968", "timecode": "03:31:15:02"}, "path": "IMG_3057.MOV", "pixel_format": 12, "pixel_ratio": {"den": 1, "num": 1}, "sample_rate": 48000, "top_field_first": true, "type": "FFmpegReader", "vcodec": "h264", "video_bit_rate": 3947164, "video_length": "245", "video_stream_index": 0, "video_timebase": {"den": 24000, "num": 1}, "width": 1920, "media_type": "video", "id": "VWKO8LVPQE"}, {"acodec": "pcm_s16le", "audio_bit_rate": 1536000, "audio_stream_index": 1, "audio_timebase": {"den": 48000, "num": 1}, "channel_layout": 3, "channels": 2, "display_ratio": {"den": 9, "num": 16}, "duration": 6.519999980926514, "file_size": "21697280", "fps": {"den": 1, "num": 50}, "has_audio": true, "has_single_image": false, "has_video": true, "height": 720, "interlaced_frame": false, "metadata": {"com.apple.quicktime.make": "Canon", "com.apple.quicktime.model": "Canon EOS 5D Mark III", "com.apple.quicktime.rating.user": "0.000000", "compatible_brands": "qt  CAEP", "creation_time": "2022-02-27T13:14:41.000000Z", "language": "eng", "major_brand": "qt", "minor_version": "537331968", "timecode": "03:33:31:17"}, "path": "IMG_3073.MOV", "pixel_format": 12, "pixel_ratio": {"den": 1, "num": 1}, "sample_rate": 48000, "top_field_first": true, "type": "FFmpegReader", "vcodec": "h264", "video_bit_rate": 3327803, "video_length": "326", "video_stream_index": 0, "video_timebase": {"den": 50000, "num": 1}, "width": 1280, "media_type": "video", "id": "V2VIXWD96O"}, {"acodec": "pcm_s16le", "audio_bit_rate": 1536000, "audio_stream_index": 1, "audio_timebase": {"den": 48000, "num": 1}, "channel_layout": 3, "channels": 2, "display_ratio": {"den": 9, "num": 16}, "duration": 8.520000457763672, "file_size": "29150332", "fps": {"den": 1, "num": 50}, "has_audio": true, "has_single_image": false, "has_video": true, "height": 720, "interlaced_frame": false, "metadata": {"com.apple.quicktime.make": "Canon", "com.apple.quicktime.model": "Canon EOS 5D Mark III", "com.apple.quicktime.rating.user": "0.000000", "compatible_brands": "qt  CAEP", "creation_time": "2022-02-27T13:28:25.000000Z", "language": "eng", "major_brand": "qt", "minor_version": "537331968", "timecode": "03:36:01:02"}, "path": "IMG_3092.MOV", "pixel_format": 12, "pixel_ratio": {"den": 1, "num": 1}, "sample_rate": 48000, "top_field_first": true, "type": "FFmpegReader", "vcodec": "h264", "video_bit_rate": 3421400, "video_length": "426", "video_stream_index": 0, "video_timebase": {"den": 50000, "num": 1}, "width": 1280, "media_type": "video", "id": "VQEIJK9WTM"}, {"acodec": "pcm_s16le", "audio_bit_rate": 1536000, "audio_stream_index": 1, "audio_timebase": {"den": 48000, "num": 1}, "channel_layout": 3, "channels": 2, "display_ratio": {"den": 9, "num": 16}, "duration": 43.68000030517578, "file_size": "137423256", "fps": {"den": 1, "num": 50}, "has_audio": true, "has_single_image": false, "has_video": true, "height": 720, "interlaced_frame": false, "metadata": {"com.apple.quicktime.make": "Canon", "com.apple.quicktime.model": "Canon EOS 5D Mark III", "com.apple.quicktime.rating.user": "0.000000", "compatible_brands": "qt  CAEP", "creation_time": "2022-02-27T13:37:44.000000Z", "language": "eng", "major_brand": "qt", "minor_version": "537331968", "timecode": "03:39:29:00"}, "path": "IMG_3103.MOV", "pixel_format": 12, "pixel_ratio": {"den": 1, "num": 1}, "sample_rate": 48000, "top_field_first": true, "type": "FFmpegReader", "vcodec": "h264", "video_bit_rate": 3146136, "video_length": "2184", "video_stream_index": 0, "video_timebase": {"den": 50000, "num": 1}, "width": 1280, "media_type": "video", "id": "Y66OCRHISG"}, {"acodec": "pcm_s16le", "audio_bit_rate": 1536000, "audio_stream_index": 1, "audio_timebase": {"den": 48000, "num": 1}, "channel_layout": 3, "channels": 2, "display_ratio": {"den": 9, "num": 16}, "duration": 11.84000015258789, "file_size": "40149720", "fps": {"den": 1, "num": 50}, "has_audio": true, "has_single_image": false, "has_video": true, "height": 720, "interlaced_frame": false, "metadata": {"com.apple.quicktime.make": "Canon", "com.apple.quicktime.model": "Canon EOS 5D Mark III", "com.apple.quicktime.rating.user": "0.000000", "compatible_brands": "qt  CAEP", "creation_time": "2022-02-27T14:12:50.000000Z", "language": "eng", "major_brand": "qt", "minor_version": "537331968", "timecode": "03:46:25:00"}, "path": "IMG_3127.MOV", "pixel_format": 12, "pixel_ratio": {"den": 1, "num": 1}, "sample_rate": 48000, "top_field_first": true, "type": "FFmpegReader", "vcodec": "h264", "video_bit_rate": 3391023, "video_length": "592", "video_stream_index": 0, "video_timebase": {"den": 50000, "num": 1}, "width": 1280, "media_type": "video", "id": "1WQ5T6PFW3"}, {"acodec": "pcm_s16le", "audio_bit_rate": 1536000, "audio_stream_index": 1, "audio_timebase": {"den": 48000, "num": 1}, "channel_layout": 3, "channels": 2, "display_ratio": {"den": 9, "num": 16}, "duration": 18.440000534057617, "file_size": "63498956", "fps": {"den": 1, "num": 50}, "has_audio": true, "has_single_image": false, "has_video": true, "height": 720, "interlaced_frame": false, "metadata": {"com.apple.quicktime.make": "Canon", "com.apple.quicktime.model": "Canon EOS 5D Mark III", "com.apple.quicktime.rating.user": "0.000000", "compatible_brands": "qt  CAEP", "creation_time": "2022-02-27T14:14:55.000000Z", "language": "eng", "major_brand": "qt", "minor_version": "537331968", "timecode": "03:47:16:21"}, "path": "IMG_3131.MOV", "pixel_format": 12, "pixel_ratio": {"den": 1, "num": 1}, "sample_rate": 48000, "top_field_first": true, "type": "FFmpegReader", "vcodec": "h264", "video_bit_rate": 3443544, "video_length": "922", "video_stream_index": 0, "video_timebase": {"den": 50000, "num": 1}, "width": 1280, "media_type": "video", "id": "Q5HDEVQF4U"}, {"acodec": "pcm_s16le", "audio_bit_rate": 1536000, "audio_stream_index": 1, "audio_timebase": {"den": 48000, "num": 1}, "channel_layout": 3, "channels": 2, "display_ratio": {"den": 9, "num": 16}, "duration": 16.68000030517578, "file_size": "57019648", "fps": {"den": 1, "num": 50}, "has_audio": true, "has_single_image": false, "has_video": true, "height": 720, "interlaced_frame": false, "metadata": {"com.apple.quicktime.make": "Canon", "com.apple.quicktime.model": "Canon EOS 5D Mark III", "com.apple.quicktime.rating.user": "0.000000", "compatible_brands": "qt  CAEP", "creation_time": "2022-02-27T14:21:08.000000Z", "language": "eng", "major_brand": "qt", "minor_version": "537331968", "timecode": "03:48:06:03"}, "path": "IMG_3135.MOV", "pixel_format": 12, "pixel_ratio": {"den": 1, "num": 1}, "sample_rate": 48000, "top_field_first": true, "type": "FFmpegReader", "vcodec": "h264", "video_bit_rate": 3418444, "video_length": "834", "video_stream_index": 0, "video_timebase": {"den": 50000, "num": 1}, "width": 1280, "media_type": "video", "id": "1WWW15Z1J8"}, {"acodec": "pcm_s16le", "audio_bit_rate": 1536000, "audio_stream_index": 1, "audio_timebase": {"den": 48000, "num": 1}, "channel_layout": 3, "channels": 2, "display_ratio": {"den": 9, "num": 16}, "duration": 17.920000076293945, "file_size": "60158508", "fps": {"den": 1, "num": 50}, "has_audio": true, "has_single_image": false, "has_video": true, "height": 720, "interlaced_frame": false, "metadata": {"com.apple.quicktime.make": "Canon", "com.apple.quicktime.model": "Canon EOS 5D Mark III", "com.apple.quicktime.rating.user": "0.000000", "compatible_brands": "qt  CAEP", "creation_time": "2022-02-27T14:25:32.000000Z", "language": "eng", "major_brand": "qt", "minor_version": "537331968", "timecode": "03:48:47:21"}, "path": "IMG_3138.MOV", "pixel_format": 12, "pixel_ratio": {"den": 1, "num": 1}, "sample_rate": 48000, "top_field_first": true, "type": "FFmpegReader", "vcodec": "h264", "video_bit_rate": 3357059, "video_length": "896", "video_stream_index": 0, "video_timebase": {"den": 50000, "num": 1}, "width": 1280, "media_type": "video", "id": "HZ1UEBOBX1"}, {"acodec": "pcm_s16le", "audio_bit_rate": 1536000, "audio_stream_index": 1, "audio_timebase": {"den": 48000, "num": 1}, "channel_layout": 3, "channels": 2, "display_ratio": {"den": 9, "num": 16}, "duration": 17.959999084472656, "file_size": "52995188", "fps": {"den": 1, "num": 50}, "has_audio": true, "has_single_image": false, "has_video": true, "height": 720, "interlaced_frame": false, "metadata": {"com.apple.quicktime.make": "Canon", "com.apple.quicktime.model": "Canon EOS 5D Mark III", "com.apple.quicktime.rating.user": "0.000000", "compatible_brands": "qt  CAEP", "creation_time": "2022-02-27T14:27:03.000000Z", "language": "eng", "major_brand": "qt", "minor_version": "537331968", "timecode": "03:49:27:05"}, "path": "IMG_3142.MOV", "pixel_format": 12, "pixel_ratio": {"den": 1, "num": 1}, "sample_rate": 48000, "top_field_first": true, "type": "FFmpegReader", "vcodec": "h264", "video_bit_rate": 2950734, "video_length": "898", "video_stream_index": 0, "video_timebase": {"den": 50000, "num": 1}, "width": 1280, "media_type": "video", "id": "MKYTBHIHX6"}, {"acodec": "pcm_s16le", "audio_bit_rate": 1536000, "audio_stream_index": 1, "audio_timebase": {"den": 48000, "num": 1}, "channel_layout": 3, "channels": 2, "display_ratio": {"den": 9, "num": 16}, "duration": 24, "file_size": "81139212", "fps": {"den": 1, "num": 50}, "has_audio": true, "has_single_image": false, "has_video": true, "height": 720, "interlaced_frame": false, "metadata": {"com.apple.quicktime.make": "Canon", "com.apple.quicktime.model": "Canon EOS 5D Mark III", "com.apple.quicktime.rating.user": "0.000000", "compatible_brands": "qt  CAEP", "creation_time": "2022-02-27T14:30:47.000000Z", "language": "eng", "major_brand": "qt", "minor_version": "537331968", "timecode": "03:51:23:13"}, "path": "IMG_3148.MOV", "pixel_format": 12, "pixel_ratio": {"den": 1, "num": 1}, "sample_rate": 48000, "top_field_first": true, "type": "FFmpegReader", "vcodec": "h264", "video_bit_rate": 3380800, "video_length": "1200", "video_stream_index": 0, "video_timebase": {"den": 50000, "num": 1}, "width": 1280, "media_type": "video", "id": "XF7SCBZ832"}, {"acodec": "pcm_s16le", "audio_bit_rate": 1536000, "audio_stream_index": 1, "audio_timebase": {"den": 48000, "num": 1}, "channel_layout": 3, "channels": 2, "display_ratio": {"den": 9, "num": 16}, "duration": 9.640000343322754, "file_size": "32265824", "fps": {"den": 1, "num": 50}, "has_audio": true, "has_single_image": false, "has_video": true, "height": 720, "interlaced_frame": false, "metadata": {"com.apple.quicktime.make": "Canon", "com.apple.quicktime.model": "Canon EOS 5D Mark III", "com.apple.quicktime.rating.user": "0.000000", "compatible_brands": "qt  CAEP", "creation_time": "2022-02-27T15:18:00.000000Z", "language": "eng", "major_brand": "qt", "minor_version": "537331968", "timecode": "03:56:34:07"}, "path": "IMG_3172.MOV", "pixel_format": 12, "pixel_ratio": {"den": 1, "num": 1}, "sample_rate": 48000, "top_field_first": true, "type": "FFmpegReader", "vcodec": "h264", "video_bit_rate": 3347077, "video_length": "482", "video_stream_index": 0, "video_timebase": {"den": 50000, "num": 1}, "width": 1280, "media_type": "video", "id": "SG7D5AQ9RD"}, {"acodec": "pcm_s16le", "audio_bit_rate": 1536000, "audio_stream_index": 1, "audio_timebase": {"den": 48000, "num": 1}, "channel_layout": 3, "channels": 2, "display_ratio": {"den": 9, "num": 16}, "duration": 16.600000381469727, "file_size": "56759100", "fps": {"den": 1, "num": 50}, "has_audio": true, "has_single_image": false, "has_video": true, "height": 720, "interlaced_frame": false, "metadata": {"com.apple.quicktime.make": "Canon", "com.apple.quicktime.model": "Canon EOS 5D Mark III", "com.apple.quicktime.rating.user": "0.000000", "compatible_brands": "qt  CAEP", "creation_time": "2022-02-27T15:18:54.000000Z", "language": "eng", "major_brand": "qt", "minor_version": "537331968", "timecode": "03:56:52:15"}, "path": "IMG_3174.MOV", "pixel_format": 12, "pixel_ratio": {"den": 1, "num": 1}, "sample_rate": 48000, "top_field_first": true, "type": "FFmpegReader", "vcodec": "h264", "video_bit_rate": 3419222, "video_length": "830", "video_stream_index": 0, "video_timebase": {"den": 50000, "num": 1}, "width": 1280, "media_type": "video", "id": "1ZTQITZ8CE"}, {"acodec": "pcm_s16le", "audio_bit_rate": 1536000, "audio_stream_index": 1, "audio_timebase": {"den": 48000, "num": 1}, "channel_layout": 3, "channels": 2, "display_ratio": {"den": 9, "num": 16}, "duration": 8.079999923706055, "file_size": "27898032", "fps": {"den": 1, "num": 50}, "has_audio": true, "has_single_image": false, "has_video": true, "height": 720, "interlaced_frame": false, "metadata": {"com.apple.quicktime.make": "Canon", "com.apple.quicktime.model": "Canon EOS 5D Mark III", "com.apple.quicktime.rating.user": "0.000000", "compatible_brands": "qt  CAEP", "creation_time": "2022-02-27T15:21:04.000000Z", "language": "eng", "major_brand": "qt", "minor_version": "537331968", "timecode": "03:57:09:05"}, "path": "IMG_3175.MOV", "pixel_format": 12, "pixel_ratio": {"den": 1, "num": 1}, "sample_rate": 48000, "top_field_first": true, "type": "FFmpegReader", "vcodec": "h264", "video_bit_rate": 3452726, "video_length": "404", "video_stream_index": 0, "video_timebase": {"den": 50000, "num": 1}, "width": 1280, "media_type": "video", "id": "4HUL4ZDZLH"}, {"acodec": "pcm_s16le", "audio_bit_rate": 1536000, "audio_stream_index": 1, "audio_timebase": {"den": 48000, "num": 1}, "channel_layout": 3, "channels": 2, "display_ratio": {"den": 9, "num": 16}, "duration": 16.639999389648438, "file_size": "55883544", "fps": {"den": 1, "num": 50}, "has_audio": true, "has_single_image": false, "has_video": true, "height": 720, "interlaced_frame": false, "metadata": {"com.apple.quicktime.make": "Canon", "com.apple.quicktime.model": "Canon EOS 5D Mark III", "com.apple.quicktime.rating.user": "0.000000", "compatible_brands": "qt  CAEP", "creation_time": "2022-02-27T15:32:23.000000Z", "language": "eng", "major_brand": "qt", "minor_version": "537331968", "timecode": "04:00:07:07"}, "path": "IMG_3193.MOV", "pixel_format": 12, "pixel_ratio": {"den": 1, "num": 1}, "sample_rate": 48000, "top_field_first": true, "type": "FFmpegReader", "vcodec": "h264", "video_bit_rate": 3358386, "video_length": "832", "video_stream_index": 0, "video_timebase": {"den": 50000, "num": 1}, "width": 1280, "media_type": "video", "id": "UQYH58PEZ2"}, {"acodec": "pcm_s16le", "audio_bit_rate": 1536000, "audio_stream_index": 1, "audio_timebase": {"den": 48000, "num": 1}, "channel_layout": 3, "channels": 2, "display_ratio": {"den": 9, "num": 16}, "duration": 9.039999961853027, "file_size": "28647472", "fps": {"den": 1, "num": 50}, "has_audio": true, "has_single_image": false, "has_video": true, "height": 720, "interlaced_frame": false, "metadata": {"com.apple.quicktime.make": "Canon", "com.apple.quicktime.model": "Canon EOS 5D Mark III", "com.apple.quicktime.rating.user": "0.000000", "compatible_brands": "qt  CAEP", "creation_time": "2022-02-27T15:45:47.000000Z", "language": "eng", "major_brand": "qt", "minor_version": "537331968", "timecode": "04:03:49:02"}, "path": "IMG_3211.MOV", "pixel_format": 12, "pixel_ratio": {"den": 1, "num": 1}, "sample_rate": 48000, "top_field_first": true, "type": "FFmpegReader", "vcodec": "h264", "video_bit_rate": 3168968, "video_length": "452", "video_stream_index": 0, "video_timebase": {"den": 50000, "num": 1}, "width": 1280, "media_type": "video", "id": "57WP9KO9OA"}, {"acodec": "pcm_s16le", "audio_bit_rate": 1536000, "audio_stream_index": 1, "audio_timebase": {"den": 48000, "num": 1}, "channel_layout": 3, "channels": 2, "display_ratio": {"den": 9, "num": 16}, "duration": 16.600000381469727, "file_size": "54148348", "fps": {"den": 1, "num": 50}, "has_audio": true, "has_single_image": false, "has_video": true, "height": 720, "interlaced_frame": false, "metadata": {"com.apple.quicktime.make": "Canon", "com.apple.quicktime.model": "Canon EOS 5D Mark III", "com.apple.quicktime.rating.user": "0.000000", "compatible_brands": "qt  CAEP", "creation_time": "2022-02-27T15:46:30.000000Z", "language": "eng", "major_brand": "qt", "minor_version": "537331968", "timecode": "04:03:58:03"}, "path": "IMG_3212.MOV", "pixel_format": 12, "pixel_ratio": {"den": 1, "num": 1}, "sample_rate": 48000, "top_field_first": true, "type": "FFmpegReader", "vcodec": "h264", "video_bit_rate": 3261948, "video_length": "830", "video_stream_index": 0, "video_timebase": {"den": 50000, "num": 1}, "width": 1280, "media_type": "video", "id": "GA1SNBFUK6"}, {"acodec": "pcm_s16le", "audio_bit_rate": 1536000, "audio_stream_index": 1, "audio_timebase": {"den": 48000, "num": 1}, "channel_layout": 3, "channels": 2, "display_ratio": {"den": 9, "num": 16}, "duration": 24.440000534057617, "file_size": "76122736", "fps": {"den": 1, "num": 50}, "has_audio": true, "has_single_image": false, "has_video": true, "height": 720, "interlaced_frame": false, "metadata": {"com.apple.quicktime.make": "Canon", "com.apple.quicktime.model": "Canon EOS 5D Mark III", "com.apple.quicktime.rating.user": "0.000000", "compatible_brands": "qt  CAEP", "creation_time": "2022-02-27T15:46:50.000000Z", "language": "eng", "major_brand": "qt", "minor_version": "537331968", "timecode": "04:04:14:18"}, "path": "IMG_3213.MOV", "pixel_format": 12, "pixel_ratio": {"den": 1, "num": 1}, "sample_rate": 48000, "top_field_first": true, "type": "FFmpegReader", "vcodec": "h264", "video_bit_rate": 3114678, "video_length": "1222", "video_stream_index": 0, "video_timebase": {"den": 50000, "num": 1}, "width": 1280, "media_type": "video", "id": "9H86ZQ9HQL"}, {"acodec": "pcm_s16le", "audio_bit_rate": 1536000, "audio_stream_index": 1, "audio_timebase": {"den": 48000, "num": 1}, "channel_layout": 3, "channels": 2, "display_ratio": {"den": 9, "num": 16}, "duration": 22.479999542236328, "file_size": "75669948", "fps": {"den": 1, "num": 50}, "has_audio": true, "has_single_image": false, "has_video": true, "height": 720, "interlaced_frame": false, "metadata": {"com.apple.quicktime.make": "Canon", "com.apple.quicktime.model": "Canon EOS 5D Mark III", "com.apple.quicktime.rating.user": "0.000000", "compatible_brands": "qt  CAEP", "creation_time": "2022-02-27T15:47:16.000000Z", "language": "eng", "major_brand": "qt", "minor_version": "537331968", "timecode": "04:04:39:04"}, "path": "IMG_3214.MOV", "pixel_format": 12, "pixel_ratio": {"den": 1, "num": 1}, "sample_rate": 48000, "top_field_first": true, "type": "FFmpegReader", "vcodec": "h264", "video_bit_rate": 3366100, "video_length": "1124", "video_stream_index": 0, "video_timebase": {"den": 50000, "num": 1}, "width": 1280, "media_type": "video", "id": "YTWXDKIQI8"}, {"acodec": "pcm_s16le", "audio_bit_rate": 1536000, "audio_stream_index": 1, "audio_timebase": {"den": 48000, "num": 1}, "channel_layout": 3, "channels": 2, "display_ratio": {"den": 9, "num": 16}, "duration": 9.479999542236328, "file_size": "32393688", "fps": {"den": 1, "num": 50}, "has_audio": true, "has_single_image": false, "has_video": true, "height": 720, "interlaced_frame": false, "metadata": {"com.apple.quicktime.make": "Canon", "com.apple.quicktime.model": "Canon EOS 5D Mark III", "com.apple.quicktime.rating.user": "0.000000", "compatible_brands": "qt  CAEP", "creation_time": "2022-02-27T15:48:28.000000Z", "language": "eng", "major_brand": "qt", "minor_version": "537331968", "timecode": "04:05:01:16"}, "path": "IMG_3215.MOV", "pixel_format": 12, "pixel_ratio": {"den": 1, "num": 1}, "sample_rate": 48000, "top_field_first": true, "type": "FFmpegReader", "vcodec": "h264", "video_bit_rate": 3417055, "video_length": "474", "video_stream_index": 0, "video_timebase": {"den": 50000, "num": 1}, "width": 1280, "media_type": "video", "id": "XBBVP3S87Y"}, {"acodec": "pcm_s16le", "audio_bit_rate": 1536000, "audio_stream_index": 1, "audio_timebase": {"den": 48000, "num": 1}, "channel_layout": 3, "channels": 2, "display_ratio": {"den": 9, "num": 16}, "duration": 11.079999923706055, "file_size": "38054488", "fps": {"den": 1, "num": 50}, "has_audio": true, "has_single_image": false, "has_video": true, "height": 720, "interlaced_frame": false, "metadata": {"com.apple.quicktime.make": "Canon", "com.apple.quicktime.model": "Canon EOS 5D Mark III", "com.apple.quicktime.rating.user": "0.000000", "compatible_brands": "qt  CAEP", "creation_time": "2022-02-27T15:49:27.000000Z", "language": "eng", "major_brand": "qt", "minor_version": "537331968", "timecode": "04:05:42:19"}, "path": "IMG_3219.MOV", "pixel_format": 12, "pixel_ratio": {"den": 1, "num": 1}, "sample_rate": 48000, "top_field_first": true, "type": "FFmpegReader", "vcodec": "h264", "video_bit_rate": 3434520, "video_length": "554", "video_stream_index": 0, "video_timebase": {"den": 50000, "num": 1}, "width": 1280, "media_type": "video", "id": "JMM1VQN9L4"}, {"acodec": "pcm_s16le", "audio_bit_rate": 1536000, "audio_stream_index": 1, "audio_timebase": {"den": 48000, "num": 1}, "channel_layout": 3, "channels": 2, "display_ratio": {"den": 9, "num": 16}, "duration": 19.280000686645508, "file_size": "66087668", "fps": {"den": 1, "num": 50}, "has_audio": true, "has_single_image": false, "has_video": true, "height": 720, "interlaced_frame": false, "metadata": {"com.apple.quicktime.make": "Canon", "com.apple.quicktime.model": "Canon EOS 5D Mark III", "com.apple.quicktime.rating.user": "0.000000", "compatible_brands": "qt  CAEP", "creation_time": "2022-02-27T16:04:31.000000Z", "language": "eng", "major_brand": "qt", "minor_version": "537331968", "timecode": "04:07:36:08"}, "path": "IMG_3229.MOV", "pixel_format": 12, "pixel_ratio": {"den": 1, "num": 1}, "sample_rate": 48000, "top_field_first": true, "type": "FFmpegReader", "vcodec": "h264", "video_bit_rate": 3427783, "video_length": "964", "video_stream_index": 0, "video_timebase": {"den": 50000, "num": 1}, "width": 1280, "media_type": "video", "id": "K7P7UCSPFA"}, {"acodec": "pcm_s16le", "audio_bit_rate": 1536000, "audio_stream_index": 1, "audio_timebase": {"den": 48000, "num": 1}, "channel_layout": 3, "channels": 2, "display_ratio": {"den": 9, "num": 16}, "duration": 9.880000114440918, "file_size": "33972532", "fps": {"den": 1, "num": 50}, "has_audio": true, "has_single_image": false, "has_video": true, "height": 720, "interlaced_frame": false, "metadata": {"com.apple.quicktime.make": "Canon", "com.apple.quicktime.model": "Canon EOS 5D Mark III", "com.apple.quicktime.rating.user": "0.000000", "compatible_brands": "qt  CAEP", "creation_time": "2022-02-27T16:04:52.000000Z", "language": "eng", "major_brand": "qt", "minor_version": "537331968", "timecode": "04:07:55:15"}, "path": "IMG_3230.MOV", "pixel_format": 12, "pixel_ratio": {"den": 1, "num": 1}, "sample_rate": 48000, "top_field_first": true, "type": "FFmpegReader", "vcodec": "h264", "video_bit_rate": 3438515, "video_length": "494", "video_stream_index": 0, "video_timebase": {"den": 50000, "num": 1}, "width": 1280, "media_type": "video", "id": "KGLPLJZJDY"}, {"acodec": "pcm_s16le", "audio_bit_rate": 1536000, "audio_stream_index": 1, "audio_timebase": {"den": 48000, "num": 1}, "channel_layout": 3, "channels": 2, "display_ratio": {"den": 9, "num": 16}, "duration": 53, "file_size": "181311560", "fps": {"den": 1, "num": 50}, "has_audio": true, "has_single_image": false, "has_video": true, "height": 720, "interlaced_frame": false, "metadata": {"com.apple.quicktime.make": "Canon", "com.apple.quicktime.model": "Canon EOS 5D Mark III", "com.apple.quicktime.rating.user": "0.000000", "compatible_brands": "qt  CAEP", "creation_time": "2022-02-27T17:13:41.000000Z", "language": "eng", "major_brand": "qt", "minor_version": "537331968", "timecode": "04:09:36:20"}, "path": "IMG_3239.MOV", "pixel_format": 12, "pixel_ratio": {"den": 1, "num": 1}, "sample_rate": 48000, "top_field_first": true, "type": "FFmpegReader", "vcodec": "h264", "video_bit_rate": 3420972, "video_length": "2650", "video_stream_index": 0, "video_timebase": {"den": 50000, "num": 1}, "width": 1280, "media_type": "video", "id": "GP0R3T69I4"}, {"acodec": "pcm_s16le", "audio_bit_rate": 1536000, "audio_stream_index": 1, "audio_timebase": {"den": 48000, "num": 1}, "channel_layout": 3, "channels": 2, "display_ratio": {"den": 9, "num": 16}, "duration": 25.280000686645508, "file_size": "86795292", "fps": {"den": 1, "num": 50}, "has_audio": true, "has_single_image": false, "has_video": true, "height": 720, "interlaced_frame": false, "metadata": {"com.apple.quicktime.make": "Canon", "com.apple.quicktime.model": "Canon EOS 5D Mark III", "com.apple.quicktime.rating.user": "0.000000", "compatible_brands": "qt  CAEP", "creation_time": "2022-02-27T17:15:31.000000Z", "language": "eng", "major_brand": "qt", "minor_version": "537331968", "timecode": "04:10:51:16"}, "path": "IMG_3241.MOV", "pixel_format": 12, "pixel_ratio": {"den": 1, "num": 1}, "sample_rate": 48000, "top_field_first": true, "type": "FFmpegReader", "vcodec": "h264", "video_bit_rate": 3433358, "video_length": "1264", "video_stream_index": 0, "video_timebase": {"den": 50000, "num": 1}, "width": 1280, "media_type": "video", "id": "ERIGJC5OO2"}, {"acodec": "pcm_s16le", "audio_bit_rate": 1536000, "audio_stream_index": 1, "audio_timebase": {"den": 48000, "num": 1}, "channel_layout": 3, "channels": 2, "display_ratio": {"den": 9, "num": 16}, "duration": 25.68000030517578, "file_size": "88008968", "fps": {"den": 1, "num": 50}, "has_audio": true, "has_single_image": false, "has_video": true, "height": 720, "interlaced_frame": false, "metadata": {"com.apple.quicktime.make": "Canon", "com.apple.quicktime.model": "Canon EOS 5D Mark III", "com.apple.quicktime.rating.user": "0.000000", "compatible_brands": "qt  CAEP", "creation_time": "2022-02-27T17:16:19.000000Z", "language": "eng", "major_brand": "qt", "minor_version": "537331968", "timecode": "04:11:27:24"}, "path": "IMG_3243.MOV", "pixel_format": 12, "pixel_ratio": {"den": 1, "num": 1}, "sample_rate": 48000, "top_field_first": true, "type": "FFmpegReader", "vcodec": "h264", "video_bit_rate": 3427140, "video_length": "1284", "video_stream_index": 0, "video_timebase": {"den": 50000, "num": 1}, "width": 1280, "media_type": "video", "id": "2TZKOLOZK2"}, {"acodec": "pcm_s16le", "audio_bit_rate": 1536000, "audio_stream_index": 1, "audio_timebase": {"den": 48000, "num": 1}, "channel_layout": 3, "channels": 2, "display_ratio": {"den": 9, "num": 16}, "duration": 24.31999969482422, "file_size": "83570136", "fps": {"den": 1, "num": 50}, "has_audio": true, "has_single_image": false, "has_video": true, "height": 720, "interlaced_frame": false, "metadata": {"com.apple.quicktime.make": "Canon", "com.apple.quicktime.model": "Canon EOS 5D Mark III", "com.apple.quicktime.rating.user": "0.000000", "compatible_brands": "qt  CAEP", "creation_time": "2022-02-27T17:17:38.000000Z", "language": "eng", "major_brand": "qt", "minor_version": "537331968", "timecode": "04:12:16:22"}, "path": "IMG_3245.MOV", "pixel_format": 12, "pixel_ratio": {"den": 1, "num": 1}, "sample_rate": 48000, "top_field_first": true, "type": "FFmpegReader", "vcodec": "h264", "video_bit_rate": 3436272, "video_length": "1216", "video_stream_index": 0, "video_timebase": {"den": 50000, "num": 1}, "width": 1280, "media_type": "video", "id": "UECQRO8Z6I"}, {"acodec": "pcm_s16le", "audio_bit_rate": 1536000, "audio_stream_index": 1, "audio_timebase": {"den": 48000, "num": 1}, "channel_layout": 3, "channels": 2, "display_ratio": {"den": 9, "num": 16}, "duration": 14.359999656677246, "file_size": "49516112", "fps": {"den": 1, "num": 50}, "has_audio": true, "has_single_image": false, "has_video": true, "height": 720, "interlaced_frame": false, "metadata": {"com.apple.quicktime.make": "Canon", "com.apple.quicktime.model": "Canon EOS 5D Mark III", "com.apple.quicktime.rating.user": "0.000000", "compatible_brands": "qt  CAEP", "creation_time": "2022-02-27T17:21:09.000000Z", "language": "eng", "major_brand": "qt", "minor_version": "537331968", "timecode": "04:14:11:13"}, "path": "IMG_3252.MOV", "pixel_format": 12, "pixel_ratio": {"den": 1, "num": 1}, "sample_rate": 48000, "top_field_first": true, "type": "FFmpegReader", "vcodec": "h264", "video_bit_rate": 3448197, "video_length": "718", "video_stream_index": 0, "video_timebase": {"den": 50000, "num": 1}, "width": 1280, "media_type": "video", "id": "HOXCMJH2EV"}, {"acodec": "pcm_s16le", "audio_bit_rate": 1536000, "audio_stream_index": 1, "audio_timebase": {"den": 48000, "num": 1}, "channel_layout": 3, "channels": 2, "display_ratio": {"den": 9, "num": 16}, "duration": 18.760000228881836, "file_size": "64342204", "fps": {"den": 1, "num": 50}, "has_audio": true, "has_single_image": false, "has_video": true, "height": 720, "interlaced_frame": false, "metadata": {"com.apple.quicktime.make": "Canon", "com.apple.quicktime.model": "Canon EOS 5D Mark III", "com.apple.quicktime.rating.user": "0.000000", "compatible_brands": "qt  CAEP", "creation_time": "2022-02-27T17:28:58.000000Z", "language": "eng", "major_brand": "qt", "minor_version": "537331968", "timecode": "04:15:45:16"}, "path": "IMG_3257.MOV", "pixel_format": 12, "pixel_ratio": {"den": 1, "num": 1}, "sample_rate": 48000, "top_field_first": true, "type": "FFmpegReader", "vcodec": "h264", "video_bit_rate": 3429755, "video_length": "938", "video_stream_index": 0, "video_timebase": {"den": 50000, "num": 1}, "width": 1280, "media_type": "video", "id": "H4PGDJ64LT"}, {"acodec": "pcm_s16le", "audio_bit_rate": 1536000, "audio_stream_index": 1, "audio_timebase": {"den": 48000, "num": 1}, "channel_layout": 3, "channels": 2, "display_ratio": {"den": 9, "num": 16}, "duration": 6.8401665687561035, "file_size": "26020952", "fps": {"den": 1001, "num": 24000}, "has_audio": true, "has_single_image": false, "has_video": true, "height": 1080, "interlaced_frame": false, "metadata": {"com.apple.quicktime.make": "Canon", "com.apple.quicktime.model": "Canon EOS 5D Mark III", "com.apple.quicktime.rating.user": "0.000000", "compatible_brands": "qt  CAEP", "creation_time": "2022-02-27T12:56:18.000000Z", "language": "eng", "major_brand": "qt", "minor_version": "537331968", "timecode": "03:32:15:14"}, "path": "IMG_3061.MOV", "pixel_format": 12, "pixel_ratio": {"den": 1, "num": 1}, "sample_rate": 48000, "top_field_first": true, "type": "FFmpegReader", "vcodec": "h264", "video_bit_rate": 3804139, "video_length": "164", "video_stream_index": 0, "video_timebase": {"den": 24000, "num": 1}, "width": 1920, "media_type": "video", "id": "FGH7RW3BXT"}, {"acodec": "pcm_s16le", "audio_bit_rate": 1536000, "audio_stream_index": 1, "audio_timebase": {"den": 48000, "num": 1}, "channel_layout": 3, "channels": 2, "display_ratio": {"den": 9, "num": 16}, "duration": 43.7599983215332, "file_size": "149382536", "fps": {"den": 1, "num": 50}, "has_audio": true, "has_single_image": false, "has_video": true, "height": 720, "interlaced_frame": false, "metadata": {"com.apple.quicktime.make": "Canon", "com.apple.quicktime.model": "Canon EOS 5D Mark III", "com.apple.quicktime.rating.user": "0.000000", "compatible_brands": "qt  CAEP", "creation_time": "2022-02-27T13:21:26.000000Z", "language": "eng", "major_brand": "qt", "minor_version": "537331968", "timecode": "03:34:10:19"}, "path": "IMG_3080.MOV", "pixel_format": 12, "pixel_ratio": {"den": 1, "num": 1}, "sample_rate": 48000, "top_field_first": true, "type": "FFmpegReader", "vcodec": "h264", "video_bit_rate": 3413677, "video_length": "2188", "video_stream_index": 0, "video_timebase": {"den": 50000, "num": 1}, "width": 1280, "media_type": "video", "id": "H84MRBTAOP"}, {"acodec": "pcm_s16le", "audio_bit_rate": 1536000, "audio_stream_index": 1, "audio_timebase": {"den": 48000, "num": 1}, "channel_layout": 3, "channels": 2, "display_ratio": {"den": 9, "num": 16}, "duration": 6.239999771118164, "file_size": "20953892", "fps": {"den": 1, "num": 50}, "has_audio": true, "has_single_image": false, "has_video": true, "height": 720, "interlaced_frame": false, "metadata": {"com.apple.quicktime.make": "Canon", "com.apple.quicktime.model": "Canon EOS 5D Mark III", "com.apple.quicktime.rating.user": "0.000000", "compatible_brands": "qt  CAEP", "creation_time": "2022-02-27T13:22:19.000000Z", "language": "eng", "major_brand": "qt", "minor_version": "537331968", "timecode": "03:34:54:13"}, "path": "IMG_3081.MOV", "pixel_format": 12, "pixel_ratio": {"den": 1, "num": 1}, "sample_rate": 48000, "top_field_first": true, "type": "FFmpegReader", "vcodec": "h264", "video_bit_rate": 3357995, "video_length": "312", "video_stream_index": 0, "video_timebase": {"den": 50000, "num": 1}, "width": 1280, "media_type": "video", "id": "LZD7Y0SNKE"}, {"acodec": "", "audio_bit_rate": 0, "audio_stream_index": -1, "audio_timebase": {"den": 1, "num": 1}, "channel_layout": 4, "channels": 0, "display_ratio": {"den": 9, "num": 16}, "duration": 6.900000095367432, "file_size": "64272199", "fps": {"den": 1, "num": 30}, "has_audio": false, "has_single_image": false, "has_video": true, "height": 1080, "interlaced_frame": false, "metadata": {"compatible_brands": "isommp41mp42", "creation_time": "2022-02-28T16:30:14.000000Z", "handler_name": "Core Media Video", "language": "und", "major_brand": "mp42", "minor_version": "1"}, "path": "20220228-213014-636.MP4", "pixel_format": 0, "pixel_ratio": {"den": 1, "num": 1}, "sample_rate": 0, "top_field_first": true, "type": "FFmpegReader", "vcodec": "h264", "video_bit_rate": 9314811, "video_length": "207", "video_stream_index": 0, "video_timebase": {"den": 600, "num": 1}, "width": 1920, "media_type": "video", "id": "VM7KF5F56L"}], "duration": 550.5333602905273, "scale": 5, "tick_pixels": 100, "playhead_position": 0, "profile": "HD 720p 30 fps", "layers": [{"id": "L0", "label": "", "number": 0, "y": 0, "lock": false}, {"id": "L1", "label": "", "number": 1, "y": 0, "lock": false}, {"id": "L2", "label": "", "number": 2, "y": 0, "lock": false}, {"id": "L3", "label": "", "number": 3, "y": 0, "lock": false}, {"id": "L4", "label": "", "number": 4, "y": 0, "lock": false}], "markers": [], "progress": [], "history": {"undo": [{"type": "update", "key": ["clips", {"id": "3R67S3LX2Y"}], "value": {"id": "3R67S3LX2Y", "layer": 4, "position": 130.63333333333333, "image": "/home/teacher/.openshot_qt/thumbnail/HOXCMJH2EV.png", "start": 8, "end": 9.9}, "partial": false, "old_values": {"alpha": {"Points": [{"co": {"X": 1, "Y": 1}, "interpolation": 2}]}, "anchor": 0, "channel_filter": {"Points": [{"co": {"X": 1, "Y": -1}, "interpolation": 2}]}, "channel_mapping": {"Points": [{"co": {"X": 1, "Y": -1}, "interpolation": 2}]}, "crop_height": {"Points": [{"co": {"X": 1, "Y": -1}, "interpolation": 2}]}, "crop_width": {"Points": [{"co": {"X": 1, "Y": -1}, "interpolation": 2}]}, "crop_x": {"Points": [{"co": {"X": 1, "Y": 0}, "interpolation": 2}]}, "crop_y": {"Points": [{"co": {"X": 1, "Y": 0}, "interpolation": 2}]}, "display": 0, "duration": 14.359999656677246, "effects": [], "end": 9.9, "gravity": 4, "has_audio": {"Points": [{"co": {"X": 1, "Y": 0}, "interpolation": 2}]}, "has_video": {"Points": [{"co": {"X": 1, "Y": -1}, "interpolation": 2}]}, "id": "3R67S3LX2Y", "layer": 4, "location_x": {"Points": [{"co": {"X": 1, "Y": 0}, "interpolation": 2}]}, "location_y": {"Points": [{"co": {"X": 1, "Y": 0}, "interpolation": 2}]}, "mixing": 0, "perspective_c1_x": {"Points": [{"co": {"X": 1, "Y": -1}, "interpolation": 2}]}, "perspective_c1_y": {"Points": [{"co": {"X": 1, "Y": -1}, "interpolation": 2}]}, "perspective_c2_x": {"Points": [{"co": {"X": 1, "Y": -1}, "interpolation": 2}]}, "perspective_c2_y": {"Points": [{"co": {"X": 1, "Y": -1}, "interpolation": 2}]}, "perspective_c3_x": {"Points": [{"co": {"X": 1, "Y": -1}, "interpolation": 2}]}, "perspective_c3_y": {"Points": [{"co": {"X": 1, "Y": -1}, "interpolation": 2}]}, "perspective_c4_x": {"Points": [{"co": {"X": 1, "Y": -1}, "interpolation": 2}]}, "perspective_c4_y": {"Points": [{"co": {"X": 1, "Y": -1}, "interpolation": 2}]}, "position": 172.96666666666667, "reader": {"acodec": "pcm_s16le", "audio_bit_rate": 1536000, "audio_stream_index": 1, "audio_timebase": {"den": 48000, "num": 1}, "channel_layout": 3, "channels": 2, "display_ratio": {"den": 9, "num": 16}, "duration": 14.359999656677246, "file_size": "49516112", "fps": {"den": 1, "num": 50}, "has_audio": true, "has_single_image": false, "has_video": true, "height": 720, "interlaced_frame": false, "metadata": {"com.apple.quicktime.make": "Canon", "com.apple.quicktime.model": "Canon EOS 5D Mark III", "com.apple.quicktime.rating.user": "0.000000", "compatible_brands": "qt  CAEP", "creation_time": "2022-02-27T17:21:09.000000Z", "language": "eng", "major_brand": "qt", "minor_version": "537331968", "timecode": "04:14:11:13"}, "path": "/home/teacher/\u0412\u0438\u0434\u0435\u043e/lyzhi/good/IMG_3252.MOV", "pixel_format": 12, "pixel_ratio": {"den": 1, "num": 1}, "sample_rate": 48000, "top_field_first": true, "type": "FFmpegReader", "vcodec": "h264", "video_bit_rate": 3448197, "video_length": "718", "video_stream_index": 0, "video_timebase": {"den": 50000, "num": 1}, "width": 1280}, "rotation": {"Points": [{"co": {"X": 1, "Y": 0}, "interpolation": 2}]}, "scale": 1, "scale_x": {"Points": [{"co": {"X": 1, "Y": 1}, "interpolation": 2}]}, "scale_y": {"Points": [{"co": {"X": 1, "Y": 1}, "interpolation": 2}]}, "shear_x": {"Points": [{"co": {"X": 1, "Y": 0}, "interpolation": 2}]}, "shear_y": {"Points": [{"co": {"X": 1, "Y": 0}, "interpolation": 2}]}, "start": 8, "time": {"Points": [{"co": {"X": 1, "Y": 1}, "interpolation": 2}]}, "volume": {"Points": [{"co": {"X": 1, "Y": 1}, "interpolation": 2}]}, "wave_color": {"alpha": {"Points": [{"co": {"X": 1, "Y": 255}, "handle_left": {"X": 0.5, "Y": 1}, "handle_right": {"X": 0.5, "Y": 0}, "handle_type": 0, "interpolation": 0}]}, "blue": {"Points": [{"co": {"X": 1, "Y": 255}, "handle_left": {"X": 0.5, "Y": 1}, "handle_right": {"X": 0.5, "Y": 0}, "handle_type": 0, "interpolation": 0}]}, "green": {"Points": [{"co": {"X": 1, "Y": 123}, "handle_left": {"X": 0.5, "Y": 1}, "handle_right": {"X": 0.5, "Y": 0}, "handle_type": 0, "interpolation": 0}]}, "red": {"Points": [{"co": {"X": 1, "Y": 0}, "handle_left": {"X": 0.5, "Y": 1}, "handle_right": {"X": 0.5, "Y": 0}, "handle_type": 0, "interpolation": 0}]}}, "waveform": false, "file_id": "HOXCMJH2EV", "title": "IMG_3252.MOV", "image": "/home/teacher/.openshot_qt/thumbnail/HOXCMJH2EV.png"}}, {"type": "update", "key": ["clips", {"id": "S090BV28O3"}], "value": {"id": "S090BV28O3", "layer": 4, "position": 132.53333333333333, "image": "/home/teacher/.openshot_qt/thumbnail/S090BV28O3-66.png", "start": 2.3, "end": 6.7}, "partial": false, "old_values": {"alpha": {"Points": [{"co": {"X": 1, "Y": 1}, "interpolation": 2}]}, "anchor": 0, "channel_filter": {"Points": [{"co": {"X": 1, "Y": -1}, "interpolation": 2}]}, "channel_mapping": {"Points": [{"co": {"X": 1, "Y": -1}, "interpolation": 2}]}, "crop_height": {"Points": [{"co": {"X": 1, "Y": -1}, "interpolation": 2}]}, "crop_width": {"Points": [{"co": {"X": 1, "Y": -1}, "interpolation": 2}]}, "crop_x": {"Points": [{"co": {"X": 1, "Y": 0}, "interpolation": 2}]}, "crop_y": {"Points": [{"co": {"X": 1, "Y": 0}, "interpolation": 2}]}, "display": 0, "duration": 53.0, "effects": [], "end": 6.7, "gravity": 4, "has_audio": {"Points": [{"co": {"X": 1, "Y": 0}, "interpolation": 2}]}, "has_video": {"Points": [{"co": {"X": 1, "Y": -1}, "interpolation": 2}]}, "id": "S090BV28O3", "layer": 4, "location_x": {"Points": [{"co": {"X": 1, "Y": 0}, "interpolation": 2}]}, "location_y": {"Points": [{"co": {"X": 1, "Y": 0}, "interpolation": 2}]}, "mixing": 0, "perspective_c1_x": {"Points": [{"co": {"X": 1, "Y": -1}, "interpolation": 2}]}, "perspective_c1_y": {"Points": [{"co": {"X": 1, "Y": -1}, "interpolation": 2}]}, "perspective_c2_x": {"Points": [{"co": {"X": 1, "Y": -1}, "interpolation": 2}]}, "perspective_c2_y": {"Points": [{"co": {"X": 1, "Y": -1}, "interpolation": 2}]}, "perspective_c3_x": {"Points": [{"co": {"X": 1, "Y": -1}, "interpolation": 2}]}, "perspective_c3_y": {"Points": [{"co": {"X": 1, "Y": -1}, "interpolation": 2}]}, "perspective_c4_x": {"Points": [{"co": {"X": 1, "Y": -1}, "interpolation": 2}]}, "perspective_c4_y": {"Points": [{"co": {"X": 1, "Y": -1}, "interpolation": 2}]}, "position": 174.86666666666667, "reader": {"acodec": "pcm_s16le", "audio_bit_rate": 1536000, "audio_stream_index": 1, "audio_timebase": {"den": 48000, "num": 1}, "channel_layout": 3, "channels": 2, "display_ratio": {"den": 9, "num": 16}, "duration": 53.0, "file_size": "181311560", "fps": {"den": 1, "num": 50}, "has_audio": true, "has_single_image": false, "has_video": true, "height": 720, "interlaced_frame": false, "metadata": {"com.apple.quicktime.make": "Canon", "com.apple.quicktime.model": "Canon EOS 5D Mark III", "com.apple.quicktime.rating.user": "0.000000", "compatible_brands": "qt  CAEP", "creation_time": "2022-02-27T17:13:41.000000Z", "language": "eng", "major_brand": "qt", "minor_version": "537331968", "timecode": "04:09:36:20"}, "path": "/home/teacher/\u0412\u0438\u0434\u0435\u043e/lyzhi/good/IMG_3239.MOV", "pixel_format": 12, "pixel_ratio": {"den": 1, "num": 1}, "sample_rate": 48000, "top_field_first": true, "type": "FFmpegReader", "vcodec": "h264", "video_bit_rate": 3420972, "video_length": "2650", "video_stream_index": 0, "video_timebase": {"den": 50000, "num": 1}, "width": 1280}, "rotation": {"Points": [{"co": {"X": 1, "Y": 0}, "interpolation": 2}]}, "scale": 1, "scale_x": {"Points": [{"co": {"X": 1, "Y": 1}, "interpolation": 2}]}, "scale_y": {"Points": [{"co": {"X": 1, "Y": 1}, "interpolation": 2}]}, "shear_x": {"Points": [{"co": {"X": 1, "Y": 0}, "interpolation": 2}]}, "shear_y": {"Points": [{"co": {"X": 1, "Y": 0}, "interpolation": 2}]}, "start": 2.3, "time": {"Points": [{"co": {"X": 1, "Y": 1}, "interpolation": 2}]}, "volume": {"Points": [{"co": {"X": 1, "Y": 1}, "interpolation": 2}]}, "wave_color": {"alpha": {"Points": [{"co": {"X": 1, "Y": 255}, "handle_left": {"X": 0.5, "Y": 1}, "handle_right": {"X": 0.5, "Y": 0}, "handle_type": 0, "interpolation": 0}]}, "blue": {"Points": [{"co": {"X": 1, "Y": 255}, "handle_left": {"X": 0.5, "Y": 1}, "handle_right": {"X": 0.5, "Y": 0}, "handle_type": 0, "interpolation": 0}]}, "green": {"Points": [{"co": {"X": 1, "Y": 123}, "handle_left": {"X": 0.5, "Y": 1}, "handle_right": {"X": 0.5, "Y": 0}, "handle_type": 0, "interpolation": 0}]}, "red": {"Points": [{"co": {"X": 1, "Y": 0}, "handle_left": {"X": 0.5, "Y": 1}, "handle_right": {"X": 0.5, "Y": 0}, "handle_type": 0, "interpolation": 0}]}}, "waveform": false, "file_id": "GP0R3T69I4", "title": "IMG_3239.MOV", "image": "/home/teacher/.openshot_qt/thumbnail/S090BV28O3-66.png"}}, {"type": "update", "key": ["clips", {"id": "EEBX6PFH0T"}], "value": {"id": "EEBX6PFH0T", "layer": 4, "position": 136.93333333333334, "image": "/home/teacher/.openshot_qt/thumbnail/EEBX6PFH0T-504.png", "start": 10.066666666666666, "end": 11.833333333333334}, "partial": false, "old_values": {"alpha": {"Points": [{"co": {"X": 1, "Y": 1}, "interpolation": 2}]}, "anchor": 0, "channel_filter": {"Points": [{"co": {"X": 1, "Y": -1}, "interpolation": 2}]}, "channel_mapping": {"Points": [{"co": {"X": 1, "Y": -1}, "interpolation": 2}]}, "crop_height": {"Points": [{"co": {"X": 1, "Y": -1}, "interpolation": 2}]}, "crop_width": {"Points": [{"co": {"X": 1, "Y": -1}, "interpolation": 2}]}, "crop_x": {"Points": [{"co": {"X": 1, "Y": 0}, "interpolation": 2}]}, "crop_y": {"Points": [{"co": {"X": 1, "Y": 0}, "interpolation": 2}]}, "display": 0, "duration": 53.0, "effects": [], "end": 11.833333333333334, "gravity": 4, "has_audio": {"Points": [{"co": {"X": 1, "Y": 0}, "interpolation": 2}]}, "has_video": {"Points": [{"co": {"X": 1, "Y": -1}, "interpolation": 2}]}, "layer": 4, "location_x": {"Points": [{"co": {"X": 1, "Y": 0}, "interpolation": 2}]}, "location_y": {"Points": [{"co": {"X": 1, "Y": 0}, "interpolation": 2}]}, "mixing": 0, "perspective_c1_x": {"Points": [{"co": {"X": 1, "Y": -1}, "interpolation": 2}]}, "perspective_c1_y": {"Points": [{"co": {"X": 1, "Y": -1}, "interpolation": 2}]}, "perspective_c2_x": {"Points": [{"co": {"X": 1, "Y": -1}, "interpolation": 2}]}, "perspective_c2_y": {"Points": [{"co": {"X": 1, "Y": -1}, "interpolation": 2}]}, "perspective_c3_x": {"Points": [{"co": {"X": 1, "Y": -1}, "interpolation": 2}]}, "perspective_c3_y": {"Points": [{"co": {"X": 1, "Y": -1}, "interpolation": 2}]}, "perspective_c4_x": {"Points": [{"co": {"X": 1, "Y": -1}, "interpolation": 2}]}, "perspective_c4_y": {"Points": [{"co": {"X": 1, "Y": -1}, "interpolation": 2}]}, "position": 179.26666666666668, "reader": {"acodec": "pcm_s16le", "audio_bit_rate": 1536000, "audio_stream_index": 1, "audio_timebase": {"den": 48000, "num": 1}, "channel_layout": 3, "channels": 2, "display_ratio": {"den": 9, "num": 16}, "duration": 53.0, "file_size": "181311560", "fps": {"den": 1, "num": 50}, "has_audio": true, "has_single_image": false, "has_video": true, "height": 720, "interlaced_frame": false, "metadata": {"com.apple.quicktime.make": "Canon", "com.apple.quicktime.model": "Canon EOS 5D Mark III", "com.apple.quicktime.rating.user": "0.000000", "compatible_brands": "qt  CAEP", "creation_time": "2022-02-27T17:13:41.000000Z", "language": "eng", "major_brand": "qt", "minor_version": "537331968", "timecode": "04:09:36:20"}, "path": "/home/teacher/\u0412\u0438\u0434\u0435\u043e/lyzhi/good/IMG_3239.MOV", "pixel_format": 12, "pixel_ratio": {"den": 1, "num": 1}, "sample_rate": 48000, "top_field_first": true, "type": "FFmpegReader", "vcodec": "h264", "video_bit_rate": 3420972, "video_length": "2650", "video_stream_index": 0, "video_timebase": {"den": 50000, "num": 1}, "width": 1280}, "rotation": {"Points": [{"co": {"X": 1, "Y": 0}, "interpolation": 2}]}, "scale": 1, "scale_x": {"Points": [{"co": {"X": 1, "Y": 1}, "interpolation": 2}]}, "scale_y": {"Points": [{"co": {"X": 1, "Y": 1}, "interpolation": 2}]}, "shear_x": {"Points": [{"co": {"X": 1, "Y": 0}, "interpolation": 2}]}, "shear_y": {"Points": [{"co": {"X": 1, "Y": 0}, "interpolation": 2}]}, "start": 10.066666666666666, "time": {"Points": [{"co": {"X": 1, "Y": 1}, "interpolation": 2}]}, "volume": {"Points": [{"co": {"X": 1, "Y": 1}, "interpolation": 2}]}, "wave_color": {"alpha": {"Points": [{"co": {"X": 1, "Y": 255}, "handle_left": {"X": 0.5, "Y": 1}, "handle_right": {"X": 0.5, "Y": 0}, "handle_type": 0, "interpolation": 0}]}, "blue": {"Points": [{"co": {"X": 1, "Y": 255}, "handle_left": {"X": 0.5, "Y": 1}, "handle_right": {"X": 0.5, "Y": 0}, "handle_type": 0, "interpolation": 0}]}, "green": {"Points": [{"co": {"X": 1, "Y": 123}, "handle_left": {"X": 0.5, "Y": 1}, "handle_right": {"X": 0.5, "Y": 0}, "handle_type": 0, "interpolation": 0}]}, "red": {"Points": [{"co": {"X": 1, "Y": 0}, "handle_left": {"X": 0.5, "Y": 1}, "handle_right": {"X": 0.5, "Y": 0}, "handle_type": 0, "interpolation": 0}]}}, "waveform": false, "file_id": "GP0R3T69I4", "title": "IMG_3239.MOV", "image": "/home/teacher/.openshot_qt/thumbnail/EEBX6PFH0T-504.png", "id": "EEBX6PFH0T"}}, {"type": "update", "key": ["clips", {"id": "93G86CMBRP"}], "value": {"id": "93G86CMBRP", "layer": 4, "position": 138.7, "image": "/home/teacher/.openshot_qt/thumbnail/ERIGJC5OO2.png", "start": 22.1, "end": 24.766666666666666}, "partial": false, "old_values": {"alpha": {"Points": [{"co": {"X": 1, "Y": 1}, "interpolation": 2}]}, "anchor": 0, "channel_filter": {"Points": [{"co": {"X": 1, "Y": -1}, "interpolation": 2}]}, "channel_mapping": {"Points": [{"co": {"X": 1, "Y": -1}, "interpolation": 2}]}, "crop_height": {"Points": [{"co": {"X": 1, "Y": -1}, "interpolation": 2}]}, "crop_width": {"Points": [{"co": {"X": 1, "Y": -1}, "interpolation": 2}]}, "crop_x": {"Points": [{"co": {"X": 1, "Y": 0}, "interpolation": 2}]}, "crop_y": {"Points": [{"co": {"X": 1, "Y": 0}, "interpolation": 2}]}, "display": 0, "duration": 25.280000686645508, "effects": [], "end": 24.766666666666666, "gravity": 4, "has_audio": {"Points": [{"co": {"X": 1, "Y": 0}, "interpolation": 2}]}, "has_video": {"Points": [{"co": {"X": 1, "Y": -1}, "interpolation": 2}]}, "id": "93G86CMBRP", "layer": 4, "location_x": {"Points": [{"co": {"X": 1, "Y": 0}, "interpolation": 2}]}, "location_y": {"Points": [{"co": {"X": 1, "Y": 0}, "interpolation": 2}]}, "mixing": 0, "perspective_c1_x": {"Points": [{"co": {"X": 1, "Y": -1}, "interpolation": 2}]}, "perspective_c1_y": {"Points": [{"co": {"X": 1, "Y": -1}, "interpolation": 2}]}, "perspective_c2_x": {"Points": [{"co": {"X": 1, "Y": -1}, "interpolation": 2}]}, "perspective_c2_y": {"Points": [{"co": {"X": 1, "Y": -1}, "interpolation": 2}]}, "perspective_c3_x": {"Points": [{"co": {"X": 1, "Y": -1}, "interpolation": 2}]}, "perspective_c3_y": {"Points": [{"co": {"X": 1, "Y": -1}, "interpolation": 2}]}, "perspective_c4_x": {"Points": [{"co": {"X": 1, "Y": -1}, "interpolation": 2}]}, "perspective_c4_y": {"Points": [{"co": {"X": 1, "Y": -1}, "interpolation": 2}]}, "position": 181.03333333333333, "reader": {"acodec": "pcm_s16le", "audio_bit_rate": 1536000, "audio_stream_index": 1, "audio_timebase": {"den": 48000, "num": 1}, "channel_layout": 3, "channels": 2, "display_ratio": {"den": 9, "num": 16}, "duration": 25.280000686645508, "file_size": "86795292", "fps": {"den": 1, "num": 50}, "has_audio": true, "has_single_image": false, "has_video": true, "height": 720, "interlaced_frame": false, "metadata": {"com.apple.quicktime.make": "Canon", "com.apple.quicktime.model": "Canon EOS 5D Mark III", "com.apple.quicktime.rating.user": "0.000000", "compatible_brands": "qt  CAEP", "creation_time": "2022-02-27T17:15:31.000000Z", "language": "eng", "major_brand": "qt", "minor_version": "537331968", "timecode": "04:10:51:16"}, "path": "/home/teacher/\u0412\u0438\u0434\u0435\u043e/lyzhi/good/IMG_3241.MOV", "pixel_format": 12, "pixel_ratio": {"den": 1, "num": 1}, "sample_rate": 48000, "top_field_first": true, "type": "FFmpegReader", "vcodec": "h264", "video_bit_rate": 3433358, "video_length": "1264", "video_stream_index": 0, "video_timebase": {"den": 50000, "num": 1}, "width": 1280}, "rotation": {"Points": [{"co": {"X": 1, "Y": 0}, "interpolation": 2}]}, "scale": 1, "scale_x": {"Points": [{"co": {"X": 1, "Y": 1}, "interpolation": 2}]}, "scale_y": {"Points": [{"co": {"X": 1, "Y": 1}, "interpolation": 2}]}, "shear_x": {"Points": [{"co": {"X": 1, "Y": 0}, "interpolation": 2}]}, "shear_y": {"Points": [{"co": {"X": 1, "Y": 0}, "interpolation": 2}]}, "start": 22.1, "time": {"Points": [{"co": {"X": 1, "Y": 1}, "interpolation": 2}]}, "volume": {"Points": [{"co": {"X": 1, "Y": 1}, "interpolation": 2}]}, "wave_color": {"alpha": {"Points": [{"co": {"X": 1, "Y": 255}, "handle_left": {"X": 0.5, "Y": 1}, "handle_right": {"X": 0.5, "Y": 0}, "handle_type": 0, "interpolation": 0}]}, "blue": {"Points": [{"co": {"X": 1, "Y": 255}, "handle_left": {"X": 0.5, "Y": 1}, "handle_right": {"X": 0.5, "Y": 0}, "handle_type": 0, "interpolation": 0}]}, "green": {"Points": [{"co": {"X": 1, "Y": 123}, "handle_left": {"X": 0.5, "Y": 1}, "handle_right": {"X": 0.5, "Y": 0}, "handle_type": 0, "interpolation": 0}]}, "red": {"Points": [{"co": {"X": 1, "Y": 0}, "handle_left": {"X": 0.5, "Y": 1}, "handle_right": {"X": 0.5, "Y": 0}, "handle_type": 0, "interpolation": 0}]}}, "waveform": false, "file_id": "ERIGJC5OO2", "title": "IMG_3241.MOV", "image": "/home/teacher/.openshot_qt/thumbnail/ERIGJC5OO2.png"}}, {"type": "update", "key": ["clips", {"id": "P8G7I0KOPM"}], "value": {"id": "P8G7I0KOPM", "layer": 4, "position": 141.36666666666667, "image": "/home/teacher/.openshot_qt/thumbnail/2TZKOLOZK2.png", "start": 6.4, "end": 14.800000000000006}, "partial": false, "old_values": {"alpha": {"Points": [{"co": {"X": 1, "Y": 1}, "interpolation": 2}]}, "anchor": 0, "channel_filter": {"Points": [{"co": {"X": 1, "Y": -1}, "interpolation": 2}]}, "channel_mapping": {"Points": [{"co": {"X": 1, "Y": -1}, "interpolation": 2}]}, "crop_height": {"Points": [{"co": {"X": 1, "Y": -1}, "interpolation": 2}]}, "crop_width": {"Points": [{"co": {"X": 1, "Y": -1}, "interpolation": 2}]}, "crop_x": {"Points": [{"co": {"X": 1, "Y": 0}, "interpolation": 2}]}, "crop_y": {"Points": [{"co": {"X": 1, "Y": 0}, "interpolation": 2}]}, "display": 0, "duration": 25.68000030517578, "effects": [], "end": 14.800000000000006, "gravity": 4, "has_audio": {"Points": [{"co": {"X": 1, "Y": 0}, "interpolation": 2}]}, "has_video": {"Points": [{"co": {"X": 1, "Y": -1}, "interpolation": 2}]}, "id": "P8G7I0KOPM", "layer": 4, "location_x": {"Points": [{"co": {"X": 1, "Y": 0}, "interpolation": 2}]}, "location_y": {"Points": [{"co": {"X": 1, "Y": 0}, "interpolation": 2}]}, "mixing": 0, "perspective_c1_x": {"Points": [{"co": {"X": 1, "Y": -1}, "interpolation": 2}]}, "perspective_c1_y": {"Points": [{"co": {"X": 1, "Y": -1}, "interpolation": 2}]}, "perspective_c2_x": {"Points": [{"co": {"X": 1, "Y": -1}, "interpolation": 2}]}, "perspective_c2_y": {"Points": [{"co": {"X": 1, "Y": -1}, "interpolation": 2}]}, "perspective_c3_x": {"Points": [{"co": {"X": 1, "Y": -1}, "interpolation": 2}]}, "perspective_c3_y": {"Points": [{"co": {"X": 1, "Y": -1}, "interpolation": 2}]}, "perspective_c4_x": {"Points": [{"co": {"X": 1, "Y": -1}, "interpolation": 2}]}, "perspective_c4_y": {"Points": [{"co": {"X": 1, "Y": -1}, "interpolation": 2}]}, "position": 183.7, "reader": {"acodec": "pcm_s16le", "audio_bit_rate": 1536000, "audio_stream_index": 1, "audio_timebase": {"den": 48000, "num": 1}, "channel_layout": 3, "channels": 2, "display_ratio": {"den": 9, "num": 16}, "duration": 25.68000030517578, "file_size": "88008968", "fps": {"den": 1, "num": 50}, "has_audio": true, "has_single_image": false, "has_video": true, "height": 720, "interlaced_frame": false, "metadata": {"com.apple.quicktime.make": "Canon", "com.apple.quicktime.model": "Canon EOS 5D Mark III", "com.apple.quicktime.rating.user": "0.000000", "compatible_brands": "qt  CAEP", "creation_time": "2022-02-27T17:16:19.000000Z", "language": "eng", "major_brand": "qt", "minor_version": "537331968", "timecode": "04:11:27:24"}, "path": "/home/teacher/\u0412\u0438\u0434\u0435\u043e/lyzhi/good/IMG_3243.MOV", "pixel_format": 12, "pixel_ratio": {"den": 1, "num": 1}, "sample_rate": 48000, "top_field_first": true, "type": "FFmpegReader", "vcodec": "h264", "video_bit_rate": 3427140, "video_length": "1284", "video_stream_index": 0, "video_timebase": {"den": 50000, "num": 1}, "width": 1280}, "rotation": {"Points": [{"co": {"X": 1, "Y": 0}, "interpolation": 2}]}, "scale": 1, "scale_x": {"Points": [{"co": {"X": 1, "Y": 1}, "interpolation": 2}]}, "scale_y": {"Points": [{"co": {"X": 1, "Y": 1}, "interpolation": 2}]}, "shear_x": {"Points": [{"co": {"X": 1, "Y": 0}, "interpolation": 2}]}, "shear_y": {"Points": [{"co": {"X": 1, "Y": 0}, "interpolation": 2}]}, "start": 6.4, "time": {"Points": [{"co": {"X": 1, "Y": 1}, "interpolation": 2}]}, "volume": {"Points": [{"co": {"X": 1, "Y": 1}, "interpolation": 2}]}, "wave_color": {"alpha": {"Points": [{"co": {"X": 1, "Y": 255}, "handle_left": {"X": 0.5, "Y": 1}, "handle_right": {"X": 0.5, "Y": 0}, "handle_type": 0, "interpolation": 0}]}, "blue": {"Points": [{"co": {"X": 1, "Y": 255}, "handle_left": {"X": 0.5, "Y": 1}, "handle_right": {"X": 0.5, "Y": 0}, "handle_type": 0, "interpolation": 0}]}, "green": {"Points": [{"co": {"X": 1, "Y": 123}, "handle_left": {"X": 0.5, "Y": 1}, "handle_right": {"X": 0.5, "Y": 0}, "handle_type": 0, "interpolation": 0}]}, "red": {"Points": [{"co": {"X": 1, "Y": 0}, "handle_left": {"X": 0.5, "Y": 1}, "handle_right": {"X": 0.5, "Y": 0}, "handle_type": 0, "interpolation": 0}]}}, "waveform": false, "file_id": "2TZKOLOZK2", "title": "IMG_3243.MOV", "image": "/home/teacher/.openshot_qt/thumbnail/2TZKOLOZK2.png"}}, {"type": "update", "key": ["clips", {"id": "BPNUDKEDKN"}], "value": {"id": "BPNUDKEDKN", "layer": 4, "position": 149.76666666666668, "image": "/home/teacher/.openshot_qt/thumbnail/BPNUDKEDKN-744.png", "start": 18.066666666666666, "end": 20.233333333333334}, "partial": false, "old_values": {"alpha": {"Points": [{"co": {"X": 1, "Y": 1}, "interpolation": 2}]}, "anchor": 0, "channel_filter": {"Points": [{"co": {"X": 1, "Y": -1}, "interpolation": 2}]}, "channel_mapping": {"Points": [{"co": {"X": 1, "Y": -1}, "interpolation": 2}]}, "crop_height": {"Points": [{"co": {"X": 1, "Y": -1}, "interpolation": 2}]}, "crop_width": {"Points": [{"co": {"X": 1, "Y": -1}, "interpolation": 2}]}, "crop_x": {"Points": [{"co": {"X": 1, "Y": 0}, "interpolation": 2}]}, "crop_y": {"Points": [{"co": {"X": 1, "Y": 0}, "interpolation": 2}]}, "display": 0, "duration": 25.68000030517578, "effects": [], "end": 20.233333333333334, "gravity": 4, "has_audio": {"Points": [{"co": {"X": 1, "Y": 0}, "interpolation": 2}]}, "has_video": {"Points": [{"co": {"X": 1, "Y": -1}, "interpolation": 2}]}, "layer": 4, "location_x": {"Points": [{"co": {"X": 1, "Y": 0}, "interpolation": 2}]}, "location_y": {"Points": [{"co": {"X": 1, "Y": 0}, "interpolation": 2}]}, "mixing": 0, "perspective_c1_x": {"Points": [{"co": {"X": 1, "Y": -1}, "interpolation": 2}]}, "perspective_c1_y": {"Points": [{"co": {"X": 1, "Y": -1}, "interpolation": 2}]}, "perspective_c2_x": {"Points": [{"co": {"X": 1, "Y": -1}, "interpolation": 2}]}, "perspective_c2_y": {"Points": [{"co": {"X": 1, "Y": -1}, "interpolation": 2}]}, "perspective_c3_x": {"Points": [{"co": {"X": 1, "Y": -1}, "interpolation": 2}]}, "perspective_c3_y": {"Points": [{"co": {"X": 1, "Y": -1}, "interpolation": 2}]}, "perspective_c4_x": {"Points": [{"co": {"X": 1, "Y": -1}, "interpolation": 2}]}, "perspective_c4_y": {"Points": [{"co": {"X": 1, "Y": -1}, "interpolation": 2}]}, "position": 192.1, "reader": {"acodec": "pcm_s16le", "audio_bit_rate": 1536000, "audio_stream_index": 1, "audio_timebase": {"den": 48000, "num": 1}, "channel_layout": 3, "channels": 2, "display_ratio": {"den": 9, "num": 16}, "duration": 25.68000030517578, "file_size": "88008968", "fps": {"den": 1, "num": 50}, "has_audio": true, "has_single_image": false, "has_video": true, "height": 720, "interlaced_frame": false, "metadata": {"com.apple.quicktime.make": "Canon", "com.apple.quicktime.model": "Canon EOS 5D Mark III", "com.apple.quicktime.rating.user": "0.000000", "compatible_brands": "qt  CAEP", "creation_time": "2022-02-27T17:16:19.000000Z", "language": "eng", "major_brand": "qt", "minor_version": "537331968", "timecode": "04:11:27:24"}, "path": "/home/teacher/\u0412\u0438\u0434\u0435\u043e/lyzhi/good/IMG_3243.MOV", "pixel_format": 12, "pixel_ratio": {"den": 1, "num": 1}, "sample_rate": 48000, "top_field_first": true, "type": "FFmpegReader", "vcodec": "h264", "video_bit_rate": 3427140, "video_length": "1284", "video_stream_index": 0, "video_timebase": {"den": 50000, "num": 1}, "width": 1280}, "rotation": {"Points": [{"co": {"X": 1, "Y": 0}, "interpolation": 2}]}, "scale": 1, "scale_x": {"Points": [{"co": {"X": 1, "Y": 1}, "interpolation": 2}]}, "scale_y": {"Points": [{"co": {"X": 1, "Y": 1}, "interpolation": 2}]}, "shear_x": {"Points": [{"co": {"X": 1, "Y": 0}, "interpolation": 2}]}, "shear_y": {"Points": [{"co": {"X": 1, "Y": 0}, "interpolation": 2}]}, "start": 18.066666666666666, "time": {"Points": [{"co": {"X": 1, "Y": 1}, "interpolation": 2}]}, "volume": {"Points": [{"co": {"X": 1, "Y": 1}, "interpolation": 2}]}, "wave_color": {"alpha": {"Points": [{"co": {"X": 1, "Y": 255}, "handle_left": {"X": 0.5, "Y": 1}, "handle_right": {"X": 0.5, "Y": 0}, "handle_type": 0, "interpolation": 0}]}, "blue": {"Points": [{"co": {"X": 1, "Y": 255}, "handle_left": {"X": 0.5, "Y": 1}, "handle_right": {"X": 0.5, "Y": 0}, "handle_type": 0, "interpolation": 0}]}, "green": {"Points": [{"co": {"X": 1, "Y": 123}, "handle_left": {"X": 0.5, "Y": 1}, "handle_right": {"X": 0.5, "Y": 0}, "handle_type": 0, "interpolation": 0}]}, "red": {"Points": [{"co": {"X": 1, "Y": 0}, "handle_left": {"X": 0.5, "Y": 1}, "handle_right": {"X": 0.5, "Y": 0}, "handle_type": 0, "interpolation": 0}]}}, "waveform": false, "file_id": "2TZKOLOZK2", "title": "IMG_3243.MOV", "image": "/home/teacher/.openshot_qt/thumbnail/BPNUDKEDKN-744.png", "id": "BPNUDKEDKN"}}, {"type": "update", "key": ["clips", {"id": "12AELMQJ87"}], "value": {"id": "12AELMQJ87", "layer": 4, "position": 151.93333333333334, "image": "/home/teacher/.openshot_qt/thumbnail/UECQRO8Z6I.png", "start": 9.3, "end": 16.566666666666666}, "partial": false, "old_values": {"alpha": {"Points": [{"co": {"X": 1, "Y": 1}, "interpolation": 2}]}, "anchor": 0, "channel_filter": {"Points": [{"co": {"X": 1, "Y": -1}, "interpolation": 2}]}, "channel_mapping": {"Points": [{"co": {"X": 1, "Y": -1}, "interpolation": 2}]}, "crop_height": {"Points": [{"co": {"X": 1, "Y": -1}, "interpolation": 2}]}, "crop_width": {"Points": [{"co": {"X": 1, "Y": -1}, "interpolation": 2}]}, "crop_x": {"Points": [{"co": {"X": 1, "Y": 0}, "interpolation": 2}]}, "crop_y": {"Points": [{"co": {"X": 1, "Y": 0}, "interpolation": 2}]}, "display": 0, "duration": 24.31999969482422, "effects": [], "end": 16.566666666666666, "gravity": 4, "has_audio": {"Points": [{"co": {"X": 1, "Y": -1}, "interpolation": 2}]}, "has_video": {"Points": [{"co": {"X": 1, "Y": -1}, "interpolation": 2}]}, "id": "12AELMQJ87", "layer": 4, "location_x": {"Points": [{"co": {"X": 1, "Y": 0}, "interpolation": 2}]}, "location_y": {"Points": [{"co": {"X": 1, "Y": 0}, "interpolation": 2}]}, "mixing": 0, "perspective_c1_x": {"Points": [{"co": {"X": 1, "Y": -1}, "interpolation": 2}]}, "perspective_c1_y": {"Points": [{"co": {"X": 1, "Y": -1}, "interpolation": 2}]}, "perspective_c2_x": {"Points": [{"co": {"X": 1, "Y": -1}, "interpolation": 2}]}, "perspective_c2_y": {"Points": [{"co": {"X": 1, "Y": -1}, "interpolation": 2}]}, "perspective_c3_x": {"Points": [{"co": {"X": 1, "Y": -1}, "interpolation": 2}]}, "perspective_c3_y": {"Points": [{"co": {"X": 1, "Y": -1}, "interpolation": 2}]}, "perspective_c4_x": {"Points": [{"co": {"X": 1, "Y": -1}, "interpolation": 2}]}, "perspective_c4_y": {"Points": [{"co": {"X": 1, "Y": -1}, "interpolation": 2}]}, "position": 194.26666666666668, "reader": {"acodec": "pcm_s16le", "audio_bit_rate": 1536000, "audio_stream_index": 1, "audio_timebase": {"den": 48000, "num": 1}, "channel_layout": 3, "channels": 2, "display_ratio": {"den": 9, "num": 16}, "duration": 24.31999969482422, "file_size": "83570136", "fps": {"den": 1, "num": 50}, "has_audio": true, "has_single_image": false, "has_video": true, "height": 720, "interlaced_frame": false, "metadata": {"com.apple.quicktime.make": "Canon", "com.apple.quicktime.model": "Canon EOS 5D Mark III", "com.apple.quicktime.rating.user": "0.000000", "compatible_brands": "qt  CAEP", "creation_time": "2022-02-27T17:17:38.000000Z", "language": "eng", "major_brand": "qt", "minor_version": "537331968", "timecode": "04:12:16:22"}, "path": "/home/teacher/\u0412\u0438\u0434\u0435\u043e/lyzhi/good/IMG_3245.MOV", "pixel_format": 12, "pixel_ratio": {"den": 1, "num": 1}, "sample_rate": 48000, "top_field_first": true, "type": "FFmpegReader", "vcodec": "h264", "video_bit_rate": 3436272, "video_length": "1216", "video_stream_index": 0, "video_timebase": {"den": 50000, "num": 1}, "width": 1280}, "rotation": {"Points": [{"co": {"X": 1, "Y": 0}, "interpolation": 2}]}, "scale": 1, "scale_x": {"Points": [{"co": {"X": 1, "Y": 1}, "interpolation": 2}]}, "scale_y": {"Points": [{"co": {"X": 1, "Y": 1}, "interpolation": 2}]}, "shear_x": {"Points": [{"co": {"X": 1, "Y": 0}, "interpolation": 2}]}, "shear_y": {"Points": [{"co": {"X": 1, "Y": 0}, "interpolation": 2}]}, "start": 9.3, "time": {"Points": [{"co": {"X": 1, "Y": 1}, "interpolation": 2}]}, "volume": {"Points": [{"co": {"X": 1, "Y": 1}, "interpolation": 2}]}, "wave_color": {"alpha": {"Points": [{"co": {"X": 1, "Y": 255}, "handle_left": {"X": 0.5, "Y": 1}, "handle_right": {"X": 0.5, "Y": 0}, "handle_type": 0, "interpolation": 0}]}, "blue": {"Points": [{"co": {"X": 1, "Y": 255}, "handle_left": {"X": 0.5, "Y": 1}, "handle_right": {"X": 0.5, "Y": 0}, "handle_type": 0, "interpolation": 0}]}, "green": {"Points": [{"co": {"X": 1, "Y": 123}, "handle_left": {"X": 0.5, "Y": 1}, "handle_right": {"X": 0.5, "Y": 0}, "handle_type": 0, "interpolation": 0}]}, "red": {"Points": [{"co": {"X": 1, "Y": 0}, "handle_left": {"X": 0.5, "Y": 1}, "handle_right": {"X": 0.5, "Y": 0}, "handle_type": 0, "interpolation": 0}]}}, "waveform": false, "file_id": "UECQRO8Z6I", "title": "IMG_3245.MOV", "image": "/home/teacher/.openshot_qt/thumbnail/UECQRO8Z6I.png"}}, {"type": "update", "key": ["clips", {"id": "2HKR6RDKM0"}], "value": {"id": "2HKR6RDKM0", "layer": 4, "position": 159.2, "image": "/home/teacher/.openshot_qt/thumbnail/2HKR6RDKM0-508.png", "start": 10.133333333333333, "end": 11.766666666666659}, "partial": false, "old_values": {"alpha": {"Points": [{"co": {"X": 1, "Y": 1}, "interpolation": 2}]}, "anchor": 0, "channel_filter": {"Points": [{"co": {"X": 1, "Y": -1}, "interpolation": 2}]}, "channel_mapping": {"Points": [{"co": {"X": 1, "Y": -1}, "interpolation": 2}]}, "crop_height": {"Points": [{"co": {"X": 1, "Y": -1}, "interpolation": 2}]}, "crop_width": {"Points": [{"co": {"X": 1, "Y": -1}, "interpolation": 2}]}, "crop_x": {"Points": [{"co": {"X": 1, "Y": 0}, "interpolation": 2}]}, "crop_y": {"Points": [{"co": {"X": 1, "Y": 0}, "interpolation": 2}]}, "display": 0, "duration": 18.0, "effects": [], "end": 11.766666666666659, "gravity": 4, "has_audio": {"Points": [{"co": {"X": 1, "Y": 0}, "interpolation": 2}]}, "has_video": {"Points": [{"co": {"X": 1, "Y": -1}, "interpolation": 2}]}, "id": "2HKR6RDKM0", "layer": 4, "location_x": {"Points": [{"co": {"X": 1, "Y": 0}, "interpolation": 2}]}, "location_y": {"Points": [{"co": {"X": 1, "Y": 0}, "interpolation": 2}]}, "mixing": 0, "perspective_c1_x": {"Points": [{"co": {"X": 1, "Y": -1}, "interpolation": 2}]}, "perspective_c1_y": {"Points": [{"co": {"X": 1, "Y": -1}, "interpolation": 2}]}, "perspective_c2_x": {"Points": [{"co": {"X": 1, "Y": -1}, "interpolation": 2}]}, "perspective_c2_y": {"Points": [{"co": {"X": 1, "Y": -1}, "interpolation": 2}]}, "perspective_c3_x": {"Points": [{"co": {"X": 1, "Y": -1}, "interpolation": 2}]}, "perspective_c3_y": {"Points": [{"co": {"X": 1, "Y": -1}, "interpolation": 2}]}, "perspective_c4_x": {"Points": [{"co": {"X": 1, "Y": -1}, "interpolation": 2}]}, "perspective_c4_y": {"Points": [{"co": {"X": 1, "Y": -1}, "interpolation": 2}]}, "position": 201.53333333333333, "reader": {"acodec": "pcm_s16le", "audio_bit_rate": 1536000, "audio_stream_index": 1, "audio_timebase": {"den": 48000, "num": 1}, "channel_layout": 3, "channels": 2, "display_ratio": {"den": 9, "num": 16}, "duration": 18.760000228881836, "file_size": "64342204", "fps": {"den": 1, "num": 50}, "has_audio": true, "has_single_image": false, "has_video": true, "height": 720, "interlaced_frame": false, "metadata": {"com.apple.quicktime.make": "Canon", "com.apple.quicktime.model": "Canon EOS 5D Mark III", "com.apple.quicktime.rating.user": "0.000000", "compatible_brands": "qt  CAEP", "creation_time": "2022-02-27T17:28:58.000000Z", "language": "eng", "major_brand": "qt", "minor_version": "537331968", "timecode": "04:15:45:16"}, "path": "/home/teacher/\u0412\u0438\u0434\u0435\u043e/lyzhi/good/IMG_3257.MOV", "pixel_format": 12, "pixel_ratio": {"den": 1, "num": 1}, "sample_rate": 48000, "top_field_first": true, "type": "FFmpegReader", "vcodec": "h264", "video_bit_rate": 3429755, "video_length": "938", "video_stream_index": 0, "video_timebase": {"den": 50000, "num": 1}, "width": 1280}, "rotation": {"Points": [{"co": {"X": 1, "Y": 0}, "interpolation": 2}]}, "scale": 1, "scale_x": {"Points": [{"co": {"X": 1, "Y": 1}, "interpolation": 2}]}, "scale_y": {"Points": [{"co": {"X": 1, "Y": 1}, "interpolation": 2}]}, "shear_x": {"Points": [{"co": {"X": 1, "Y": 0}, "interpolation": 2}]}, "shear_y": {"Points": [{"co": {"X": 1, "Y": 0}, "interpolation": 2}]}, "start": 10.133333333333333, "time": {"Points": [{"co": {"X": 282, "Y": 564}, "interpolation": 1}, {"co": {"X": 564, "Y": 282}, "interpolation": 1}]}, "volume": {"Points": [{"co": {"X": 1, "Y": 1}, "interpolation": 2}]}, "wave_color": {"alpha": {"Points": [{"co": {"X": 1, "Y": 255}, "handle_left": {"X": 0.5, "Y": 1}, "handle_right": {"X": 0.5, "Y": 0}, "handle_type": 0, "interpolation": 0}]}, "blue": {"Points": [{"co": {"X": 1, "Y": 255}, "handle_left": {"X": 0.5, "Y": 1}, "handle_right": {"X": 0.5, "Y": 0}, "handle_type": 0, "interpolation": 0}]}, "green": {"Points": [{"co": {"X": 1, "Y": 123}, "handle_left": {"X": 0.5, "Y": 1}, "handle_right": {"X": 0.5, "Y": 0}, "handle_type": 0, "interpolation": 0}]}, "red": {"Points": [{"co": {"X": 1, "Y": 0}, "handle_left": {"X": 0.5, "Y": 1}, "handle_right": {"X": 0.5, "Y": 0}, "handle_type": 0, "interpolation": 0}]}}, "waveform": false, "file_id": "H4PGDJ64LT", "title": "IMG_3257.MOV", "image": "/home/teacher/.openshot_qt/thumbnail/2HKR6RDKM0-508.png"}}, {"type": "update", "key": ["clips", {"id": "XUY3G2DB8F"}], "value": {"id": "XUY3G2DB8F", "layer": 4, "position": 160.86666666666667, "image": "/home/teacher/.openshot_qt/thumbnail/XUY3G2DB8F-593.png", "start": 11.833333333333334, "end": 14.066666666666666}, "partial": false, "old_values": {"alpha": {"Points": [{"co": {"X": 1, "Y": 1}, "interpolation": 2}]}, "anchor": 0, "channel_filter": {"Points": [{"co": {"X": 1, "Y": -1}, "interpolation": 2}]}, "channel_mapping": {"Points": [{"co": {"X": 1, "Y": -1}, "interpolation": 2}]}, "crop_height": {"Points": [{"co": {"X": 1, "Y": -1}, "interpolation": 2}]}, "crop_width": {"Points": [{"co": {"X": 1, "Y": -1}, "interpolation": 2}]}, "crop_x": {"Points": [{"co": {"X": 1, "Y": 0}, "interpolation": 2}]}, "crop_y": {"Points": [{"co": {"X": 1, "Y": 0}, "interpolation": 2}]}, "display": 0, "duration": 8.0, "effects": [], "end": 14.066666666666666, "gravity": 4, "has_audio": {"Points": [{"co": {"X": 1, "Y": 0}, "interpolation": 2}]}, "has_video": {"Points": [{"co": {"X": 1, "Y": -1}, "interpolation": 2}]}, "layer": 4, "location_x": {"Points": [{"co": {"X": 1, "Y": 0}, "interpolation": 2}]}, "location_y": {"Points": [{"co": {"X": 1, "Y": 0}, "interpolation": 2}]}, "mixing": 0, "perspective_c1_x": {"Points": [{"co": {"X": 1, "Y": -1}, "interpolation": 2}]}, "perspective_c1_y": {"Points": [{"co": {"X": 1, "Y": -1}, "interpolation": 2}]}, "perspective_c2_x": {"Points": [{"co": {"X": 1, "Y": -1}, "interpolation": 2}]}, "perspective_c2_y": {"Points": [{"co": {"X": 1, "Y": -1}, "interpolation": 2}]}, "perspective_c3_x": {"Points": [{"co": {"X": 1, "Y": -1}, "interpolation": 2}]}, "perspective_c3_y": {"Points": [{"co": {"X": 1, "Y": -1}, "interpolation": 2}]}, "perspective_c4_x": {"Points": [{"co": {"X": 1, "Y": -1}, "interpolation": 2}]}, "perspective_c4_y": {"Points": [{"co": {"X": 1, "Y": -1}, "interpolation": 2}]}, "position": 203.2, "reader": {"acodec": "pcm_s16le", "audio_bit_rate": 1536000, "audio_stream_index": 1, "audio_timebase": {"den": 48000, "num": 1}, "channel_layout": 3, "channels": 2, "display_ratio": {"den": 9, "num": 16}, "duration": 18.760000228881836, "file_size": "64342204", "fps": {"den": 1, "num": 50}, "has_audio": true, "has_single_image": false, "has_video": true, "height": 720, "interlaced_frame": false, "metadata": {"com.apple.quicktime.make": "Canon", "com.apple.quicktime.model": "Canon EOS 5D Mark III", "com.apple.quicktime.rating.user": "0.000000", "compatible_brands": "qt  CAEP", "creation_time": "2022-02-27T17:28:58.000000Z", "language": "eng", "major_brand": "qt", "minor_version": "537331968", "timecode": "04:15:45:16"}, "path": "/home/teacher/\u0412\u0438\u0434\u0435\u043e/lyzhi/good/IMG_3257.MOV", "pixel_format": 12, "pixel_ratio": {"den": 1, "num": 1}, "sample_rate": 48000, "top_field_first": true, "type": "FFmpegReader", "vcodec": "h264", "video_bit_rate": 3429755, "video_length": "938", "video_stream_index": 0, "video_timebase": {"den": 50000, "num": 1}, "width": 1280}, "rotation": {"Points": [{"co": {"X": 1, "Y": 0}, "interpolation": 2}]}, "scale": 1, "scale_x": {"Points": [{"co": {"X": 1, "Y": 1}, "interpolation": 2}]}, "scale_y": {"Points": [{"co": {"X": 1, "Y": 1}, "interpolation": 2}]}, "shear_x": {"Points": [{"co": {"X": 1, "Y": 0}, "interpolation": 2}]}, "shear_y": {"Points": [{"co": {"X": 1, "Y": 0}, "interpolation": 2}]}, "start": 11.833333333333334, "time": {"Points": [{"co": {"X": 356, "Y": 356}, "interpolation": 1}, {"co": {"X": 422, "Y": 488}, "interpolation": 1}]}, "volume": {"Points": [{"co": {"X": 1, "Y": 1}, "interpolation": 2}]}, "wave_color": {"alpha": {"Points": [{"co": {"X": 1, "Y": 255}, "handle_left": {"X": 0.5, "Y": 1}, "handle_right": {"X": 0.5, "Y": 0}, "handle_type": 0, "interpolation": 0}]}, "blue": {"Points": [{"co": {"X": 1, "Y": 255}, "handle_left": {"X": 0.5, "Y": 1}, "handle_right": {"X": 0.5, "Y": 0}, "handle_type": 0, "interpolation": 0}]}, "green": {"Points": [{"co": {"X": 1, "Y": 123}, "handle_left": {"X": 0.5, "Y": 1}, "handle_right": {"X": 0.5, "Y": 0}, "handle_type": 0, "interpolation": 0}]}, "red": {"Points": [{"co": {"X": 1, "Y": 0}, "handle_left": {"X": 0.5, "Y": 1}, "handle_right": {"X": 0.5, "Y": 0}, "handle_type": 0, "interpolation": 0}]}}, "waveform": false, "file_id": "H4PGDJ64LT", "title": "IMG_3257.MOV", "image": "/home/teacher/.openshot_qt/thumbnail/XUY3G2DB8F-593.png", "id": "XUY3G2DB8F"}}, {"type": "update", "key": ["clips", {"id": "QYE04GLX11"}], "value": {"id": "QYE04GLX11", "layer": 4, "position": 163.1, "image": "/home/teacher/.openshot_qt/thumbnail/QYE04GLX11-818.png", "start": 16.333333333333332, "end": 18}, "partial": false, "old_values": {"alpha": {"Points": [{"co": {"X": 1, "Y": 1}, "interpolation": 2}]}, "anchor": 0, "channel_filter": {"Points": [{"co": {"X": 1, "Y": -1}, "interpolation": 2}]}, "channel_mapping": {"Points": [{"co": {"X": 1, "Y": -1}, "interpolation": 2}]}, "crop_height": {"Points": [{"co": {"X": 1, "Y": -1}, "interpolation": 2}]}, "crop_width": {"Points": [{"co": {"X": 1, "Y": -1}, "interpolation": 2}]}, "crop_x": {"Points": [{"co": {"X": 1, "Y": 0}, "interpolation": 2}]}, "crop_y": {"Points": [{"co": {"X": 1, "Y": 0}, "interpolation": 2}]}, "display": 0, "duration": 18.0, "effects": [], "end": 18, "gravity": 4, "has_audio": {"Points": [{"co": {"X": 1, "Y": 0}, "interpolation": 2}]}, "has_video": {"Points": [{"co": {"X": 1, "Y": -1}, "interpolation": 2}]}, "layer": 4, "location_x": {"Points": [{"co": {"X": 1, "Y": 0}, "interpolation": 2}]}, "location_y": {"Points": [{"co": {"X": 1, "Y": 0}, "interpolation": 2}]}, "mixing": 0, "perspective_c1_x": {"Points": [{"co": {"X": 1, "Y": -1}, "interpolation": 2}]}, "perspective_c1_y": {"Points": [{"co": {"X": 1, "Y": -1}, "interpolation": 2}]}, "perspective_c2_x": {"Points": [{"co": {"X": 1, "Y": -1}, "interpolation": 2}]}, "perspective_c2_y": {"Points": [{"co": {"X": 1, "Y": -1}, "interpolation": 2}]}, "perspective_c3_x": {"Points": [{"co": {"X": 1, "Y": -1}, "interpolation": 2}]}, "perspective_c3_y": {"Points": [{"co": {"X": 1, "Y": -1}, "interpolation": 2}]}, "perspective_c4_x": {"Points": [{"co": {"X": 1, "Y": -1}, "interpolation": 2}]}, "perspective_c4_y": {"Points": [{"co": {"X": 1, "Y": -1}, "interpolation": 2}]}, "position": 205.43333333333334, "reader": {"acodec": "pcm_s16le", "audio_bit_rate": 1536000, "audio_stream_index": 1, "audio_timebase": {"den": 48000, "num": 1}, "channel_layout": 3, "channels": 2, "display_ratio": {"den": 9, "num": 16}, "duration": 18.760000228881836, "file_size": "64342204", "fps": {"den": 1, "num": 50}, "has_audio": true, "has_single_image": false, "has_video": true, "height": 720, "interlaced_frame": false, "metadata": {"com.apple.quicktime.make": "Canon", "com.apple.quicktime.model": "Canon EOS 5D Mark III", "com.apple.quicktime.rating.user": "0.000000", "compatible_brands": "qt  CAEP", "creation_time": "2022-02-27T17:28:58.000000Z", "language": "eng", "major_brand": "qt", "minor_version": "537331968", "timecode": "04:15:45:16"}, "path": "/home/teacher/\u0412\u0438\u0434\u0435\u043e/lyzhi/good/IMG_3257.MOV", "pixel_format": 12, "pixel_ratio": {"den": 1, "num": 1}, "sample_rate": 48000, "top_field_first": true, "type": "FFmpegReader", "vcodec": "h264", "video_bit_rate": 3429755, "video_length": "938", "video_stream_index": 0, "video_timebase": {"den": 50000, "num": 1}, "width": 1280}, "rotation": {"Points": [{"co": {"X": 1, "Y": 0}, "interpolation": 2}]}, "scale": 1, "scale_x": {"Points": [{"co": {"X": 1, "Y": 1}, "interpolation": 2}]}, "scale_y": {"Points": [{"co": {"X": 1, "Y": 1}, "interpolation": 2}]}, "shear_x": {"Points": [{"co": {"X": 1, "Y": 0}, "interpolation": 2}]}, "shear_y": {"Points": [{"co": {"X": 1, "Y": 0}, "interpolation": 2}]}, "start": 16.333333333333332, "time": {"Points": [{"co": {"X": 282, "Y": 564}, "interpolation": 1}, {"co": {"X": 564, "Y": 282}, "interpolation": 1}]}, "volume": {"Points": [{"co": {"X": 1, "Y": 1}, "interpolation": 2}]}, "wave_color": {"alpha": {"Points": [{"co": {"X": 1, "Y": 255}, "handle_left": {"X": 0.5, "Y": 1}, "handle_right": {"X": 0.5, "Y": 0}, "handle_type": 0, "interpolation": 0}]}, "blue": {"Points": [{"co": {"X": 1, "Y": 255}, "handle_left": {"X": 0.5, "Y": 1}, "handle_right": {"X": 0.5, "Y": 0}, "handle_type": 0, "interpolation": 0}]}, "green": {"Points": [{"co": {"X": 1, "Y": 123}, "handle_left": {"X": 0.5, "Y": 1}, "handle_right": {"X": 0.5, "Y": 0}, "handle_type": 0, "interpolation": 0}]}, "red": {"Points": [{"co": {"X": 1, "Y": 0}, "handle_left": {"X": 0.5, "Y": 1}, "handle_right": {"X": 0.5, "Y": 0}, "handle_type": 0, "interpolation": 0}]}}, "waveform": false, "file_id": "H4PGDJ64LT", "title": "IMG_3257.MOV", "image": "/home/teacher/.openshot_qt/thumbnail/QYE04GLX11-818.png", "id": "QYE04GLX11"}}, {"type": "update", "key": ["clips", {"id": "QYE04GLX11"}], "value": {"id": "QYE04GLX11", "layer": 4, "position": 167, "image": "/home/teacher/.openshot_qt/thumbnail/QYE04GLX11-818.png", "start": 16.333333333333332, "end": 18}, "partial": false, "old_values": {"alpha": {"Points": [{"co": {"X": 1, "Y": 1}, "interpolation": 2}]}, "anchor": 0, "channel_filter": {"Points": [{"co": {"X": 1, "Y": -1}, "interpolation": 2}]}, "channel_mapping": {"Points": [{"co": {"X": 1, "Y": -1}, "interpolation": 2}]}, "crop_height": {"Points": [{"co": {"X": 1, "Y": -1}, "interpolation": 2}]}, "crop_width": {"Points": [{"co": {"X": 1, "Y": -1}, "interpolation": 2}]}, "crop_x": {"Points": [{"co": {"X": 1, "Y": 0}, "interpolation": 2}]}, "crop_y": {"Points": [{"co": {"X": 1, "Y": 0}, "interpolation": 2}]}, "display": 0, "duration": 18.0, "effects": [], "end": 18, "gravity": 4, "has_audio": {"Points": [{"co": {"X": 1, "Y": 0}, "interpolation": 2}]}, "has_video": {"Points": [{"co": {"X": 1, "Y": -1}, "interpolation": 2}]}, "layer": 4, "location_x": {"Points": [{"co": {"X": 1, "Y": 0}, "interpolation": 2}]}, "location_y": {"Points": [{"co": {"X": 1, "Y": 0}, "interpolation": 2}]}, "mixing": 0, "perspective_c1_x": {"Points": [{"co": {"X": 1, "Y": -1}, "interpolation": 2}]}, "perspective_c1_y": {"Points": [{"co": {"X": 1, "Y": -1}, "interpolation": 2}]}, "perspective_c2_x": {"Points": [{"co": {"X": 1, "Y": -1}, "interpolation": 2}]}, "perspective_c2_y": {"Points": [{"co": {"X": 1, "Y": -1}, "interpolation": 2}]}, "perspective_c3_x": {"Points": [{"co": {"X": 1, "Y": -1}, "interpolation": 2}]}, "perspective_c3_y": {"Points": [{"co": {"X": 1, "Y": -1}, "interpolation": 2}]}, "perspective_c4_x": {"Points": [{"co": {"X": 1, "Y": -1}, "interpolation": 2}]}, "perspective_c4_y": {"Points": [{"co": {"X": 1, "Y": -1}, "interpolation": 2}]}, "position": 163.1, "reader": {"acodec": "pcm_s16le", "audio_bit_rate": 1536000, "audio_stream_index": 1, "audio_timebase": {"den": 48000, "num": 1}, "channel_layout": 3, "channels": 2, "display_ratio": {"den": 9, "num": 16}, "duration": 18.760000228881836, "file_size": "64342204", "fps": {"den": 1, "num": 50}, "has_audio": true, "has_single_image": false, "has_video": true, "height": 720, "interlaced_frame": false, "metadata": {"com.apple.quicktime.make": "Canon", "com.apple.quicktime.model": "Canon EOS 5D Mark III", "com.apple.quicktime.rating.user": "0.000000", "compatible_brands": "qt  CAEP", "creation_time": "2022-02-27T17:28:58.000000Z", "language": "eng", "major_brand": "qt", "minor_version": "537331968", "timecode": "04:15:45:16"}, "path": "/home/teacher/\u0412\u0438\u0434\u0435\u043e/lyzhi/good/IMG_3257.MOV", "pixel_format": 12, "pixel_ratio": {"den": 1, "num": 1}, "sample_rate": 48000, "top_field_first": true, "type": "FFmpegReader", "vcodec": "h264", "video_bit_rate": 3429755, "video_length": "938", "video_stream_index": 0, "video_timebase": {"den": 50000, "num": 1}, "width": 1280}, "rotation": {"Points": [{"co": {"X": 1, "Y": 0}, "interpolation": 2}]}, "scale": 1, "scale_x": {"Points": [{"co": {"X": 1, "Y": 1}, "interpolation": 2}]}, "scale_y": {"Points": [{"co": {"X": 1, "Y": 1}, "interpolation": 2}]}, "shear_x": {"Points": [{"co": {"X": 1, "Y": 0}, "interpolation": 2}]}, "shear_y": {"Points": [{"co": {"X": 1, "Y": 0}, "interpolation": 2}]}, "start": 16.333333333333332, "time": {"Points": [{"co": {"X": 282, "Y": 564}, "interpolation": 1}, {"co": {"X": 564, "Y": 282}, "interpolation": 1}]}, "volume": {"Points": [{"co": {"X": 1, "Y": 1}, "interpolation": 2}]}, "wave_color": {"alpha": {"Points": [{"co": {"X": 1, "Y": 255}, "handle_left": {"X": 0.5, "Y": 1}, "handle_right": {"X": 0.5, "Y": 0}, "handle_type": 0, "interpolation": 0}]}, "blue": {"Points": [{"co": {"X": 1, "Y": 255}, "handle_left": {"X": 0.5, "Y": 1}, "handle_right": {"X": 0.5, "Y": 0}, "handle_type": 0, "interpolation": 0}]}, "green": {"Points": [{"co": {"X": 1, "Y": 123}, "handle_left": {"X": 0.5, "Y": 1}, "handle_right": {"X": 0.5, "Y": 0}, "handle_type": 0, "interpolation": 0}]}, "red": {"Points": [{"co": {"X": 1, "Y": 0}, "handle_left": {"X": 0.5, "Y": 1}, "handle_right": {"X": 0.5, "Y": 0}, "handle_type": 0, "interpolation": 0}]}}, "waveform": false, "file_id": "H4PGDJ64LT", "title": "IMG_3257.MOV", "image": "/home/teacher/.openshot_qt/thumbnail/QYE04GLX11-818.png", "id": "QYE04GLX11"}}, {"type": "delete", "key": ["clips", {"id": "2HKR6RDKM0"}], "value": null, "partial": false, "old_values": {"alpha": {"Points": [{"co": {"X": 1, "Y": 1}, "interpolation": 2}]}, "anchor": 0, "channel_filter": {"Points": [{"co": {"X": 1, "Y": -1}, "interpolation": 2}]}, "channel_mapping": {"Points": [{"co": {"X": 1, "Y": -1}, "interpolation": 2}]}, "crop_height": {"Points": [{"co": {"X": 1, "Y": -1}, "interpolation": 2}]}, "crop_width": {"Points": [{"co": {"X": 1, "Y": -1}, "interpolation": 2}]}, "crop_x": {"Points": [{"co": {"X": 1, "Y": 0}, "interpolation": 2}]}, "crop_y": {"Points": [{"co": {"X": 1, "Y": 0}, "interpolation": 2}]}, "display": 0, "duration": 18.0, "effects": [], "end": 11.766666666666659, "gravity": 4, "has_audio": {"Points": [{"co": {"X": 1, "Y": 0}, "interpolation": 2}]}, "has_video": {"Points": [{"co": {"X": 1, "Y": -1}, "interpolation": 2}]}, "id": "2HKR6RDKM0", "layer": 4, "location_x": {"Points": [{"co": {"X": 1, "Y": 0}, "interpolation": 2}]}, "location_y": {"Points": [{"co": {"X": 1, "Y": 0}, "interpolation": 2}]}, "mixing": 0, "perspective_c1_x": {"Points": [{"co": {"X": 1, "Y": -1}, "interpolation": 2}]}, "perspective_c1_y": {"Points": [{"co": {"X": 1, "Y": -1}, "interpolation": 2}]}, "perspective_c2_x": {"Points": [{"co": {"X": 1, "Y": -1}, "interpolation": 2}]}, "perspective_c2_y": {"Points": [{"co": {"X": 1, "Y": -1}, "interpolation": 2}]}, "perspective_c3_x": {"Points": [{"co": {"X": 1, "Y": -1}, "interpolation": 2}]}, "perspective_c3_y": {"Points": [{"co": {"X": 1, "Y": -1}, "interpolation": 2}]}, "perspective_c4_x": {"Points": [{"co": {"X": 1, "Y": -1}, "interpolation": 2}]}, "perspective_c4_y": {"Points": [{"co": {"X": 1, "Y": -1}, "interpolation": 2}]}, "position": 159.2, "reader": {"acodec": "pcm_s16le", "audio_bit_rate": 1536000, "audio_stream_index": 1, "audio_timebase": {"den": 48000, "num": 1}, "channel_layout": 3, "channels": 2, "display_ratio": {"den": 9, "num": 16}, "duration": 18.760000228881836, "file_size": "64342204", "fps": {"den": 1, "num": 50}, "has_audio": true, "has_single_image": false, "has_video": true, "height": 720, "interlaced_frame": false, "metadata": {"com.apple.quicktime.make": "Canon", "com.apple.quicktime.model": "Canon EOS 5D Mark III", "com.apple.quicktime.rating.user": "0.000000", "compatible_brands": "qt  CAEP", "creation_time": "2022-02-27T17:28:58.000000Z", "language": "eng", "major_brand": "qt", "minor_version": "537331968", "timecode": "04:15:45:16"}, "path": "/home/teacher/\u0412\u0438\u0434\u0435\u043e/lyzhi/good/IMG_3257.MOV", "pixel_format": 12, "pixel_ratio": {"den": 1, "num": 1}, "sample_rate": 48000, "top_field_first": true, "type": "FFmpegReader", "vcodec": "h264", "video_bit_rate": 3429755, "video_length": "938", "video_stream_index": 0, "video_timebase": {"den": 50000, "num": 1}, "width": 1280}, "rotation": {"Points": [{"co": {"X": 1, "Y": 0}, "interpolation": 2}]}, "scale": 1, "scale_x": {"Points": [{"co": {"X": 1, "Y": 1}, "interpolation": 2}]}, "scale_y": {"Points": [{"co": {"X": 1, "Y": 1}, "interpolation": 2}]}, "shear_x": {"Points": [{"co": {"X": 1, "Y": 0}, "interpolation": 2}]}, "shear_y": {"Points": [{"co": {"X": 1, "Y": 0}, "interpolation": 2}]}, "start": 10.133333333333333, "time": {"Points": [{"co": {"X": 282, "Y": 564}, "interpolation": 1}, {"co": {"X": 564, "Y": 282}, "interpolation": 1}]}, "volume": {"Points": [{"co": {"X": 1, "Y": 1}, "interpolation": 2}]}, "wave_color": {"alpha": {"Points": [{"co": {"X": 1, "Y": 255}, "handle_left": {"X": 0.5, "Y": 1}, "handle_right": {"X": 0.5, "Y": 0}, "handle_type": 0, "interpolation": 0}]}, "blue": {"Points": [{"co": {"X": 1, "Y": 255}, "handle_left": {"X": 0.5, "Y": 1}, "handle_right": {"X": 0.5, "Y": 0}, "handle_type": 0, "interpolation": 0}]}, "green": {"Points": [{"co": {"X": 1, "Y": 123}, "handle_left": {"X": 0.5, "Y": 1}, "handle_right": {"X": 0.5, "Y": 0}, "handle_type": 0, "interpolation": 0}]}, "red": {"Points": [{"co": {"X": 1, "Y": 0}, "handle_left": {"X": 0.5, "Y": 1}, "handle_right": {"X": 0.5, "Y": 0}, "handle_type": 0, "interpolation": 0}]}}, "waveform": false, "file_id": "H4PGDJ64LT", "title": "IMG_3257.MOV", "image": "/home/teacher/.openshot_qt/thumbnail/2HKR6RDKM0-508.png"}}, {"type": "delete", "key": ["clips", {"id": "XUY3G2DB8F"}], "value": null, "partial": false, "old_values": {"alpha": {"Points": [{"co": {"X": 1, "Y": 1}, "interpolation": 2}]}, "anchor": 0, "channel_filter": {"Points": [{"co": {"X": 1, "Y": -1}, "interpolation": 2}]}, "channel_mapping": {"Points": [{"co": {"X": 1, "Y": -1}, "interpolation": 2}]}, "crop_height": {"Points": [{"co": {"X": 1, "Y": -1}, "interpolation": 2}]}, "crop_width": {"Points": [{"co": {"X": 1, "Y": -1}, "interpolation": 2}]}, "crop_x": {"Points": [{"co": {"X": 1, "Y": 0}, "interpolation": 2}]}, "crop_y": {"Points": [{"co": {"X": 1, "Y": 0}, "interpolation": 2}]}, "display": 0, "duration": 8.0, "effects": [], "end": 14.066666666666666, "gravity": 4, "has_audio": {"Points": [{"co": {"X": 1, "Y": 0}, "interpolation": 2}]}, "has_video": {"Points": [{"co": {"X": 1, "Y": -1}, "interpolation": 2}]}, "layer": 4, "location_x": {"Points": [{"co": {"X": 1, "Y": 0}, "interpolation": 2}]}, "location_y": {"Points": [{"co": {"X": 1, "Y": 0}, "interpolation": 2}]}, "mixing": 0, "perspective_c1_x": {"Points": [{"co": {"X": 1, "Y": -1}, "interpolation": 2}]}, "perspective_c1_y": {"Points": [{"co": {"X": 1, "Y": -1}, "interpolation": 2}]}, "perspective_c2_x": {"Points": [{"co": {"X": 1, "Y": -1}, "interpolation": 2}]}, "perspective_c2_y": {"Points": [{"co": {"X": 1, "Y": -1}, "interpolation": 2}]}, "perspective_c3_x": {"Points": [{"co": {"X": 1, "Y": -1}, "interpolation": 2}]}, "perspective_c3_y": {"Points": [{"co": {"X": 1, "Y": -1}, "interpolation": 2}]}, "perspective_c4_x": {"Points": [{"co": {"X": 1, "Y": -1}, "interpolation": 2}]}, "perspective_c4_y": {"Points": [{"co": {"X": 1, "Y": -1}, "interpolation": 2}]}, "position": 160.86666666666667, "reader": {"acodec": "pcm_s16le", "audio_bit_rate": 1536000, "audio_stream_index": 1, "audio_timebase": {"den": 48000, "num": 1}, "channel_layout": 3, "channels": 2, "display_ratio": {"den": 9, "num": 16}, "duration": 18.760000228881836, "file_size": "64342204", "fps": {"den": 1, "num": 50}, "has_audio": true, "has_single_image": false, "has_video": true, "height": 720, "interlaced_frame": false, "metadata": {"com.apple.quicktime.make": "Canon", "com.apple.quicktime.model": "Canon EOS 5D Mark III", "com.apple.quicktime.rating.user": "0.000000", "compatible_brands": "qt  CAEP", "creation_time": "2022-02-27T17:28:58.000000Z", "language": "eng", "major_brand": "qt", "minor_version": "537331968", "timecode": "04:15:45:16"}, "path": "/home/teacher/\u0412\u0438\u0434\u0435\u043e/lyzhi/good/IMG_3257.MOV", "pixel_format": 12, "pixel_ratio": {"den": 1, "num": 1}, "sample_rate": 48000, "top_field_first": true, "type": "FFmpegReader", "vcodec": "h264", "video_bit_rate": 3429755, "video_length": "938", "video_stream_index": 0, "video_timebase": {"den": 50000, "num": 1}, "width": 1280}, "rotation": {"Points": [{"co": {"X": 1, "Y": 0}, "interpolation": 2}]}, "scale": 1, "scale_x": {"Points": [{"co": {"X": 1, "Y": 1}, "interpolation": 2}]}, "scale_y": {"Points": [{"co": {"X": 1, "Y": 1}, "interpolation": 2}]}, "shear_x": {"Points": [{"co": {"X": 1, "Y": 0}, "interpolation": 2}]}, "shear_y": {"Points": [{"co": {"X": 1, "Y": 0}, "interpolation": 2}]}, "start": 11.833333333333334, "time": {"Points": [{"co": {"X": 356, "Y": 356}, "interpolation": 1}, {"co": {"X": 422, "Y": 488}, "interpolation": 1}]}, "volume": {"Points": [{"co": {"X": 1, "Y": 1}, "interpolation": 2}]}, "wave_color": {"alpha": {"Points": [{"co": {"X": 1, "Y": 255}, "handle_left": {"X": 0.5, "Y": 1}, "handle_right": {"X": 0.5, "Y": 0}, "handle_type": 0, "interpolation": 0}]}, "blue": {"Points": [{"co": {"X": 1, "Y": 255}, "handle_left": {"X": 0.5, "Y": 1}, "handle_right": {"X": 0.5, "Y": 0}, "handle_type": 0, "interpolation": 0}]}, "green": {"Points": [{"co": {"X": 1, "Y": 123}, "handle_left": {"X": 0.5, "Y": 1}, "handle_right": {"X": 0.5, "Y": 0}, "handle_type": 0, "interpolation": 0}]}, "red": {"Points": [{"co": {"X": 1, "Y": 0}, "handle_left": {"X": 0.5, "Y": 1}, "handle_right": {"X": 0.5, "Y": 0}, "handle_type": 0, "interpolation": 0}]}}, "waveform": false, "file_id": "H4PGDJ64LT", "title": "IMG_3257.MOV", "image": "/home/teacher/.openshot_qt/thumbnail/XUY3G2DB8F-593.png", "id": "XUY3G2DB8F"}}, {"type": "delete", "key": ["clips", {"id": "QYE04GLX11"}], "value": null, "partial": false, "old_values": {"alpha": {"Points": [{"co": {"X": 1, "Y": 1}, "interpolation": 2}]}, "anchor": 0, "channel_filter": {"Points": [{"co": {"X": 1, "Y": -1}, "interpolation": 2}]}, "channel_mapping": {"Points": [{"co": {"X": 1, "Y": -1}, "interpolation": 2}]}, "crop_height": {"Points": [{"co": {"X": 1, "Y": -1}, "interpolation": 2}]}, "crop_width": {"Points": [{"co": {"X": 1, "Y": -1}, "interpolation": 2}]}, "crop_x": {"Points": [{"co": {"X": 1, "Y": 0}, "interpolation": 2}]}, "crop_y": {"Points": [{"co": {"X": 1, "Y": 0}, "interpolation": 2}]}, "display": 0, "duration": 18.0, "effects": [], "end": 18, "gravity": 4, "has_audio": {"Points": [{"co": {"X": 1, "Y": 0}, "interpolation": 2}]}, "has_video": {"Points": [{"co": {"X": 1, "Y": -1}, "interpolation": 2}]}, "layer": 4, "location_x": {"Points": [{"co": {"X": 1, "Y": 0}, "interpolation": 2}]}, "location_y": {"Points": [{"co": {"X": 1, "Y": 0}, "interpolation": 2}]}, "mixing": 0, "perspective_c1_x": {"Points": [{"co": {"X": 1, "Y": -1}, "interpolation": 2}]}, "perspective_c1_y": {"Points": [{"co": {"X": 1, "Y": -1}, "interpolation": 2}]}, "perspective_c2_x": {"Points": [{"co": {"X": 1, "Y": -1}, "interpolation": 2}]}, "perspective_c2_y": {"Points": [{"co": {"X": 1, "Y": -1}, "interpolation": 2}]}, "perspective_c3_x": {"Points": [{"co": {"X": 1, "Y": -1}, "interpolation": 2}]}, "perspective_c3_y": {"Points": [{"co": {"X": 1, "Y": -1}, "interpolation": 2}]}, "perspective_c4_x": {"Points": [{"co": {"X": 1, "Y": -1}, "interpolation": 2}]}, "perspective_c4_y": {"Points": [{"co": {"X": 1, "Y": -1}, "interpolation": 2}]}, "position": 167, "reader": {"acodec": "pcm_s16le", "audio_bit_rate": 1536000, "audio_stream_index": 1, "audio_timebase": {"den": 48000, "num": 1}, "channel_layout": 3, "channels": 2, "display_ratio": {"den": 9, "num": 16}, "duration": 18.760000228881836, "file_size": "64342204", "fps": {"den": 1, "num": 50}, "has_audio": true, "has_single_image": false, "has_video": true, "height": 720, "interlaced_frame": false, "metadata": {"com.apple.quicktime.make": "Canon", "com.apple.quicktime.model": "Canon EOS 5D Mark III", "com.apple.quicktime.rating.user": "0.000000", "compatible_brands": "qt  CAEP", "creation_time": "2022-02-27T17:28:58.000000Z", "language": "eng", "major_brand": "qt", "minor_version": "537331968", "timecode": "04:15:45:16"}, "path": "/home/teacher/\u0412\u0438\u0434\u0435\u043e/lyzhi/good/IMG_3257.MOV", "pixel_format": 12, "pixel_ratio": {"den": 1, "num": 1}, "sample_rate": 48000, "top_field_first": true, "type": "FFmpegReader", "vcodec": "h264", "video_bit_rate": 3429755, "video_length": "938", "video_stream_index": 0, "video_timebase": {"den": 50000, "num": 1}, "width": 1280}, "rotation": {"Points": [{"co": {"X": 1, "Y": 0}, "interpolation": 2}]}, "scale": 1, "scale_x": {"Points": [{"co": {"X": 1, "Y": 1}, "interpolation": 2}]}, "scale_y": {"Points": [{"co": {"X": 1, "Y": 1}, "interpolation": 2}]}, "shear_x": {"Points": [{"co": {"X": 1, "Y": 0}, "interpolation": 2}]}, "shear_y": {"Points": [{"co": {"X": 1, "Y": 0}, "interpolation": 2}]}, "start": 16.333333333333332, "time": {"Points": [{"co": {"X": 282, "Y": 564}, "interpolation": 1}, {"co": {"X": 564, "Y": 282}, "interpolation": 1}]}, "volume": {"Points": [{"co": {"X": 1, "Y": 1}, "interpolation": 2}]}, "wave_color": {"alpha": {"Points": [{"co": {"X": 1, "Y": 255}, "handle_left": {"X": 0.5, "Y": 1}, "handle_right": {"X": 0.5, "Y": 0}, "handle_type": 0, "interpolation": 0}]}, "blue": {"Points": [{"co": {"X": 1, "Y": 255}, "handle_left": {"X": 0.5, "Y": 1}, "handle_right": {"X": 0.5, "Y": 0}, "handle_type": 0, "interpolation": 0}]}, "green": {"Points": [{"co": {"X": 1, "Y": 123}, "handle_left": {"X": 0.5, "Y": 1}, "handle_right": {"X": 0.5, "Y": 0}, "handle_type": 0, "interpolation": 0}]}, "red": {"Points": [{"co": {"X": 1, "Y": 0}, "handle_left": {"X": 0.5, "Y": 1}, "handle_right": {"X": 0.5, "Y": 0}, "handle_type": 0, "interpolation": 0}]}}, "waveform": false, "file_id": "H4PGDJ64LT", "title": "IMG_3257.MOV", "image": "/home/teacher/.openshot_qt/thumbnail/QYE04GLX11-818.png", "id": "QYE04GLX11"}}, {"type": "insert", "key": ["clips"], "value": {"alpha": {"Points": [{"co": {"X": 1, "Y": 1}, "interpolation": 2}]}, "anchor": 0, "channel_filter": {"Points": [{"co": {"X": 1, "Y": -1}, "interpolation": 2}]}, "channel_mapping": {"Points": [{"co": {"X": 1, "Y": -1}, "interpolation": 2}]}, "crop_height": {"Points": [{"co": {"X": 1, "Y": -1}, "interpolation": 2}]}, "crop_width": {"Points": [{"co": {"X": 1, "Y": -1}, "interpolation": 2}]}, "crop_x": {"Points": [{"co": {"X": 1, "Y": 0}, "interpolation": 2}]}, "crop_y": {"Points": [{"co": {"X": 1, "Y": 0}, "interpolation": 2}]}, "display": 0, "duration": 18.760000228881836, "effects": [], "end": 18.633333333333333, "gravity": 4, "has_audio": {"Points": [{"co": {"X": 1, "Y": -1}, "interpolation": 2}]}, "has_video": {"Points": [{"co": {"X": 1, "Y": -1}, "interpolation": 2}]}, "id": "D6SMHOE6VB", "layer": 4, "location_x": {"Points": [{"co": {"X": 1, "Y": 0}, "interpolation": 2}]}, "location_y": {"Points": [{"co": {"X": 1, "Y": 0}, "interpolation": 2}]}, "mixing": 0, "perspective_c1_x": {"Points": [{"co": {"X": 1, "Y": -1}, "interpolation": 2}]}, "perspective_c1_y": {"Points": [{"co": {"X": 1, "Y": -1}, "interpolation": 2}]}, "perspective_c2_x": {"Points": [{"co": {"X": 1, "Y": -1}, "interpolation": 2}]}, "perspective_c2_y": {"Points": [{"co": {"X": 1, "Y": -1}, "interpolation": 2}]}, "perspective_c3_x": {"Points": [{"co": {"X": 1, "Y": -1}, "interpolation": 2}]}, "perspective_c3_y": {"Points": [{"co": {"X": 1, "Y": -1}, "interpolation": 2}]}, "perspective_c4_x": {"Points": [{"co": {"X": 1, "Y": -1}, "interpolation": 2}]}, "perspective_c4_y": {"Points": [{"co": {"X": 1, "Y": -1}, "interpolation": 2}]}, "position": 159.2, "reader": {"acodec": "pcm_s16le", "audio_bit_rate": 1536000, "audio_stream_index": 1, "audio_timebase": {"den": 48000, "num": 1}, "channel_layout": 3, "channels": 2, "display_ratio": {"den": 9, "num": 16}, "duration": 18.760000228881836, "file_size": "64342204", "fps": {"den": 1, "num": 50}, "has_audio": true, "has_single_image": false, "has_video": true, "height": 720, "interlaced_frame": false, "metadata": {"com.apple.quicktime.make": "Canon", "com.apple.quicktime.model": "Canon EOS 5D Mark III", "com.apple.quicktime.rating.user": "0.000000", "compatible_brands": "qt  CAEP", "creation_time": "2022-02-27T17:28:58.000000Z", "language": "eng", "major_brand": "qt", "minor_version": "537331968", "timecode": "04:15:45:16"}, "path": "/home/teacher/\u0412\u0438\u0434\u0435\u043e/lyzhi/good/IMG_3257.MOV", "pixel_format": 12, "pixel_ratio": {"den": 1, "num": 1}, "sample_rate": 48000, "top_field_first": true, "type": "FFmpegReader", "vcodec": "h264", "video_bit_rate": 3429755, "video_length": "938", "video_stream_index": 0, "video_timebase": {"den": 50000, "num": 1}, "width": 1280}, "rotation": {"Points": [{"co": {"X": 1, "Y": 0}, "interpolation": 2}]}, "scale": 1, "scale_x": {"Points": [{"co": {"X": 1, "Y": 1}, "interpolation": 2}]}, "scale_y": {"Points": [{"co": {"X": 1, "Y": 1}, "interpolation": 2}]}, "shear_x": {"Points": [{"co": {"X": 1, "Y": 0}, "interpolation": 2}]}, "shear_y": {"Points": [{"co": {"X": 1, "Y": 0}, "interpolation": 2}]}, "start": 9.7, "time": {"Points": [{"co": {"X": 1, "Y": 1}, "interpolation": 2}]}, "volume": {"Points": [{"co": {"X": 1, "Y": 1}, "interpolation": 2}]}, "wave_color": {"alpha": {"Points": [{"co": {"X": 1, "Y": 255}, "handle_left": {"X": 0.5, "Y": 1}, "handle_right": {"X": 0.5, "Y": 0}, "handle_type": 0, "interpolation": 0}]}, "blue": {"Points": [{"co": {"X": 1, "Y": 255}, "handle_left": {"X": 0.5, "Y": 1}, "handle_right": {"X": 0.5, "Y": 0}, "handle_type": 0, "interpolation": 0}]}, "green": {"Points": [{"co": {"X": 1, "Y": 123}, "handle_left": {"X": 0.5, "Y": 1}, "handle_right": {"X": 0.5, "Y": 0}, "handle_type": 0, "interpolation": 0}]}, "red": {"Points": [{"co": {"X": 1, "Y": 0}, "handle_left": {"X": 0.5, "Y": 1}, "handle_right": {"X": 0.5, "Y": 0}, "handle_type": 0, "interpolation": 0}]}}, "waveform": false, "file_id": "H4PGDJ64LT", "title": "IMG_3257.MOV", "image": "/home/teacher/.openshot_qt/thumbnail/H4PGDJ64LT.png"}, "partial": false, "old_values": [{"alpha": {"Points": [{"co": {"X": 1, "Y": 1}, "interpolation": 2}]}, "anchor": 0, "channel_filter": {"Points": [{"co": {"X": 1, "Y": -1}, "interpolation": 2}]}, "channel_mapping": {"Points": [{"co": {"X": 1, "Y": -1}, "interpolation": 2}]}, "crop_height": {"Points": [{"co": {"X": 1, "Y": -1}, "interpolation": 2}]}, "crop_width": {"Points": [{"co": {"X": 1, "Y": -1}, "interpolation": 2}]}, "crop_x": {"Points": [{"co": {"X": 1, "Y": 0}, "interpolation": 2}]}, "crop_y": {"Points": [{"co": {"X": 1, "Y": 0}, "interpolation": 2}]}, "display": 0, "duration": 10.218542098999023, "effects": [], "end": 8.233333333333333, "gravity": 4, "has_audio": {"Points": [{"co": {"X": 1, "Y": 0}, "interpolation": 2}]}, "has_video": {"Points": [{"co": {"X": 1, "Y": -1}, "interpolation": 2}]}, "id": "NV0NG7QBG8", "layer": 4, "location_x": {"Points": [{"co": {"X": 1, "Y": 0}, "interpolation": 2}]}, "location_y": {"Points": [{"co": {"X": 1, "Y": 0}, "interpolation": 2}]}, "mixing": 0, "perspective_c1_x": {"Points": [{"co": {"X": 1, "Y": -1}, "interpolation": 2}]}, "perspective_c1_y": {"Points": [{"co": {"X": 1, "Y": -1}, "interpolation": 2}]}, "perspective_c2_x": {"Points": [{"co": {"X": 1, "Y": -1}, "interpolation": 2}]}, "perspective_c2_y": {"Points": [{"co": {"X": 1, "Y": -1}, "interpolation": 2}]}, "perspective_c3_x": {"Points": [{"co": {"X": 1, "Y": -1}, "interpolation": 2}]}, "perspective_c3_y": {"Points": [{"co": {"X": 1, "Y": -1}, "interpolation": 2}]}, "perspective_c4_x": {"Points": [{"co": {"X": 1, "Y": -1}, "interpolation": 2}]}, "perspective_c4_y": {"Points": [{"co": {"X": 1, "Y": -1}, "interpolation": 2}]}, "position": 6.9, "reader": {"acodec": "pcm_s16le", "audio_bit_rate": 1536000, "audio_stream_index": 1, "audio_timebase": {"den": 48000, "num": 1}, "channel_layout": 3, "channels": 2, "display_ratio": {"den": 9, "num": 16}, "duration": 10.218542098999023, "file_size": "40334264", "fps": {"den": 1001, "num": 24000}, "has_audio": true, "has_single_image": false, "has_video": true, "height": 1080, "interlaced_frame": false, "metadata": {"com.apple.quicktime.make": "Canon", "com.apple.quicktime.model": "Canon EOS 5D Mark III", "com.apple.quicktime.rating.user": "0.000000", "compatible_brands": "qt  CAEP", "creation_time": "2022-02-27T12:44:00.000000Z", "language": "eng", "major_brand": "qt", "minor_version": "537331968", "timecode": "03:31:15:02"}, "path": "/home/teacher/\u0412\u0438\u0434\u0435\u043e/lyzhi/good/IMG_3057.MOV", "pixel_format": 12, "pixel_ratio": {"den": 1, "num": 1}, "sample_rate": 48000, "top_field_first": true, "type": "FFmpegReader", "vcodec": "h264", "video_bit_rate": 3947164, "video_length": "245", "video_stream_index": 0, "video_timebase": {"den": 24000, "num": 1}, "width": 1920}, "rotation": {"Points": [{"co": {"X": 1, "Y": 0}, "interpolation": 2}]}, "scale": 1, "scale_x": {"Points": [{"co": {"X": 1, "Y": 1}, "interpolation": 2}]}, "scale_y": {"Points": [{"co": {"X": 1, "Y": 1}, "interpolation": 2}]}, "shear_x": {"Points": [{"co": {"X": 1, "Y": 0}, "interpolation": 2}]}, "shear_y": {"Points": [{"co": {"X": 1, "Y": 0}, "interpolation": 2}]}, "start": 4.4, "time": {"Points": [{"co": {"X": 1, "Y": 1}, "interpolation": 2}]}, "volume": {"Points": [{"co": {"X": 1, "Y": 1}, "interpolation": 2}]}, "wave_color": {"alpha": {"Points": [{"co": {"X": 1, "Y": 255}, "handle_left": {"X": 0.5, "Y": 1}, "handle_right": {"X": 0.5, "Y": 0}, "handle_type": 0, "interpolation": 0}]}, "blue": {"Points": [{"co": {"X": 1, "Y": 255}, "handle_left": {"X": 0.5, "Y": 1}, "handle_right": {"X": 0.5, "Y": 0}, "handle_type": 0, "interpolation": 0}]}, "green": {"Points": [{"co": {"X": 1, "Y": 123}, "handle_left": {"X": 0.5, "Y": 1}, "handle_right": {"X": 0.5, "Y": 0}, "handle_type": 0, "interpolation": 0}]}, "red": {"Points": [{"co": {"X": 1, "Y": 0}, "handle_left": {"X": 0.5, "Y": 1}, "handle_right": {"X": 0.5, "Y": 0}, "handle_type": 0, "interpolation": 0}]}}, "waveform": false, "file_id": "VWKO8LVPQE", "title": "IMG_3057.MOV", "image": "/home/teacher/.openshot_qt/thumbnail/VWKO8LVPQE.png"}, {"alpha": {"Points": [{"co": {"X": 1, "Y": 1}, "interpolation": 2}]}, "anchor": 0, "channel_filter": {"Points": [{"co": {"X": 1, "Y": -1}, "interpolation": 2}]}, "channel_mapping": {"Points": [{"co": {"X": 1, "Y": -1}, "interpolation": 2}]}, "crop_height": {"Points": [{"co": {"X": 1, "Y": -1}, "interpolation": 2}]}, "crop_width": {"Points": [{"co": {"X": 1, "Y": -1}, "interpolation": 2}]}, "crop_x": {"Points": [{"co": {"X": 1, "Y": 0}, "interpolation": 2}]}, "crop_y": {"Points": [{"co": {"X": 1, "Y": 0}, "interpolation": 2}]}, "display": 0, "duration": 47.338958740234375, "effects": [], "end": 31.166666666666668, "gravity": 4, "has_audio": {"Points": [{"co": {"X": 1, "Y": 0}, "interpolation": 2}]}, "has_video": {"Points": [{"co": {"X": 1, "Y": -1}, "interpolation": 2}]}, "id": "2JX6RFY40N", "layer": 4, "location_x": {"Points": [{"co": {"X": 1, "Y": 0}, "interpolation": 2}]}, "location_y": {"Points": [{"co": {"X": 1, "Y": 0}, "interpolation": 2}]}, "mixing": 0, "perspective_c1_x": {"Points": [{"co": {"X": 1, "Y": -1}, "interpolation": 2}]}, "perspective_c1_y": {"Points": [{"co": {"X": 1, "Y": -1}, "interpolation": 2}]}, "perspective_c2_x": {"Points": [{"co": {"X": 1, "Y": -1}, "interpolation": 2}]}, "perspective_c2_y": {"Points": [{"co": {"X": 1, "Y": -1}, "interpolation": 2}]}, "perspective_c3_x": {"Points": [{"co": {"X": 1, "Y": -1}, "interpolation": 2}]}, "perspective_c3_y": {"Points": [{"co": {"X": 1, "Y": -1}, "interpolation": 2}]}, "perspective_c4_x": {"Points": [{"co": {"X": 1, "Y": -1}, "interpolation": 2}]}, "perspective_c4_y": {"Points": [{"co": {"X": 1, "Y": -1}, "interpolation": 2}]}, "position": 10.8, "reader": {"acodec": "pcm_s16le", "audio_bit_rate": 1536000, "audio_stream_index": 1, "audio_timebase": {"den": 48000, "num": 1}, "channel_layout": 3, "channels": 2, "display_ratio": {"den": 9, "num": 16}, "duration": 47.338958740234375, "file_size": "184532412", "fps": {"den": 1001, "num": 24000}, "has_audio": true, "has_single_image": false, "has_video": true, "height": 1080, "interlaced_frame": false, "metadata": {"com.apple.quicktime.make": "Canon", "com.apple.quicktime.model": "Canon EOS 5D Mark III", "com.apple.quicktime.rating.user": "0.000000", "compatible_brands": "qt  CAEP", "creation_time": "2022-02-27T12:19:58.000000Z", "language": "eng", "major_brand": "qt", "minor_version": "537331968", "timecode": "03:30:12:13"}, "path": "/home/teacher/\u0412\u0438\u0434\u0435\u043e/lyzhi/good/IMG_3054.MOV", "pixel_format": 12, "pixel_ratio": {"den": 1, "num": 1}, "sample_rate": 48000, "top_field_first": true, "type": "FFmpegReader", "vcodec": "h264", "video_bit_rate": 3898108, "video_length": "1135", "video_stream_index": 0, "video_timebase": {"den": 24000, "num": 1}, "width": 1920}, "rotation": {"Points": [{"co": {"X": 1, "Y": 0}, "interpolation": 2}]}, "scale": 1, "scale_x": {"Points": [{"co": {"X": 1, "Y": 1}, "interpolation": 2}]}, "scale_y": {"Points": [{"co": {"X": 1, "Y": 1}, "interpolation": 2}]}, "shear_x": {"Points": [{"co": {"X": 1, "Y": 0}, "interpolation": 2}]}, "shear_y": {"Points": [{"co": {"X": 1, "Y": 0}, "interpolation": 2}]}, "start": 29.6, "time": {"Points": [{"co": {"X": 1, "Y": 1}, "interpolation": 2}]}, "volume": {"Points": [{"co": {"X": 1, "Y": 1}, "interpolation": 2}]}, "wave_color": {"alpha": {"Points": [{"co": {"X": 1, "Y": 255}, "handle_left": {"X": 0.5, "Y": 1}, "handle_right": {"X": 0.5, "Y": 0}, "handle_type": 0, "interpolation": 0}]}, "blue": {"Points": [{"co": {"X": 1, "Y": 255}, "handle_left": {"X": 0.5, "Y": 1}, "handle_right": {"X": 0.5, "Y": 0}, "handle_type": 0, "interpolation": 0}]}, "green": {"Points": [{"co": {"X": 1, "Y": 123}, "handle_left": {"X": 0.5, "Y": 1}, "handle_right": {"X": 0.5, "Y": 0}, "handle_type": 0, "interpolation": 0}]}, "red": {"Points": [{"co": {"X": 1, "Y": 0}, "handle_left": {"X": 0.5, "Y": 1}, "handle_right": {"X": 0.5, "Y": 0}, "handle_type": 0, "interpolation": 0}]}}, "waveform": false, "file_id": "VOMLWGHCC8", "title": "IMG_3054.MOV", "image": "/home/teacher/.openshot_qt/thumbnail/2JX6RFY40N-677.png"}, {"alpha": {"Points": [{"co": {"X": 1, "Y": 1}, "interpolation": 2}]}, "anchor": 0, "channel_filter": {"Points": [{"co": {"X": 1, "Y": -1}, "interpolation": 2}]}, "channel_mapping": {"Points": [{"co": {"X": 1, "Y": -1}, "interpolation": 2}]}, "crop_height": {"Points": [{"co": {"X": 1, "Y": -1}, "interpolation": 2}]}, "crop_width": {"Points": [{"co": {"X": 1, "Y": -1}, "interpolation": 2}]}, "crop_x": {"Points": [{"co": {"X": 1, "Y": 0}, "interpolation": 2}]}, "crop_y": {"Points": [{"co": {"X": 1, "Y": 0}, "interpolation": 2}]}, "display": 0, "duration": 47.338958740234375, "effects": [], "end": 45.833333333333336, "gravity": 4, "has_audio": {"Points": [{"co": {"X": 1, "Y": 0}, "interpolation": 2}]}, "has_video": {"Points": [{"co": {"X": 1, "Y": -1}, "interpolation": 2}]}, "layer": 4, "location_x": {"Points": [{"co": {"X": 1, "Y": 0}, "interpolation": 2}]}, "location_y": {"Points": [{"co": {"X": 1, "Y": 0}, "interpolation": 2}]}, "mixing": 0, "perspective_c1_x": {"Points": [{"co": {"X": 1, "Y": -1}, "interpolation": 2}]}, "perspective_c1_y": {"Points": [{"co": {"X": 1, "Y": -1}, "interpolation": 2}]}, "perspective_c2_x": {"Points": [{"co": {"X": 1, "Y": -1}, "interpolation": 2}]}, "perspective_c2_y": {"Points": [{"co": {"X": 1, "Y": -1}, "interpolation": 2}]}, "perspective_c3_x": {"Points": [{"co": {"X": 1, "Y": -1}, "interpolation": 2}]}, "perspective_c3_y": {"Points": [{"co": {"X": 1, "Y": -1}, "interpolation": 2}]}, "perspective_c4_x": {"Points": [{"co": {"X": 1, "Y": -1}, "interpolation": 2}]}, "perspective_c4_y": {"Points": [{"co": {"X": 1, "Y": -1}, "interpolation": 2}]}, "position": 12.366666666666667, "reader": {"acodec": "pcm_s16le", "audio_bit_rate": 1536000, "audio_stream_index": 1, "audio_timebase": {"den": 48000, "num": 1}, "channel_layout": 3, "channels": 2, "display_ratio": {"den": 9, "num": 16}, "duration": 47.338958740234375, "file_size": "184532412", "fps": {"den": 1001, "num": 24000}, "has_audio": true, "has_single_image": false, "has_video": true, "height": 1080, "interlaced_frame": false, "metadata": {"com.apple.quicktime.make": "Canon", "com.apple.quicktime.model": "Canon EOS 5D Mark III", "com.apple.quicktime.rating.user": "0.000000", "compatible_brands": "qt  CAEP", "creation_time": "2022-02-27T12:19:58.000000Z", "language": "eng", "major_brand": "qt", "minor_version": "537331968", "timecode": "03:30:12:13"}, "path": "/home/teacher/\u0412\u0438\u0434\u0435\u043e/lyzhi/good/IMG_3054.MOV", "pixel_format": 12, "pixel_ratio": {"den": 1, "num": 1}, "sample_rate": 48000, "top_field_first": true, "type": "FFmpegReader", "vcodec": "h264", "video_bit_rate": 3898108, "video_length": "1135", "video_stream_index": 0, "video_timebase": {"den": 24000, "num": 1}, "width": 1920}, "rotation": {"Points": [{"co": {"X": 1, "Y": 0}, "interpolation": 2}]}, "scale": 1, "scale_x": {"Points": [{"co": {"X": 1, "Y": 1}, "interpolation": 2}]}, "scale_y": {"Points": [{"co": {"X": 1, "Y": 1}, "interpolation": 2}]}, "shear_x": {"Points": [{"co": {"X": 1, "Y": 0}, "interpolation": 2}]}, "shear_y": {"Points": [{"co": {"X": 1, "Y": 0}, "interpolation": 2}]}, "start": 42.63333333333333, "time": {"Points": [{"co": {"X": 1, "Y": 1}, "interpolation": 2}]}, "volume": {"Points": [{"co": {"X": 1, "Y": 1}, "interpolation": 2}]}, "wave_color": {"alpha": {"Points": [{"co": {"X": 1, "Y": 255}, "handle_left": {"X": 0.5, "Y": 1}, "handle_right": {"X": 0.5, "Y": 0}, "handle_type": 0, "interpolation": 0}]}, "blue": {"Points": [{"co": {"X": 1, "Y": 255}, "handle_left": {"X": 0.5, "Y": 1}, "handle_right": {"X": 0.5, "Y": 0}, "handle_type": 0, "interpolation": 0}]}, "green": {"Points": [{"co": {"X": 1, "Y": 123}, "handle_left": {"X": 0.5, "Y": 1}, "handle_right": {"X": 0.5, "Y": 0}, "handle_type": 0, "interpolation": 0}]}, "red": {"Points": [{"co": {"X": 1, "Y": 0}, "handle_left": {"X": 0.5, "Y": 1}, "handle_right": {"X": 0.5, "Y": 0}, "handle_type": 0, "interpolation": 0}]}}, "waveform": false, "file_id": "VOMLWGHCC8", "title": "IMG_3054.MOV", "image": "/home/teacher/.openshot_qt/thumbnail/OARSWZH0XP-882.png", "id": "OARSWZH0XP"}, {"alpha": {"Points": [{"co": {"X": 1, "Y": 1}, "interpolation": 2}]}, "anchor": 0, "channel_filter": {"Points": [{"co": {"X": 1, "Y": -1}, "interpolation": 2}]}, "channel_mapping": {"Points": [{"co": {"X": 1, "Y": -1}, "interpolation": 2}]}, "crop_height": {"Points": [{"co": {"X": 1, "Y": -1}, "interpolation": 2}]}, "crop_width": {"Points": [{"co": {"X": 1, "Y": -1}, "interpolation": 2}]}, "crop_x": {"Points": [{"co": {"X": 1, "Y": 0}, "interpolation": 2}]}, "crop_y": {"Points": [{"co": {"X": 1, "Y": 0}, "interpolation": 2}]}, "display": 0, "duration": 6.519999980926514, "effects": [], "end": 6.533333333333333, "gravity": 4, "has_audio": {"Points": [{"co": {"X": 1, "Y": 0}, "interpolation": 2}]}, "has_video": {"Points": [{"co": {"X": 1, "Y": -1}, "interpolation": 2}]}, "id": "XHFM7KKOXC", "layer": 4, "location_x": {"Points": [{"co": {"X": 1, "Y": 0}, "interpolation": 2}]}, "location_y": {"Points": [{"co": {"X": 1, "Y": 0}, "interpolation": 2}]}, "mixing": 0, "perspective_c1_x": {"Points": [{"co": {"X": 1, "Y": -1}, "interpolation": 2}]}, "perspective_c1_y": {"Points": [{"co": {"X": 1, "Y": -1}, "interpolation": 2}]}, "perspective_c2_x": {"Points": [{"co": {"X": 1, "Y": -1}, "interpolation": 2}]}, "perspective_c2_y": {"Points": [{"co": {"X": 1, "Y": -1}, "interpolation": 2}]}, "perspective_c3_x": {"Points": [{"co": {"X": 1, "Y": -1}, "interpolation": 2}]}, "perspective_c3_y": {"Points": [{"co": {"X": 1, "Y": -1}, "interpolation": 2}]}, "perspective_c4_x": {"Points": [{"co": {"X": 1, "Y": -1}, "interpolation": 2}]}, "perspective_c4_y": {"Points": [{"co": {"X": 1, "Y": -1}, "interpolation": 2}]}, "position": 41.53333333333333, "reader": {"acodec": "pcm_s16le", "audio_bit_rate": 1536000, "audio_stream_index": 1, "audio_timebase": {"den": 48000, "num": 1}, "channel_layout": 3, "channels": 2, "display_ratio": {"den": 9, "num": 16}, "duration": 6.519999980926514, "file_size": "21697280", "fps": {"den": 1, "num": 50}, "has_audio": true, "has_single_image": false, "has_video": true, "height": 720, "interlaced_frame": false, "metadata": {"com.apple.quicktime.make": "Canon", "com.apple.quicktime.model": "Canon EOS 5D Mark III", "com.apple.quicktime.rating.user": "0.000000", "compatible_brands": "qt  CAEP", "creation_time": "2022-02-27T13:14:41.000000Z", "language": "eng", "major_brand": "qt", "minor_version": "537331968", "timecode": "03:33:31:17"}, "path": "/home/teacher/\u0412\u0438\u0434\u0435\u043e/lyzhi/good/IMG_3073.MOV", "pixel_format": 12, "pixel_ratio": {"den": 1, "num": 1}, "sample_rate": 48000, "top_field_first": true, "type": "FFmpegReader", "vcodec": "h264", "video_bit_rate": 3327803, "video_length": "326", "video_stream_index": 0, "video_timebase": {"den": 50000, "num": 1}, "width": 1280}, "rotation": {"Points": [{"co": {"X": 1, "Y": 0}, "interpolation": 2}]}, "scale": 1, "scale_x": {"Points": [{"co": {"X": 1, "Y": 1}, "interpolation": 2}]}, "scale_y": {"Points": [{"co": {"X": 1, "Y": 1}, "interpolation": 2}]}, "shear_x": {"Points": [{"co": {"X": 1, "Y": 0}, "interpolation": 2}]}, "shear_y": {"Points": [{"co": {"X": 1, "Y": 0}, "interpolation": 2}]}, "start": 3.8, "time": {"Points": [{"co": {"X": 1, "Y": 1}, "interpolation": 2}]}, "volume": {"Points": [{"co": {"X": 1, "Y": 1}, "interpolation": 2}]}, "wave_color": {"alpha": {"Points": [{"co": {"X": 1, "Y": 255}, "handle_left": {"X": 0.5, "Y": 1}, "handle_right": {"X": 0.5, "Y": 0}, "handle_type": 0, "interpolation": 0}]}, "blue": {"Points": [{"co": {"X": 1, "Y": 255}, "handle_left": {"X": 0.5, "Y": 1}, "handle_right": {"X": 0.5, "Y": 0}, "handle_type": 0, "interpolation": 0}]}, "green": {"Points": [{"co": {"X": 1, "Y": 123}, "handle_left": {"X": 0.5, "Y": 1}, "handle_right": {"X": 0.5, "Y": 0}, "handle_type": 0, "interpolation": 0}]}, "red": {"Points": [{"co": {"X": 1, "Y": 0}, "handle_left": {"X": 0.5, "Y": 1}, "handle_right": {"X": 0.5, "Y": 0}, "handle_type": 0, "interpolation": 0}]}}, "waveform": false, "file_id": "V2VIXWD96O", "title": "IMG_3073.MOV", "image": "/home/teacher/.openshot_qt/thumbnail/V2VIXWD96O.png"}, {"alpha": {"Points": [{"co": {"X": 1, "Y": 1}, "interpolation": 2}]}, "anchor": 0, "channel_filter": {"Points": [{"co": {"X": 1, "Y": -1}, "interpolation": 2}]}, "channel_mapping": {"Points": [{"co": {"X": 1, "Y": -1}, "interpolation": 2}]}, "crop_height": {"Points": [{"co": {"X": 1, "Y": -1}, "interpolation": 2}]}, "crop_width": {"Points": [{"co": {"X": 1, "Y": -1}, "interpolation": 2}]}, "crop_x": {"Points": [{"co": {"X": 1, "Y": 0}, "interpolation": 2}]}, "crop_y": {"Points": [{"co": {"X": 1, "Y": 0}, "interpolation": 2}]}, "display": 0, "duration": 8.520000457763672, "effects": [], "end": 7.833333333333333, "gravity": 4, "has_audio": {"Points": [{"co": {"X": 1, "Y": 0}, "interpolation": 2}]}, "has_video": {"Points": [{"co": {"X": 1, "Y": -1}, "interpolation": 2}]}, "id": "UYHKCS2IK0", "layer": 4, "location_x": {"Points": [{"co": {"X": 1, "Y": 0}, "interpolation": 2}]}, "location_y": {"Points": [{"co": {"X": 1, "Y": 0}, "interpolation": 2}]}, "mixing": 0, "perspective_c1_x": {"Points": [{"co": {"X": 1, "Y": -1}, "interpolation": 2}]}, "perspective_c1_y": {"Points": [{"co": {"X": 1, "Y": -1}, "interpolation": 2}]}, "perspective_c2_x": {"Points": [{"co": {"X": 1, "Y": -1}, "interpolation": 2}]}, "perspective_c2_y": {"Points": [{"co": {"X": 1, "Y": -1}, "interpolation": 2}]}, "perspective_c3_x": {"Points": [{"co": {"X": 1, "Y": -1}, "interpolation": 2}]}, "perspective_c3_y": {"Points": [{"co": {"X": 1, "Y": -1}, "interpolation": 2}]}, "perspective_c4_x": {"Points": [{"co": {"X": 1, "Y": -1}, "interpolation": 2}]}, "perspective_c4_y": {"Points": [{"co": {"X": 1, "Y": -1}, "interpolation": 2}]}, "position": 44.36666666666667, "reader": {"acodec": "pcm_s16le", "audio_bit_rate": 1536000, "audio_stream_index": 1, "audio_timebase": {"den": 48000, "num": 1}, "channel_layout": 3, "channels": 2, "display_ratio": {"den": 9, "num": 16}, "duration": 8.520000457763672, "file_size": "29150332", "fps": {"den": 1, "num": 50}, "has_audio": true, "has_single_image": false, "has_video": true, "height": 720, "interlaced_frame": false, "metadata": {"com.apple.quicktime.make": "Canon", "com.apple.quicktime.model": "Canon EOS 5D Mark III", "com.apple.quicktime.rating.user": "0.000000", "compatible_brands": "qt  CAEP", "creation_time": "2022-02-27T13:28:25.000000Z", "language": "eng", "major_brand": "qt", "minor_version": "537331968", "timecode": "03:36:01:02"}, "path": "/home/teacher/\u0412\u0438\u0434\u0435\u043e/lyzhi/good/IMG_3092.MOV", "pixel_format": 12, "pixel_ratio": {"den": 1, "num": 1}, "sample_rate": 48000, "top_field_first": true, "type": "FFmpegReader", "vcodec": "h264", "video_bit_rate": 3421400, "video_length": "426", "video_stream_index": 0, "video_timebase": {"den": 50000, "num": 1}, "width": 1280}, "rotation": {"Points": [{"co": {"X": 1, "Y": 0}, "interpolation": 2}]}, "scale": 1, "scale_x": {"Points": [{"co": {"X": 1, "Y": 1}, "interpolation": 2}]}, "scale_y": {"Points": [{"co": {"X": 1, "Y": 1}, "interpolation": 2}]}, "shear_x": {"Points": [{"co": {"X": 1, "Y": 0}, "interpolation": 2}]}, "shear_y": {"Points": [{"co": {"X": 1, "Y": 0}, "interpolation": 2}]}, "start": 5.8, "time": {"Points": [{"co": {"X": 1, "Y": 1}, "interpolation": 2}]}, "volume": {"Points": [{"co": {"X": 1, "Y": 1}, "interpolation": 2}]}, "wave_color": {"alpha": {"Points": [{"co": {"X": 1, "Y": 255}, "handle_left": {"X": 0.5, "Y": 1}, "handle_right": {"X": 0.5, "Y": 0}, "handle_type": 0, "interpolation": 0}]}, "blue": {"Points": [{"co": {"X": 1, "Y": 255}, "handle_left": {"X": 0.5, "Y": 1}, "handle_right": {"X": 0.5, "Y": 0}, "handle_type": 0, "interpolation": 0}]}, "green": {"Points": [{"co": {"X": 1, "Y": 123}, "handle_left": {"X": 0.5, "Y": 1}, "handle_right": {"X": 0.5, "Y": 0}, "handle_type": 0, "interpolation": 0}]}, "red": {"Points": [{"co": {"X": 1, "Y": 0}, "handle_left": {"X": 0.5, "Y": 1}, "handle_right": {"X": 0.5, "Y": 0}, "handle_type": 0, "interpolation": 0}]}}, "waveform": false, "file_id": "VQEIJK9WTM", "title": "IMG_3092.MOV", "image": "/home/teacher/.openshot_qt/thumbnail/VQEIJK9WTM.png"}, {"alpha": {"Points": [{"co": {"X": 1, "Y": 1}, "interpolation": 2}]}, "anchor": 0, "channel_filter": {"Points": [{"co": {"X": 1, "Y": -1}, "interpolation": 2}]}, "channel_mapping": {"Points": [{"co": {"X": 1, "Y": -1}, "interpolation": 2}]}, "crop_height": {"Points": [{"co": {"X": 1, "Y": -1}, "interpolation": 2}]}, "crop_width": {"Points": [{"co": {"X": 1, "Y": -1}, "interpolation": 2}]}, "crop_x": {"Points": [{"co": {"X": 1, "Y": 0}, "interpolation": 2}]}, "crop_y": {"Points": [{"co": {"X": 1, "Y": 0}, "interpolation": 2}]}, "display": 0, "duration": 43.68000030517578, "effects": [], "end": 7.2, "gravity": 4, "has_audio": {"Points": [{"co": {"X": 1, "Y": 0}, "interpolation": 2}]}, "has_video": {"Points": [{"co": {"X": 1, "Y": -1}, "interpolation": 2}]}, "id": "UD5OJO0NJK", "layer": 4, "location_x": {"Points": [{"co": {"X": 1, "Y": 0}, "interpolation": 2}]}, "location_y": {"Points": [{"co": {"X": 1, "Y": 0}, "interpolation": 2}]}, "mixing": 0, "perspective_c1_x": {"Points": [{"co": {"X": 1, "Y": -1}, "interpolation": 2}]}, "perspective_c1_y": {"Points": [{"co": {"X": 1, "Y": -1}, "interpolation": 2}]}, "perspective_c2_x": {"Points": [{"co": {"X": 1, "Y": -1}, "interpolation": 2}]}, "perspective_c2_y": {"Points": [{"co": {"X": 1, "Y": -1}, "interpolation": 2}]}, "perspective_c3_x": {"Points": [{"co": {"X": 1, "Y": -1}, "interpolation": 2}]}, "perspective_c3_y": {"Points": [{"co": {"X": 1, "Y": -1}, "interpolation": 2}]}, "perspective_c4_x": {"Points": [{"co": {"X": 1, "Y": -1}, "interpolation": 2}]}, "perspective_c4_y": {"Points": [{"co": {"X": 1, "Y": -1}, "interpolation": 2}]}, "position": 46.4, "reader": {"acodec": "pcm_s16le", "audio_bit_rate": 1536000, "audio_stream_index": 1, "audio_timebase": {"den": 48000, "num": 1}, "channel_layout": 3, "channels": 2, "display_ratio": {"den": 9, "num": 16}, "duration": 43.68000030517578, "file_size": "137423256", "fps": {"den": 1, "num": 50}, "has_audio": true, "has_single_image": false, "has_video": true, "height": 720, "interlaced_frame": false, "metadata": {"com.apple.quicktime.make": "Canon", "com.apple.quicktime.model": "Canon EOS 5D Mark III", "com.apple.quicktime.rating.user": "0.000000", "compatible_brands": "qt  CAEP", "creation_time": "2022-02-27T13:37:44.000000Z", "language": "eng", "major_brand": "qt", "minor_version": "537331968", "timecode": "03:39:29:00"}, "path": "/home/teacher/\u0412\u0438\u0434\u0435\u043e/lyzhi/good/IMG_3103.MOV", "pixel_format": 12, "pixel_ratio": {"den": 1, "num": 1}, "sample_rate": 48000, "top_field_first": true, "type": "FFmpegReader", "vcodec": "h264", "video_bit_rate": 3146136, "video_length": "2184", "video_stream_index": 0, "video_timebase": {"den": 50000, "num": 1}, "width": 1280}, "rotation": {"Points": [{"co": {"X": 1, "Y": 0}, "interpolation": 2}]}, "scale": 1, "scale_x": {"Points": [{"co": {"X": 1, "Y": 1}, "interpolation": 2}]}, "scale_y": {"Points": [{"co": {"X": 1, "Y": 1}, "interpolation": 2}]}, "shear_x": {"Points": [{"co": {"X": 1, "Y": 0}, "interpolation": 2}]}, "shear_y": {"Points": [{"co": {"X": 1, "Y": 0}, "interpolation": 2}]}, "start": 3.9, "time": {"Points": [{"co": {"X": 1, "Y": 1}, "interpolation": 2}]}, "volume": {"Points": [{"co": {"X": 1, "Y": 1}, "interpolation": 2}]}, "wave_color": {"alpha": {"Points": [{"co": {"X": 1, "Y": 255}, "handle_left": {"X": 0.5, "Y": 1}, "handle_right": {"X": 0.5, "Y": 0}, "handle_type": 0, "interpolation": 0}]}, "blue": {"Points": [{"co": {"X": 1, "Y": 255}, "handle_left": {"X": 0.5, "Y": 1}, "handle_right": {"X": 0.5, "Y": 0}, "handle_type": 0, "interpolation": 0}]}, "green": {"Points": [{"co": {"X": 1, "Y": 123}, "handle_left": {"X": 0.5, "Y": 1}, "handle_right": {"X": 0.5, "Y": 0}, "handle_type": 0, "interpolation": 0}]}, "red": {"Points": [{"co": {"X": 1, "Y": 0}, "handle_left": {"X": 0.5, "Y": 1}, "handle_right": {"X": 0.5, "Y": 0}, "handle_type": 0, "interpolation": 0}]}}, "waveform": false, "file_id": "Y66OCRHISG", "title": "IMG_3103.MOV", "image": "/home/teacher/.openshot_qt/thumbnail/UD5OJO0NJK-131.png"}, {"alpha": {"Points": [{"co": {"X": 1, "Y": 1}, "interpolation": 2}]}, "anchor": 0, "channel_filter": {"Points": [{"co": {"X": 1, "Y": -1}, "interpolation": 2}]}, "channel_mapping": {"Points": [{"co": {"X": 1, "Y": -1}, "interpolation": 2}]}, "crop_height": {"Points": [{"co": {"X": 1, "Y": -1}, "interpolation": 2}]}, "crop_width": {"Points": [{"co": {"X": 1, "Y": -1}, "interpolation": 2}]}, "crop_x": {"Points": [{"co": {"X": 1, "Y": 0}, "interpolation": 2}]}, "crop_y": {"Points": [{"co": {"X": 1, "Y": 0}, "interpolation": 2}]}, "display": 0, "duration": 11.84000015258789, "effects": [], "end": 6.233333333333333, "gravity": 4, "has_audio": {"Points": [{"co": {"X": 1, "Y": 0}, "interpolation": 2}]}, "has_video": {"Points": [{"co": {"X": 1, "Y": -1}, "interpolation": 2}]}, "id": "MQV641IZ9F", "layer": 4, "location_x": {"Points": [{"co": {"X": 1, "Y": 0}, "interpolation": 2}]}, "location_y": {"Points": [{"co": {"X": 1, "Y": 0}, "interpolation": 2}]}, "mixing": 0, "perspective_c1_x": {"Points": [{"co": {"X": 1, "Y": -1}, "interpolation": 2}]}, "perspective_c1_y": {"Points": [{"co": {"X": 1, "Y": -1}, "interpolation": 2}]}, "perspective_c2_x": {"Points": [{"co": {"X": 1, "Y": -1}, "interpolation": 2}]}, "perspective_c2_y": {"Points": [{"co": {"X": 1, "Y": -1}, "interpolation": 2}]}, "perspective_c3_x": {"Points": [{"co": {"X": 1, "Y": -1}, "interpolation": 2}]}, "perspective_c3_y": {"Points": [{"co": {"X": 1, "Y": -1}, "interpolation": 2}]}, "perspective_c4_x": {"Points": [{"co": {"X": 1, "Y": -1}, "interpolation": 2}]}, "perspective_c4_y": {"Points": [{"co": {"X": 1, "Y": -1}, "interpolation": 2}]}, "position": 21.5, "reader": {"acodec": "pcm_s16le", "audio_bit_rate": 1536000, "audio_stream_index": 1, "audio_timebase": {"den": 48000, "num": 1}, "channel_layout": 3, "channels": 2, "display_ratio": {"den": 9, "num": 16}, "duration": 11.84000015258789, "file_size": "40149720", "fps": {"den": 1, "num": 50}, "has_audio": true, "has_single_image": false, "has_video": true, "height": 720, "interlaced_frame": false, "metadata": {"com.apple.quicktime.make": "Canon", "com.apple.quicktime.model": "Canon EOS 5D Mark III", "com.apple.quicktime.rating.user": "0.000000", "compatible_brands": "qt  CAEP", "creation_time": "2022-02-27T14:12:50.000000Z", "language": "eng", "major_brand": "qt", "minor_version": "537331968", "timecode": "03:46:25:00"}, "path": "/home/teacher/\u0412\u0438\u0434\u0435\u043e/lyzhi/good/IMG_3127.MOV", "pixel_format": 12, "pixel_ratio": {"den": 1, "num": 1}, "sample_rate": 48000, "top_field_first": true, "type": "FFmpegReader", "vcodec": "h264", "video_bit_rate": 3391023, "video_length": "592", "video_stream_index": 0, "video_timebase": {"den": 50000, "num": 1}, "width": 1280}, "rotation": {"Points": [{"co": {"X": 1, "Y": 0}, "interpolation": 2}]}, "scale": 1, "scale_x": {"Points": [{"co": {"X": 1, "Y": 1}, "interpolation": 2}]}, "scale_y": {"Points": [{"co": {"X": 1, "Y": 1}, "interpolation": 2}]}, "shear_x": {"Points": [{"co": {"X": 1, "Y": 0}, "interpolation": 2}]}, "shear_y": {"Points": [{"co": {"X": 1, "Y": 0}, "interpolation": 2}]}, "start": 4, "time": {"Points": [{"co": {"X": 1, "Y": 1}, "interpolation": 2}]}, "volume": {"Points": [{"co": {"X": 1, "Y": 1}, "interpolation": 2}]}, "wave_color": {"alpha": {"Points": [{"co": {"X": 1, "Y": 255}, "handle_left": {"X": 0.5, "Y": 1}, "handle_right": {"X": 0.5, "Y": 0}, "handle_type": 0, "interpolation": 0}]}, "blue": {"Points": [{"co": {"X": 1, "Y": 255}, "handle_left": {"X": 0.5, "Y": 1}, "handle_right": {"X": 0.5, "Y": 0}, "handle_type": 0, "interpolation": 0}]}, "green": {"Points": [{"co": {"X": 1, "Y": 123}, "handle_left": {"X": 0.5, "Y": 1}, "handle_right": {"X": 0.5, "Y": 0}, "handle_type": 0, "interpolation": 0}]}, "red": {"Points": [{"co": {"X": 1, "Y": 0}, "handle_left": {"X": 0.5, "Y": 1}, "handle_right": {"X": 0.5, "Y": 0}, "handle_type": 0, "interpolation": 0}]}}, "waveform": false, "file_id": "1WQ5T6PFW3", "title": "IMG_3127.MOV", "image": "/home/teacher/.openshot_qt/thumbnail/1WQ5T6PFW3.png"}, {"alpha": {"Points": [{"co": {"X": 1, "Y": 1}, "interpolation": 2}]}, "anchor": 0, "channel_filter": {"Points": [{"co": {"X": 1, "Y": -1}, "interpolation": 2}]}, "channel_mapping": {"Points": [{"co": {"X": 1, "Y": -1}, "interpolation": 2}]}, "crop_height": {"Points": [{"co": {"X": 1, "Y": -1}, "interpolation": 2}]}, "crop_width": {"Points": [{"co": {"X": 1, "Y": -1}, "interpolation": 2}]}, "crop_x": {"Points": [{"co": {"X": 1, "Y": 0}, "interpolation": 2}]}, "crop_y": {"Points": [{"co": {"X": 1, "Y": 0}, "interpolation": 2}]}, "display": 0, "duration": 86.0, "effects": [], "end": 18.633333333333333, "gravity": 4, "has_audio": {"Points": [{"co": {"X": 1, "Y": 0}, "interpolation": 2}]}, "has_video": {"Points": [{"co": {"X": 1, "Y": -1}, "interpolation": 2}]}, "layer": 4, "location_x": {"Points": [{"co": {"X": 1, "Y": 0}, "interpolation": 2}]}, "location_y": {"Points": [{"co": {"X": 1, "Y": 0}, "interpolation": 2}]}, "mixing": 0, "perspective_c1_x": {"Points": [{"co": {"X": 1, "Y": -1}, "interpolation": 2}]}, "perspective_c1_y": {"Points": [{"co": {"X": 1, "Y": -1}, "interpolation": 2}]}, "perspective_c2_x": {"Points": [{"co": {"X": 1, "Y": -1}, "interpolation": 2}]}, "perspective_c2_y": {"Points": [{"co": {"X": 1, "Y": -1}, "interpolation": 2}]}, "perspective_c3_x": {"Points": [{"co": {"X": 1, "Y": -1}, "interpolation": 2}]}, "perspective_c3_y": {"Points": [{"co": {"X": 1, "Y": -1}, "interpolation": 2}]}, "perspective_c4_x": {"Points": [{"co": {"X": 1, "Y": -1}, "interpolation": 2}]}, "perspective_c4_y": {"Points": [{"co": {"X": 1, "Y": -1}, "interpolation": 2}]}, "position": 49.7, "reader": {"acodec": "pcm_s16le", "audio_bit_rate": 1536000, "audio_stream_index": 1, "audio_timebase": {"den": 48000, "num": 1}, "channel_layout": 3, "channels": 2, "display_ratio": {"den": 9, "num": 16}, "duration": 43.68000030517578, "file_size": "137423256", "fps": {"den": 1, "num": 50}, "has_audio": true, "has_single_image": false, "has_video": true, "height": 720, "interlaced_frame": false, "metadata": {"com.apple.quicktime.make": "Canon", "com.apple.quicktime.model": "Canon EOS 5D Mark III", "com.apple.quicktime.rating.user": "0.000000", "compatible_brands": "qt  CAEP", "creation_time": "2022-02-27T13:37:44.000000Z", "language": "eng", "major_brand": "qt", "minor_version": "537331968", "timecode": "03:39:29:00"}, "path": "/home/teacher/\u0412\u0438\u0434\u0435\u043e/lyzhi/good/IMG_3103.MOV", "pixel_format": 12, "pixel_ratio": {"den": 1, "num": 1}, "sample_rate": 48000, "top_field_first": true, "type": "FFmpegReader", "vcodec": "h264", "video_bit_rate": 3146136, "video_length": "2184", "video_stream_index": 0, "video_timebase": {"den": 50000, "num": 1}, "width": 1280}, "rotation": {"Points": [{"co": {"X": 1, "Y": 0}, "interpolation": 2}]}, "scale": 1, "scale_x": {"Points": [{"co": {"X": 1, "Y": 1}, "interpolation": 2}]}, "scale_y": {"Points": [{"co": {"X": 1, "Y": 1}, "interpolation": 2}]}, "shear_x": {"Points": [{"co": {"X": 1, "Y": 0}, "interpolation": 2}]}, "shear_y": {"Points": [{"co": {"X": 1, "Y": 0}, "interpolation": 2}]}, "start": 13.666666666666666, "time": {"Points": [{"co": {"X": 387, "Y": 387}, "interpolation": 1}, {"co": {"X": 607, "Y": 497}, "interpolation": 1}]}, "volume": {"Points": [{"co": {"X": 1, "Y": 1}, "interpolation": 2}]}, "wave_color": {"alpha": {"Points": [{"co": {"X": 1, "Y": 255}, "handle_left": {"X": 0.5, "Y": 1}, "handle_right": {"X": 0.5, "Y": 0}, "handle_type": 0, "interpolation": 0}]}, "blue": {"Points": [{"co": {"X": 1, "Y": 255}, "handle_left": {"X": 0.5, "Y": 1}, "handle_right": {"X": 0.5, "Y": 0}, "handle_type": 0, "interpolation": 0}]}, "green": {"Points": [{"co": {"X": 1, "Y": 123}, "handle_left": {"X": 0.5, "Y": 1}, "handle_right": {"X": 0.5, "Y": 0}, "handle_type": 0, "interpolation": 0}]}, "red": {"Points": [{"co": {"X": 1, "Y": 0}, "handle_left": {"X": 0.5, "Y": 1}, "handle_right": {"X": 0.5, "Y": 0}, "handle_type": 0, "interpolation": 0}]}}, "waveform": false, "file_id": "Y66OCRHISG", "title": "IMG_3103.MOV", "image": "/home/teacher/.openshot_qt/thumbnail/MFHOLEWIIM-644.png", "id": "MFHOLEWIIM"}, {"alpha": {"Points": [{"co": {"X": 1, "Y": 1}, "interpolation": 2}]}, "anchor": 0, "channel_filter": {"Points": [{"co": {"X": 1, "Y": -1}, "interpolation": 2}]}, "channel_mapping": {"Points": [{"co": {"X": 1, "Y": -1}, "interpolation": 2}]}, "crop_height": {"Points": [{"co": {"X": 1, "Y": -1}, "interpolation": 2}]}, "crop_width": {"Points": [{"co": {"X": 1, "Y": -1}, "interpolation": 2}]}, "crop_x": {"Points": [{"co": {"X": 1, "Y": 0}, "interpolation": 2}]}, "crop_y": {"Points": [{"co": {"X": 1, "Y": 0}, "interpolation": 2}]}, "display": 0, "duration": 43.68000030517578, "effects": [], "end": 37.06666666666667, "gravity": 4, "has_audio": {"Points": [{"co": {"X": 1, "Y": 0}, "interpolation": 2}]}, "has_video": {"Points": [{"co": {"X": 1, "Y": -1}, "interpolation": 2}]}, "layer": 4, "location_x": {"Points": [{"co": {"X": 1, "Y": 0}, "interpolation": 2}]}, "location_y": {"Points": [{"co": {"X": 1, "Y": 0}, "interpolation": 2}]}, "mixing": 0, "perspective_c1_x": {"Points": [{"co": {"X": 1, "Y": -1}, "interpolation": 2}]}, "perspective_c1_y": {"Points": [{"co": {"X": 1, "Y": -1}, "interpolation": 2}]}, "perspective_c2_x": {"Points": [{"co": {"X": 1, "Y": -1}, "interpolation": 2}]}, "perspective_c2_y": {"Points": [{"co": {"X": 1, "Y": -1}, "interpolation": 2}]}, "perspective_c3_x": {"Points": [{"co": {"X": 1, "Y": -1}, "interpolation": 2}]}, "perspective_c3_y": {"Points": [{"co": {"X": 1, "Y": -1}, "interpolation": 2}]}, "perspective_c4_x": {"Points": [{"co": {"X": 1, "Y": -1}, "interpolation": 2}]}, "perspective_c4_y": {"Points": [{"co": {"X": 1, "Y": -1}, "interpolation": 2}]}, "position": 54.666666666666664, "reader": {"acodec": "pcm_s16le", "audio_bit_rate": 1536000, "audio_stream_index": 1, "audio_timebase": {"den": 48000, "num": 1}, "channel_layout": 3, "channels": 2, "display_ratio": {"den": 9, "num": 16}, "duration": 43.68000030517578, "file_size": "137423256", "fps": {"den": 1, "num": 50}, "has_audio": true, "has_single_image": false, "has_video": true, "height": 720, "interlaced_frame": false, "metadata": {"com.apple.quicktime.make": "Canon", "com.apple.quicktime.model": "Canon EOS 5D Mark III", "com.apple.quicktime.rating.user": "0.000000", "compatible_brands": "qt  CAEP", "creation_time": "2022-02-27T13:37:44.000000Z", "language": "eng", "major_brand": "qt", "minor_version": "537331968", "timecode": "03:39:29:00"}, "path": "/home/teacher/\u0412\u0438\u0434\u0435\u043e/lyzhi/good/IMG_3103.MOV", "pixel_format": 12, "pixel_ratio": {"den": 1, "num": 1}, "sample_rate": 48000, "top_field_first": true, "type": "FFmpegReader", "vcodec": "h264", "video_bit_rate": 3146136, "video_length": "2184", "video_stream_index": 0, "video_timebase": {"den": 50000, "num": 1}, "width": 1280}, "rotation": {"Points": [{"co": {"X": 1, "Y": 0}, "interpolation": 2}]}, "scale": 1, "scale_x": {"Points": [{"co": {"X": 1, "Y": 1}, "interpolation": 2}]}, "scale_y": {"Points": [{"co": {"X": 1, "Y": 1}, "interpolation": 2}]}, "shear_x": {"Points": [{"co": {"X": 1, "Y": 0}, "interpolation": 2}]}, "shear_y": {"Points": [{"co": {"X": 1, "Y": 0}, "interpolation": 2}]}, "start": 34, "time": {"Points": [{"co": {"X": 1, "Y": 1}, "interpolation": 2}]}, "volume": {"Points": [{"co": {"X": 1, "Y": 1}, "interpolation": 2}]}, "wave_color": {"alpha": {"Points": [{"co": {"X": 1, "Y": 255}, "handle_left": {"X": 0.5, "Y": 1}, "handle_right": {"X": 0.5, "Y": 0}, "handle_type": 0, "interpolation": 0}]}, "blue": {"Points": [{"co": {"X": 1, "Y": 255}, "handle_left": {"X": 0.5, "Y": 1}, "handle_right": {"X": 0.5, "Y": 0}, "handle_type": 0, "interpolation": 0}]}, "green": {"Points": [{"co": {"X": 1, "Y": 123}, "handle_left": {"X": 0.5, "Y": 1}, "handle_right": {"X": 0.5, "Y": 0}, "handle_type": 0, "interpolation": 0}]}, "red": {"Points": [{"co": {"X": 1, "Y": 0}, "handle_left": {"X": 0.5, "Y": 1}, "handle_right": {"X": 0.5, "Y": 0}, "handle_type": 0, "interpolation": 0}]}}, "waveform": false, "file_id": "Y66OCRHISG", "title": "IMG_3103.MOV", "image": "/home/teacher/.openshot_qt/thumbnail/CQJCVBCVZK-831.png", "id": "CQJCVBCVZK"}, {"alpha": {"Points": [{"co": {"X": 1, "Y": 1}, "interpolation": 2}]}, "anchor": 0, "channel_filter": {"Points": [{"co": {"X": 1, "Y": -1}, "interpolation": 2}]}, "channel_mapping": {"Points": [{"co": {"X": 1, "Y": -1}, "interpolation": 2}]}, "crop_height": {"Points": [{"co": {"X": 1, "Y": -1}, "interpolation": 2}]}, "crop_width": {"Points": [{"co": {"X": 1, "Y": -1}, "interpolation": 2}]}, "crop_x": {"Points": [{"co": {"X": 1, "Y": 0}, "interpolation": 2}]}, "crop_y": {"Points": [{"co": {"X": 1, "Y": 0}, "interpolation": 2}]}, "display": 0, "duration": 16.68000030517578, "effects": [], "end": 9.966666666666667, "gravity": 4, "has_audio": {"Points": [{"co": {"X": 1, "Y": 0}, "interpolation": 2}]}, "has_video": {"Points": [{"co": {"X": 1, "Y": -1}, "interpolation": 2}]}, "id": "HX6BQL5OH3", "layer": 4, "location_x": {"Points": [{"co": {"X": 1, "Y": 0}, "interpolation": 2}]}, "location_y": {"Points": [{"co": {"X": 1, "Y": 0}, "interpolation": 2}]}, "mixing": 0, "perspective_c1_x": {"Points": [{"co": {"X": 1, "Y": -1}, "interpolation": 2}]}, "perspective_c1_y": {"Points": [{"co": {"X": 1, "Y": -1}, "interpolation": 2}]}, "perspective_c2_x": {"Points": [{"co": {"X": 1, "Y": -1}, "interpolation": 2}]}, "perspective_c2_y": {"Points": [{"co": {"X": 1, "Y": -1}, "interpolation": 2}]}, "perspective_c3_x": {"Points": [{"co": {"X": 1, "Y": -1}, "interpolation": 2}]}, "perspective_c3_y": {"Points": [{"co": {"X": 1, "Y": -1}, "interpolation": 2}]}, "perspective_c4_x": {"Points": [{"co": {"X": 1, "Y": -1}, "interpolation": 2}]}, "perspective_c4_y": {"Points": [{"co": {"X": 1, "Y": -1}, "interpolation": 2}]}, "position": 36.266666666666666, "reader": {"acodec": "pcm_s16le", "audio_bit_rate": 1536000, "audio_stream_index": 1, "audio_timebase": {"den": 48000, "num": 1}, "channel_layout": 3, "channels": 2, "display_ratio": {"den": 9, "num": 16}, "duration": 16.68000030517578, "file_size": "57019648", "fps": {"den": 1, "num": 50}, "has_audio": true, "has_single_image": false, "has_video": true, "height": 720, "interlaced_frame": false, "metadata": {"com.apple.quicktime.make": "Canon", "com.apple.quicktime.model": "Canon EOS 5D Mark III", "com.apple.quicktime.rating.user": "0.000000", "compatible_brands": "qt  CAEP", "creation_time": "2022-02-27T14:21:08.000000Z", "language": "eng", "major_brand": "qt", "minor_version": "537331968", "timecode": "03:48:06:03"}, "path": "/home/teacher/\u0412\u0438\u0434\u0435\u043e/lyzhi/good/IMG_3135.MOV", "pixel_format": 12, "pixel_ratio": {"den": 1, "num": 1}, "sample_rate": 48000, "top_field_first": true, "type": "FFmpegReader", "vcodec": "h264", "video_bit_rate": 3418444, "video_length": "834", "video_stream_index": 0, "video_timebase": {"den": 50000, "num": 1}, "width": 1280}, "rotation": {"Points": [{"co": {"X": 1, "Y": 0}, "interpolation": 2}]}, "scale": 1, "scale_x": {"Points": [{"co": {"X": 1, "Y": 1}, "interpolation": 2}]}, "scale_y": {"Points": [{"co": {"X": 1, "Y": 1}, "interpolation": 2}]}, "shear_x": {"Points": [{"co": {"X": 1, "Y": 0}, "interpolation": 2}]}, "shear_y": {"Points": [{"co": {"X": 1, "Y": 0}, "interpolation": 2}]}, "start": 4.7, "time": {"Points": [{"co": {"X": 1, "Y": 1}, "interpolation": 2}]}, "volume": {"Points": [{"co": {"X": 1, "Y": 1}, "interpolation": 2}]}, "wave_color": {"alpha": {"Points": [{"co": {"X": 1, "Y": 255}, "handle_left": {"X": 0.5, "Y": 1}, "handle_right": {"X": 0.5, "Y": 0}, "handle_type": 0, "interpolation": 0}]}, "blue": {"Points": [{"co": {"X": 1, "Y": 255}, "handle_left": {"X": 0.5, "Y": 1}, "handle_right": {"X": 0.5, "Y": 0}, "handle_type": 0, "interpolation": 0}]}, "green": {"Points": [{"co": {"X": 1, "Y": 123}, "handle_left": {"X": 0.5, "Y": 1}, "handle_right": {"X": 0.5, "Y": 0}, "handle_type": 0, "interpolation": 0}]}, "red": {"Points": [{"co": {"X": 1, "Y": 0}, "handle_left": {"X": 0.5, "Y": 1}, "handle_right": {"X": 0.5, "Y": 0}, "handle_type": 0, "interpolation": 0}]}}, "waveform": false, "file_id": "1WWW15Z1J8", "title": "IMG_3135.MOV", "image": "/home/teacher/.openshot_qt/thumbnail/1WWW15Z1J8.png"}, {"alpha": {"Points": [{"co": {"X": 1, "Y": 1}, "interpolation": 2}]}, "anchor": 0, "channel_filter": {"Points": [{"co": {"X": 1, "Y": -1}, "interpolation": 2}]}, "channel_mapping": {"Points": [{"co": {"X": 1, "Y": -1}, "interpolation": 2}]}, "crop_height": {"Points": [{"co": {"X": 1, "Y": -1}, "interpolation": 2}]}, "crop_width": {"Points": [{"co": {"X": 1, "Y": -1}, "interpolation": 2}]}, "crop_x": {"Points": [{"co": {"X": 1, "Y": 0}, "interpolation": 2}]}, "crop_y": {"Points": [{"co": {"X": 1, "Y": 0}, "interpolation": 2}]}, "display": 0, "duration": 17.920000076293945, "effects": [], "end": 12.733333333333333, "gravity": 4, "has_audio": {"Points": [{"co": {"X": 1, "Y": 0}, "interpolation": 2}]}, "has_video": {"Points": [{"co": {"X": 1, "Y": -1}, "interpolation": 2}]}, "layer": 4, "location_x": {"Points": [{"co": {"X": 1, "Y": 0}, "interpolation": 2}]}, "location_y": {"Points": [{"co": {"X": 1, "Y": 0}, "interpolation": 2}]}, "mixing": 0, "perspective_c1_x": {"Points": [{"co": {"X": 1, "Y": -1}, "interpolation": 2}]}, "perspective_c1_y": {"Points": [{"co": {"X": 1, "Y": -1}, "interpolation": 2}]}, "perspective_c2_x": {"Points": [{"co": {"X": 1, "Y": -1}, "interpolation": 2}]}, "perspective_c2_y": {"Points": [{"co": {"X": 1, "Y": -1}, "interpolation": 2}]}, "perspective_c3_x": {"Points": [{"co": {"X": 1, "Y": -1}, "interpolation": 2}]}, "perspective_c3_y": {"Points": [{"co": {"X": 1, "Y": -1}, "interpolation": 2}]}, "perspective_c4_x": {"Points": [{"co": {"X": 1, "Y": -1}, "interpolation": 2}]}, "perspective_c4_y": {"Points": [{"co": {"X": 1, "Y": -1}, "interpolation": 2}]}, "position": 57.63333333333333, "reader": {"acodec": "pcm_s16le", "audio_bit_rate": 1536000, "audio_stream_index": 1, "audio_timebase": {"den": 48000, "num": 1}, "channel_layout": 3, "channels": 2, "display_ratio": {"den": 9, "num": 16}, "duration": 17.920000076293945, "file_size": "60158508", "fps": {"den": 1, "num": 50}, "has_audio": true, "has_single_image": false, "has_video": true, "height": 720, "interlaced_frame": false, "metadata": {"com.apple.quicktime.make": "Canon", "com.apple.quicktime.model": "Canon EOS 5D Mark III", "com.apple.quicktime.rating.user": "0.000000", "compatible_brands": "qt  CAEP", "creation_time": "2022-02-27T14:25:32.000000Z", "language": "eng", "major_brand": "qt", "minor_version": "537331968", "timecode": "03:48:47:21"}, "path": "/home/teacher/\u0412\u0438\u0434\u0435\u043e/lyzhi/good/IMG_3138.MOV", "pixel_format": 12, "pixel_ratio": {"den": 1, "num": 1}, "sample_rate": 48000, "top_field_first": true, "type": "FFmpegReader", "vcodec": "h264", "video_bit_rate": 3357059, "video_length": "896", "video_stream_index": 0, "video_timebase": {"den": 50000, "num": 1}, "width": 1280}, "rotation": {"Points": [{"co": {"X": 1, "Y": 0}, "interpolation": 2}]}, "scale": 1, "scale_x": {"Points": [{"co": {"X": 1, "Y": 1}, "interpolation": 2}]}, "scale_y": {"Points": [{"co": {"X": 1, "Y": 1}, "interpolation": 2}]}, "shear_x": {"Points": [{"co": {"X": 1, "Y": 0}, "interpolation": 2}]}, "shear_y": {"Points": [{"co": {"X": 1, "Y": 0}, "interpolation": 2}]}, "start": 9.666666666666666, "time": {"Points": [{"co": {"X": 1, "Y": 1}, "interpolation": 2}]}, "volume": {"Points": [{"co": {"X": 1, "Y": 1}, "interpolation": 2}]}, "wave_color": {"alpha": {"Points": [{"co": {"X": 1, "Y": 255}, "handle_left": {"X": 0.5, "Y": 1}, "handle_right": {"X": 0.5, "Y": 0}, "handle_type": 0, "interpolation": 0}]}, "blue": {"Points": [{"co": {"X": 1, "Y": 255}, "handle_left": {"X": 0.5, "Y": 1}, "handle_right": {"X": 0.5, "Y": 0}, "handle_type": 0, "interpolation": 0}]}, "green": {"Points": [{"co": {"X": 1, "Y": 123}, "handle_left": {"X": 0.5, "Y": 1}, "handle_right": {"X": 0.5, "Y": 0}, "handle_type": 0, "interpolation": 0}]}, "red": {"Points": [{"co": {"X": 1, "Y": 0}, "handle_left": {"X": 0.5, "Y": 1}, "handle_right": {"X": 0.5, "Y": 0}, "handle_type": 0, "interpolation": 0}]}}, "waveform": false, "file_id": "HZ1UEBOBX1", "title": "IMG_3138.MOV", "image": "/home/teacher/.openshot_qt/thumbnail/W1JZCMBKQ8-304.png", "id": "W1JZCMBKQ8"}, {"alpha": {"Points": [{"co": {"X": 1, "Y": 1}, "interpolation": 2}]}, "anchor": 0, "channel_filter": {"Points": [{"co": {"X": 1, "Y": -1}, "interpolation": 2}]}, "channel_mapping": {"Points": [{"co": {"X": 1, "Y": -1}, "interpolation": 2}]}, "crop_height": {"Points": [{"co": {"X": 1, "Y": -1}, "interpolation": 2}]}, "crop_width": {"Points": [{"co": {"X": 1, "Y": -1}, "interpolation": 2}]}, "crop_x": {"Points": [{"co": {"X": 1, "Y": 0}, "interpolation": 2}]}, "crop_y": {"Points": [{"co": {"X": 1, "Y": 0}, "interpolation": 2}]}, "display": 0, "duration": 17.959999084472656, "effects": [], "end": 8.266666666666667, "gravity": 4, "has_audio": {"Points": [{"co": {"X": 1, "Y": 0}, "interpolation": 2}]}, "has_video": {"Points": [{"co": {"X": 1, "Y": -1}, "interpolation": 2}]}, "layer": 4, "location_x": {"Points": [{"co": {"X": 1, "Y": 0}, "interpolation": 2}]}, "location_y": {"Points": [{"co": {"X": 1, "Y": 0}, "interpolation": 2}]}, "mixing": 0, "perspective_c1_x": {"Points": [{"co": {"X": 1, "Y": -1}, "interpolation": 2}]}, "perspective_c1_y": {"Points": [{"co": {"X": 1, "Y": -1}, "interpolation": 2}]}, "perspective_c2_x": {"Points": [{"co": {"X": 1, "Y": -1}, "interpolation": 2}]}, "perspective_c2_y": {"Points": [{"co": {"X": 1, "Y": -1}, "interpolation": 2}]}, "perspective_c3_x": {"Points": [{"co": {"X": 1, "Y": -1}, "interpolation": 2}]}, "perspective_c3_y": {"Points": [{"co": {"X": 1, "Y": -1}, "interpolation": 2}]}, "perspective_c4_x": {"Points": [{"co": {"X": 1, "Y": -1}, "interpolation": 2}]}, "perspective_c4_y": {"Points": [{"co": {"X": 1, "Y": -1}, "interpolation": 2}]}, "position": 60.666666666666664, "reader": {"acodec": "pcm_s16le", "audio_bit_rate": 1536000, "audio_stream_index": 1, "audio_timebase": {"den": 48000, "num": 1}, "channel_layout": 3, "channels": 2, "display_ratio": {"den": 9, "num": 16}, "duration": 17.959999084472656, "file_size": "52995188", "fps": {"den": 1, "num": 50}, "has_audio": true, "has_single_image": false, "has_video": true, "height": 720, "interlaced_frame": false, "metadata": {"com.apple.quicktime.make": "Canon", "com.apple.quicktime.model": "Canon EOS 5D Mark III", "com.apple.quicktime.rating.user": "0.000000", "compatible_brands": "qt  CAEP", "creation_time": "2022-02-27T14:27:03.000000Z", "language": "eng", "major_brand": "qt", "minor_version": "537331968", "timecode": "03:49:27:05"}, "path": "/home/teacher/\u0412\u0438\u0434\u0435\u043e/lyzhi/good/IMG_3142.MOV", "pixel_format": 12, "pixel_ratio": {"den": 1, "num": 1}, "sample_rate": 48000, "top_field_first": true, "type": "FFmpegReader", "vcodec": "h264", "video_bit_rate": 2950734, "video_length": "898", "video_stream_index": 0, "video_timebase": {"den": 50000, "num": 1}, "width": 1280}, "rotation": {"Points": [{"co": {"X": 1, "Y": 0}, "interpolation": 2}]}, "scale": 1, "scale_x": {"Points": [{"co": {"X": 1, "Y": 1}, "interpolation": 2}]}, "scale_y": {"Points": [{"co": {"X": 1, "Y": 1}, "interpolation": 2}]}, "shear_x": {"Points": [{"co": {"X": 1, "Y": 0}, "interpolation": 2}]}, "shear_y": {"Points": [{"co": {"X": 1, "Y": 0}, "interpolation": 2}]}, "start": 5.066666666666666, "time": {"Points": [{"co": {"X": 1, "Y": 1}, "interpolation": 2}]}, "volume": {"Points": [{"co": {"X": 1, "Y": 1}, "interpolation": 2}]}, "wave_color": {"alpha": {"Points": [{"co": {"X": 1, "Y": 255}, "handle_left": {"X": 0.5, "Y": 1}, "handle_right": {"X": 0.5, "Y": 0}, "handle_type": 0, "interpolation": 0}]}, "blue": {"Points": [{"co": {"X": 1, "Y": 255}, "handle_left": {"X": 0.5, "Y": 1}, "handle_right": {"X": 0.5, "Y": 0}, "handle_type": 0, "interpolation": 0}]}, "green": {"Points": [{"co": {"X": 1, "Y": 123}, "handle_left": {"X": 0.5, "Y": 1}, "handle_right": {"X": 0.5, "Y": 0}, "handle_type": 0, "interpolation": 0}]}, "red": {"Points": [{"co": {"X": 1, "Y": 0}, "handle_left": {"X": 0.5, "Y": 1}, "handle_right": {"X": 0.5, "Y": 0}, "handle_type": 0, "interpolation": 0}]}}, "waveform": false, "file_id": "MKYTBHIHX6", "title": "IMG_3142.MOV", "image": "/home/teacher/.openshot_qt/thumbnail/GYBZTH1KAP-219.png", "id": "GYBZTH1KAP"}, {"alpha": {"Points": [{"co": {"X": 1, "Y": 1}, "interpolation": 2}]}, "anchor": 0, "channel_filter": {"Points": [{"co": {"X": 1, "Y": -1}, "interpolation": 2}]}, "channel_mapping": {"Points": [{"co": {"X": 1, "Y": -1}, "interpolation": 2}]}, "crop_height": {"Points": [{"co": {"X": 1, "Y": -1}, "interpolation": 2}]}, "crop_width": {"Points": [{"co": {"X": 1, "Y": -1}, "interpolation": 2}]}, "crop_x": {"Points": [{"co": {"X": 1, "Y": 0}, "interpolation": 2}]}, "crop_y": {"Points": [{"co": {"X": 1, "Y": 0}, "interpolation": 2}]}, "display": 0, "duration": 24.0, "effects": [], "end": 7.8, "gravity": 4, "has_audio": {"Points": [{"co": {"X": 1, "Y": 0}, "interpolation": 2}]}, "has_video": {"Points": [{"co": {"X": 1, "Y": -1}, "interpolation": 2}]}, "layer": 4, "location_x": {"Points": [{"co": {"X": 1, "Y": 0}, "interpolation": 2}]}, "location_y": {"Points": [{"co": {"X": 1, "Y": 0}, "interpolation": 2}]}, "mixing": 0, "perspective_c1_x": {"Points": [{"co": {"X": 1, "Y": -1}, "interpolation": 2}]}, "perspective_c1_y": {"Points": [{"co": {"X": 1, "Y": -1}, "interpolation": 2}]}, "perspective_c2_x": {"Points": [{"co": {"X": 1, "Y": -1}, "interpolation": 2}]}, "perspective_c2_y": {"Points": [{"co": {"X": 1, "Y": -1}, "interpolation": 2}]}, "perspective_c3_x": {"Points": [{"co": {"X": 1, "Y": -1}, "interpolation": 2}]}, "perspective_c3_y": {"Points": [{"co": {"X": 1, "Y": -1}, "interpolation": 2}]}, "perspective_c4_x": {"Points": [{"co": {"X": 1, "Y": -1}, "interpolation": 2}]}, "perspective_c4_y": {"Points": [{"co": {"X": 1, "Y": -1}, "interpolation": 2}]}, "position": 63.766666666666666, "reader": {"acodec": "pcm_s16le", "audio_bit_rate": 1536000, "audio_stream_index": 1, "audio_timebase": {"den": 48000, "num": 1}, "channel_layout": 3, "channels": 2, "display_ratio": {"den": 9, "num": 16}, "duration": 24.0, "file_size": "81139212", "fps": {"den": 1, "num": 50}, "has_audio": true, "has_single_image": false, "has_video": true, "height": 720, "interlaced_frame": false, "metadata": {"com.apple.quicktime.make": "Canon", "com.apple.quicktime.model": "Canon EOS 5D Mark III", "com.apple.quicktime.rating.user": "0.000000", "compatible_brands": "qt  CAEP", "creation_time": "2022-02-27T14:30:47.000000Z", "language": "eng", "major_brand": "qt", "minor_version": "537331968", "timecode": "03:51:23:13"}, "path": "/home/teacher/\u0412\u0438\u0434\u0435\u043e/lyzhi/good/IMG_3148.MOV", "pixel_format": 12, "pixel_ratio": {"den": 1, "num": 1}, "sample_rate": 48000, "top_field_first": true, "type": "FFmpegReader", "vcodec": "h264", "video_bit_rate": 3380800, "video_length": "1200", "video_stream_index": 0, "video_timebase": {"den": 50000, "num": 1}, "width": 1280}, "rotation": {"Points": [{"co": {"X": 1, "Y": 0}, "interpolation": 2}]}, "scale": 1, "scale_x": {"Points": [{"co": {"X": 1, "Y": 1}, "interpolation": 2}]}, "scale_y": {"Points": [{"co": {"X": 1, "Y": 1}, "interpolation": 2}]}, "shear_x": {"Points": [{"co": {"X": 1, "Y": 0}, "interpolation": 2}]}, "shear_y": {"Points": [{"co": {"X": 1, "Y": 0}, "interpolation": 2}]}, "start": 3.7666666666666666, "time": {"Points": [{"co": {"X": 1, "Y": 1}, "interpolation": 2}]}, "volume": {"Points": [{"co": {"X": 1, "Y": 1}, "interpolation": 2}]}, "wave_color": {"alpha": {"Points": [{"co": {"X": 1, "Y": 255}, "handle_left": {"X": 0.5, "Y": 1}, "handle_right": {"X": 0.5, "Y": 0}, "handle_type": 0, "interpolation": 0}]}, "blue": {"Points": [{"co": {"X": 1, "Y": 255}, "handle_left": {"X": 0.5, "Y": 1}, "handle_right": {"X": 0.5, "Y": 0}, "handle_type": 0, "interpolation": 0}]}, "green": {"Points": [{"co": {"X": 1, "Y": 123}, "handle_left": {"X": 0.5, "Y": 1}, "handle_right": {"X": 0.5, "Y": 0}, "handle_type": 0, "interpolation": 0}]}, "red": {"Points": [{"co": {"X": 1, "Y": 0}, "handle_left": {"X": 0.5, "Y": 1}, "handle_right": {"X": 0.5, "Y": 0}, "handle_type": 0, "interpolation": 0}]}}, "waveform": false, "file_id": "XF7SCBZ832", "title": "IMG_3148.MOV", "image": "/home/teacher/.openshot_qt/thumbnail/H1KWGZT4W9-134.png", "id": "H1KWGZT4W9"}, {"alpha": {"Points": [{"co": {"X": 1, "Y": 1}, "interpolation": 2}]}, "anchor": 0, "channel_filter": {"Points": [{"co": {"X": 1, "Y": -1}, "interpolation": 2}]}, "channel_mapping": {"Points": [{"co": {"X": 1, "Y": -1}, "interpolation": 2}]}, "crop_height": {"Points": [{"co": {"X": 1, "Y": -1}, "interpolation": 2}]}, "crop_width": {"Points": [{"co": {"X": 1, "Y": -1}, "interpolation": 2}]}, "crop_x": {"Points": [{"co": {"X": 1, "Y": 0}, "interpolation": 2}]}, "crop_y": {"Points": [{"co": {"X": 1, "Y": 0}, "interpolation": 2}]}, "display": 0, "duration": 9.640000343322754, "effects": [], "end": 4.933333333333334, "gravity": 4, "has_audio": {"Points": [{"co": {"X": 1, "Y": 0}, "interpolation": 2}]}, "has_video": {"Points": [{"co": {"X": 1, "Y": -1}, "interpolation": 2}]}, "id": "EN6EA6W1VG", "layer": 4, "location_x": {"Points": [{"co": {"X": 1, "Y": 0}, "interpolation": 2}]}, "location_y": {"Points": [{"co": {"X": 1, "Y": 0}, "interpolation": 2}]}, "mixing": 0, "perspective_c1_x": {"Points": [{"co": {"X": 1, "Y": -1}, "interpolation": 2}]}, "perspective_c1_y": {"Points": [{"co": {"X": 1, "Y": -1}, "interpolation": 2}]}, "perspective_c2_x": {"Points": [{"co": {"X": 1, "Y": -1}, "interpolation": 2}]}, "perspective_c2_y": {"Points": [{"co": {"X": 1, "Y": -1}, "interpolation": 2}]}, "perspective_c3_x": {"Points": [{"co": {"X": 1, "Y": -1}, "interpolation": 2}]}, "perspective_c3_y": {"Points": [{"co": {"X": 1, "Y": -1}, "interpolation": 2}]}, "perspective_c4_x": {"Points": [{"co": {"X": 1, "Y": -1}, "interpolation": 2}]}, "perspective_c4_y": {"Points": [{"co": {"X": 1, "Y": -1}, "interpolation": 2}]}, "position": 67.8, "reader": {"acodec": "pcm_s16le", "audio_bit_rate": 1536000, "audio_stream_index": 1, "audio_timebase": {"den": 48000, "num": 1}, "channel_layout": 3, "channels": 2, "display_ratio": {"den": 9, "num": 16}, "duration": 9.640000343322754, "file_size": "32265824", "fps": {"den": 1, "num": 50}, "has_audio": true, "has_single_image": false, "has_video": true, "height": 720, "interlaced_frame": false, "metadata": {"com.apple.quicktime.make": "Canon", "com.apple.quicktime.model": "Canon EOS 5D Mark III", "com.apple.quicktime.rating.user": "0.000000", "compatible_brands": "qt  CAEP", "creation_time": "2022-02-27T15:18:00.000000Z", "language": "eng", "major_brand": "qt", "minor_version": "537331968", "timecode": "03:56:34:07"}, "path": "/home/teacher/\u0412\u0438\u0434\u0435\u043e/lyzhi/good/IMG_3172.MOV", "pixel_format": 12, "pixel_ratio": {"den": 1, "num": 1}, "sample_rate": 48000, "top_field_first": true, "type": "FFmpegReader", "vcodec": "h264", "video_bit_rate": 3347077, "video_length": "482", "video_stream_index": 0, "video_timebase": {"den": 50000, "num": 1}, "width": 1280}, "rotation": {"Points": [{"co": {"X": 1, "Y": 0}, "interpolation": 2}]}, "scale": 1, "scale_x": {"Points": [{"co": {"X": 1, "Y": 1}, "interpolation": 2}]}, "scale_y": {"Points": [{"co": {"X": 1, "Y": 1}, "interpolation": 2}]}, "shear_x": {"Points": [{"co": {"X": 1, "Y": 0}, "interpolation": 2}]}, "shear_y": {"Points": [{"co": {"X": 1, "Y": 0}, "interpolation": 2}]}, "start": 2.8, "time": {"Points": [{"co": {"X": 1, "Y": 1}, "interpolation": 2}]}, "volume": {"Points": [{"co": {"X": 1, "Y": 1}, "interpolation": 2}]}, "wave_color": {"alpha": {"Points": [{"co": {"X": 1, "Y": 255}, "handle_left": {"X": 0.5, "Y": 1}, "handle_right": {"X": 0.5, "Y": 0}, "handle_type": 0, "interpolation": 0}]}, "blue": {"Points": [{"co": {"X": 1, "Y": 255}, "handle_left": {"X": 0.5, "Y": 1}, "handle_right": {"X": 0.5, "Y": 0}, "handle_type": 0, "interpolation": 0}]}, "green": {"Points": [{"co": {"X": 1, "Y": 123}, "handle_left": {"X": 0.5, "Y": 1}, "handle_right": {"X": 0.5, "Y": 0}, "handle_type": 0, "interpolation": 0}]}, "red": {"Points": [{"co": {"X": 1, "Y": 0}, "handle_left": {"X": 0.5, "Y": 1}, "handle_right": {"X": 0.5, "Y": 0}, "handle_type": 0, "interpolation": 0}]}}, "waveform": false, "file_id": "SG7D5AQ9RD", "title": "IMG_3172.MOV", "image": "/home/teacher/.openshot_qt/thumbnail/SG7D5AQ9RD.png"}, {"alpha": {"Points": [{"co": {"X": 1, "Y": 1}, "interpolation": 2}]}, "anchor": 0, "channel_filter": {"Points": [{"co": {"X": 1, "Y": -1}, "interpolation": 2}]}, "channel_mapping": {"Points": [{"co": {"X": 1, "Y": -1}, "interpolation": 2}]}, "crop_height": {"Points": [{"co": {"X": 1, "Y": -1}, "interpolation": 2}]}, "crop_width": {"Points": [{"co": {"X": 1, "Y": -1}, "interpolation": 2}]}, "crop_x": {"Points": [{"co": {"X": 1, "Y": 0}, "interpolation": 2}]}, "crop_y": {"Points": [{"co": {"X": 1, "Y": 0}, "interpolation": 2}]}, "display": 0, "duration": 16.600000381469727, "effects": [], "end": 14.4, "gravity": 4, "has_audio": {"Points": [{"co": {"X": 1, "Y": 0}, "interpolation": 2}]}, "has_video": {"Points": [{"co": {"X": 1, "Y": -1}, "interpolation": 2}]}, "id": "5SYPU4Q50A", "layer": 4, "location_x": {"Points": [{"co": {"X": 1, "Y": 0}, "interpolation": 2}]}, "location_y": {"Points": [{"co": {"X": 1, "Y": 0}, "interpolation": 2}]}, "mixing": 0, "perspective_c1_x": {"Points": [{"co": {"X": 1, "Y": -1}, "interpolation": 2}]}, "perspective_c1_y": {"Points": [{"co": {"X": 1, "Y": -1}, "interpolation": 2}]}, "perspective_c2_x": {"Points": [{"co": {"X": 1, "Y": -1}, "interpolation": 2}]}, "perspective_c2_y": {"Points": [{"co": {"X": 1, "Y": -1}, "interpolation": 2}]}, "perspective_c3_x": {"Points": [{"co": {"X": 1, "Y": -1}, "interpolation": 2}]}, "perspective_c3_y": {"Points": [{"co": {"X": 1, "Y": -1}, "interpolation": 2}]}, "perspective_c4_x": {"Points": [{"co": {"X": 1, "Y": -1}, "interpolation": 2}]}, "perspective_c4_y": {"Points": [{"co": {"X": 1, "Y": -1}, "interpolation": 2}]}, "position": 69.9, "reader": {"acodec": "pcm_s16le", "audio_bit_rate": 1536000, "audio_stream_index": 1, "audio_timebase": {"den": 48000, "num": 1}, "channel_layout": 3, "channels": 2, "display_ratio": {"den": 9, "num": 16}, "duration": 16.600000381469727, "file_size": "56759100", "fps": {"den": 1, "num": 50}, "has_audio": true, "has_single_image": false, "has_video": true, "height": 720, "interlaced_frame": false, "metadata": {"com.apple.quicktime.make": "Canon", "com.apple.quicktime.model": "Canon EOS 5D Mark III", "com.apple.quicktime.rating.user": "0.000000", "compatible_brands": "qt  CAEP", "creation_time": "2022-02-27T15:18:54.000000Z", "language": "eng", "major_brand": "qt", "minor_version": "537331968", "timecode": "03:56:52:15"}, "path": "/home/teacher/\u0412\u0438\u0434\u0435\u043e/lyzhi/good/IMG_3174.MOV", "pixel_format": 12, "pixel_ratio": {"den": 1, "num": 1}, "sample_rate": 48000, "top_field_first": true, "type": "FFmpegReader", "vcodec": "h264", "video_bit_rate": 3419222, "video_length": "830", "video_stream_index": 0, "video_timebase": {"den": 50000, "num": 1}, "width": 1280}, "rotation": {"Points": [{"co": {"X": 1, "Y": 180}, "handle_left": {"X": 0.5, "Y": 1}, "handle_right": {"X": 0.5, "Y": 0}, "handle_type": 0, "interpolation": 0}]}, "scale": 1, "scale_x": {"Points": [{"co": {"X": 1, "Y": 1}, "interpolation": 2}]}, "scale_y": {"Points": [{"co": {"X": 1, "Y": 1}, "interpolation": 2}]}, "shear_x": {"Points": [{"co": {"X": 1, "Y": 0}, "interpolation": 2}]}, "shear_y": {"Points": [{"co": {"X": 1, "Y": 0}, "interpolation": 2}]}, "start": 10.1, "time": {"Points": [{"co": {"X": 1, "Y": 1}, "interpolation": 2}]}, "volume": {"Points": [{"co": {"X": 1, "Y": 1}, "interpolation": 2}]}, "wave_color": {"alpha": {"Points": [{"co": {"X": 1, "Y": 255}, "handle_left": {"X": 0.5, "Y": 1}, "handle_right": {"X": 0.5, "Y": 0}, "handle_type": 0, "interpolation": 0}]}, "blue": {"Points": [{"co": {"X": 1, "Y": 255}, "handle_left": {"X": 0.5, "Y": 1}, "handle_right": {"X": 0.5, "Y": 0}, "handle_type": 0, "interpolation": 0}]}, "green": {"Points": [{"co": {"X": 1, "Y": 123}, "handle_left": {"X": 0.5, "Y": 1}, "handle_right": {"X": 0.5, "Y": 0}, "handle_type": 0, "interpolation": 0}]}, "red": {"Points": [{"co": {"X": 1, "Y": 0}, "handle_left": {"X": 0.5, "Y": 1}, "handle_right": {"X": 0.5, "Y": 0}, "handle_type": 0, "interpolation": 0}]}}, "waveform": false, "file_id": "1ZTQITZ8CE", "title": "IMG_3174.MOV", "image": "/home/teacher/.openshot_qt/thumbnail/1ZTQITZ8CE.png"}, {"alpha": {"Points": [{"co": {"X": 1, "Y": 1}, "interpolation": 2}]}, "anchor": 0, "channel_filter": {"Points": [{"co": {"X": 1, "Y": -1}, "interpolation": 2}]}, "channel_mapping": {"Points": [{"co": {"X": 1, "Y": -1}, "interpolation": 2}]}, "crop_height": {"Points": [{"co": {"X": 1, "Y": -1}, "interpolation": 2}]}, "crop_width": {"Points": [{"co": {"X": 1, "Y": -1}, "interpolation": 2}]}, "crop_x": {"Points": [{"co": {"X": 1, "Y": 0}, "interpolation": 2}]}, "crop_y": {"Points": [{"co": {"X": 1, "Y": 0}, "interpolation": 2}]}, "display": 0, "duration": 8.079999923706055, "effects": [], "end": 6.866666666666666, "gravity": 4, "has_audio": {"Points": [{"co": {"X": 1, "Y": 0}, "interpolation": 2}]}, "has_video": {"Points": [{"co": {"X": 1, "Y": -1}, "interpolation": 2}]}, "id": "4S0Y9TLC20", "layer": 4, "location_x": {"Points": [{"co": {"X": 1, "Y": 0}, "interpolation": 2}]}, "location_y": {"Points": [{"co": {"X": 1, "Y": 0}, "interpolation": 2}]}, "mixing": 0, "perspective_c1_x": {"Points": [{"co": {"X": 1, "Y": -1}, "interpolation": 2}]}, "perspective_c1_y": {"Points": [{"co": {"X": 1, "Y": -1}, "interpolation": 2}]}, "perspective_c2_x": {"Points": [{"co": {"X": 1, "Y": -1}, "interpolation": 2}]}, "perspective_c2_y": {"Points": [{"co": {"X": 1, "Y": -1}, "interpolation": 2}]}, "perspective_c3_x": {"Points": [{"co": {"X": 1, "Y": -1}, "interpolation": 2}]}, "perspective_c3_y": {"Points": [{"co": {"X": 1, "Y": -1}, "interpolation": 2}]}, "perspective_c4_x": {"Points": [{"co": {"X": 1, "Y": -1}, "interpolation": 2}]}, "perspective_c4_y": {"Points": [{"co": {"X": 1, "Y": -1}, "interpolation": 2}]}, "position": 74.16666666666667, "reader": {"acodec": "pcm_s16le", "audio_bit_rate": 1536000, "audio_stream_index": 1, "audio_timebase": {"den": 48000, "num": 1}, "channel_layout": 3, "channels": 2, "display_ratio": {"den": 9, "num": 16}, "duration": 8.079999923706055, "file_size": "27898032", "fps": {"den": 1, "num": 50}, "has_audio": true, "has_single_image": false, "has_video": true, "height": 720, "interlaced_frame": false, "metadata": {"com.apple.quicktime.make": "Canon", "com.apple.quicktime.model": "Canon EOS 5D Mark III", "com.apple.quicktime.rating.user": "0.000000", "compatible_brands": "qt  CAEP", "creation_time": "2022-02-27T15:21:04.000000Z", "language": "eng", "major_brand": "qt", "minor_version": "537331968", "timecode": "03:57:09:05"}, "path": "/home/teacher/\u0412\u0438\u0434\u0435\u043e/lyzhi/good/IMG_3175.MOV", "pixel_format": 12, "pixel_ratio": {"den": 1, "num": 1}, "sample_rate": 48000, "top_field_first": true, "type": "FFmpegReader", "vcodec": "h264", "video_bit_rate": 3452726, "video_length": "404", "video_stream_index": 0, "video_timebase": {"den": 50000, "num": 1}, "width": 1280}, "rotation": {"Points": [{"co": {"X": 1, "Y": 0}, "interpolation": 2}]}, "scale": 1, "scale_x": {"Points": [{"co": {"X": 1, "Y": 1}, "interpolation": 2}]}, "scale_y": {"Points": [{"co": {"X": 1, "Y": 1}, "interpolation": 2}]}, "shear_x": {"Points": [{"co": {"X": 1, "Y": 0}, "interpolation": 2}]}, "shear_y": {"Points": [{"co": {"X": 1, "Y": 0}, "interpolation": 2}]}, "start": 2.6, "time": {"Points": [{"co": {"X": 1, "Y": 1}, "interpolation": 2}]}, "volume": {"Points": [{"co": {"X": 1, "Y": 1}, "interpolation": 2}]}, "wave_color": {"alpha": {"Points": [{"co": {"X": 1, "Y": 255}, "handle_left": {"X": 0.5, "Y": 1}, "handle_right": {"X": 0.5, "Y": 0}, "handle_type": 0, "interpolation": 0}]}, "blue": {"Points": [{"co": {"X": 1, "Y": 255}, "handle_left": {"X": 0.5, "Y": 1}, "handle_right": {"X": 0.5, "Y": 0}, "handle_type": 0, "interpolation": 0}]}, "green": {"Points": [{"co": {"X": 1, "Y": 123}, "handle_left": {"X": 0.5, "Y": 1}, "handle_right": {"X": 0.5, "Y": 0}, "handle_type": 0, "interpolation": 0}]}, "red": {"Points": [{"co": {"X": 1, "Y": 0}, "handle_left": {"X": 0.5, "Y": 1}, "handle_right": {"X": 0.5, "Y": 0}, "handle_type": 0, "interpolation": 0}]}}, "waveform": false, "file_id": "4HUL4ZDZLH", "title": "IMG_3175.MOV", "image": "/home/teacher/.openshot_qt/thumbnail/4HUL4ZDZLH.png"}, {"alpha": {"Points": [{"co": {"X": 1, "Y": 1}, "interpolation": 2}]}, "anchor": 0, "channel_filter": {"Points": [{"co": {"X": 1, "Y": -1}, "interpolation": 2}]}, "channel_mapping": {"Points": [{"co": {"X": 1, "Y": -1}, "interpolation": 2}]}, "crop_height": {"Points": [{"co": {"X": 1, "Y": -1}, "interpolation": 2}]}, "crop_width": {"Points": [{"co": {"X": 1, "Y": -1}, "interpolation": 2}]}, "crop_x": {"Points": [{"co": {"X": 1, "Y": 0}, "interpolation": 2}]}, "crop_y": {"Points": [{"co": {"X": 1, "Y": 0}, "interpolation": 2}]}, "display": 0, "duration": 16.639999389648438, "effects": [], "end": 8.566666666666666, "gravity": 4, "has_audio": {"Points": [{"co": {"X": 1, "Y": 0}, "interpolation": 2}]}, "has_video": {"Points": [{"co": {"X": 1, "Y": -1}, "interpolation": 2}]}, "id": "IK5UHQ2SCJ", "layer": 4, "location_x": {"Points": [{"co": {"X": 1, "Y": 0}, "interpolation": 2}]}, "location_y": {"Points": [{"co": {"X": 1, "Y": 0}, "interpolation": 2}]}, "mixing": 0, "perspective_c1_x": {"Points": [{"co": {"X": 1, "Y": -1}, "interpolation": 2}]}, "perspective_c1_y": {"Points": [{"co": {"X": 1, "Y": -1}, "interpolation": 2}]}, "perspective_c2_x": {"Points": [{"co": {"X": 1, "Y": -1}, "interpolation": 2}]}, "perspective_c2_y": {"Points": [{"co": {"X": 1, "Y": -1}, "interpolation": 2}]}, "perspective_c3_x": {"Points": [{"co": {"X": 1, "Y": -1}, "interpolation": 2}]}, "perspective_c3_y": {"Points": [{"co": {"X": 1, "Y": -1}, "interpolation": 2}]}, "perspective_c4_x": {"Points": [{"co": {"X": 1, "Y": -1}, "interpolation": 2}]}, "perspective_c4_y": {"Points": [{"co": {"X": 1, "Y": -1}, "interpolation": 2}]}, "position": 78.6, "reader": {"acodec": "pcm_s16le", "audio_bit_rate": 1536000, "audio_stream_index": 1, "audio_timebase": {"den": 48000, "num": 1}, "channel_layout": 3, "channels": 2, "display_ratio": {"den": 9, "num": 16}, "duration": 16.639999389648438, "file_size": "55883544", "fps": {"den": 1, "num": 50}, "has_audio": true, "has_single_image": false, "has_video": true, "height": 720, "interlaced_frame": false, "metadata": {"com.apple.quicktime.make": "Canon", "com.apple.quicktime.model": "Canon EOS 5D Mark III", "com.apple.quicktime.rating.user": "0.000000", "compatible_brands": "qt  CAEP", "creation_time": "2022-02-27T15:32:23.000000Z", "language": "eng", "major_brand": "qt", "minor_version": "537331968", "timecode": "04:00:07:07"}, "path": "/home/teacher/\u0412\u0438\u0434\u0435\u043e/lyzhi/good/IMG_3193.MOV", "pixel_format": 12, "pixel_ratio": {"den": 1, "num": 1}, "sample_rate": 48000, "top_field_first": true, "type": "FFmpegReader", "vcodec": "h264", "video_bit_rate": 3358386, "video_length": "832", "video_stream_index": 0, "video_timebase": {"den": 50000, "num": 1}, "width": 1280}, "rotation": {"Points": [{"co": {"X": 1, "Y": 0}, "interpolation": 2}]}, "scale": 1, "scale_x": {"Points": [{"co": {"X": 1, "Y": 1}, "interpolation": 2}]}, "scale_y": {"Points": [{"co": {"X": 1, "Y": 1}, "interpolation": 2}]}, "shear_x": {"Points": [{"co": {"X": 1, "Y": 0}, "interpolation": 2}]}, "shear_y": {"Points": [{"co": {"X": 1, "Y": 0}, "interpolation": 2}]}, "start": 3.8666666666666667, "time": {"Points": [{"co": {"X": 1, "Y": 1}, "interpolation": 2}]}, "volume": {"Points": [{"co": {"X": 1, "Y": 1}, "interpolation": 2}]}, "wave_color": {"alpha": {"Points": [{"co": {"X": 1, "Y": 255}, "handle_left": {"X": 0.5, "Y": 1}, "handle_right": {"X": 0.5, "Y": 0}, "handle_type": 0, "interpolation": 0}]}, "blue": {"Points": [{"co": {"X": 1, "Y": 255}, "handle_left": {"X": 0.5, "Y": 1}, "handle_right": {"X": 0.5, "Y": 0}, "handle_type": 0, "interpolation": 0}]}, "green": {"Points": [{"co": {"X": 1, "Y": 123}, "handle_left": {"X": 0.5, "Y": 1}, "handle_right": {"X": 0.5, "Y": 0}, "handle_type": 0, "interpolation": 0}]}, "red": {"Points": [{"co": {"X": 1, "Y": 0}, "handle_left": {"X": 0.5, "Y": 1}, "handle_right": {"X": 0.5, "Y": 0}, "handle_type": 0, "interpolation": 0}]}}, "waveform": false, "file_id": "UQYH58PEZ2", "title": "IMG_3193.MOV", "image": "/home/teacher/.openshot_qt/thumbnail/IK5UHQ2SCJ-194.png"}, {"alpha": {"Points": [{"co": {"X": 1, "Y": 1}, "interpolation": 2}]}, "anchor": 0, "channel_filter": {"Points": [{"co": {"X": 1, "Y": -1}, "interpolation": 2}]}, "channel_mapping": {"Points": [{"co": {"X": 1, "Y": -1}, "interpolation": 2}]}, "crop_height": {"Points": [{"co": {"X": 1, "Y": -1}, "interpolation": 2}]}, "crop_width": {"Points": [{"co": {"X": 1, "Y": -1}, "interpolation": 2}]}, "crop_x": {"Points": [{"co": {"X": 1, "Y": 0}, "interpolation": 2}]}, "crop_y": {"Points": [{"co": {"X": 1, "Y": 0}, "interpolation": 2}]}, "display": 0, "duration": 16.639999389648438, "effects": [], "end": 13.933333333333334, "gravity": 4, "has_audio": {"Points": [{"co": {"X": 1, "Y": 0}, "interpolation": 2}]}, "has_video": {"Points": [{"co": {"X": 1, "Y": -1}, "interpolation": 2}]}, "layer": 4, "location_x": {"Points": [{"co": {"X": 1, "Y": 0}, "interpolation": 2}]}, "location_y": {"Points": [{"co": {"X": 1, "Y": 0}, "interpolation": 2}]}, "mixing": 0, "perspective_c1_x": {"Points": [{"co": {"X": 1, "Y": -1}, "interpolation": 2}]}, "perspective_c1_y": {"Points": [{"co": {"X": 1, "Y": -1}, "interpolation": 2}]}, "perspective_c2_x": {"Points": [{"co": {"X": 1, "Y": -1}, "interpolation": 2}]}, "perspective_c2_y": {"Points": [{"co": {"X": 1, "Y": -1}, "interpolation": 2}]}, "perspective_c3_x": {"Points": [{"co": {"X": 1, "Y": -1}, "interpolation": 2}]}, "perspective_c3_y": {"Points": [{"co": {"X": 1, "Y": -1}, "interpolation": 2}]}, "perspective_c4_x": {"Points": [{"co": {"X": 1, "Y": -1}, "interpolation": 2}]}, "perspective_c4_y": {"Points": [{"co": {"X": 1, "Y": -1}, "interpolation": 2}]}, "position": 83.33333333333333, "reader": {"acodec": "pcm_s16le", "audio_bit_rate": 1536000, "audio_stream_index": 1, "audio_timebase": {"den": 48000, "num": 1}, "channel_layout": 3, "channels": 2, "display_ratio": {"den": 9, "num": 16}, "duration": 16.639999389648438, "file_size": "55883544", "fps": {"den": 1, "num": 50}, "has_audio": true, "has_single_image": false, "has_video": true, "height": 720, "interlaced_frame": false, "metadata": {"com.apple.quicktime.make": "Canon", "com.apple.quicktime.model": "Canon EOS 5D Mark III", "com.apple.quicktime.rating.user": "0.000000", "compatible_brands": "qt  CAEP", "creation_time": "2022-02-27T15:32:23.000000Z", "language": "eng", "major_brand": "qt", "minor_version": "537331968", "timecode": "04:00:07:07"}, "path": "/home/teacher/\u0412\u0438\u0434\u0435\u043e/lyzhi/good/IMG_3193.MOV", "pixel_format": 12, "pixel_ratio": {"den": 1, "num": 1}, "sample_rate": 48000, "top_field_first": true, "type": "FFmpegReader", "vcodec": "h264", "video_bit_rate": 3358386, "video_length": "832", "video_stream_index": 0, "video_timebase": {"den": 50000, "num": 1}, "width": 1280}, "rotation": {"Points": [{"co": {"X": 1, "Y": 0}, "interpolation": 2}]}, "scale": 1, "scale_x": {"Points": [{"co": {"X": 1, "Y": 1}, "interpolation": 2}]}, "scale_y": {"Points": [{"co": {"X": 1, "Y": 1}, "interpolation": 2}]}, "shear_x": {"Points": [{"co": {"X": 1, "Y": 0}, "interpolation": 2}]}, "shear_y": {"Points": [{"co": {"X": 1, "Y": 0}, "interpolation": 2}]}, "start": 11.033333333333333, "time": {"Points": [{"co": {"X": 1, "Y": 1}, "interpolation": 2}]}, "volume": {"Points": [{"co": {"X": 1, "Y": 1}, "interpolation": 2}]}, "wave_color": {"alpha": {"Points": [{"co": {"X": 1, "Y": 255}, "handle_left": {"X": 0.5, "Y": 1}, "handle_right": {"X": 0.5, "Y": 0}, "handle_type": 0, "interpolation": 0}]}, "blue": {"Points": [{"co": {"X": 1, "Y": 255}, "handle_left": {"X": 0.5, "Y": 1}, "handle_right": {"X": 0.5, "Y": 0}, "handle_type": 0, "interpolation": 0}]}, "green": {"Points": [{"co": {"X": 1, "Y": 123}, "handle_left": {"X": 0.5, "Y": 1}, "handle_right": {"X": 0.5, "Y": 0}, "handle_type": 0, "interpolation": 0}]}, "red": {"Points": [{"co": {"X": 1, "Y": 0}, "handle_left": {"X": 0.5, "Y": 1}, "handle_right": {"X": 0.5, "Y": 0}, "handle_type": 0, "interpolation": 0}]}}, "waveform": false, "file_id": "UQYH58PEZ2", "title": "IMG_3193.MOV", "image": "/home/teacher/.openshot_qt/thumbnail/35BSJY0TQ2-488.png", "id": "35BSJY0TQ2"}, {"alpha": {"Points": [{"co": {"X": 1, "Y": 1}, "interpolation": 2}]}, "anchor": 0, "channel_filter": {"Points": [{"co": {"X": 1, "Y": -1}, "interpolation": 2}]}, "channel_mapping": {"Points": [{"co": {"X": 1, "Y": -1}, "interpolation": 2}]}, "crop_height": {"Points": [{"co": {"X": 1, "Y": -1}, "interpolation": 2}]}, "crop_width": {"Points": [{"co": {"X": 1, "Y": -1}, "interpolation": 2}]}, "crop_x": {"Points": [{"co": {"X": 1, "Y": 0}, "interpolation": 2}]}, "crop_y": {"Points": [{"co": {"X": 1, "Y": 0}, "interpolation": 2}]}, "display": 0, "duration": 9.039999961853027, "effects": [], "end": 7.633333333333334, "gravity": 4, "has_audio": {"Points": [{"co": {"X": 1, "Y": 0}, "interpolation": 2}]}, "has_video": {"Points": [{"co": {"X": 1, "Y": -1}, "interpolation": 2}]}, "id": "U4EPU5UZ3Q", "layer": 4, "location_x": {"Points": [{"co": {"X": 1, "Y": 0}, "interpolation": 2}]}, "location_y": {"Points": [{"co": {"X": 1, "Y": 0}, "interpolation": 2}]}, "mixing": 0, "perspective_c1_x": {"Points": [{"co": {"X": 1, "Y": -1}, "interpolation": 2}]}, "perspective_c1_y": {"Points": [{"co": {"X": 1, "Y": -1}, "interpolation": 2}]}, "perspective_c2_x": {"Points": [{"co": {"X": 1, "Y": -1}, "interpolation": 2}]}, "perspective_c2_y": {"Points": [{"co": {"X": 1, "Y": -1}, "interpolation": 2}]}, "perspective_c3_x": {"Points": [{"co": {"X": 1, "Y": -1}, "interpolation": 2}]}, "perspective_c3_y": {"Points": [{"co": {"X": 1, "Y": -1}, "interpolation": 2}]}, "perspective_c4_x": {"Points": [{"co": {"X": 1, "Y": -1}, "interpolation": 2}]}, "perspective_c4_y": {"Points": [{"co": {"X": 1, "Y": -1}, "interpolation": 2}]}, "position": 86.23333333333333, "reader": {"acodec": "pcm_s16le", "audio_bit_rate": 1536000, "audio_stream_index": 1, "audio_timebase": {"den": 48000, "num": 1}, "channel_layout": 3, "channels": 2, "display_ratio": {"den": 9, "num": 16}, "duration": 9.039999961853027, "file_size": "28647472", "fps": {"den": 1, "num": 50}, "has_audio": true, "has_single_image": false, "has_video": true, "height": 720, "interlaced_frame": false, "metadata": {"com.apple.quicktime.make": "Canon", "com.apple.quicktime.model": "Canon EOS 5D Mark III", "com.apple.quicktime.rating.user": "0.000000", "compatible_brands": "qt  CAEP", "creation_time": "2022-02-27T15:45:47.000000Z", "language": "eng", "major_brand": "qt", "minor_version": "537331968", "timecode": "04:03:49:02"}, "path": "/home/teacher/\u0412\u0438\u0434\u0435\u043e/lyzhi/good/IMG_3211.MOV", "pixel_format": 12, "pixel_ratio": {"den": 1, "num": 1}, "sample_rate": 48000, "top_field_first": true, "type": "FFmpegReader", "vcodec": "h264", "video_bit_rate": 3168968, "video_length": "452", "video_stream_index": 0, "video_timebase": {"den": 50000, "num": 1}, "width": 1280}, "rotation": {"Points": [{"co": {"X": 1, "Y": 0}, "interpolation": 2}]}, "scale": 1, "scale_x": {"Points": [{"co": {"X": 1, "Y": 1}, "interpolation": 2}]}, "scale_y": {"Points": [{"co": {"X": 1, "Y": 1}, "interpolation": 2}]}, "shear_x": {"Points": [{"co": {"X": 1, "Y": 0}, "interpolation": 2}]}, "shear_y": {"Points": [{"co": {"X": 1, "Y": 0}, "interpolation": 2}]}, "start": 3.2, "time": {"Points": [{"co": {"X": 1, "Y": 1}, "interpolation": 2}]}, "volume": {"Points": [{"co": {"X": 1, "Y": 1}, "interpolation": 2}]}, "wave_color": {"alpha": {"Points": [{"co": {"X": 1, "Y": 255}, "handle_left": {"X": 0.5, "Y": 1}, "handle_right": {"X": 0.5, "Y": 0}, "handle_type": 0, "interpolation": 0}]}, "blue": {"Points": [{"co": {"X": 1, "Y": 255}, "handle_left": {"X": 0.5, "Y": 1}, "handle_right": {"X": 0.5, "Y": 0}, "handle_type": 0, "interpolation": 0}]}, "green": {"Points": [{"co": {"X": 1, "Y": 123}, "handle_left": {"X": 0.5, "Y": 1}, "handle_right": {"X": 0.5, "Y": 0}, "handle_type": 0, "interpolation": 0}]}, "red": {"Points": [{"co": {"X": 1, "Y": 0}, "handle_left": {"X": 0.5, "Y": 1}, "handle_right": {"X": 0.5, "Y": 0}, "handle_type": 0, "interpolation": 0}]}}, "waveform": false, "file_id": "57WP9KO9OA", "title": "IMG_3211.MOV", "image": "/home/teacher/.openshot_qt/thumbnail/57WP9KO9OA.png"}, {"alpha": {"Points": [{"co": {"X": 1, "Y": 1}, "interpolation": 2}]}, "anchor": 0, "channel_filter": {"Points": [{"co": {"X": 1, "Y": -1}, "interpolation": 2}]}, "channel_mapping": {"Points": [{"co": {"X": 1, "Y": -1}, "interpolation": 2}]}, "crop_height": {"Points": [{"co": {"X": 1, "Y": -1}, "interpolation": 2}]}, "crop_width": {"Points": [{"co": {"X": 1, "Y": -1}, "interpolation": 2}]}, "crop_x": {"Points": [{"co": {"X": 1, "Y": 0}, "interpolation": 2}]}, "crop_y": {"Points": [{"co": {"X": 1, "Y": 0}, "interpolation": 2}]}, "display": 0, "duration": 16.600000381469727, "effects": [], "end": 8.7, "gravity": 4, "has_audio": {"Points": [{"co": {"X": 1, "Y": 0}, "interpolation": 2}]}, "has_video": {"Points": [{"co": {"X": 1, "Y": -1}, "interpolation": 2}]}, "id": "Q5XG9II2QN", "layer": 4, "location_x": {"Points": [{"co": {"X": 1, "Y": 0}, "interpolation": 2}]}, "location_y": {"Points": [{"co": {"X": 1, "Y": 0}, "interpolation": 2}]}, "mixing": 0, "perspective_c1_x": {"Points": [{"co": {"X": 1, "Y": -1}, "interpolation": 2}]}, "perspective_c1_y": {"Points": [{"co": {"X": 1, "Y": -1}, "interpolation": 2}]}, "perspective_c2_x": {"Points": [{"co": {"X": 1, "Y": -1}, "interpolation": 2}]}, "perspective_c2_y": {"Points": [{"co": {"X": 1, "Y": -1}, "interpolation": 2}]}, "perspective_c3_x": {"Points": [{"co": {"X": 1, "Y": -1}, "interpolation": 2}]}, "perspective_c3_y": {"Points": [{"co": {"X": 1, "Y": -1}, "interpolation": 2}]}, "perspective_c4_x": {"Points": [{"co": {"X": 1, "Y": -1}, "interpolation": 2}]}, "perspective_c4_y": {"Points": [{"co": {"X": 1, "Y": -1}, "interpolation": 2}]}, "position": 90.73333333333333, "reader": {"acodec": "pcm_s16le", "audio_bit_rate": 1536000, "audio_stream_index": 1, "audio_timebase": {"den": 48000, "num": 1}, "channel_layout": 3, "channels": 2, "display_ratio": {"den": 9, "num": 16}, "duration": 16.600000381469727, "file_size": "54148348", "fps": {"den": 1, "num": 50}, "has_audio": true, "has_single_image": false, "has_video": true, "height": 720, "interlaced_frame": false, "metadata": {"com.apple.quicktime.make": "Canon", "com.apple.quicktime.model": "Canon EOS 5D Mark III", "com.apple.quicktime.rating.user": "0.000000", "compatible_brands": "qt  CAEP", "creation_time": "2022-02-27T15:46:30.000000Z", "language": "eng", "major_brand": "qt", "minor_version": "537331968", "timecode": "04:03:58:03"}, "path": "/home/teacher/\u0412\u0438\u0434\u0435\u043e/lyzhi/good/IMG_3212.MOV", "pixel_format": 12, "pixel_ratio": {"den": 1, "num": 1}, "sample_rate": 48000, "top_field_first": true, "type": "FFmpegReader", "vcodec": "h264", "video_bit_rate": 3261948, "video_length": "830", "video_stream_index": 0, "video_timebase": {"den": 50000, "num": 1}, "width": 1280}, "rotation": {"Points": [{"co": {"X": 1, "Y": 0}, "interpolation": 2}]}, "scale": 1, "scale_x": {"Points": [{"co": {"X": 1, "Y": 1}, "interpolation": 2}]}, "scale_y": {"Points": [{"co": {"X": 1, "Y": 1}, "interpolation": 2}]}, "shear_x": {"Points": [{"co": {"X": 1, "Y": 0}, "interpolation": 2}]}, "shear_y": {"Points": [{"co": {"X": 1, "Y": 0}, "interpolation": 2}]}, "start": 2, "time": {"Points": [{"co": {"X": 1, "Y": 1}, "interpolation": 2}]}, "volume": {"Points": [{"co": {"X": 1, "Y": 1}, "interpolation": 2}]}, "wave_color": {"alpha": {"Points": [{"co": {"X": 1, "Y": 255}, "handle_left": {"X": 0.5, "Y": 1}, "handle_right": {"X": 0.5, "Y": 0}, "handle_type": 0, "interpolation": 0}]}, "blue": {"Points": [{"co": {"X": 1, "Y": 255}, "handle_left": {"X": 0.5, "Y": 1}, "handle_right": {"X": 0.5, "Y": 0}, "handle_type": 0, "interpolation": 0}]}, "green": {"Points": [{"co": {"X": 1, "Y": 123}, "handle_left": {"X": 0.5, "Y": 1}, "handle_right": {"X": 0.5, "Y": 0}, "handle_type": 0, "interpolation": 0}]}, "red": {"Points": [{"co": {"X": 1, "Y": 0}, "handle_left": {"X": 0.5, "Y": 1}, "handle_right": {"X": 0.5, "Y": 0}, "handle_type": 0, "interpolation": 0}]}}, "waveform": false, "file_id": "GA1SNBFUK6", "title": "IMG_3212.MOV", "image": "/home/teacher/.openshot_qt/thumbnail/Q5XG9II2QN-76.png"}, {"alpha": {"Points": [{"co": {"X": 1, "Y": 1}, "interpolation": 2}]}, "anchor": 0, "channel_filter": {"Points": [{"co": {"X": 1, "Y": -1}, "interpolation": 2}]}, "channel_mapping": {"Points": [{"co": {"X": 1, "Y": -1}, "interpolation": 2}]}, "crop_height": {"Points": [{"co": {"X": 1, "Y": -1}, "interpolation": 2}]}, "crop_width": {"Points": [{"co": {"X": 1, "Y": -1}, "interpolation": 2}]}, "crop_x": {"Points": [{"co": {"X": 1, "Y": 0}, "interpolation": 2}]}, "crop_y": {"Points": [{"co": {"X": 1, "Y": 0}, "interpolation": 2}]}, "display": 0, "duration": 16.600000381469727, "effects": [], "end": 15, "gravity": 4, "has_audio": {"Points": [{"co": {"X": 1, "Y": 0}, "interpolation": 2}]}, "has_video": {"Points": [{"co": {"X": 1, "Y": -1}, "interpolation": 2}]}, "layer": 4, "location_x": {"Points": [{"co": {"X": 1, "Y": 0}, "interpolation": 2}]}, "location_y": {"Points": [{"co": {"X": 1, "Y": 0}, "interpolation": 2}]}, "mixing": 0, "perspective_c1_x": {"Points": [{"co": {"X": 1, "Y": -1}, "interpolation": 2}]}, "perspective_c1_y": {"Points": [{"co": {"X": 1, "Y": -1}, "interpolation": 2}]}, "perspective_c2_x": {"Points": [{"co": {"X": 1, "Y": -1}, "interpolation": 2}]}, "perspective_c2_y": {"Points": [{"co": {"X": 1, "Y": -1}, "interpolation": 2}]}, "perspective_c3_x": {"Points": [{"co": {"X": 1, "Y": -1}, "interpolation": 2}]}, "perspective_c3_y": {"Points": [{"co": {"X": 1, "Y": -1}, "interpolation": 2}]}, "perspective_c4_x": {"Points": [{"co": {"X": 1, "Y": -1}, "interpolation": 2}]}, "perspective_c4_y": {"Points": [{"co": {"X": 1, "Y": -1}, "interpolation": 2}]}, "position": 97.36666666666666, "reader": {"acodec": "pcm_s16le", "audio_bit_rate": 1536000, "audio_stream_index": 1, "audio_timebase": {"den": 48000, "num": 1}, "channel_layout": 3, "channels": 2, "display_ratio": {"den": 9, "num": 16}, "duration": 16.600000381469727, "file_size": "54148348", "fps": {"den": 1, "num": 50}, "has_audio": true, "has_single_image": false, "has_video": true, "height": 720, "interlaced_frame": false, "metadata": {"com.apple.quicktime.make": "Canon", "com.apple.quicktime.model": "Canon EOS 5D Mark III", "com.apple.quicktime.rating.user": "0.000000", "compatible_brands": "qt  CAEP", "creation_time": "2022-02-27T15:46:30.000000Z", "language": "eng", "major_brand": "qt", "minor_version": "537331968", "timecode": "04:03:58:03"}, "path": "/home/teacher/\u0412\u0438\u0434\u0435\u043e/lyzhi/good/IMG_3212.MOV", "pixel_format": 12, "pixel_ratio": {"den": 1, "num": 1}, "sample_rate": 48000, "top_field_first": true, "type": "FFmpegReader", "vcodec": "h264", "video_bit_rate": 3261948, "video_length": "830", "video_stream_index": 0, "video_timebase": {"den": 50000, "num": 1}, "width": 1280}, "rotation": {"Points": [{"co": {"X": 1, "Y": 0}, "interpolation": 2}]}, "scale": 1, "scale_x": {"Points": [{"co": {"X": 1, "Y": 1}, "interpolation": 2}]}, "scale_y": {"Points": [{"co": {"X": 1, "Y": 1}, "interpolation": 2}]}, "shear_x": {"Points": [{"co": {"X": 1, "Y": 0}, "interpolation": 2}]}, "shear_y": {"Points": [{"co": {"X": 1, "Y": 0}, "interpolation": 2}]}, "start": 12.166666666666666, "time": {"Points": [{"co": {"X": 1, "Y": 1}, "interpolation": 2}]}, "volume": {"Points": [{"co": {"X": 1, "Y": 1}, "interpolation": 2}]}, "wave_color": {"alpha": {"Points": [{"co": {"X": 1, "Y": 255}, "handle_left": {"X": 0.5, "Y": 1}, "handle_right": {"X": 0.5, "Y": 0}, "handle_type": 0, "interpolation": 0}]}, "blue": {"Points": [{"co": {"X": 1, "Y": 255}, "handle_left": {"X": 0.5, "Y": 1}, "handle_right": {"X": 0.5, "Y": 0}, "handle_type": 0, "interpolation": 0}]}, "green": {"Points": [{"co": {"X": 1, "Y": 123}, "handle_left": {"X": 0.5, "Y": 1}, "handle_right": {"X": 0.5, "Y": 0}, "handle_type": 0, "interpolation": 0}]}, "red": {"Points": [{"co": {"X": 1, "Y": 0}, "handle_left": {"X": 0.5, "Y": 1}, "handle_right": {"X": 0.5, "Y": 0}, "handle_type": 0, "interpolation": 0}]}}, "waveform": false, "file_id": "GA1SNBFUK6", "title": "IMG_3212.MOV", "image": "/home/teacher/.openshot_qt/thumbnail/7WJOOKZ1U8-439.png", "id": "7WJOOKZ1U8"}, {"alpha": {"Points": [{"co": {"X": 1, "Y": 1}, "interpolation": 2}]}, "anchor": 0, "channel_filter": {"Points": [{"co": {"X": 1, "Y": -1}, "interpolation": 2}]}, "channel_mapping": {"Points": [{"co": {"X": 1, "Y": -1}, "interpolation": 2}]}, "crop_height": {"Points": [{"co": {"X": 1, "Y": -1}, "interpolation": 2}]}, "crop_width": {"Points": [{"co": {"X": 1, "Y": -1}, "interpolation": 2}]}, "crop_x": {"Points": [{"co": {"X": 1, "Y": 0}, "interpolation": 2}]}, "crop_y": {"Points": [{"co": {"X": 1, "Y": 0}, "interpolation": 2}]}, "display": 0, "duration": 24.440000534057617, "effects": [], "end": 12.5, "gravity": 4, "has_audio": {"Points": [{"co": {"X": 1, "Y": 0}, "interpolation": 2}]}, "has_video": {"Points": [{"co": {"X": 1, "Y": -1}, "interpolation": 2}]}, "id": "KH48V4QAFU", "layer": 4, "location_x": {"Points": [{"co": {"X": 1, "Y": 0}, "interpolation": 2}]}, "location_y": {"Points": [{"co": {"X": 1, "Y": 0}, "interpolation": 2}]}, "mixing": 0, "perspective_c1_x": {"Points": [{"co": {"X": 1, "Y": -1}, "interpolation": 2}]}, "perspective_c1_y": {"Points": [{"co": {"X": 1, "Y": -1}, "interpolation": 2}]}, "perspective_c2_x": {"Points": [{"co": {"X": 1, "Y": -1}, "interpolation": 2}]}, "perspective_c2_y": {"Points": [{"co": {"X": 1, "Y": -1}, "interpolation": 2}]}, "perspective_c3_x": {"Points": [{"co": {"X": 1, "Y": -1}, "interpolation": 2}]}, "perspective_c3_y": {"Points": [{"co": {"X": 1, "Y": -1}, "interpolation": 2}]}, "perspective_c4_x": {"Points": [{"co": {"X": 1, "Y": -1}, "interpolation": 2}]}, "perspective_c4_y": {"Points": [{"co": {"X": 1, "Y": -1}, "interpolation": 2}]}, "position": 100.2, "reader": {"acodec": "pcm_s16le", "audio_bit_rate": 1536000, "audio_stream_index": 1, "audio_timebase": {"den": 48000, "num": 1}, "channel_layout": 3, "channels": 2, "display_ratio": {"den": 9, "num": 16}, "duration": 24.440000534057617, "file_size": "76122736", "fps": {"den": 1, "num": 50}, "has_audio": true, "has_single_image": false, "has_video": true, "height": 720, "interlaced_frame": false, "metadata": {"com.apple.quicktime.make": "Canon", "com.apple.quicktime.model": "Canon EOS 5D Mark III", "com.apple.quicktime.rating.user": "0.000000", "compatible_brands": "qt  CAEP", "creation_time": "2022-02-27T15:46:50.000000Z", "language": "eng", "major_brand": "qt", "minor_version": "537331968", "timecode": "04:04:14:18"}, "path": "/home/teacher/\u0412\u0438\u0434\u0435\u043e/lyzhi/good/IMG_3213.MOV", "pixel_format": 12, "pixel_ratio": {"den": 1, "num": 1}, "sample_rate": 48000, "top_field_first": true, "type": "FFmpegReader", "vcodec": "h264", "video_bit_rate": 3114678, "video_length": "1222", "video_stream_index": 0, "video_timebase": {"den": 50000, "num": 1}, "width": 1280}, "rotation": {"Points": [{"co": {"X": 1, "Y": 0}, "interpolation": 2}]}, "scale": 1, "scale_x": {"Points": [{"co": {"X": 1, "Y": 1}, "interpolation": 2}]}, "scale_y": {"Points": [{"co": {"X": 1, "Y": 1}, "interpolation": 2}]}, "shear_x": {"Points": [{"co": {"X": 1, "Y": 0}, "interpolation": 2}]}, "shear_y": {"Points": [{"co": {"X": 1, "Y": 0}, "interpolation": 2}]}, "start": 9.1, "time": {"Points": [{"co": {"X": 1, "Y": 1}, "interpolation": 2}]}, "volume": {"Points": [{"co": {"X": 1, "Y": 1}, "interpolation": 2}]}, "wave_color": {"alpha": {"Points": [{"co": {"X": 1, "Y": 255}, "handle_left": {"X": 0.5, "Y": 1}, "handle_right": {"X": 0.5, "Y": 0}, "handle_type": 0, "interpolation": 0}]}, "blue": {"Points": [{"co": {"X": 1, "Y": 255}, "handle_left": {"X": 0.5, "Y": 1}, "handle_right": {"X": 0.5, "Y": 0}, "handle_type": 0, "interpolation": 0}]}, "green": {"Points": [{"co": {"X": 1, "Y": 123}, "handle_left": {"X": 0.5, "Y": 1}, "handle_right": {"X": 0.5, "Y": 0}, "handle_type": 0, "interpolation": 0}]}, "red": {"Points": [{"co": {"X": 1, "Y": 0}, "handle_left": {"X": 0.5, "Y": 1}, "handle_right": {"X": 0.5, "Y": 0}, "handle_type": 0, "interpolation": 0}]}}, "waveform": false, "file_id": "9H86ZQ9HQL", "title": "IMG_3213.MOV", "image": "/home/teacher/.openshot_qt/thumbnail/9H86ZQ9HQL.png"}, {"alpha": {"Points": [{"co": {"X": 1, "Y": 1}, "interpolation": 2}]}, "anchor": 0, "channel_filter": {"Points": [{"co": {"X": 1, "Y": -1}, "interpolation": 2}]}, "channel_mapping": {"Points": [{"co": {"X": 1, "Y": -1}, "interpolation": 2}]}, "crop_height": {"Points": [{"co": {"X": 1, "Y": -1}, "interpolation": 2}]}, "crop_width": {"Points": [{"co": {"X": 1, "Y": -1}, "interpolation": 2}]}, "crop_x": {"Points": [{"co": {"X": 1, "Y": 0}, "interpolation": 2}]}, "crop_y": {"Points": [{"co": {"X": 1, "Y": 0}, "interpolation": 2}]}, "display": 0, "duration": 24.440000534057617, "effects": [], "end": 17.733333333333334, "gravity": 4, "has_audio": {"Points": [{"co": {"X": 1, "Y": 0}, "interpolation": 2}]}, "has_video": {"Points": [{"co": {"X": 1, "Y": -1}, "interpolation": 2}]}, "layer": 4, "location_x": {"Points": [{"co": {"X": 1, "Y": 0}, "interpolation": 2}]}, "location_y": {"Points": [{"co": {"X": 1, "Y": 0}, "interpolation": 2}]}, "mixing": 0, "perspective_c1_x": {"Points": [{"co": {"X": 1, "Y": -1}, "interpolation": 2}]}, "perspective_c1_y": {"Points": [{"co": {"X": 1, "Y": -1}, "interpolation": 2}]}, "perspective_c2_x": {"Points": [{"co": {"X": 1, "Y": -1}, "interpolation": 2}]}, "perspective_c2_y": {"Points": [{"co": {"X": 1, "Y": -1}, "interpolation": 2}]}, "perspective_c3_x": {"Points": [{"co": {"X": 1, "Y": -1}, "interpolation": 2}]}, "perspective_c3_y": {"Points": [{"co": {"X": 1, "Y": -1}, "interpolation": 2}]}, "perspective_c4_x": {"Points": [{"co": {"X": 1, "Y": -1}, "interpolation": 2}]}, "perspective_c4_y": {"Points": [{"co": {"X": 1, "Y": -1}, "interpolation": 2}]}, "position": 103.6, "reader": {"acodec": "pcm_s16le", "audio_bit_rate": 1536000, "audio_stream_index": 1, "audio_timebase": {"den": 48000, "num": 1}, "channel_layout": 3, "channels": 2, "display_ratio": {"den": 9, "num": 16}, "duration": 24.440000534057617, "file_size": "76122736", "fps": {"den": 1, "num": 50}, "has_audio": true, "has_single_image": false, "has_video": true, "height": 720, "interlaced_frame": false, "metadata": {"com.apple.quicktime.make": "Canon", "com.apple.quicktime.model": "Canon EOS 5D Mark III", "com.apple.quicktime.rating.user": "0.000000", "compatible_brands": "qt  CAEP", "creation_time": "2022-02-27T15:46:50.000000Z", "language": "eng", "major_brand": "qt", "minor_version": "537331968", "timecode": "04:04:14:18"}, "path": "/home/teacher/\u0412\u0438\u0434\u0435\u043e/lyzhi/good/IMG_3213.MOV", "pixel_format": 12, "pixel_ratio": {"den": 1, "num": 1}, "sample_rate": 48000, "top_field_first": true, "type": "FFmpegReader", "vcodec": "h264", "video_bit_rate": 3114678, "video_length": "1222", "video_stream_index": 0, "video_timebase": {"den": 50000, "num": 1}, "width": 1280}, "rotation": {"Points": [{"co": {"X": 1, "Y": 0}, "interpolation": 2}]}, "scale": 1, "scale_x": {"Points": [{"co": {"X": 1, "Y": 1}, "interpolation": 2}]}, "scale_y": {"Points": [{"co": {"X": 1, "Y": 1}, "interpolation": 2}]}, "shear_x": {"Points": [{"co": {"X": 1, "Y": 0}, "interpolation": 2}]}, "shear_y": {"Points": [{"co": {"X": 1, "Y": 0}, "interpolation": 2}]}, "start": 14.266666666666667, "time": {"Points": [{"co": {"X": 1, "Y": 1}, "interpolation": 2}]}, "volume": {"Points": [{"co": {"X": 1, "Y": 1}, "interpolation": 2}]}, "wave_color": {"alpha": {"Points": [{"co": {"X": 1, "Y": 255}, "handle_left": {"X": 0.5, "Y": 1}, "handle_right": {"X": 0.5, "Y": 0}, "handle_type": 0, "interpolation": 0}]}, "blue": {"Points": [{"co": {"X": 1, "Y": 255}, "handle_left": {"X": 0.5, "Y": 1}, "handle_right": {"X": 0.5, "Y": 0}, "handle_type": 0, "interpolation": 0}]}, "green": {"Points": [{"co": {"X": 1, "Y": 123}, "handle_left": {"X": 0.5, "Y": 1}, "handle_right": {"X": 0.5, "Y": 0}, "handle_type": 0, "interpolation": 0}]}, "red": {"Points": [{"co": {"X": 1, "Y": 0}, "handle_left": {"X": 0.5, "Y": 1}, "handle_right": {"X": 0.5, "Y": 0}, "handle_type": 0, "interpolation": 0}]}}, "waveform": false, "file_id": "9H86ZQ9HQL", "title": "IMG_3213.MOV", "image": "/home/teacher/.openshot_qt/thumbnail/GUO2L2I1DH-629.png", "id": "GUO2L2I1DH"}, {"alpha": {"Points": [{"co": {"X": 1, "Y": 1}, "interpolation": 2}]}, "anchor": 0, "channel_filter": {"Points": [{"co": {"X": 1, "Y": -1}, "interpolation": 2}]}, "channel_mapping": {"Points": [{"co": {"X": 1, "Y": -1}, "interpolation": 2}]}, "crop_height": {"Points": [{"co": {"X": 1, "Y": -1}, "interpolation": 2}]}, "crop_width": {"Points": [{"co": {"X": 1, "Y": -1}, "interpolation": 2}]}, "crop_x": {"Points": [{"co": {"X": 1, "Y": 0}, "interpolation": 2}]}, "crop_y": {"Points": [{"co": {"X": 1, "Y": 0}, "interpolation": 2}]}, "display": 0, "duration": 22.479999542236328, "effects": [], "end": 13.5, "gravity": 4, "has_audio": {"Points": [{"co": {"X": 1, "Y": 0}, "interpolation": 2}]}, "has_video": {"Points": [{"co": {"X": 1, "Y": -1}, "interpolation": 2}]}, "id": "EKF2U8T65A", "layer": 4, "location_x": {"Points": [{"co": {"X": 1, "Y": 0}, "interpolation": 2}]}, "location_y": {"Points": [{"co": {"X": 1, "Y": 0}, "interpolation": 2}]}, "mixing": 0, "perspective_c1_x": {"Points": [{"co": {"X": 1, "Y": -1}, "interpolation": 2}]}, "perspective_c1_y": {"Points": [{"co": {"X": 1, "Y": -1}, "interpolation": 2}]}, "perspective_c2_x": {"Points": [{"co": {"X": 1, "Y": -1}, "interpolation": 2}]}, "perspective_c2_y": {"Points": [{"co": {"X": 1, "Y": -1}, "interpolation": 2}]}, "perspective_c3_x": {"Points": [{"co": {"X": 1, "Y": -1}, "interpolation": 2}]}, "perspective_c3_y": {"Points": [{"co": {"X": 1, "Y": -1}, "interpolation": 2}]}, "perspective_c4_x": {"Points": [{"co": {"X": 1, "Y": -1}, "interpolation": 2}]}, "perspective_c4_y": {"Points": [{"co": {"X": 1, "Y": -1}, "interpolation": 2}]}, "position": 106.96666666666667, "reader": {"acodec": "pcm_s16le", "audio_bit_rate": 1536000, "audio_stream_index": 1, "audio_timebase": {"den": 48000, "num": 1}, "channel_layout": 3, "channels": 2, "display_ratio": {"den": 9, "num": 16}, "duration": 22.479999542236328, "file_size": "75669948", "fps": {"den": 1, "num": 50}, "has_audio": true, "has_single_image": false, "has_video": true, "height": 720, "interlaced_frame": false, "metadata": {"com.apple.quicktime.make": "Canon", "com.apple.quicktime.model": "Canon EOS 5D Mark III", "com.apple.quicktime.rating.user": "0.000000", "compatible_brands": "qt  CAEP", "creation_time": "2022-02-27T15:47:16.000000Z", "language": "eng", "major_brand": "qt", "minor_version": "537331968", "timecode": "04:04:39:04"}, "path": "/home/teacher/\u0412\u0438\u0434\u0435\u043e/lyzhi/good/IMG_3214.MOV", "pixel_format": 12, "pixel_ratio": {"den": 1, "num": 1}, "sample_rate": 48000, "top_field_first": true, "type": "FFmpegReader", "vcodec": "h264", "video_bit_rate": 3366100, "video_length": "1124", "video_stream_index": 0, "video_timebase": {"den": 50000, "num": 1}, "width": 1280}, "rotation": {"Points": [{"co": {"X": 1, "Y": 0}, "interpolation": 2}]}, "scale": 1, "scale_x": {"Points": [{"co": {"X": 1, "Y": 1}, "interpolation": 2}]}, "scale_y": {"Points": [{"co": {"X": 1, "Y": 1}, "interpolation": 2}]}, "shear_x": {"Points": [{"co": {"X": 1, "Y": 0}, "interpolation": 2}]}, "shear_y": {"Points": [{"co": {"X": 1, "Y": 0}, "interpolation": 2}]}, "start": 9, "time": {"Points": [{"co": {"X": 1, "Y": 1}, "interpolation": 2}]}, "volume": {"Points": [{"co": {"X": 1, "Y": 1}, "interpolation": 2}]}, "wave_color": {"alpha": {"Points": [{"co": {"X": 1, "Y": 255}, "handle_left": {"X": 0.5, "Y": 1}, "handle_right": {"X": 0.5, "Y": 0}, "handle_type": 0, "interpolation": 0}]}, "blue": {"Points": [{"co": {"X": 1, "Y": 255}, "handle_left": {"X": 0.5, "Y": 1}, "handle_right": {"X": 0.5, "Y": 0}, "handle_type": 0, "interpolation": 0}]}, "green": {"Points": [{"co": {"X": 1, "Y": 123}, "handle_left": {"X": 0.5, "Y": 1}, "handle_right": {"X": 0.5, "Y": 0}, "handle_type": 0, "interpolation": 0}]}, "red": {"Points": [{"co": {"X": 1, "Y": 0}, "handle_left": {"X": 0.5, "Y": 1}, "handle_right": {"X": 0.5, "Y": 0}, "handle_type": 0, "interpolation": 0}]}}, "waveform": false, "file_id": "YTWXDKIQI8", "title": "IMG_3214.MOV", "image": "/home/teacher/.openshot_qt/thumbnail/YTWXDKIQI8.png"}, {"alpha": {"Points": [{"co": {"X": 1, "Y": 1}, "interpolation": 2}]}, "anchor": 0, "channel_filter": {"Points": [{"co": {"X": 1, "Y": -1}, "interpolation": 2}]}, "channel_mapping": {"Points": [{"co": {"X": 1, "Y": -1}, "interpolation": 2}]}, "crop_height": {"Points": [{"co": {"X": 1, "Y": -1}, "interpolation": 2}]}, "crop_width": {"Points": [{"co": {"X": 1, "Y": -1}, "interpolation": 2}]}, "crop_x": {"Points": [{"co": {"X": 1, "Y": 0}, "interpolation": 2}]}, "crop_y": {"Points": [{"co": {"X": 1, "Y": 0}, "interpolation": 2}]}, "display": 0, "duration": 22.479999542236328, "effects": [], "end": 21.166666666666668, "gravity": 4, "has_audio": {"Points": [{"co": {"X": 1, "Y": 0}, "interpolation": 2}]}, "has_video": {"Points": [{"co": {"X": 1, "Y": -1}, "interpolation": 2}]}, "layer": 4, "location_x": {"Points": [{"co": {"X": 1, "Y": 0}, "interpolation": 2}]}, "location_y": {"Points": [{"co": {"X": 1, "Y": 0}, "interpolation": 2}]}, "mixing": 0, "perspective_c1_x": {"Points": [{"co": {"X": 1, "Y": -1}, "interpolation": 2}]}, "perspective_c1_y": {"Points": [{"co": {"X": 1, "Y": -1}, "interpolation": 2}]}, "perspective_c2_x": {"Points": [{"co": {"X": 1, "Y": -1}, "interpolation": 2}]}, "perspective_c2_y": {"Points": [{"co": {"X": 1, "Y": -1}, "interpolation": 2}]}, "perspective_c3_x": {"Points": [{"co": {"X": 1, "Y": -1}, "interpolation": 2}]}, "perspective_c3_y": {"Points": [{"co": {"X": 1, "Y": -1}, "interpolation": 2}]}, "perspective_c4_x": {"Points": [{"co": {"X": 1, "Y": -1}, "interpolation": 2}]}, "perspective_c4_y": {"Points": [{"co": {"X": 1, "Y": -1}, "interpolation": 2}]}, "position": 111.56666666666666, "reader": {"acodec": "pcm_s16le", "audio_bit_rate": 1536000, "audio_stream_index": 1, "audio_timebase": {"den": 48000, "num": 1}, "channel_layout": 3, "channels": 2, "display_ratio": {"den": 9, "num": 16}, "duration": 22.479999542236328, "file_size": "75669948", "fps": {"den": 1, "num": 50}, "has_audio": true, "has_single_image": false, "has_video": true, "height": 720, "interlaced_frame": false, "metadata": {"com.apple.quicktime.make": "Canon", "com.apple.quicktime.model": "Canon EOS 5D Mark III", "com.apple.quicktime.rating.user": "0.000000", "compatible_brands": "qt  CAEP", "creation_time": "2022-02-27T15:47:16.000000Z", "language": "eng", "major_brand": "qt", "minor_version": "537331968", "timecode": "04:04:39:04"}, "path": "/home/teacher/\u0412\u0438\u0434\u0435\u043e/lyzhi/good/IMG_3214.MOV", "pixel_format": 12, "pixel_ratio": {"den": 1, "num": 1}, "sample_rate": 48000, "top_field_first": true, "type": "FFmpegReader", "vcodec": "h264", "video_bit_rate": 3366100, "video_length": "1124", "video_stream_index": 0, "video_timebase": {"den": 50000, "num": 1}, "width": 1280}, "rotation": {"Points": [{"co": {"X": 1, "Y": 0}, "interpolation": 2}]}, "scale": 1, "scale_x": {"Points": [{"co": {"X": 1, "Y": 1}, "interpolation": 2}]}, "scale_y": {"Points": [{"co": {"X": 1, "Y": 1}, "interpolation": 2}]}, "shear_x": {"Points": [{"co": {"X": 1, "Y": 0}, "interpolation": 2}]}, "shear_y": {"Points": [{"co": {"X": 1, "Y": 0}, "interpolation": 2}]}, "start": 17.466666666666665, "time": {"Points": [{"co": {"X": 1, "Y": 1}, "interpolation": 2}]}, "volume": {"Points": [{"co": {"X": 1, "Y": 1}, "interpolation": 2}]}, "wave_color": {"alpha": {"Points": [{"co": {"X": 1, "Y": 255}, "handle_left": {"X": 0.5, "Y": 1}, "handle_right": {"X": 0.5, "Y": 0}, "handle_type": 0, "interpolation": 0}]}, "blue": {"Points": [{"co": {"X": 1, "Y": 255}, "handle_left": {"X": 0.5, "Y": 1}, "handle_right": {"X": 0.5, "Y": 0}, "handle_type": 0, "interpolation": 0}]}, "green": {"Points": [{"co": {"X": 1, "Y": 123}, "handle_left": {"X": 0.5, "Y": 1}, "handle_right": {"X": 0.5, "Y": 0}, "handle_type": 0, "interpolation": 0}]}, "red": {"Points": [{"co": {"X": 1, "Y": 0}, "handle_left": {"X": 0.5, "Y": 1}, "handle_right": {"X": 0.5, "Y": 0}, "handle_type": 0, "interpolation": 0}]}}, "waveform": false, "file_id": "YTWXDKIQI8", "title": "IMG_3214.MOV", "image": "/home/teacher/.openshot_qt/thumbnail/IBHVL9N2ZK-679.png", "id": "IBHVL9N2ZK"}, {"alpha": {"Points": [{"co": {"X": 1, "Y": 1}, "interpolation": 2}]}, "anchor": 0, "channel_filter": {"Points": [{"co": {"X": 1, "Y": -1}, "interpolation": 2}]}, "channel_mapping": {"Points": [{"co": {"X": 1, "Y": -1}, "interpolation": 2}]}, "crop_height": {"Points": [{"co": {"X": 1, "Y": -1}, "interpolation": 2}]}, "crop_width": {"Points": [{"co": {"X": 1, "Y": -1}, "interpolation": 2}]}, "crop_x": {"Points": [{"co": {"X": 1, "Y": 0}, "interpolation": 2}]}, "crop_y": {"Points": [{"co": {"X": 1, "Y": 0}, "interpolation": 2}]}, "display": 0, "duration": 9.479999542236328, "effects": [], "end": 5.466666666666667, "gravity": 4, "has_audio": {"Points": [{"co": {"X": 1, "Y": 0}, "interpolation": 2}]}, "has_video": {"Points": [{"co": {"X": 1, "Y": -1}, "interpolation": 2}]}, "id": "4XFB9HOZ3G", "layer": 4, "location_x": {"Points": [{"co": {"X": 1, "Y": 0}, "interpolation": 2}]}, "location_y": {"Points": [{"co": {"X": 1, "Y": 0}, "interpolation": 2}]}, "mixing": 0, "perspective_c1_x": {"Points": [{"co": {"X": 1, "Y": -1}, "interpolation": 2}]}, "perspective_c1_y": {"Points": [{"co": {"X": 1, "Y": -1}, "interpolation": 2}]}, "perspective_c2_x": {"Points": [{"co": {"X": 1, "Y": -1}, "interpolation": 2}]}, "perspective_c2_y": {"Points": [{"co": {"X": 1, "Y": -1}, "interpolation": 2}]}, "perspective_c3_x": {"Points": [{"co": {"X": 1, "Y": -1}, "interpolation": 2}]}, "perspective_c3_y": {"Points": [{"co": {"X": 1, "Y": -1}, "interpolation": 2}]}, "perspective_c4_x": {"Points": [{"co": {"X": 1, "Y": -1}, "interpolation": 2}]}, "perspective_c4_y": {"Points": [{"co": {"X": 1, "Y": -1}, "interpolation": 2}]}, "position": 115.26666666666667, "reader": {"acodec": "pcm_s16le", "audio_bit_rate": 1536000, "audio_stream_index": 1, "audio_timebase": {"den": 48000, "num": 1}, "channel_layout": 3, "channels": 2, "display_ratio": {"den": 9, "num": 16}, "duration": 9.479999542236328, "file_size": "32393688", "fps": {"den": 1, "num": 50}, "has_audio": true, "has_single_image": false, "has_video": true, "height": 720, "interlaced_frame": false, "metadata": {"com.apple.quicktime.make": "Canon", "com.apple.quicktime.model": "Canon EOS 5D Mark III", "com.apple.quicktime.rating.user": "0.000000", "compatible_brands": "qt  CAEP", "creation_time": "2022-02-27T15:48:28.000000Z", "language": "eng", "major_brand": "qt", "minor_version": "537331968", "timecode": "04:05:01:16"}, "path": "/home/teacher/\u0412\u0438\u0434\u0435\u043e/lyzhi/good/IMG_3215.MOV", "pixel_format": 12, "pixel_ratio": {"den": 1, "num": 1}, "sample_rate": 48000, "top_field_first": true, "type": "FFmpegReader", "vcodec": "h264", "video_bit_rate": 3417055, "video_length": "474", "video_stream_index": 0, "video_timebase": {"den": 50000, "num": 1}, "width": 1280}, "rotation": {"Points": [{"co": {"X": 1, "Y": 0}, "interpolation": 2}]}, "scale": 1, "scale_x": {"Points": [{"co": {"X": 1, "Y": 1}, "interpolation": 2}]}, "scale_y": {"Points": [{"co": {"X": 1, "Y": 1}, "interpolation": 2}]}, "shear_x": {"Points": [{"co": {"X": 1, "Y": 0}, "interpolation": 2}]}, "shear_y": {"Points": [{"co": {"X": 1, "Y": 0}, "interpolation": 2}]}, "start": 3, "time": {"Points": [{"co": {"X": 1, "Y": 1}, "interpolation": 2}]}, "volume": {"Points": [{"co": {"X": 1, "Y": 1}, "interpolation": 2}]}, "wave_color": {"alpha": {"Points": [{"co": {"X": 1, "Y": 255}, "handle_left": {"X": 0.5, "Y": 1}, "handle_right": {"X": 0.5, "Y": 0}, "handle_type": 0, "interpolation": 0}]}, "blue": {"Points": [{"co": {"X": 1, "Y": 255}, "handle_left": {"X": 0.5, "Y": 1}, "handle_right": {"X": 0.5, "Y": 0}, "handle_type": 0, "interpolation": 0}]}, "green": {"Points": [{"co": {"X": 1, "Y": 123}, "handle_left": {"X": 0.5, "Y": 1}, "handle_right": {"X": 0.5, "Y": 0}, "handle_type": 0, "interpolation": 0}]}, "red": {"Points": [{"co": {"X": 1, "Y": 0}, "handle_left": {"X": 0.5, "Y": 1}, "handle_right": {"X": 0.5, "Y": 0}, "handle_type": 0, "interpolation": 0}]}}, "waveform": false, "file_id": "XBBVP3S87Y", "title": "IMG_3215.MOV", "image": "/home/teacher/.openshot_qt/thumbnail/4XFB9HOZ3G-226.png"}, {"alpha": {"Points": [{"co": {"X": 1, "Y": 1}, "interpolation": 2}]}, "anchor": 0, "channel_filter": {"Points": [{"co": {"X": 1, "Y": -1}, "interpolation": 2}]}, "channel_mapping": {"Points": [{"co": {"X": 1, "Y": -1}, "interpolation": 2}]}, "crop_height": {"Points": [{"co": {"X": 1, "Y": -1}, "interpolation": 2}]}, "crop_width": {"Points": [{"co": {"X": 1, "Y": -1}, "interpolation": 2}]}, "crop_x": {"Points": [{"co": {"X": 1, "Y": 0}, "interpolation": 2}]}, "crop_y": {"Points": [{"co": {"X": 1, "Y": 0}, "interpolation": 2}]}, "display": 0, "duration": 11.079999923706055, "effects": [], "end": 9.266666666666667, "gravity": 4, "has_audio": {"Points": [{"co": {"X": 1, "Y": 0}, "interpolation": 2}]}, "has_video": {"Points": [{"co": {"X": 1, "Y": -1}, "interpolation": 2}]}, "id": "69ZI9VJE6N", "layer": 4, "location_x": {"Points": [{"co": {"X": 1, "Y": 0}, "interpolation": 2}]}, "location_y": {"Points": [{"co": {"X": 1, "Y": 0}, "interpolation": 2}]}, "mixing": 0, "perspective_c1_x": {"Points": [{"co": {"X": 1, "Y": -1}, "interpolation": 2}]}, "perspective_c1_y": {"Points": [{"co": {"X": 1, "Y": -1}, "interpolation": 2}]}, "perspective_c2_x": {"Points": [{"co": {"X": 1, "Y": -1}, "interpolation": 2}]}, "perspective_c2_y": {"Points": [{"co": {"X": 1, "Y": -1}, "interpolation": 2}]}, "perspective_c3_x": {"Points": [{"co": {"X": 1, "Y": -1}, "interpolation": 2}]}, "perspective_c3_y": {"Points": [{"co": {"X": 1, "Y": -1}, "interpolation": 2}]}, "perspective_c4_x": {"Points": [{"co": {"X": 1, "Y": -1}, "interpolation": 2}]}, "perspective_c4_y": {"Points": [{"co": {"X": 1, "Y": -1}, "interpolation": 2}]}, "position": 117.5, "reader": {"acodec": "pcm_s16le", "audio_bit_rate": 1536000, "audio_stream_index": 1, "audio_timebase": {"den": 48000, "num": 1}, "channel_layout": 3, "channels": 2, "display_ratio": {"den": 9, "num": 16}, "duration": 11.079999923706055, "file_size": "38054488", "fps": {"den": 1, "num": 50}, "has_audio": true, "has_single_image": false, "has_video": true, "height": 720, "interlaced_frame": false, "metadata": {"com.apple.quicktime.make": "Canon", "com.apple.quicktime.model": "Canon EOS 5D Mark III", "com.apple.quicktime.rating.user": "0.000000", "compatible_brands": "qt  CAEP", "creation_time": "2022-02-27T15:49:27.000000Z", "language": "eng", "major_brand": "qt", "minor_version": "537331968", "timecode": "04:05:42:19"}, "path": "/home/teacher/\u0412\u0438\u0434\u0435\u043e/lyzhi/good/IMG_3219.MOV", "pixel_format": 12, "pixel_ratio": {"den": 1, "num": 1}, "sample_rate": 48000, "top_field_first": true, "type": "FFmpegReader", "vcodec": "h264", "video_bit_rate": 3434520, "video_length": "554", "video_stream_index": 0, "video_timebase": {"den": 50000, "num": 1}, "width": 1280}, "rotation": {"Points": [{"co": {"X": 1, "Y": 0}, "interpolation": 2}]}, "scale": 1, "scale_x": {"Points": [{"co": {"X": 1, "Y": 1}, "interpolation": 2}]}, "scale_y": {"Points": [{"co": {"X": 1, "Y": 1}, "interpolation": 2}]}, "shear_x": {"Points": [{"co": {"X": 1, "Y": 0}, "interpolation": 2}]}, "shear_y": {"Points": [{"co": {"X": 1, "Y": 0}, "interpolation": 2}]}, "start": 5.9, "time": {"Points": [{"co": {"X": 1, "Y": 1}, "interpolation": 2}]}, "volume": {"Points": [{"co": {"X": 1, "Y": 1}, "interpolation": 2}]}, "wave_color": {"alpha": {"Points": [{"co": {"X": 1, "Y": 255}, "handle_left": {"X": 0.5, "Y": 1}, "handle_right": {"X": 0.5, "Y": 0}, "handle_type": 0, "interpolation": 0}]}, "blue": {"Points": [{"co": {"X": 1, "Y": 255}, "handle_left": {"X": 0.5, "Y": 1}, "handle_right": {"X": 0.5, "Y": 0}, "handle_type": 0, "interpolation": 0}]}, "green": {"Points": [{"co": {"X": 1, "Y": 123}, "handle_left": {"X": 0.5, "Y": 1}, "handle_right": {"X": 0.5, "Y": 0}, "handle_type": 0, "interpolation": 0}]}, "red": {"Points": [{"co": {"X": 1, "Y": 0}, "handle_left": {"X": 0.5, "Y": 1}, "handle_right": {"X": 0.5, "Y": 0}, "handle_type": 0, "interpolation": 0}]}}, "waveform": false, "file_id": "JMM1VQN9L4", "title": "IMG_3219.MOV", "image": "/home/teacher/.openshot_qt/thumbnail/JMM1VQN9L4.png"}, {"alpha": {"Points": [{"co": {"X": 1, "Y": 1}, "interpolation": 2}]}, "anchor": 0, "channel_filter": {"Points": [{"co": {"X": 1, "Y": -1}, "interpolation": 2}]}, "channel_mapping": {"Points": [{"co": {"X": 1, "Y": -1}, "interpolation": 2}]}, "crop_height": {"Points": [{"co": {"X": 1, "Y": -1}, "interpolation": 2}]}, "crop_width": {"Points": [{"co": {"X": 1, "Y": -1}, "interpolation": 2}]}, "crop_x": {"Points": [{"co": {"X": 1, "Y": 0}, "interpolation": 2}]}, "crop_y": {"Points": [{"co": {"X": 1, "Y": 0}, "interpolation": 2}]}, "display": 0, "duration": 19.280000686645508, "effects": [], "end": 13.433333333333334, "gravity": 4, "has_audio": {"Points": [{"co": {"X": 1, "Y": 0}, "interpolation": 2}]}, "has_video": {"Points": [{"co": {"X": 1, "Y": -1}, "interpolation": 2}]}, "id": "P2QGMM9DKE", "layer": 4, "location_x": {"Points": [{"co": {"X": 1, "Y": 0}, "interpolation": 2}]}, "location_y": {"Points": [{"co": {"X": 1, "Y": 0}, "interpolation": 2}]}, "mixing": 0, "perspective_c1_x": {"Points": [{"co": {"X": 1, "Y": -1}, "interpolation": 2}]}, "perspective_c1_y": {"Points": [{"co": {"X": 1, "Y": -1}, "interpolation": 2}]}, "perspective_c2_x": {"Points": [{"co": {"X": 1, "Y": -1}, "interpolation": 2}]}, "perspective_c2_y": {"Points": [{"co": {"X": 1, "Y": -1}, "interpolation": 2}]}, "perspective_c3_x": {"Points": [{"co": {"X": 1, "Y": -1}, "interpolation": 2}]}, "perspective_c3_y": {"Points": [{"co": {"X": 1, "Y": -1}, "interpolation": 2}]}, "perspective_c4_x": {"Points": [{"co": {"X": 1, "Y": -1}, "interpolation": 2}]}, "perspective_c4_y": {"Points": [{"co": {"X": 1, "Y": -1}, "interpolation": 2}]}, "position": 120.86666666666666, "reader": {"acodec": "pcm_s16le", "audio_bit_rate": 1536000, "audio_stream_index": 1, "audio_timebase": {"den": 48000, "num": 1}, "channel_layout": 3, "channels": 2, "display_ratio": {"den": 9, "num": 16}, "duration": 19.280000686645508, "file_size": "66087668", "fps": {"den": 1, "num": 50}, "has_audio": true, "has_single_image": false, "has_video": true, "height": 720, "interlaced_frame": false, "metadata": {"com.apple.quicktime.make": "Canon", "com.apple.quicktime.model": "Canon EOS 5D Mark III", "com.apple.quicktime.rating.user": "0.000000", "compatible_brands": "qt  CAEP", "creation_time": "2022-02-27T16:04:31.000000Z", "language": "eng", "major_brand": "qt", "minor_version": "537331968", "timecode": "04:07:36:08"}, "path": "/home/teacher/\u0412\u0438\u0434\u0435\u043e/lyzhi/good/IMG_3229.MOV", "pixel_format": 12, "pixel_ratio": {"den": 1, "num": 1}, "sample_rate": 48000, "top_field_first": true, "type": "FFmpegReader", "vcodec": "h264", "video_bit_rate": 3427783, "video_length": "964", "video_stream_index": 0, "video_timebase": {"den": 50000, "num": 1}, "width": 1280}, "rotation": {"Points": [{"co": {"X": 1, "Y": 0}, "interpolation": 2}]}, "scale": 1, "scale_x": {"Points": [{"co": {"X": 1, "Y": 1}, "interpolation": 2}]}, "scale_y": {"Points": [{"co": {"X": 1, "Y": 1}, "interpolation": 2}]}, "shear_x": {"Points": [{"co": {"X": 1, "Y": 0}, "interpolation": 2}]}, "shear_y": {"Points": [{"co": {"X": 1, "Y": 0}, "interpolation": 2}]}, "start": 10.466666666666667, "time": {"Points": [{"co": {"X": 1, "Y": 1}, "interpolation": 2}]}, "volume": {"Points": [{"co": {"X": 1, "Y": 1}, "interpolation": 2}]}, "wave_color": {"alpha": {"Points": [{"co": {"X": 1, "Y": 255}, "handle_left": {"X": 0.5, "Y": 1}, "handle_right": {"X": 0.5, "Y": 0}, "handle_type": 0, "interpolation": 0}]}, "blue": {"Points": [{"co": {"X": 1, "Y": 255}, "handle_left": {"X": 0.5, "Y": 1}, "handle_right": {"X": 0.5, "Y": 0}, "handle_type": 0, "interpolation": 0}]}, "green": {"Points": [{"co": {"X": 1, "Y": 123}, "handle_left": {"X": 0.5, "Y": 1}, "handle_right": {"X": 0.5, "Y": 0}, "handle_type": 0, "interpolation": 0}]}, "red": {"Points": [{"co": {"X": 1, "Y": 0}, "handle_left": {"X": 0.5, "Y": 1}, "handle_right": {"X": 0.5, "Y": 0}, "handle_type": 0, "interpolation": 0}]}}, "waveform": false, "file_id": "K7P7UCSPFA", "title": "IMG_3229.MOV", "image": "/home/teacher/.openshot_qt/thumbnail/K7P7UCSPFA.png"}, {"alpha": {"Points": [{"co": {"X": 1, "Y": 1}, "interpolation": 2}]}, "anchor": 0, "channel_filter": {"Points": [{"co": {"X": 1, "Y": -1}, "interpolation": 2}]}, "channel_mapping": {"Points": [{"co": {"X": 1, "Y": -1}, "interpolation": 2}]}, "crop_height": {"Points": [{"co": {"X": 1, "Y": -1}, "interpolation": 2}]}, "crop_width": {"Points": [{"co": {"X": 1, "Y": -1}, "interpolation": 2}]}, "crop_x": {"Points": [{"co": {"X": 1, "Y": 0}, "interpolation": 2}]}, "crop_y": {"Points": [{"co": {"X": 1, "Y": 0}, "interpolation": 2}]}, "display": 0, "duration": 53.0, "effects": [], "end": 6.7, "gravity": 4, "has_audio": {"Points": [{"co": {"X": 1, "Y": 0}, "interpolation": 2}]}, "has_video": {"Points": [{"co": {"X": 1, "Y": -1}, "interpolation": 2}]}, "id": "S090BV28O3", "layer": 4, "location_x": {"Points": [{"co": {"X": 1, "Y": 0}, "interpolation": 2}]}, "location_y": {"Points": [{"co": {"X": 1, "Y": 0}, "interpolation": 2}]}, "mixing": 0, "perspective_c1_x": {"Points": [{"co": {"X": 1, "Y": -1}, "interpolation": 2}]}, "perspective_c1_y": {"Points": [{"co": {"X": 1, "Y": -1}, "interpolation": 2}]}, "perspective_c2_x": {"Points": [{"co": {"X": 1, "Y": -1}, "interpolation": 2}]}, "perspective_c2_y": {"Points": [{"co": {"X": 1, "Y": -1}, "interpolation": 2}]}, "perspective_c3_x": {"Points": [{"co": {"X": 1, "Y": -1}, "interpolation": 2}]}, "perspective_c3_y": {"Points": [{"co": {"X": 1, "Y": -1}, "interpolation": 2}]}, "perspective_c4_x": {"Points": [{"co": {"X": 1, "Y": -1}, "interpolation": 2}]}, "perspective_c4_y": {"Points": [{"co": {"X": 1, "Y": -1}, "interpolation": 2}]}, "position": 132.53333333333333, "reader": {"acodec": "pcm_s16le", "audio_bit_rate": 1536000, "audio_stream_index": 1, "audio_timebase": {"den": 48000, "num": 1}, "channel_layout": 3, "channels": 2, "display_ratio": {"den": 9, "num": 16}, "duration": 53.0, "file_size": "181311560", "fps": {"den": 1, "num": 50}, "has_audio": true, "has_single_image": false, "has_video": true, "height": 720, "interlaced_frame": false, "metadata": {"com.apple.quicktime.make": "Canon", "com.apple.quicktime.model": "Canon EOS 5D Mark III", "com.apple.quicktime.rating.user": "0.000000", "compatible_brands": "qt  CAEP", "creation_time": "2022-02-27T17:13:41.000000Z", "language": "eng", "major_brand": "qt", "minor_version": "537331968", "timecode": "04:09:36:20"}, "path": "/home/teacher/\u0412\u0438\u0434\u0435\u043e/lyzhi/good/IMG_3239.MOV", "pixel_format": 12, "pixel_ratio": {"den": 1, "num": 1}, "sample_rate": 48000, "top_field_first": true, "type": "FFmpegReader", "vcodec": "h264", "video_bit_rate": 3420972, "video_length": "2650", "video_stream_index": 0, "video_timebase": {"den": 50000, "num": 1}, "width": 1280}, "rotation": {"Points": [{"co": {"X": 1, "Y": 0}, "interpolation": 2}]}, "scale": 1, "scale_x": {"Points": [{"co": {"X": 1, "Y": 1}, "interpolation": 2}]}, "scale_y": {"Points": [{"co": {"X": 1, "Y": 1}, "interpolation": 2}]}, "shear_x": {"Points": [{"co": {"X": 1, "Y": 0}, "interpolation": 2}]}, "shear_y": {"Points": [{"co": {"X": 1, "Y": 0}, "interpolation": 2}]}, "start": 2.3, "time": {"Points": [{"co": {"X": 1, "Y": 1}, "interpolation": 2}]}, "volume": {"Points": [{"co": {"X": 1, "Y": 1}, "interpolation": 2}]}, "wave_color": {"alpha": {"Points": [{"co": {"X": 1, "Y": 255}, "handle_left": {"X": 0.5, "Y": 1}, "handle_right": {"X": 0.5, "Y": 0}, "handle_type": 0, "interpolation": 0}]}, "blue": {"Points": [{"co": {"X": 1, "Y": 255}, "handle_left": {"X": 0.5, "Y": 1}, "handle_right": {"X": 0.5, "Y": 0}, "handle_type": 0, "interpolation": 0}]}, "green": {"Points": [{"co": {"X": 1, "Y": 123}, "handle_left": {"X": 0.5, "Y": 1}, "handle_right": {"X": 0.5, "Y": 0}, "handle_type": 0, "interpolation": 0}]}, "red": {"Points": [{"co": {"X": 1, "Y": 0}, "handle_left": {"X": 0.5, "Y": 1}, "handle_right": {"X": 0.5, "Y": 0}, "handle_type": 0, "interpolation": 0}]}}, "waveform": false, "file_id": "GP0R3T69I4", "title": "IMG_3239.MOV", "image": "/home/teacher/.openshot_qt/thumbnail/S090BV28O3-66.png"}, {"alpha": {"Points": [{"co": {"X": 1, "Y": 1}, "interpolation": 2}]}, "anchor": 0, "channel_filter": {"Points": [{"co": {"X": 1, "Y": -1}, "interpolation": 2}]}, "channel_mapping": {"Points": [{"co": {"X": 1, "Y": -1}, "interpolation": 2}]}, "crop_height": {"Points": [{"co": {"X": 1, "Y": -1}, "interpolation": 2}]}, "crop_width": {"Points": [{"co": {"X": 1, "Y": -1}, "interpolation": 2}]}, "crop_x": {"Points": [{"co": {"X": 1, "Y": 0}, "interpolation": 2}]}, "crop_y": {"Points": [{"co": {"X": 1, "Y": 0}, "interpolation": 2}]}, "display": 0, "duration": 53.0, "effects": [], "end": 11.833333333333334, "gravity": 4, "has_audio": {"Points": [{"co": {"X": 1, "Y": 0}, "interpolation": 2}]}, "has_video": {"Points": [{"co": {"X": 1, "Y": -1}, "interpolation": 2}]}, "layer": 4, "location_x": {"Points": [{"co": {"X": 1, "Y": 0}, "interpolation": 2}]}, "location_y": {"Points": [{"co": {"X": 1, "Y": 0}, "interpolation": 2}]}, "mixing": 0, "perspective_c1_x": {"Points": [{"co": {"X": 1, "Y": -1}, "interpolation": 2}]}, "perspective_c1_y": {"Points": [{"co": {"X": 1, "Y": -1}, "interpolation": 2}]}, "perspective_c2_x": {"Points": [{"co": {"X": 1, "Y": -1}, "interpolation": 2}]}, "perspective_c2_y": {"Points": [{"co": {"X": 1, "Y": -1}, "interpolation": 2}]}, "perspective_c3_x": {"Points": [{"co": {"X": 1, "Y": -1}, "interpolation": 2}]}, "perspective_c3_y": {"Points": [{"co": {"X": 1, "Y": -1}, "interpolation": 2}]}, "perspective_c4_x": {"Points": [{"co": {"X": 1, "Y": -1}, "interpolation": 2}]}, "perspective_c4_y": {"Points": [{"co": {"X": 1, "Y": -1}, "interpolation": 2}]}, "position": 136.93333333333334, "reader": {"acodec": "pcm_s16le", "audio_bit_rate": 1536000, "audio_stream_index": 1, "audio_timebase": {"den": 48000, "num": 1}, "channel_layout": 3, "channels": 2, "display_ratio": {"den": 9, "num": 16}, "duration": 53.0, "file_size": "181311560", "fps": {"den": 1, "num": 50}, "has_audio": true, "has_single_image": false, "has_video": true, "height": 720, "interlaced_frame": false, "metadata": {"com.apple.quicktime.make": "Canon", "com.apple.quicktime.model": "Canon EOS 5D Mark III", "com.apple.quicktime.rating.user": "0.000000", "compatible_brands": "qt  CAEP", "creation_time": "2022-02-27T17:13:41.000000Z", "language": "eng", "major_brand": "qt", "minor_version": "537331968", "timecode": "04:09:36:20"}, "path": "/home/teacher/\u0412\u0438\u0434\u0435\u043e/lyzhi/good/IMG_3239.MOV", "pixel_format": 12, "pixel_ratio": {"den": 1, "num": 1}, "sample_rate": 48000, "top_field_first": true, "type": "FFmpegReader", "vcodec": "h264", "video_bit_rate": 3420972, "video_length": "2650", "video_stream_index": 0, "video_timebase": {"den": 50000, "num": 1}, "width": 1280}, "rotation": {"Points": [{"co": {"X": 1, "Y": 0}, "interpolation": 2}]}, "scale": 1, "scale_x": {"Points": [{"co": {"X": 1, "Y": 1}, "interpolation": 2}]}, "scale_y": {"Points": [{"co": {"X": 1, "Y": 1}, "interpolation": 2}]}, "shear_x": {"Points": [{"co": {"X": 1, "Y": 0}, "interpolation": 2}]}, "shear_y": {"Points": [{"co": {"X": 1, "Y": 0}, "interpolation": 2}]}, "start": 10.066666666666666, "time": {"Points": [{"co": {"X": 1, "Y": 1}, "interpolation": 2}]}, "volume": {"Points": [{"co": {"X": 1, "Y": 1}, "interpolation": 2}]}, "wave_color": {"alpha": {"Points": [{"co": {"X": 1, "Y": 255}, "handle_left": {"X": 0.5, "Y": 1}, "handle_right": {"X": 0.5, "Y": 0}, "handle_type": 0, "interpolation": 0}]}, "blue": {"Points": [{"co": {"X": 1, "Y": 255}, "handle_left": {"X": 0.5, "Y": 1}, "handle_right": {"X": 0.5, "Y": 0}, "handle_type": 0, "interpolation": 0}]}, "green": {"Points": [{"co": {"X": 1, "Y": 123}, "handle_left": {"X": 0.5, "Y": 1}, "handle_right": {"X": 0.5, "Y": 0}, "handle_type": 0, "interpolation": 0}]}, "red": {"Points": [{"co": {"X": 1, "Y": 0}, "handle_left": {"X": 0.5, "Y": 1}, "handle_right": {"X": 0.5, "Y": 0}, "handle_type": 0, "interpolation": 0}]}}, "waveform": false, "file_id": "GP0R3T69I4", "title": "IMG_3239.MOV", "image": "/home/teacher/.openshot_qt/thumbnail/EEBX6PFH0T-504.png", "id": "EEBX6PFH0T"}, {"alpha": {"Points": [{"co": {"X": 1, "Y": 1}, "interpolation": 2}]}, "anchor": 0, "channel_filter": {"Points": [{"co": {"X": 1, "Y": -1}, "interpolation": 2}]}, "channel_mapping": {"Points": [{"co": {"X": 1, "Y": -1}, "interpolation": 2}]}, "crop_height": {"Points": [{"co": {"X": 1, "Y": -1}, "interpolation": 2}]}, "crop_width": {"Points": [{"co": {"X": 1, "Y": -1}, "interpolation": 2}]}, "crop_x": {"Points": [{"co": {"X": 1, "Y": 0}, "interpolation": 2}]}, "crop_y": {"Points": [{"co": {"X": 1, "Y": 0}, "interpolation": 2}]}, "display": 0, "duration": 25.280000686645508, "effects": [], "end": 24.766666666666666, "gravity": 4, "has_audio": {"Points": [{"co": {"X": 1, "Y": 0}, "interpolation": 2}]}, "has_video": {"Points": [{"co": {"X": 1, "Y": -1}, "interpolation": 2}]}, "id": "93G86CMBRP", "layer": 4, "location_x": {"Points": [{"co": {"X": 1, "Y": 0}, "interpolation": 2}]}, "location_y": {"Points": [{"co": {"X": 1, "Y": 0}, "interpolation": 2}]}, "mixing": 0, "perspective_c1_x": {"Points": [{"co": {"X": 1, "Y": -1}, "interpolation": 2}]}, "perspective_c1_y": {"Points": [{"co": {"X": 1, "Y": -1}, "interpolation": 2}]}, "perspective_c2_x": {"Points": [{"co": {"X": 1, "Y": -1}, "interpolation": 2}]}, "perspective_c2_y": {"Points": [{"co": {"X": 1, "Y": -1}, "interpolation": 2}]}, "perspective_c3_x": {"Points": [{"co": {"X": 1, "Y": -1}, "interpolation": 2}]}, "perspective_c3_y": {"Points": [{"co": {"X": 1, "Y": -1}, "interpolation": 2}]}, "perspective_c4_x": {"Points": [{"co": {"X": 1, "Y": -1}, "interpolation": 2}]}, "perspective_c4_y": {"Points": [{"co": {"X": 1, "Y": -1}, "interpolation": 2}]}, "position": 138.7, "reader": {"acodec": "pcm_s16le", "audio_bit_rate": 1536000, "audio_stream_index": 1, "audio_timebase": {"den": 48000, "num": 1}, "channel_layout": 3, "channels": 2, "display_ratio": {"den": 9, "num": 16}, "duration": 25.280000686645508, "file_size": "86795292", "fps": {"den": 1, "num": 50}, "has_audio": true, "has_single_image": false, "has_video": true, "height": 720, "interlaced_frame": false, "metadata": {"com.apple.quicktime.make": "Canon", "com.apple.quicktime.model": "Canon EOS 5D Mark III", "com.apple.quicktime.rating.user": "0.000000", "compatible_brands": "qt  CAEP", "creation_time": "2022-02-27T17:15:31.000000Z", "language": "eng", "major_brand": "qt", "minor_version": "537331968", "timecode": "04:10:51:16"}, "path": "/home/teacher/\u0412\u0438\u0434\u0435\u043e/lyzhi/good/IMG_3241.MOV", "pixel_format": 12, "pixel_ratio": {"den": 1, "num": 1}, "sample_rate": 48000, "top_field_first": true, "type": "FFmpegReader", "vcodec": "h264", "video_bit_rate": 3433358, "video_length": "1264", "video_stream_index": 0, "video_timebase": {"den": 50000, "num": 1}, "width": 1280}, "rotation": {"Points": [{"co": {"X": 1, "Y": 0}, "interpolation": 2}]}, "scale": 1, "scale_x": {"Points": [{"co": {"X": 1, "Y": 1}, "interpolation": 2}]}, "scale_y": {"Points": [{"co": {"X": 1, "Y": 1}, "interpolation": 2}]}, "shear_x": {"Points": [{"co": {"X": 1, "Y": 0}, "interpolation": 2}]}, "shear_y": {"Points": [{"co": {"X": 1, "Y": 0}, "interpolation": 2}]}, "start": 22.1, "time": {"Points": [{"co": {"X": 1, "Y": 1}, "interpolation": 2}]}, "volume": {"Points": [{"co": {"X": 1, "Y": 1}, "interpolation": 2}]}, "wave_color": {"alpha": {"Points": [{"co": {"X": 1, "Y": 255}, "handle_left": {"X": 0.5, "Y": 1}, "handle_right": {"X": 0.5, "Y": 0}, "handle_type": 0, "interpolation": 0}]}, "blue": {"Points": [{"co": {"X": 1, "Y": 255}, "handle_left": {"X": 0.5, "Y": 1}, "handle_right": {"X": 0.5, "Y": 0}, "handle_type": 0, "interpolation": 0}]}, "green": {"Points": [{"co": {"X": 1, "Y": 123}, "handle_left": {"X": 0.5, "Y": 1}, "handle_right": {"X": 0.5, "Y": 0}, "handle_type": 0, "interpolation": 0}]}, "red": {"Points": [{"co": {"X": 1, "Y": 0}, "handle_left": {"X": 0.5, "Y": 1}, "handle_right": {"X": 0.5, "Y": 0}, "handle_type": 0, "interpolation": 0}]}}, "waveform": false, "file_id": "ERIGJC5OO2", "title": "IMG_3241.MOV", "image": "/home/teacher/.openshot_qt/thumbnail/ERIGJC5OO2.png"}, {"alpha": {"Points": [{"co": {"X": 1, "Y": 1}, "interpolation": 2}]}, "anchor": 0, "channel_filter": {"Points": [{"co": {"X": 1, "Y": -1}, "interpolation": 2}]}, "channel_mapping": {"Points": [{"co": {"X": 1, "Y": -1}, "interpolation": 2}]}, "crop_height": {"Points": [{"co": {"X": 1, "Y": -1}, "interpolation": 2}]}, "crop_width": {"Points": [{"co": {"X": 1, "Y": -1}, "interpolation": 2}]}, "crop_x": {"Points": [{"co": {"X": 1, "Y": 0}, "interpolation": 2}]}, "crop_y": {"Points": [{"co": {"X": 1, "Y": 0}, "interpolation": 2}]}, "display": 0, "duration": 25.68000030517578, "effects": [], "end": 14.800000000000006, "gravity": 4, "has_audio": {"Points": [{"co": {"X": 1, "Y": 0}, "interpolation": 2}]}, "has_video": {"Points": [{"co": {"X": 1, "Y": -1}, "interpolation": 2}]}, "id": "P8G7I0KOPM", "layer": 4, "location_x": {"Points": [{"co": {"X": 1, "Y": 0}, "interpolation": 2}]}, "location_y": {"Points": [{"co": {"X": 1, "Y": 0}, "interpolation": 2}]}, "mixing": 0, "perspective_c1_x": {"Points": [{"co": {"X": 1, "Y": -1}, "interpolation": 2}]}, "perspective_c1_y": {"Points": [{"co": {"X": 1, "Y": -1}, "interpolation": 2}]}, "perspective_c2_x": {"Points": [{"co": {"X": 1, "Y": -1}, "interpolation": 2}]}, "perspective_c2_y": {"Points": [{"co": {"X": 1, "Y": -1}, "interpolation": 2}]}, "perspective_c3_x": {"Points": [{"co": {"X": 1, "Y": -1}, "interpolation": 2}]}, "perspective_c3_y": {"Points": [{"co": {"X": 1, "Y": -1}, "interpolation": 2}]}, "perspective_c4_x": {"Points": [{"co": {"X": 1, "Y": -1}, "interpolation": 2}]}, "perspective_c4_y": {"Points": [{"co": {"X": 1, "Y": -1}, "interpolation": 2}]}, "position": 141.36666666666667, "reader": {"acodec": "pcm_s16le", "audio_bit_rate": 1536000, "audio_stream_index": 1, "audio_timebase": {"den": 48000, "num": 1}, "channel_layout": 3, "channels": 2, "display_ratio": {"den": 9, "num": 16}, "duration": 25.68000030517578, "file_size": "88008968", "fps": {"den": 1, "num": 50}, "has_audio": true, "has_single_image": false, "has_video": true, "height": 720, "interlaced_frame": false, "metadata": {"com.apple.quicktime.make": "Canon", "com.apple.quicktime.model": "Canon EOS 5D Mark III", "com.apple.quicktime.rating.user": "0.000000", "compatible_brands": "qt  CAEP", "creation_time": "2022-02-27T17:16:19.000000Z", "language": "eng", "major_brand": "qt", "minor_version": "537331968", "timecode": "04:11:27:24"}, "path": "/home/teacher/\u0412\u0438\u0434\u0435\u043e/lyzhi/good/IMG_3243.MOV", "pixel_format": 12, "pixel_ratio": {"den": 1, "num": 1}, "sample_rate": 48000, "top_field_first": true, "type": "FFmpegReader", "vcodec": "h264", "video_bit_rate": 3427140, "video_length": "1284", "video_stream_index": 0, "video_timebase": {"den": 50000, "num": 1}, "width": 1280}, "rotation": {"Points": [{"co": {"X": 1, "Y": 0}, "interpolation": 2}]}, "scale": 1, "scale_x": {"Points": [{"co": {"X": 1, "Y": 1}, "interpolation": 2}]}, "scale_y": {"Points": [{"co": {"X": 1, "Y": 1}, "interpolation": 2}]}, "shear_x": {"Points": [{"co": {"X": 1, "Y": 0}, "interpolation": 2}]}, "shear_y": {"Points": [{"co": {"X": 1, "Y": 0}, "interpolation": 2}]}, "start": 6.4, "time": {"Points": [{"co": {"X": 1, "Y": 1}, "interpolation": 2}]}, "volume": {"Points": [{"co": {"X": 1, "Y": 1}, "interpolation": 2}]}, "wave_color": {"alpha": {"Points": [{"co": {"X": 1, "Y": 255}, "handle_left": {"X": 0.5, "Y": 1}, "handle_right": {"X": 0.5, "Y": 0}, "handle_type": 0, "interpolation": 0}]}, "blue": {"Points": [{"co": {"X": 1, "Y": 255}, "handle_left": {"X": 0.5, "Y": 1}, "handle_right": {"X": 0.5, "Y": 0}, "handle_type": 0, "interpolation": 0}]}, "green": {"Points": [{"co": {"X": 1, "Y": 123}, "handle_left": {"X": 0.5, "Y": 1}, "handle_right": {"X": 0.5, "Y": 0}, "handle_type": 0, "interpolation": 0}]}, "red": {"Points": [{"co": {"X": 1, "Y": 0}, "handle_left": {"X": 0.5, "Y": 1}, "handle_right": {"X": 0.5, "Y": 0}, "handle_type": 0, "interpolation": 0}]}}, "waveform": false, "file_id": "2TZKOLOZK2", "title": "IMG_3243.MOV", "image": "/home/teacher/.openshot_qt/thumbnail/2TZKOLOZK2.png"}, {"alpha": {"Points": [{"co": {"X": 1, "Y": 1}, "interpolation": 2}]}, "anchor": 0, "channel_filter": {"Points": [{"co": {"X": 1, "Y": -1}, "interpolation": 2}]}, "channel_mapping": {"Points": [{"co": {"X": 1, "Y": -1}, "interpolation": 2}]}, "crop_height": {"Points": [{"co": {"X": 1, "Y": -1}, "interpolation": 2}]}, "crop_width": {"Points": [{"co": {"X": 1, "Y": -1}, "interpolation": 2}]}, "crop_x": {"Points": [{"co": {"X": 1, "Y": 0}, "interpolation": 2}]}, "crop_y": {"Points": [{"co": {"X": 1, "Y": 0}, "interpolation": 2}]}, "display": 0, "duration": 14.359999656677246, "effects": [], "end": 9.9, "gravity": 4, "has_audio": {"Points": [{"co": {"X": 1, "Y": 0}, "interpolation": 2}]}, "has_video": {"Points": [{"co": {"X": 1, "Y": -1}, "interpolation": 2}]}, "id": "3R67S3LX2Y", "layer": 4, "location_x": {"Points": [{"co": {"X": 1, "Y": 0}, "interpolation": 2}]}, "location_y": {"Points": [{"co": {"X": 1, "Y": 0}, "interpolation": 2}]}, "mixing": 0, "perspective_c1_x": {"Points": [{"co": {"X": 1, "Y": -1}, "interpolation": 2}]}, "perspective_c1_y": {"Points": [{"co": {"X": 1, "Y": -1}, "interpolation": 2}]}, "perspective_c2_x": {"Points": [{"co": {"X": 1, "Y": -1}, "interpolation": 2}]}, "perspective_c2_y": {"Points": [{"co": {"X": 1, "Y": -1}, "interpolation": 2}]}, "perspective_c3_x": {"Points": [{"co": {"X": 1, "Y": -1}, "interpolation": 2}]}, "perspective_c3_y": {"Points": [{"co": {"X": 1, "Y": -1}, "interpolation": 2}]}, "perspective_c4_x": {"Points": [{"co": {"X": 1, "Y": -1}, "interpolation": 2}]}, "perspective_c4_y": {"Points": [{"co": {"X": 1, "Y": -1}, "interpolation": 2}]}, "position": 130.63333333333333, "reader": {"acodec": "pcm_s16le", "audio_bit_rate": 1536000, "audio_stream_index": 1, "audio_timebase": {"den": 48000, "num": 1}, "channel_layout": 3, "channels": 2, "display_ratio": {"den": 9, "num": 16}, "duration": 14.359999656677246, "file_size": "49516112", "fps": {"den": 1, "num": 50}, "has_audio": true, "has_single_image": false, "has_video": true, "height": 720, "interlaced_frame": false, "metadata": {"com.apple.quicktime.make": "Canon", "com.apple.quicktime.model": "Canon EOS 5D Mark III", "com.apple.quicktime.rating.user": "0.000000", "compatible_brands": "qt  CAEP", "creation_time": "2022-02-27T17:21:09.000000Z", "language": "eng", "major_brand": "qt", "minor_version": "537331968", "timecode": "04:14:11:13"}, "path": "/home/teacher/\u0412\u0438\u0434\u0435\u043e/lyzhi/good/IMG_3252.MOV", "pixel_format": 12, "pixel_ratio": {"den": 1, "num": 1}, "sample_rate": 48000, "top_field_first": true, "type": "FFmpegReader", "vcodec": "h264", "video_bit_rate": 3448197, "video_length": "718", "video_stream_index": 0, "video_timebase": {"den": 50000, "num": 1}, "width": 1280}, "rotation": {"Points": [{"co": {"X": 1, "Y": 0}, "interpolation": 2}]}, "scale": 1, "scale_x": {"Points": [{"co": {"X": 1, "Y": 1}, "interpolation": 2}]}, "scale_y": {"Points": [{"co": {"X": 1, "Y": 1}, "interpolation": 2}]}, "shear_x": {"Points": [{"co": {"X": 1, "Y": 0}, "interpolation": 2}]}, "shear_y": {"Points": [{"co": {"X": 1, "Y": 0}, "interpolation": 2}]}, "start": 8, "time": {"Points": [{"co": {"X": 1, "Y": 1}, "interpolation": 2}]}, "volume": {"Points": [{"co": {"X": 1, "Y": 1}, "interpolation": 2}]}, "wave_color": {"alpha": {"Points": [{"co": {"X": 1, "Y": 255}, "handle_left": {"X": 0.5, "Y": 1}, "handle_right": {"X": 0.5, "Y": 0}, "handle_type": 0, "interpolation": 0}]}, "blue": {"Points": [{"co": {"X": 1, "Y": 255}, "handle_left": {"X": 0.5, "Y": 1}, "handle_right": {"X": 0.5, "Y": 0}, "handle_type": 0, "interpolation": 0}]}, "green": {"Points": [{"co": {"X": 1, "Y": 123}, "handle_left": {"X": 0.5, "Y": 1}, "handle_right": {"X": 0.5, "Y": 0}, "handle_type": 0, "interpolation": 0}]}, "red": {"Points": [{"co": {"X": 1, "Y": 0}, "handle_left": {"X": 0.5, "Y": 1}, "handle_right": {"X": 0.5, "Y": 0}, "handle_type": 0, "interpolation": 0}]}}, "waveform": false, "file_id": "HOXCMJH2EV", "title": "IMG_3252.MOV", "image": "/home/teacher/.openshot_qt/thumbnail/HOXCMJH2EV.png"}, {"alpha": {"Points": [{"co": {"X": 1, "Y": 1}, "interpolation": 2}]}, "anchor": 0, "channel_filter": {"Points": [{"co": {"X": 1, "Y": -1}, "interpolation": 2}]}, "channel_mapping": {"Points": [{"co": {"X": 1, "Y": -1}, "interpolation": 2}]}, "crop_height": {"Points": [{"co": {"X": 1, "Y": -1}, "interpolation": 2}]}, "crop_width": {"Points": [{"co": {"X": 1, "Y": -1}, "interpolation": 2}]}, "crop_x": {"Points": [{"co": {"X": 1, "Y": 0}, "interpolation": 2}]}, "crop_y": {"Points": [{"co": {"X": 1, "Y": 0}, "interpolation": 2}]}, "display": 0, "duration": 25.68000030517578, "effects": [], "end": 20.233333333333334, "gravity": 4, "has_audio": {"Points": [{"co": {"X": 1, "Y": 0}, "interpolation": 2}]}, "has_video": {"Points": [{"co": {"X": 1, "Y": -1}, "interpolation": 2}]}, "layer": 4, "location_x": {"Points": [{"co": {"X": 1, "Y": 0}, "interpolation": 2}]}, "location_y": {"Points": [{"co": {"X": 1, "Y": 0}, "interpolation": 2}]}, "mixing": 0, "perspective_c1_x": {"Points": [{"co": {"X": 1, "Y": -1}, "interpolation": 2}]}, "perspective_c1_y": {"Points": [{"co": {"X": 1, "Y": -1}, "interpolation": 2}]}, "perspective_c2_x": {"Points": [{"co": {"X": 1, "Y": -1}, "interpolation": 2}]}, "perspective_c2_y": {"Points": [{"co": {"X": 1, "Y": -1}, "interpolation": 2}]}, "perspective_c3_x": {"Points": [{"co": {"X": 1, "Y": -1}, "interpolation": 2}]}, "perspective_c3_y": {"Points": [{"co": {"X": 1, "Y": -1}, "interpolation": 2}]}, "perspective_c4_x": {"Points": [{"co": {"X": 1, "Y": -1}, "interpolation": 2}]}, "perspective_c4_y": {"Points": [{"co": {"X": 1, "Y": -1}, "interpolation": 2}]}, "position": 149.76666666666668, "reader": {"acodec": "pcm_s16le", "audio_bit_rate": 1536000, "audio_stream_index": 1, "audio_timebase": {"den": 48000, "num": 1}, "channel_layout": 3, "channels": 2, "display_ratio": {"den": 9, "num": 16}, "duration": 25.68000030517578, "file_size": "88008968", "fps": {"den": 1, "num": 50}, "has_audio": true, "has_single_image": false, "has_video": true, "height": 720, "interlaced_frame": false, "metadata": {"com.apple.quicktime.make": "Canon", "com.apple.quicktime.model": "Canon EOS 5D Mark III", "com.apple.quicktime.rating.user": "0.000000", "compatible_brands": "qt  CAEP", "creation_time": "2022-02-27T17:16:19.000000Z", "language": "eng", "major_brand": "qt", "minor_version": "537331968", "timecode": "04:11:27:24"}, "path": "/home/teacher/\u0412\u0438\u0434\u0435\u043e/lyzhi/good/IMG_3243.MOV", "pixel_format": 12, "pixel_ratio": {"den": 1, "num": 1}, "sample_rate": 48000, "top_field_first": true, "type": "FFmpegReader", "vcodec": "h264", "video_bit_rate": 3427140, "video_length": "1284", "video_stream_index": 0, "video_timebase": {"den": 50000, "num": 1}, "width": 1280}, "rotation": {"Points": [{"co": {"X": 1, "Y": 0}, "interpolation": 2}]}, "scale": 1, "scale_x": {"Points": [{"co": {"X": 1, "Y": 1}, "interpolation": 2}]}, "scale_y": {"Points": [{"co": {"X": 1, "Y": 1}, "interpolation": 2}]}, "shear_x": {"Points": [{"co": {"X": 1, "Y": 0}, "interpolation": 2}]}, "shear_y": {"Points": [{"co": {"X": 1, "Y": 0}, "interpolation": 2}]}, "start": 18.066666666666666, "time": {"Points": [{"co": {"X": 1, "Y": 1}, "interpolation": 2}]}, "volume": {"Points": [{"co": {"X": 1, "Y": 1}, "interpolation": 2}]}, "wave_color": {"alpha": {"Points": [{"co": {"X": 1, "Y": 255}, "handle_left": {"X": 0.5, "Y": 1}, "handle_right": {"X": 0.5, "Y": 0}, "handle_type": 0, "interpolation": 0}]}, "blue": {"Points": [{"co": {"X": 1, "Y": 255}, "handle_left": {"X": 0.5, "Y": 1}, "handle_right": {"X": 0.5, "Y": 0}, "handle_type": 0, "interpolation": 0}]}, "green": {"Points": [{"co": {"X": 1, "Y": 123}, "handle_left": {"X": 0.5, "Y": 1}, "handle_right": {"X": 0.5, "Y": 0}, "handle_type": 0, "interpolation": 0}]}, "red": {"Points": [{"co": {"X": 1, "Y": 0}, "handle_left": {"X": 0.5, "Y": 1}, "handle_right": {"X": 0.5, "Y": 0}, "handle_type": 0, "interpolation": 0}]}}, "waveform": false, "file_id": "2TZKOLOZK2", "title": "IMG_3243.MOV", "image": "/home/teacher/.openshot_qt/thumbnail/BPNUDKEDKN-744.png", "id": "BPNUDKEDKN"}, {"alpha": {"Points": [{"co": {"X": 1, "Y": 1}, "interpolation": 2}]}, "anchor": 0, "channel_filter": {"Points": [{"co": {"X": 1, "Y": -1}, "interpolation": 2}]}, "channel_mapping": {"Points": [{"co": {"X": 1, "Y": -1}, "interpolation": 2}]}, "crop_height": {"Points": [{"co": {"X": 1, "Y": -1}, "interpolation": 2}]}, "crop_width": {"Points": [{"co": {"X": 1, "Y": -1}, "interpolation": 2}]}, "crop_x": {"Points": [{"co": {"X": 1, "Y": 0}, "interpolation": 2}]}, "crop_y": {"Points": [{"co": {"X": 1, "Y": 0}, "interpolation": 2}]}, "display": 0, "duration": 6.900000095367432, "effects": [], "end": 6.900000095367432, "gravity": 4, "has_audio": {"Points": [{"co": {"X": 1, "Y": 0}, "interpolation": 2}]}, "has_video": {"Points": [{"co": {"X": 1, "Y": -1}, "interpolation": 2}]}, "id": "4XR3HGNOXJ", "layer": 4, "location_x": {"Points": [{"co": {"X": 1, "Y": 0}, "interpolation": 2}]}, "location_y": {"Points": [{"co": {"X": 1, "Y": 0}, "interpolation": 2}]}, "mixing": 0, "perspective_c1_x": {"Points": [{"co": {"X": 1, "Y": -1}, "interpolation": 2}]}, "perspective_c1_y": {"Points": [{"co": {"X": 1, "Y": -1}, "interpolation": 2}]}, "perspective_c2_x": {"Points": [{"co": {"X": 1, "Y": -1}, "interpolation": 2}]}, "perspective_c2_y": {"Points": [{"co": {"X": 1, "Y": -1}, "interpolation": 2}]}, "perspective_c3_x": {"Points": [{"co": {"X": 1, "Y": -1}, "interpolation": 2}]}, "perspective_c3_y": {"Points": [{"co": {"X": 1, "Y": -1}, "interpolation": 2}]}, "perspective_c4_x": {"Points": [{"co": {"X": 1, "Y": -1}, "interpolation": 2}]}, "perspective_c4_y": {"Points": [{"co": {"X": 1, "Y": -1}, "interpolation": 2}]}, "position": 0, "reader": {"acodec": "", "audio_bit_rate": 0, "audio_stream_index": -1, "audio_timebase": {"den": 1, "num": 1}, "channel_layout": 4, "channels": 0, "display_ratio": {"den": 9, "num": 16}, "duration": 6.900000095367432, "file_size": "64272199", "fps": {"den": 1, "num": 30}, "has_audio": false, "has_single_image": false, "has_video": true, "height": 1080, "interlaced_frame": false, "metadata": {"compatible_brands": "isommp41mp42", "creation_time": "2022-02-28T16:30:14.000000Z", "handler_name": "Core Media Video", "language": "und", "major_brand": "mp42", "minor_version": "1"}, "path": "/home/teacher/\u0412\u0438\u0434\u0435\u043e/lyzhi/good/20220228-213014-636.MP4", "pixel_format": 0, "pixel_ratio": {"den": 1, "num": 1}, "sample_rate": 0, "top_field_first": true, "type": "FFmpegReader", "vcodec": "h264", "video_bit_rate": 9314811, "video_length": "207", "video_stream_index": 0, "video_timebase": {"den": 600, "num": 1}, "width": 1920}, "rotation": {"Points": [{"co": {"X": 1, "Y": 0}, "interpolation": 2}]}, "scale": 1, "scale_x": {"Points": [{"co": {"X": 1, "Y": 1}, "interpolation": 2}]}, "scale_y": {"Points": [{"co": {"X": 1, "Y": 1}, "interpolation": 2}]}, "shear_x": {"Points": [{"co": {"X": 1, "Y": 0}, "interpolation": 2}]}, "shear_y": {"Points": [{"co": {"X": 1, "Y": 0}, "interpolation": 2}]}, "start": 0, "time": {"Points": [{"co": {"X": 1, "Y": 1}, "interpolation": 2}]}, "volume": {"Points": [{"co": {"X": 1, "Y": 1}, "interpolation": 2}]}, "wave_color": {"alpha": {"Points": [{"co": {"X": 1, "Y": 255}, "handle_left": {"X": 0.5, "Y": 1}, "handle_right": {"X": 0.5, "Y": 0}, "handle_type": 0, "interpolation": 0}]}, "blue": {"Points": [{"co": {"X": 1, "Y": 255}, "handle_left": {"X": 0.5, "Y": 1}, "handle_right": {"X": 0.5, "Y": 0}, "handle_type": 0, "interpolation": 0}]}, "green": {"Points": [{"co": {"X": 1, "Y": 123}, "handle_left": {"X": 0.5, "Y": 1}, "handle_right": {"X": 0.5, "Y": 0}, "handle_type": 0, "interpolation": 0}]}, "red": {"Points": [{"co": {"X": 1, "Y": 0}, "handle_left": {"X": 0.5, "Y": 1}, "handle_right": {"X": 0.5, "Y": 0}, "handle_type": 0, "interpolation": 0}]}}, "waveform": false, "file_id": "VM7KF5F56L", "title": "20220228-213014-636.MP4", "image": "/home/teacher/.openshot_qt/thumbnail/VM7KF5F56L.png"}, {"alpha": {"Points": [{"co": {"X": 1, "Y": 1}, "interpolation": 2}]}, "anchor": 0, "channel_filter": {"Points": [{"co": {"X": 1, "Y": -1}, "interpolation": 2}]}, "channel_mapping": {"Points": [{"co": {"X": 1, "Y": -1}, "interpolation": 2}]}, "crop_height": {"Points": [{"co": {"X": 1, "Y": -1}, "interpolation": 2}]}, "crop_width": {"Points": [{"co": {"X": 1, "Y": -1}, "interpolation": 2}]}, "crop_x": {"Points": [{"co": {"X": 1, "Y": 0}, "interpolation": 2}]}, "crop_y": {"Points": [{"co": {"X": 1, "Y": 0}, "interpolation": 2}]}, "display": 0, "duration": 6.923583507537842, "effects": [], "end": 6.633333333333334, "gravity": 4, "has_audio": {"Points": [{"co": {"X": 1, "Y": -1}, "interpolation": 2}]}, "has_video": {"Points": [{"co": {"X": 1, "Y": -1}, "interpolation": 2}]}, "id": "I2PE4NNNDT", "layer": 4, "location_x": {"Points": [{"co": {"X": 1, "Y": 0}, "interpolation": 2}]}, "location_y": {"Points": [{"co": {"X": 1, "Y": 0}, "interpolation": 2}]}, "mixing": 0, "perspective_c1_x": {"Points": [{"co": {"X": 1, "Y": -1}, "interpolation": 2}]}, "perspective_c1_y": {"Points": [{"co": {"X": 1, "Y": -1}, "interpolation": 2}]}, "perspective_c2_x": {"Points": [{"co": {"X": 1, "Y": -1}, "interpolation": 2}]}, "perspective_c2_y": {"Points": [{"co": {"X": 1, "Y": -1}, "interpolation": 2}]}, "perspective_c3_x": {"Points": [{"co": {"X": 1, "Y": -1}, "interpolation": 2}]}, "perspective_c3_y": {"Points": [{"co": {"X": 1, "Y": -1}, "interpolation": 2}]}, "perspective_c4_x": {"Points": [{"co": {"X": 1, "Y": -1}, "interpolation": 2}]}, "perspective_c4_y": {"Points": [{"co": {"X": 1, "Y": -1}, "interpolation": 2}]}, "position": 15.6, "reader": {"acodec": "pcm_s16le", "audio_bit_rate": 1536000, "audio_stream_index": 1, "audio_timebase": {"den": 48000, "num": 1}, "channel_layout": 3, "channels": 2, "display_ratio": {"den": 9, "num": 16}, "duration": 6.923583507537842, "file_size": "26653728", "fps": {"den": 1001, "num": 24000}, "has_audio": true, "has_single_image": false, "has_video": true, "height": 1080, "interlaced_frame": false, "metadata": {"com.apple.quicktime.make": "Canon", "com.apple.quicktime.model": "Canon EOS 5D Mark III", "com.apple.quicktime.rating.user": "0.000000", "compatible_brands": "qt  CAEP", "creation_time": "2022-02-27T11:49:48.000000Z", "language": "eng", "major_brand": "qt", "minor_version": "537331968", "timecode": "03:27:48:07"}, "path": "/home/teacher/\u0412\u0438\u0434\u0435\u043e/lyzhi/good/IMG_3046.MOV", "pixel_format": 12, "pixel_ratio": {"den": 1, "num": 1}, "sample_rate": 48000, "top_field_first": true, "type": "FFmpegReader", "vcodec": "h264", "video_bit_rate": 3849701, "video_length": "166", "video_stream_index": 0, "video_timebase": {"den": 24000, "num": 1}, "width": 1920}, "rotation": {"Points": [{"co": {"X": 1, "Y": 0}, "interpolation": 2}]}, "scale": 1, "scale_x": {"Points": [{"co": {"X": 1, "Y": 1}, "interpolation": 2}]}, "scale_y": {"Points": [{"co": {"X": 1, "Y": 1}, "interpolation": 2}]}, "shear_x": {"Points": [{"co": {"X": 1, "Y": 0}, "interpolation": 2}]}, "shear_y": {"Points": [{"co": {"X": 1, "Y": 0}, "interpolation": 2}]}, "start": 0.7333333333333333, "time": {"Points": [{"co": {"X": 1, "Y": 1}, "interpolation": 2}]}, "volume": {"Points": [{"co": {"X": 1, "Y": 1}, "interpolation": 2}]}, "wave_color": {"alpha": {"Points": [{"co": {"X": 1, "Y": 255}, "handle_left": {"X": 0.5, "Y": 1}, "handle_right": {"X": 0.5, "Y": 0}, "handle_type": 0, "interpolation": 0}]}, "blue": {"Points": [{"co": {"X": 1, "Y": 255}, "handle_left": {"X": 0.5, "Y": 1}, "handle_right": {"X": 0.5, "Y": 0}, "handle_type": 0, "interpolation": 0}]}, "green": {"Points": [{"co": {"X": 1, "Y": 123}, "handle_left": {"X": 0.5, "Y": 1}, "handle_right": {"X": 0.5, "Y": 0}, "handle_type": 0, "interpolation": 0}]}, "red": {"Points": [{"co": {"X": 1, "Y": 0}, "handle_left": {"X": 0.5, "Y": 1}, "handle_right": {"X": 0.5, "Y": 0}, "handle_type": 0, "interpolation": 0}]}}, "waveform": false, "file_id": "2UKHZXYB0I", "title": "IMG_3046.MOV", "image": "/home/teacher/.openshot_qt/thumbnail/2UKHZXYB0I.png"}, {"alpha": {"Points": [{"co": {"X": 1, "Y": 1}, "interpolation": 2}]}, "anchor": 0, "channel_filter": {"Points": [{"co": {"X": 1, "Y": -1}, "interpolation": 2}]}, "channel_mapping": {"Points": [{"co": {"X": 1, "Y": -1}, "interpolation": 2}]}, "crop_height": {"Points": [{"co": {"X": 1, "Y": -1}, "interpolation": 2}]}, "crop_width": {"Points": [{"co": {"X": 1, "Y": -1}, "interpolation": 2}]}, "crop_x": {"Points": [{"co": {"X": 1, "Y": 0}, "interpolation": 2}]}, "crop_y": {"Points": [{"co": {"X": 1, "Y": 0}, "interpolation": 2}]}, "display": 0, "duration": 6.8401665687561035, "effects": [], "end": 4.366666666666666, "gravity": 4, "has_audio": {"Points": [{"co": {"X": 1, "Y": -1}, "interpolation": 2}]}, "has_video": {"Points": [{"co": {"X": 1, "Y": -1}, "interpolation": 2}]}, "id": "WN706UU7J8", "layer": 4, "location_x": {"Points": [{"co": {"X": 1, "Y": 0}, "interpolation": 2}]}, "location_y": {"Points": [{"co": {"X": 1, "Y": 0}, "interpolation": 2}]}, "mixing": 0, "perspective_c1_x": {"Points": [{"co": {"X": 1, "Y": -1}, "interpolation": 2}]}, "perspective_c1_y": {"Points": [{"co": {"X": 1, "Y": -1}, "interpolation": 2}]}, "perspective_c2_x": {"Points": [{"co": {"X": 1, "Y": -1}, "interpolation": 2}]}, "perspective_c2_y": {"Points": [{"co": {"X": 1, "Y": -1}, "interpolation": 2}]}, "perspective_c3_x": {"Points": [{"co": {"X": 1, "Y": -1}, "interpolation": 2}]}, "perspective_c3_y": {"Points": [{"co": {"X": 1, "Y": -1}, "interpolation": 2}]}, "perspective_c4_x": {"Points": [{"co": {"X": 1, "Y": -1}, "interpolation": 2}]}, "perspective_c4_y": {"Points": [{"co": {"X": 1, "Y": -1}, "interpolation": 2}]}, "position": 23.733333333333334, "reader": {"acodec": "pcm_s16le", "audio_bit_rate": 1536000, "audio_stream_index": 1, "audio_timebase": {"den": 48000, "num": 1}, "channel_layout": 3, "channels": 2, "display_ratio": {"den": 9, "num": 16}, "duration": 6.8401665687561035, "file_size": "26020952", "fps": {"den": 1001, "num": 24000}, "has_audio": true, "has_single_image": false, "has_video": true, "height": 1080, "interlaced_frame": false, "metadata": {"com.apple.quicktime.make": "Canon", "com.apple.quicktime.model": "Canon EOS 5D Mark III", "com.apple.quicktime.rating.user": "0.000000", "compatible_brands": "qt  CAEP", "creation_time": "2022-02-27T12:56:18.000000Z", "language": "eng", "major_brand": "qt", "minor_version": "537331968", "timecode": "03:32:15:14"}, "path": "/home/teacher/\u0412\u0438\u0434\u0435\u043e/lyzhi/good/IMG_3061.MOV", "pixel_format": 12, "pixel_ratio": {"den": 1, "num": 1}, "sample_rate": 48000, "top_field_first": true, "type": "FFmpegReader", "vcodec": "h264", "video_bit_rate": 3804139, "video_length": "164", "video_stream_index": 0, "video_timebase": {"den": 24000, "num": 1}, "width": 1920}, "rotation": {"Points": [{"co": {"X": 1, "Y": 0}, "interpolation": 2}]}, "scale": 1, "scale_x": {"Points": [{"co": {"X": 1, "Y": 1}, "interpolation": 2}]}, "scale_y": {"Points": [{"co": {"X": 1, "Y": 1}, "interpolation": 2}]}, "shear_x": {"Points": [{"co": {"X": 1, "Y": 0}, "interpolation": 2}]}, "shear_y": {"Points": [{"co": {"X": 1, "Y": 0}, "interpolation": 2}]}, "start": 0.5, "time": {"Points": [{"co": {"X": 1, "Y": 1}, "interpolation": 2}]}, "volume": {"Points": [{"co": {"X": 1, "Y": 1}, "interpolation": 2}]}, "wave_color": {"alpha": {"Points": [{"co": {"X": 1, "Y": 255}, "handle_left": {"X": 0.5, "Y": 1}, "handle_right": {"X": 0.5, "Y": 0}, "handle_type": 0, "interpolation": 0}]}, "blue": {"Points": [{"co": {"X": 1, "Y": 255}, "handle_left": {"X": 0.5, "Y": 1}, "handle_right": {"X": 0.5, "Y": 0}, "handle_type": 0, "interpolation": 0}]}, "green": {"Points": [{"co": {"X": 1, "Y": 123}, "handle_left": {"X": 0.5, "Y": 1}, "handle_right": {"X": 0.5, "Y": 0}, "handle_type": 0, "interpolation": 0}]}, "red": {"Points": [{"co": {"X": 1, "Y": 0}, "handle_left": {"X": 0.5, "Y": 1}, "handle_right": {"X": 0.5, "Y": 0}, "handle_type": 0, "interpolation": 0}]}}, "waveform": false, "file_id": "FGH7RW3BXT", "title": "IMG_3061.MOV", "image": "/home/teacher/.openshot_qt/thumbnail/FGH7RW3BXT.png"}, {"alpha": {"Points": [{"co": {"X": 1, "Y": 1}, "interpolation": 2}]}, "anchor": 0, "channel_filter": {"Points": [{"co": {"X": 1, "Y": -1}, "interpolation": 2}]}, "channel_mapping": {"Points": [{"co": {"X": 1, "Y": -1}, "interpolation": 2}]}, "crop_height": {"Points": [{"co": {"X": 1, "Y": -1}, "interpolation": 2}]}, "crop_width": {"Points": [{"co": {"X": 1, "Y": -1}, "interpolation": 2}]}, "crop_x": {"Points": [{"co": {"X": 1, "Y": 0}, "interpolation": 2}]}, "crop_y": {"Points": [{"co": {"X": 1, "Y": 0}, "interpolation": 2}]}, "display": 0, "duration": 18.440000534057617, "effects": [], "end": 13.366666666666667, "gravity": 4, "has_audio": {"Points": [{"co": {"X": 1, "Y": -1}, "interpolation": 2}]}, "has_video": {"Points": [{"co": {"X": 1, "Y": -1}, "interpolation": 2}]}, "id": "73UAMGUSAB", "layer": 4, "location_x": {"Points": [{"co": {"X": 1, "Y": 0}, "interpolation": 2}]}, "location_y": {"Points": [{"co": {"X": 1, "Y": 0}, "interpolation": 2}]}, "mixing": 0, "perspective_c1_x": {"Points": [{"co": {"X": 1, "Y": -1}, "interpolation": 2}]}, "perspective_c1_y": {"Points": [{"co": {"X": 1, "Y": -1}, "interpolation": 2}]}, "perspective_c2_x": {"Points": [{"co": {"X": 1, "Y": -1}, "interpolation": 2}]}, "perspective_c2_y": {"Points": [{"co": {"X": 1, "Y": -1}, "interpolation": 2}]}, "perspective_c3_x": {"Points": [{"co": {"X": 1, "Y": -1}, "interpolation": 2}]}, "perspective_c3_y": {"Points": [{"co": {"X": 1, "Y": -1}, "interpolation": 2}]}, "perspective_c4_x": {"Points": [{"co": {"X": 1, "Y": -1}, "interpolation": 2}]}, "perspective_c4_y": {"Points": [{"co": {"X": 1, "Y": -1}, "interpolation": 2}]}, "position": 27.6, "reader": {"acodec": "pcm_s16le", "audio_bit_rate": 1536000, "audio_stream_index": 1, "audio_timebase": {"den": 48000, "num": 1}, "channel_layout": 3, "channels": 2, "display_ratio": {"den": 9, "num": 16}, "duration": 18.440000534057617, "file_size": "63498956", "fps": {"den": 1, "num": 50}, "has_audio": true, "has_single_image": false, "has_video": true, "height": 720, "interlaced_frame": false, "metadata": {"com.apple.quicktime.make": "Canon", "com.apple.quicktime.model": "Canon EOS 5D Mark III", "com.apple.quicktime.rating.user": "0.000000", "compatible_brands": "qt  CAEP", "creation_time": "2022-02-27T14:14:55.000000Z", "language": "eng", "major_brand": "qt", "minor_version": "537331968", "timecode": "03:47:16:21"}, "path": "/home/teacher/\u0412\u0438\u0434\u0435\u043e/lyzhi/good/IMG_3131.MOV", "pixel_format": 12, "pixel_ratio": {"den": 1, "num": 1}, "sample_rate": 48000, "top_field_first": true, "type": "FFmpegReader", "vcodec": "h264", "video_bit_rate": 3443544, "video_length": "922", "video_stream_index": 0, "video_timebase": {"den": 50000, "num": 1}, "width": 1280}, "rotation": {"Points": [{"co": {"X": 1, "Y": 0}, "interpolation": 2}]}, "scale": 1, "scale_x": {"Points": [{"co": {"X": 1, "Y": 1}, "interpolation": 2}]}, "scale_y": {"Points": [{"co": {"X": 1, "Y": 1}, "interpolation": 2}]}, "shear_x": {"Points": [{"co": {"X": 1, "Y": 0}, "interpolation": 2}]}, "shear_y": {"Points": [{"co": {"X": 1, "Y": 0}, "interpolation": 2}]}, "start": 4.7, "time": {"Points": [{"co": {"X": 1, "Y": 1}, "interpolation": 2}]}, "volume": {"Points": [{"co": {"X": 1, "Y": 1}, "interpolation": 2}]}, "wave_color": {"alpha": {"Points": [{"co": {"X": 1, "Y": 255}, "handle_left": {"X": 0.5, "Y": 1}, "handle_right": {"X": 0.5, "Y": 0}, "handle_type": 0, "interpolation": 0}]}, "blue": {"Points": [{"co": {"X": 1, "Y": 255}, "handle_left": {"X": 0.5, "Y": 1}, "handle_right": {"X": 0.5, "Y": 0}, "handle_type": 0, "interpolation": 0}]}, "green": {"Points": [{"co": {"X": 1, "Y": 123}, "handle_left": {"X": 0.5, "Y": 1}, "handle_right": {"X": 0.5, "Y": 0}, "handle_type": 0, "interpolation": 0}]}, "red": {"Points": [{"co": {"X": 1, "Y": 0}, "handle_left": {"X": 0.5, "Y": 1}, "handle_right": {"X": 0.5, "Y": 0}, "handle_type": 0, "interpolation": 0}]}}, "waveform": false, "file_id": "Q5HDEVQF4U", "title": "IMG_3131.MOV", "image": "/home/teacher/.openshot_qt/thumbnail/Q5HDEVQF4U.png"}, {"alpha": {"Points": [{"co": {"X": 1, "Y": 1}, "interpolation": 2}]}, "anchor": 0, "channel_filter": {"Points": [{"co": {"X": 1, "Y": -1}, "interpolation": 2}]}, "channel_mapping": {"Points": [{"co": {"X": 1, "Y": -1}, "interpolation": 2}]}, "crop_height": {"Points": [{"co": {"X": 1, "Y": -1}, "interpolation": 2}]}, "crop_width": {"Points": [{"co": {"X": 1, "Y": -1}, "interpolation": 2}]}, "crop_x": {"Points": [{"co": {"X": 1, "Y": 0}, "interpolation": 2}]}, "crop_y": {"Points": [{"co": {"X": 1, "Y": 0}, "interpolation": 2}]}, "display": 0, "duration": 86.0, "effects": [], "end": 24.266666666666666, "gravity": 4, "has_audio": {"Points": [{"co": {"X": 1, "Y": 0}, "interpolation": 2}]}, "has_video": {"Points": [{"co": {"X": 1, "Y": -1}, "interpolation": 2}]}, "id": "3A1XYS74LO", "layer": 4, "location_x": {"Points": [{"co": {"X": 1, "Y": 0}, "interpolation": 2}]}, "location_y": {"Points": [{"co": {"X": 1, "Y": 0}, "interpolation": 2}]}, "mixing": 0, "perspective_c1_x": {"Points": [{"co": {"X": 1, "Y": -1}, "interpolation": 2}]}, "perspective_c1_y": {"Points": [{"co": {"X": 1, "Y": -1}, "interpolation": 2}]}, "perspective_c2_x": {"Points": [{"co": {"X": 1, "Y": -1}, "interpolation": 2}]}, "perspective_c2_y": {"Points": [{"co": {"X": 1, "Y": -1}, "interpolation": 2}]}, "perspective_c3_x": {"Points": [{"co": {"X": 1, "Y": -1}, "interpolation": 2}]}, "perspective_c3_y": {"Points": [{"co": {"X": 1, "Y": -1}, "interpolation": 2}]}, "perspective_c4_x": {"Points": [{"co": {"X": 1, "Y": -1}, "interpolation": 2}]}, "perspective_c4_y": {"Points": [{"co": {"X": 1, "Y": -1}, "interpolation": 2}]}, "position": 126.93333333333334, "reader": {"acodec": "pcm_s16le", "audio_bit_rate": 1536000, "audio_stream_index": 1, "audio_timebase": {"den": 48000, "num": 1}, "channel_layout": 3, "channels": 2, "display_ratio": {"den": 9, "num": 16}, "duration": 43.7599983215332, "file_size": "149382536", "fps": {"den": 1, "num": 50}, "has_audio": true, "has_single_image": false, "has_video": true, "height": 720, "interlaced_frame": false, "metadata": {"com.apple.quicktime.make": "Canon", "com.apple.quicktime.model": "Canon EOS 5D Mark III", "com.apple.quicktime.rating.user": "0.000000", "compatible_brands": "qt  CAEP", "creation_time": "2022-02-27T13:21:26.000000Z", "language": "eng", "major_brand": "qt", "minor_version": "537331968", "timecode": "03:34:10:19"}, "path": "/home/teacher/\u0412\u0438\u0434\u0435\u043e/lyzhi/good/IMG_3080.MOV", "pixel_format": 12, "pixel_ratio": {"den": 1, "num": 1}, "sample_rate": 48000, "top_field_first": true, "type": "FFmpegReader", "vcodec": "h264", "video_bit_rate": 3413677, "video_length": "2188", "video_stream_index": 0, "video_timebase": {"den": 50000, "num": 1}, "width": 1280}, "rotation": {"Points": [{"co": {"X": 1, "Y": 0}, "interpolation": 2}]}, "scale": 1, "scale_x": {"Points": [{"co": {"X": 1, "Y": 1}, "interpolation": 2}]}, "scale_y": {"Points": [{"co": {"X": 1, "Y": 1}, "interpolation": 2}]}, "shear_x": {"Points": [{"co": {"X": 1, "Y": 0}, "interpolation": 2}]}, "shear_y": {"Points": [{"co": {"X": 1, "Y": 0}, "interpolation": 2}]}, "start": 20.566666666666666, "time": {"Points": [{"co": {"X": 618, "Y": 618}, "interpolation": 1}, {"co": {"X": 750, "Y": 684}, "interpolation": 1}]}, "volume": {"Points": [{"co": {"X": 1, "Y": 1}, "interpolation": 2}]}, "wave_color": {"alpha": {"Points": [{"co": {"X": 1, "Y": 255}, "handle_left": {"X": 0.5, "Y": 1}, "handle_right": {"X": 0.5, "Y": 0}, "handle_type": 0, "interpolation": 0}]}, "blue": {"Points": [{"co": {"X": 1, "Y": 255}, "handle_left": {"X": 0.5, "Y": 1}, "handle_right": {"X": 0.5, "Y": 0}, "handle_type": 0, "interpolation": 0}]}, "green": {"Points": [{"co": {"X": 1, "Y": 123}, "handle_left": {"X": 0.5, "Y": 1}, "handle_right": {"X": 0.5, "Y": 0}, "handle_type": 0, "interpolation": 0}]}, "red": {"Points": [{"co": {"X": 1, "Y": 0}, "handle_left": {"X": 0.5, "Y": 1}, "handle_right": {"X": 0.5, "Y": 0}, "handle_type": 0, "interpolation": 0}]}}, "waveform": false, "file_id": "H84MRBTAOP", "title": "IMG_3080.MOV", "image": "/home/teacher/.openshot_qt/thumbnail/H84MRBTAOP.png"}, {"alpha": {"Points": [{"co": {"X": 1, "Y": 1}, "interpolation": 2}]}, "anchor": 0, "channel_filter": {"Points": [{"co": {"X": 1, "Y": -1}, "interpolation": 2}]}, "channel_mapping": {"Points": [{"co": {"X": 1, "Y": -1}, "interpolation": 2}]}, "crop_height": {"Points": [{"co": {"X": 1, "Y": -1}, "interpolation": 2}]}, "crop_width": {"Points": [{"co": {"X": 1, "Y": -1}, "interpolation": 2}]}, "crop_x": {"Points": [{"co": {"X": 1, "Y": 0}, "interpolation": 2}]}, "crop_y": {"Points": [{"co": {"X": 1, "Y": 0}, "interpolation": 2}]}, "display": 0, "duration": 6.239999771118164, "effects": [], "end": 1.5333333333333674, "gravity": 4, "has_audio": {"Points": [{"co": {"X": 1, "Y": 0}, "interpolation": 2}]}, "has_video": {"Points": [{"co": {"X": 1, "Y": -1}, "interpolation": 2}]}, "id": "WA6RVER701", "layer": 4, "location_x": {"Points": [{"co": {"X": 1, "Y": 0}, "interpolation": 2}]}, "location_y": {"Points": [{"co": {"X": 1, "Y": 0}, "interpolation": 2}]}, "mixing": 0, "perspective_c1_x": {"Points": [{"co": {"X": 1, "Y": -1}, "interpolation": 2}]}, "perspective_c1_y": {"Points": [{"co": {"X": 1, "Y": -1}, "interpolation": 2}]}, "perspective_c2_x": {"Points": [{"co": {"X": 1, "Y": -1}, "interpolation": 2}]}, "perspective_c2_y": {"Points": [{"co": {"X": 1, "Y": -1}, "interpolation": 2}]}, "perspective_c3_x": {"Points": [{"co": {"X": 1, "Y": -1}, "interpolation": 2}]}, "perspective_c3_y": {"Points": [{"co": {"X": 1, "Y": -1}, "interpolation": 2}]}, "perspective_c4_x": {"Points": [{"co": {"X": 1, "Y": -1}, "interpolation": 2}]}, "perspective_c4_y": {"Points": [{"co": {"X": 1, "Y": -1}, "interpolation": 2}]}, "position": 123.83333333333333, "reader": {"acodec": "pcm_s16le", "audio_bit_rate": 1536000, "audio_stream_index": 1, "audio_timebase": {"den": 48000, "num": 1}, "channel_layout": 3, "channels": 2, "display_ratio": {"den": 9, "num": 16}, "duration": 6.239999771118164, "file_size": "20953892", "fps": {"den": 1, "num": 50}, "has_audio": true, "has_single_image": false, "has_video": true, "height": 720, "interlaced_frame": false, "metadata": {"com.apple.quicktime.make": "Canon", "com.apple.quicktime.model": "Canon EOS 5D Mark III", "com.apple.quicktime.rating.user": "0.000000", "compatible_brands": "qt  CAEP", "creation_time": "2022-02-27T13:22:19.000000Z", "language": "eng", "major_brand": "qt", "minor_version": "537331968", "timecode": "03:34:54:13"}, "path": "/home/teacher/\u0412\u0438\u0434\u0435\u043e/lyzhi/good/IMG_3081.MOV", "pixel_format": 12, "pixel_ratio": {"den": 1, "num": 1}, "sample_rate": 48000, "top_field_first": true, "type": "FFmpegReader", "vcodec": "h264", "video_bit_rate": 3357995, "video_length": "312", "video_stream_index": 0, "video_timebase": {"den": 50000, "num": 1}, "width": 1280}, "rotation": {"Points": [{"co": {"X": 1, "Y": 0}, "interpolation": 2}]}, "scale": 1, "scale_x": {"Points": [{"co": {"X": 1, "Y": 1}, "interpolation": 2}]}, "scale_y": {"Points": [{"co": {"X": 1, "Y": 1}, "interpolation": 2}]}, "shear_x": {"Points": [{"co": {"X": 1, "Y": 0}, "interpolation": 2}]}, "shear_y": {"Points": [{"co": {"X": 1, "Y": 0}, "interpolation": 2}]}, "start": 0.6333333333333333, "time": {"Points": [{"co": {"X": 1, "Y": 1}, "interpolation": 2}]}, "volume": {"Points": [{"co": {"X": 1, "Y": 1}, "interpolation": 2}]}, "wave_color": {"alpha": {"Points": [{"co": {"X": 1, "Y": 255}, "handle_left": {"X": 0.5, "Y": 1}, "handle_right": {"X": 0.5, "Y": 0}, "handle_type": 0, "interpolation": 0}]}, "blue": {"Points": [{"co": {"X": 1, "Y": 255}, "handle_left": {"X": 0.5, "Y": 1}, "handle_right": {"X": 0.5, "Y": 0}, "handle_type": 0, "interpolation": 0}]}, "green": {"Points": [{"co": {"X": 1, "Y": 123}, "handle_left": {"X": 0.5, "Y": 1}, "handle_right": {"X": 0.5, "Y": 0}, "handle_type": 0, "interpolation": 0}]}, "red": {"Points": [{"co": {"X": 1, "Y": 0}, "handle_left": {"X": 0.5, "Y": 1}, "handle_right": {"X": 0.5, "Y": 0}, "handle_type": 0, "interpolation": 0}]}}, "waveform": false, "file_id": "LZD7Y0SNKE", "title": "IMG_3081.MOV", "image": "/home/teacher/.openshot_qt/thumbnail/WA6RVER701-33.png"}, {"alpha": {"Points": [{"co": {"X": 1, "Y": 1}, "interpolation": 2}]}, "anchor": 0, "channel_filter": {"Points": [{"co": {"X": 1, "Y": -1}, "interpolation": 2}]}, "channel_mapping": {"Points": [{"co": {"X": 1, "Y": -1}, "interpolation": 2}]}, "crop_height": {"Points": [{"co": {"X": 1, "Y": -1}, "interpolation": 2}]}, "crop_width": {"Points": [{"co": {"X": 1, "Y": -1}, "interpolation": 2}]}, "crop_x": {"Points": [{"co": {"X": 1, "Y": 0}, "interpolation": 2}]}, "crop_y": {"Points": [{"co": {"X": 1, "Y": 0}, "interpolation": 2}]}, "display": 0, "duration": 0.0, "effects": [], "end": 2.1333333333333333, "gravity": 4, "has_audio": {"Points": [{"co": {"X": 1, "Y": 0}, "interpolation": 2}]}, "has_video": {"Points": [{"co": {"X": 1, "Y": -1}, "interpolation": 2}]}, "layer": 4, "location_x": {"Points": [{"co": {"X": 1, "Y": 0}, "interpolation": 2}]}, "location_y": {"Points": [{"co": {"X": 1, "Y": 0}, "interpolation": 2}]}, "mixing": 0, "perspective_c1_x": {"Points": [{"co": {"X": 1, "Y": -1}, "interpolation": 2}]}, "perspective_c1_y": {"Points": [{"co": {"X": 1, "Y": -1}, "interpolation": 2}]}, "perspective_c2_x": {"Points": [{"co": {"X": 1, "Y": -1}, "interpolation": 2}]}, "perspective_c2_y": {"Points": [{"co": {"X": 1, "Y": -1}, "interpolation": 2}]}, "perspective_c3_x": {"Points": [{"co": {"X": 1, "Y": -1}, "interpolation": 2}]}, "perspective_c3_y": {"Points": [{"co": {"X": 1, "Y": -1}, "interpolation": 2}]}, "perspective_c4_x": {"Points": [{"co": {"X": 1, "Y": -1}, "interpolation": 2}]}, "perspective_c4_y": {"Points": [{"co": {"X": 1, "Y": -1}, "interpolation": 2}]}, "position": 124.76666666666667, "reader": {"acodec": "pcm_s16le", "audio_bit_rate": 1536000, "audio_stream_index": 1, "audio_timebase": {"den": 48000, "num": 1}, "channel_layout": 3, "channels": 2, "display_ratio": {"den": 9, "num": 16}, "duration": 6.239999771118164, "file_size": "20953892", "fps": {"den": 1, "num": 50}, "has_audio": true, "has_single_image": false, "has_video": true, "height": 720, "interlaced_frame": false, "metadata": {"com.apple.quicktime.make": "Canon", "com.apple.quicktime.model": "Canon EOS 5D Mark III", "com.apple.quicktime.rating.user": "0.000000", "compatible_brands": "qt  CAEP", "creation_time": "2022-02-27T13:22:19.000000Z", "language": "eng", "major_brand": "qt", "minor_version": "537331968", "timecode": "03:34:54:13"}, "path": "/home/teacher/\u0412\u0438\u0434\u0435\u043e/lyzhi/good/IMG_3081.MOV", "pixel_format": 12, "pixel_ratio": {"den": 1, "num": 1}, "sample_rate": 48000, "top_field_first": true, "type": "FFmpegReader", "vcodec": "h264", "video_bit_rate": 3357995, "video_length": "312", "video_stream_index": 0, "video_timebase": {"den": 50000, "num": 1}, "width": 1280}, "rotation": {"Points": [{"co": {"X": 1, "Y": 0}, "interpolation": 2}]}, "scale": 1, "scale_x": {"Points": [{"co": {"X": 1, "Y": 1}, "interpolation": 2}]}, "scale_y": {"Points": [{"co": {"X": 1, "Y": 1}, "interpolation": 2}]}, "shear_x": {"Points": [{"co": {"X": 1, "Y": 0}, "interpolation": 2}]}, "shear_y": {"Points": [{"co": {"X": 1, "Y": 0}, "interpolation": 2}]}, "start": 1.6, "time": {"Points": [{"co": {"X": 49, "Y": 49}, "interpolation": 1}, {"co": {"X": 64, "Y": 109}, "interpolation": 1}]}, "volume": {"Points": [{"co": {"X": 1, "Y": 1}, "interpolation": 2}]}, "wave_color": {"alpha": {"Points": [{"co": {"X": 1, "Y": 255}, "handle_left": {"X": 0.5, "Y": 1}, "handle_right": {"X": 0.5, "Y": 0}, "handle_type": 0, "interpolation": 0}]}, "blue": {"Points": [{"co": {"X": 1, "Y": 255}, "handle_left": {"X": 0.5, "Y": 1}, "handle_right": {"X": 0.5, "Y": 0}, "handle_type": 0, "interpolation": 0}]}, "green": {"Points": [{"co": {"X": 1, "Y": 123}, "handle_left": {"X": 0.5, "Y": 1}, "handle_right": {"X": 0.5, "Y": 0}, "handle_type": 0, "interpolation": 0}]}, "red": {"Points": [{"co": {"X": 1, "Y": 0}, "handle_left": {"X": 0.5, "Y": 1}, "handle_right": {"X": 0.5, "Y": 0}, "handle_type": 0, "interpolation": 0}]}}, "waveform": false, "file_id": "LZD7Y0SNKE", "title": "IMG_3081.MOV", "image": "/home/teacher/.openshot_qt/thumbnail/YNUJ4DZ322-81.png", "id": "YNUJ4DZ322"}, {"alpha": {"Points": [{"co": {"X": 1, "Y": 1}, "interpolation": 2}]}, "anchor": 0, "channel_filter": {"Points": [{"co": {"X": 1, "Y": -1}, "interpolation": 2}]}, "channel_mapping": {"Points": [{"co": {"X": 1, "Y": -1}, "interpolation": 2}]}, "crop_height": {"Points": [{"co": {"X": 1, "Y": -1}, "interpolation": 2}]}, "crop_width": {"Points": [{"co": {"X": 1, "Y": -1}, "interpolation": 2}]}, "crop_x": {"Points": [{"co": {"X": 1, "Y": 0}, "interpolation": 2}]}, "crop_y": {"Points": [{"co": {"X": 1, "Y": 0}, "interpolation": 2}]}, "display": 0, "duration": 12.0, "effects": [], "end": 5.533333333333333, "gravity": 4, "has_audio": {"Points": [{"co": {"X": 1, "Y": 0}, "interpolation": 2}]}, "has_video": {"Points": [{"co": {"X": 1, "Y": -1}, "interpolation": 2}]}, "layer": 4, "location_x": {"Points": [{"co": {"X": 1, "Y": 0}, "interpolation": 2}]}, "location_y": {"Points": [{"co": {"X": 1, "Y": 0}, "interpolation": 2}]}, "mixing": 0, "perspective_c1_x": {"Points": [{"co": {"X": 1, "Y": -1}, "interpolation": 2}]}, "perspective_c1_y": {"Points": [{"co": {"X": 1, "Y": -1}, "interpolation": 2}]}, "perspective_c2_x": {"Points": [{"co": {"X": 1, "Y": -1}, "interpolation": 2}]}, "perspective_c2_y": {"Points": [{"co": {"X": 1, "Y": -1}, "interpolation": 2}]}, "perspective_c3_x": {"Points": [{"co": {"X": 1, "Y": -1}, "interpolation": 2}]}, "perspective_c3_y": {"Points": [{"co": {"X": 1, "Y": -1}, "interpolation": 2}]}, "perspective_c4_x": {"Points": [{"co": {"X": 1, "Y": -1}, "interpolation": 2}]}, "perspective_c4_y": {"Points": [{"co": {"X": 1, "Y": -1}, "interpolation": 2}]}, "position": 125.33333333333333, "reader": {"acodec": "pcm_s16le", "audio_bit_rate": 1536000, "audio_stream_index": 1, "audio_timebase": {"den": 48000, "num": 1}, "channel_layout": 3, "channels": 2, "display_ratio": {"den": 9, "num": 16}, "duration": 6.239999771118164, "file_size": "20953892", "fps": {"den": 1, "num": 50}, "has_audio": true, "has_single_image": false, "has_video": true, "height": 720, "interlaced_frame": false, "metadata": {"com.apple.quicktime.make": "Canon", "com.apple.quicktime.model": "Canon EOS 5D Mark III", "com.apple.quicktime.rating.user": "0.000000", "compatible_brands": "qt  CAEP", "creation_time": "2022-02-27T13:22:19.000000Z", "language": "eng", "major_brand": "qt", "minor_version": "537331968", "timecode": "03:34:54:13"}, "path": "/home/teacher/\u0412\u0438\u0434\u0435\u043e/lyzhi/good/IMG_3081.MOV", "pixel_format": 12, "pixel_ratio": {"den": 1, "num": 1}, "sample_rate": 48000, "top_field_first": true, "type": "FFmpegReader", "vcodec": "h264", "video_bit_rate": 3357995, "video_length": "312", "video_stream_index": 0, "video_timebase": {"den": 50000, "num": 1}, "width": 1280}, "rotation": {"Points": [{"co": {"X": 1, "Y": 0}, "interpolation": 2}]}, "scale": 1, "scale_x": {"Points": [{"co": {"X": 1, "Y": 1}, "interpolation": 2}]}, "scale_y": {"Points": [{"co": {"X": 1, "Y": 1}, "interpolation": 2}]}, "shear_x": {"Points": [{"co": {"X": 1, "Y": 0}, "interpolation": 2}]}, "shear_y": {"Points": [{"co": {"X": 1, "Y": 0}, "interpolation": 2}]}, "start": 3.6666666666666665, "time": {"Points": [{"co": {"X": 111, "Y": 111}, "interpolation": 1}, {"co": {"X": 211, "Y": 161}, "interpolation": 1}]}, "volume": {"Points": [{"co": {"X": 1, "Y": 1}, "interpolation": 2}]}, "wave_color": {"alpha": {"Points": [{"co": {"X": 1, "Y": 255}, "handle_left": {"X": 0.5, "Y": 1}, "handle_right": {"X": 0.5, "Y": 0}, "handle_type": 0, "interpolation": 0}]}, "blue": {"Points": [{"co": {"X": 1, "Y": 255}, "handle_left": {"X": 0.5, "Y": 1}, "handle_right": {"X": 0.5, "Y": 0}, "handle_type": 0, "interpolation": 0}]}, "green": {"Points": [{"co": {"X": 1, "Y": 123}, "handle_left": {"X": 0.5, "Y": 1}, "handle_right": {"X": 0.5, "Y": 0}, "handle_type": 0, "interpolation": 0}]}, "red": {"Points": [{"co": {"X": 1, "Y": 0}, "handle_left": {"X": 0.5, "Y": 1}, "handle_right": {"X": 0.5, "Y": 0}, "handle_type": 0, "interpolation": 0}]}}, "waveform": false, "file_id": "LZD7Y0SNKE", "title": "IMG_3081.MOV", "image": "/home/teacher/.openshot_qt/thumbnail/Y4QDR2VNMV-184.png", "id": "Y4QDR2VNMV"}, {"alpha": {"Points": [{"co": {"X": 1, "Y": 1}, "interpolation": 2}]}, "anchor": 0, "channel_filter": {"Points": [{"co": {"X": 1, "Y": -1}, "interpolation": 2}]}, "channel_mapping": {"Points": [{"co": {"X": 1, "Y": -1}, "interpolation": 2}]}, "crop_height": {"Points": [{"co": {"X": 1, "Y": -1}, "interpolation": 2}]}, "crop_width": {"Points": [{"co": {"X": 1, "Y": -1}, "interpolation": 2}]}, "crop_x": {"Points": [{"co": {"X": 1, "Y": 0}, "interpolation": 2}]}, "crop_y": {"Points": [{"co": {"X": 1, "Y": 0}, "interpolation": 2}]}, "display": 0, "duration": 24.31999969482422, "effects": [], "end": 16.566666666666666, "gravity": 4, "has_audio": {"Points": [{"co": {"X": 1, "Y": -1}, "interpolation": 2}]}, "has_video": {"Points": [{"co": {"X": 1, "Y": -1}, "interpolation": 2}]}, "id": "12AELMQJ87", "layer": 4, "location_x": {"Points": [{"co": {"X": 1, "Y": 0}, "interpolation": 2}]}, "location_y": {"Points": [{"co": {"X": 1, "Y": 0}, "interpolation": 2}]}, "mixing": 0, "perspective_c1_x": {"Points": [{"co": {"X": 1, "Y": -1}, "interpolation": 2}]}, "perspective_c1_y": {"Points": [{"co": {"X": 1, "Y": -1}, "interpolation": 2}]}, "perspective_c2_x": {"Points": [{"co": {"X": 1, "Y": -1}, "interpolation": 2}]}, "perspective_c2_y": {"Points": [{"co": {"X": 1, "Y": -1}, "interpolation": 2}]}, "perspective_c3_x": {"Points": [{"co": {"X": 1, "Y": -1}, "interpolation": 2}]}, "perspective_c3_y": {"Points": [{"co": {"X": 1, "Y": -1}, "interpolation": 2}]}, "perspective_c4_x": {"Points": [{"co": {"X": 1, "Y": -1}, "interpolation": 2}]}, "perspective_c4_y": {"Points": [{"co": {"X": 1, "Y": -1}, "interpolation": 2}]}, "position": 151.93333333333334, "reader": {"acodec": "pcm_s16le", "audio_bit_rate": 1536000, "audio_stream_index": 1, "audio_timebase": {"den": 48000, "num": 1}, "channel_layout": 3, "channels": 2, "display_ratio": {"den": 9, "num": 16}, "duration": 24.31999969482422, "file_size": "83570136", "fps": {"den": 1, "num": 50}, "has_audio": true, "has_single_image": false, "has_video": true, "height": 720, "interlaced_frame": false, "metadata": {"com.apple.quicktime.make": "Canon", "com.apple.quicktime.model": "Canon EOS 5D Mark III", "com.apple.quicktime.rating.user": "0.000000", "compatible_brands": "qt  CAEP", "creation_time": "2022-02-27T17:17:38.000000Z", "language": "eng", "major_brand": "qt", "minor_version": "537331968", "timecode": "04:12:16:22"}, "path": "/home/teacher/\u0412\u0438\u0434\u0435\u043e/lyzhi/good/IMG_3245.MOV", "pixel_format": 12, "pixel_ratio": {"den": 1, "num": 1}, "sample_rate": 48000, "top_field_first": true, "type": "FFmpegReader", "vcodec": "h264", "video_bit_rate": 3436272, "video_length": "1216", "video_stream_index": 0, "video_timebase": {"den": 50000, "num": 1}, "width": 1280}, "rotation": {"Points": [{"co": {"X": 1, "Y": 0}, "interpolation": 2}]}, "scale": 1, "scale_x": {"Points": [{"co": {"X": 1, "Y": 1}, "interpolation": 2}]}, "scale_y": {"Points": [{"co": {"X": 1, "Y": 1}, "interpolation": 2}]}, "shear_x": {"Points": [{"co": {"X": 1, "Y": 0}, "interpolation": 2}]}, "shear_y": {"Points": [{"co": {"X": 1, "Y": 0}, "interpolation": 2}]}, "start": 9.3, "time": {"Points": [{"co": {"X": 1, "Y": 1}, "interpolation": 2}]}, "volume": {"Points": [{"co": {"X": 1, "Y": 1}, "interpolation": 2}]}, "wave_color": {"alpha": {"Points": [{"co": {"X": 1, "Y": 255}, "handle_left": {"X": 0.5, "Y": 1}, "handle_right": {"X": 0.5, "Y": 0}, "handle_type": 0, "interpolation": 0}]}, "blue": {"Points": [{"co": {"X": 1, "Y": 255}, "handle_left": {"X": 0.5, "Y": 1}, "handle_right": {"X": 0.5, "Y": 0}, "handle_type": 0, "interpolation": 0}]}, "green": {"Points": [{"co": {"X": 1, "Y": 123}, "handle_left": {"X": 0.5, "Y": 1}, "handle_right": {"X": 0.5, "Y": 0}, "handle_type": 0, "interpolation": 0}]}, "red": {"Points": [{"co": {"X": 1, "Y": 0}, "handle_left": {"X": 0.5, "Y": 1}, "handle_right": {"X": 0.5, "Y": 0}, "handle_type": 0, "interpolation": 0}]}}, "waveform": false, "file_id": "UECQRO8Z6I", "title": "IMG_3245.MOV", "image": "/home/teacher/.openshot_qt/thumbnail/UECQRO8Z6I.png"}]}, {"type": "update", "key": ["clips", {"id": "D6SMHOE6VB"}], "value": {"id": "D6SMHOE6VB", "layer": 4, "position": 159.36, "image": "/home/teacher/.openshot_qt/thumbnail/H4PGDJ64LT.png", "start": 0, "end": 18.760000228881836}, "partial": false, "old_values": {"alpha": {"Points": [{"co": {"X": 1, "Y": 1}, "interpolation": 2}]}, "anchor": 0, "channel_filter": {"Points": [{"co": {"X": 1, "Y": -1}, "interpolation": 2}]}, "channel_mapping": {"Points": [{"co": {"X": 1, "Y": -1}, "interpolation": 2}]}, "crop_height": {"Points": [{"co": {"X": 1, "Y": -1}, "interpolation": 2}]}, "crop_width": {"Points": [{"co": {"X": 1, "Y": -1}, "interpolation": 2}]}, "crop_x": {"Points": [{"co": {"X": 1, "Y": 0}, "interpolation": 2}]}, "crop_y": {"Points": [{"co": {"X": 1, "Y": 0}, "interpolation": 2}]}, "display": 0, "duration": 18.760000228881836, "effects": [], "end": 18.760000228881836, "gravity": 4, "has_audio": {"Points": [{"co": {"X": 1, "Y": -1}, "interpolation": 2}]}, "has_video": {"Points": [{"co": {"X": 1, "Y": -1}, "interpolation": 2}]}, "id": "D6SMHOE6VB", "layer": 4, "location_x": {"Points": [{"co": {"X": 1, "Y": 0}, "interpolation": 2}]}, "location_y": {"Points": [{"co": {"X": 1, "Y": 0}, "interpolation": 2}]}, "mixing": 0, "perspective_c1_x": {"Points": [{"co": {"X": 1, "Y": -1}, "interpolation": 2}]}, "perspective_c1_y": {"Points": [{"co": {"X": 1, "Y": -1}, "interpolation": 2}]}, "perspective_c2_x": {"Points": [{"co": {"X": 1, "Y": -1}, "interpolation": 2}]}, "perspective_c2_y": {"Points": [{"co": {"X": 1, "Y": -1}, "interpolation": 2}]}, "perspective_c3_x": {"Points": [{"co": {"X": 1, "Y": -1}, "interpolation": 2}]}, "perspective_c3_y": {"Points": [{"co": {"X": 1, "Y": -1}, "interpolation": 2}]}, "perspective_c4_x": {"Points": [{"co": {"X": 1, "Y": -1}, "interpolation": 2}]}, "perspective_c4_y": {"Points": [{"co": {"X": 1, "Y": -1}, "interpolation": 2}]}, "position": 148.99, "reader": {"acodec": "pcm_s16le", "audio_bit_rate": 1536000, "audio_stream_index": 1, "audio_timebase": {"den": 48000, "num": 1}, "channel_layout": 3, "channels": 2, "display_ratio": {"den": 9, "num": 16}, "duration": 18.760000228881836, "file_size": "64342204", "fps": {"den": 1, "num": 50}, "has_audio": true, "has_single_image": false, "has_video": true, "height": 720, "interlaced_frame": false, "metadata": {"com.apple.quicktime.make": "Canon", "com.apple.quicktime.model": "Canon EOS 5D Mark III", "com.apple.quicktime.rating.user": "0.000000", "compatible_brands": "qt  CAEP", "creation_time": "2022-02-27T17:28:58.000000Z", "language": "eng", "major_brand": "qt", "minor_version": "537331968", "timecode": "04:15:45:16"}, "path": "/home/teacher/\u0412\u0438\u0434\u0435\u043e/lyzhi/good/IMG_3257.MOV", "pixel_format": 12, "pixel_ratio": {"den": 1, "num": 1}, "sample_rate": 48000, "top_field_first": true, "type": "FFmpegReader", "vcodec": "h264", "video_bit_rate": 3429755, "video_length": "938", "video_stream_index": 0, "video_timebase": {"den": 50000, "num": 1}, "width": 1280}, "rotation": {"Points": [{"co": {"X": 1, "Y": 0}, "interpolation": 2}]}, "scale": 1, "scale_x": {"Points": [{"co": {"X": 1, "Y": 1}, "interpolation": 2}]}, "scale_y": {"Points": [{"co": {"X": 1, "Y": 1}, "interpolation": 2}]}, "shear_x": {"Points": [{"co": {"X": 1, "Y": 0}, "interpolation": 2}]}, "shear_y": {"Points": [{"co": {"X": 1, "Y": 0}, "interpolation": 2}]}, "start": 0, "time": {"Points": [{"co": {"X": 1, "Y": 1}, "interpolation": 2}]}, "volume": {"Points": [{"co": {"X": 1, "Y": 1}, "interpolation": 2}]}, "wave_color": {"alpha": {"Points": [{"co": {"X": 1, "Y": 255}, "handle_left": {"X": 0.5, "Y": 1}, "handle_right": {"X": 0.5, "Y": 0}, "handle_type": 0, "interpolation": 0}]}, "blue": {"Points": [{"co": {"X": 1, "Y": 255}, "handle_left": {"X": 0.5, "Y": 1}, "handle_right": {"X": 0.5, "Y": 0}, "handle_type": 0, "interpolation": 0}]}, "green": {"Points": [{"co": {"X": 1, "Y": 123}, "handle_left": {"X": 0.5, "Y": 1}, "handle_right": {"X": 0.5, "Y": 0}, "handle_type": 0, "interpolation": 0}]}, "red": {"Points": [{"co": {"X": 1, "Y": 0}, "handle_left": {"X": 0.5, "Y": 1}, "handle_right": {"X": 0.5, "Y": 0}, "handle_type": 0, "interpolation": 0}]}}, "waveform": false, "file_id": "H4PGDJ64LT", "title": "IMG_3257.MOV", "image": "/home/teacher/.openshot_qt/thumbnail/H4PGDJ64LT.png"}}, {"type": "update", "key": ["clips", {"id": "D6SMHOE6VB"}], "value": {"id": "D6SMHOE6VB", "layer": 4, "position": 169.06666666666666, "image": "/home/teacher/.openshot_qt/thumbnail/D6SMHOE6VB-486.png", "start": 9.7, "end": 18.766666666666666}, "partial": false, "old_values": {"alpha": {"Points": [{"co": {"X": 1, "Y": 1}, "interpolation": 2}]}, "anchor": 0, "channel_filter": {"Points": [{"co": {"X": 1, "Y": -1}, "interpolation": 2}]}, "channel_mapping": {"Points": [{"co": {"X": 1, "Y": -1}, "interpolation": 2}]}, "crop_height": {"Points": [{"co": {"X": 1, "Y": -1}, "interpolation": 2}]}, "crop_width": {"Points": [{"co": {"X": 1, "Y": -1}, "interpolation": 2}]}, "crop_x": {"Points": [{"co": {"X": 1, "Y": 0}, "interpolation": 2}]}, "crop_y": {"Points": [{"co": {"X": 1, "Y": 0}, "interpolation": 2}]}, "display": 0, "duration": 18.760000228881836, "effects": [], "end": 18.760000228881836, "gravity": 4, "has_audio": {"Points": [{"co": {"X": 1, "Y": -1}, "interpolation": 2}]}, "has_video": {"Points": [{"co": {"X": 1, "Y": -1}, "interpolation": 2}]}, "id": "D6SMHOE6VB", "layer": 4, "location_x": {"Points": [{"co": {"X": 1, "Y": 0}, "interpolation": 2}]}, "location_y": {"Points": [{"co": {"X": 1, "Y": 0}, "interpolation": 2}]}, "mixing": 0, "perspective_c1_x": {"Points": [{"co": {"X": 1, "Y": -1}, "interpolation": 2}]}, "perspective_c1_y": {"Points": [{"co": {"X": 1, "Y": -1}, "interpolation": 2}]}, "perspective_c2_x": {"Points": [{"co": {"X": 1, "Y": -1}, "interpolation": 2}]}, "perspective_c2_y": {"Points": [{"co": {"X": 1, "Y": -1}, "interpolation": 2}]}, "perspective_c3_x": {"Points": [{"co": {"X": 1, "Y": -1}, "interpolation": 2}]}, "perspective_c3_y": {"Points": [{"co": {"X": 1, "Y": -1}, "interpolation": 2}]}, "perspective_c4_x": {"Points": [{"co": {"X": 1, "Y": -1}, "interpolation": 2}]}, "perspective_c4_y": {"Points": [{"co": {"X": 1, "Y": -1}, "interpolation": 2}]}, "position": 159.36, "reader": {"acodec": "pcm_s16le", "audio_bit_rate": 1536000, "audio_stream_index": 1, "audio_timebase": {"den": 48000, "num": 1}, "channel_layout": 3, "channels": 2, "display_ratio": {"den": 9, "num": 16}, "duration": 18.760000228881836, "file_size": "64342204", "fps": {"den": 1, "num": 50}, "has_audio": true, "has_single_image": false, "has_video": true, "height": 720, "interlaced_frame": false, "metadata": {"com.apple.quicktime.make": "Canon", "com.apple.quicktime.model": "Canon EOS 5D Mark III", "com.apple.quicktime.rating.user": "0.000000", "compatible_brands": "qt  CAEP", "creation_time": "2022-02-27T17:28:58.000000Z", "language": "eng", "major_brand": "qt", "minor_version": "537331968", "timecode": "04:15:45:16"}, "path": "/home/teacher/\u0412\u0438\u0434\u0435\u043e/lyzhi/good/IMG_3257.MOV", "pixel_format": 12, "pixel_ratio": {"den": 1, "num": 1}, "sample_rate": 48000, "top_field_first": true, "type": "FFmpegReader", "vcodec": "h264", "video_bit_rate": 3429755, "video_length": "938", "video_stream_index": 0, "video_timebase": {"den": 50000, "num": 1}, "width": 1280}, "rotation": {"Points": [{"co": {"X": 1, "Y": 0}, "interpolation": 2}]}, "scale": 1, "scale_x": {"Points": [{"co": {"X": 1, "Y": 1}, "interpolation": 2}]}, "scale_y": {"Points": [{"co": {"X": 1, "Y": 1}, "interpolation": 2}]}, "shear_x": {"Points": [{"co": {"X": 1, "Y": 0}, "interpolation": 2}]}, "shear_y": {"Points": [{"co": {"X": 1, "Y": 0}, "interpolation": 2}]}, "start": 0, "time": {"Points": [{"co": {"X": 1, "Y": 1}, "interpolation": 2}]}, "volume": {"Points": [{"co": {"X": 1, "Y": 1}, "interpolation": 2}]}, "wave_color": {"alpha": {"Points": [{"co": {"X": 1, "Y": 255}, "handle_left": {"X": 0.5, "Y": 1}, "handle_right": {"X": 0.5, "Y": 0}, "handle_type": 0, "interpolation": 0}]}, "blue": {"Points": [{"co": {"X": 1, "Y": 255}, "handle_left": {"X": 0.5, "Y": 1}, "handle_right": {"X": 0.5, "Y": 0}, "handle_type": 0, "interpolation": 0}]}, "green": {"Points": [{"co": {"X": 1, "Y": 123}, "handle_left": {"X": 0.5, "Y": 1}, "handle_right": {"X": 0.5, "Y": 0}, "handle_type": 0, "interpolation": 0}]}, "red": {"Points": [{"co": {"X": 1, "Y": 0}, "handle_left": {"X": 0.5, "Y": 1}, "handle_right": {"X": 0.5, "Y": 0}, "handle_type": 0, "interpolation": 0}]}}, "waveform": false, "file_id": "H4PGDJ64LT", "title": "IMG_3257.MOV", "image": "/home/teacher/.openshot_qt/thumbnail/H4PGDJ64LT.png"}}, {"type": "update", "key": ["clips", {"id": "D6SMHOE6VB"}], "value": {"id": "D6SMHOE6VB", "layer": 4, "position": 168.8, "image": "/home/teacher/.openshot_qt/thumbnail/H4PGDJ64LT.png", "start": 9.7, "end": 18.766666666666666}, "partial": false, "old_values": {"alpha": {"Points": [{"co": {"X": 1, "Y": 1}, "interpolation": 2}]}, "anchor": 0, "channel_filter": {"Points": [{"co": {"X": 1, "Y": -1}, "interpolation": 2}]}, "channel_mapping": {"Points": [{"co": {"X": 1, "Y": -1}, "interpolation": 2}]}, "crop_height": {"Points": [{"co": {"X": 1, "Y": -1}, "interpolation": 2}]}, "crop_width": {"Points": [{"co": {"X": 1, "Y": -1}, "interpolation": 2}]}, "crop_x": {"Points": [{"co": {"X": 1, "Y": 0}, "interpolation": 2}]}, "crop_y": {"Points": [{"co": {"X": 1, "Y": 0}, "interpolation": 2}]}, "display": 0, "duration": 18.760000228881836, "effects": [], "end": 18.766666666666666, "gravity": 4, "has_audio": {"Points": [{"co": {"X": 1, "Y": -1}, "interpolation": 2}]}, "has_video": {"Points": [{"co": {"X": 1, "Y": -1}, "interpolation": 2}]}, "id": "D6SMHOE6VB", "layer": 4, "location_x": {"Points": [{"co": {"X": 1, "Y": 0}, "interpolation": 2}]}, "location_y": {"Points": [{"co": {"X": 1, "Y": 0}, "interpolation": 2}]}, "mixing": 0, "perspective_c1_x": {"Points": [{"co": {"X": 1, "Y": -1}, "interpolation": 2}]}, "perspective_c1_y": {"Points": [{"co": {"X": 1, "Y": -1}, "interpolation": 2}]}, "perspective_c2_x": {"Points": [{"co": {"X": 1, "Y": -1}, "interpolation": 2}]}, "perspective_c2_y": {"Points": [{"co": {"X": 1, "Y": -1}, "interpolation": 2}]}, "perspective_c3_x": {"Points": [{"co": {"X": 1, "Y": -1}, "interpolation": 2}]}, "perspective_c3_y": {"Points": [{"co": {"X": 1, "Y": -1}, "interpolation": 2}]}, "perspective_c4_x": {"Points": [{"co": {"X": 1, "Y": -1}, "interpolation": 2}]}, "perspective_c4_y": {"Points": [{"co": {"X": 1, "Y": -1}, "interpolation": 2}]}, "position": 169.06666666666666, "reader": {"acodec": "pcm_s16le", "audio_bit_rate": 1536000, "audio_stream_index": 1, "audio_timebase": {"den": 48000, "num": 1}, "channel_layout": 3, "channels": 2, "display_ratio": {"den": 9, "num": 16}, "duration": 18.760000228881836, "file_size": "64342204", "fps": {"den": 1, "num": 50}, "has_audio": true, "has_single_image": false, "has_video": true, "height": 720, "interlaced_frame": false, "metadata": {"com.apple.quicktime.make": "Canon", "com.apple.quicktime.model": "Canon EOS 5D Mark III", "com.apple.quicktime.rating.user": "0.000000", "compatible_brands": "qt  CAEP", "creation_time": "2022-02-27T17:28:58.000000Z", "language": "eng", "major_brand": "qt", "minor_version": "537331968", "timecode": "04:15:45:16"}, "path": "/home/teacher/\u0412\u0438\u0434\u0435\u043e/lyzhi/good/IMG_3257.MOV", "pixel_format": 12, "pixel_ratio": {"den": 1, "num": 1}, "sample_rate": 48000, "top_field_first": true, "type": "FFmpegReader", "vcodec": "h264", "video_bit_rate": 3429755, "video_length": "938", "video_stream_index": 0, "video_timebase": {"den": 50000, "num": 1}, "width": 1280}, "rotation": {"Points": [{"co": {"X": 1, "Y": 0}, "interpolation": 2}]}, "scale": 1, "scale_x": {"Points": [{"co": {"X": 1, "Y": 1}, "interpolation": 2}]}, "scale_y": {"Points": [{"co": {"X": 1, "Y": 1}, "interpolation": 2}]}, "shear_x": {"Points": [{"co": {"X": 1, "Y": 0}, "interpolation": 2}]}, "shear_y": {"Points": [{"co": {"X": 1, "Y": 0}, "interpolation": 2}]}, "start": 9.7, "time": {"Points": [{"co": {"X": 1, "Y": 1}, "interpolation": 2}]}, "volume": {"Points": [{"co": {"X": 1, "Y": 1}, "interpolation": 2}]}, "wave_color": {"alpha": {"Points": [{"co": {"X": 1, "Y": 255}, "handle_left": {"X": 0.5, "Y": 1}, "handle_right": {"X": 0.5, "Y": 0}, "handle_type": 0, "interpolation": 0}]}, "blue": {"Points": [{"co": {"X": 1, "Y": 255}, "handle_left": {"X": 0.5, "Y": 1}, "handle_right": {"X": 0.5, "Y": 0}, "handle_type": 0, "interpolation": 0}]}, "green": {"Points": [{"co": {"X": 1, "Y": 123}, "handle_left": {"X": 0.5, "Y": 1}, "handle_right": {"X": 0.5, "Y": 0}, "handle_type": 0, "interpolation": 0}]}, "red": {"Points": [{"co": {"X": 1, "Y": 0}, "handle_left": {"X": 0.5, "Y": 1}, "handle_right": {"X": 0.5, "Y": 0}, "handle_type": 0, "interpolation": 0}]}}, "waveform": false, "file_id": "H4PGDJ64LT", "title": "IMG_3257.MOV", "image": "/home/teacher/.openshot_qt/thumbnail/D6SMHOE6VB-486.png"}}, {"type": "update", "key": ["clips", {"id": "D6SMHOE6VB"}], "value": {"id": "D6SMHOE6VB", "layer": 4, "position": 168.8, "image": "/home/teacher/.openshot_qt/thumbnail/H4PGDJ64LT.png", "start": 9.7, "end": 18.633333333333333}, "partial": false, "old_values": {"alpha": {"Points": [{"co": {"X": 1, "Y": 1}, "interpolation": 2}]}, "anchor": 0, "channel_filter": {"Points": [{"co": {"X": 1, "Y": -1}, "interpolation": 2}]}, "channel_mapping": {"Points": [{"co": {"X": 1, "Y": -1}, "interpolation": 2}]}, "crop_height": {"Points": [{"co": {"X": 1, "Y": -1}, "interpolation": 2}]}, "crop_width": {"Points": [{"co": {"X": 1, "Y": -1}, "interpolation": 2}]}, "crop_x": {"Points": [{"co": {"X": 1, "Y": 0}, "interpolation": 2}]}, "crop_y": {"Points": [{"co": {"X": 1, "Y": 0}, "interpolation": 2}]}, "display": 0, "duration": 18.760000228881836, "effects": [], "end": 18.766666666666666, "gravity": 4, "has_audio": {"Points": [{"co": {"X": 1, "Y": -1}, "interpolation": 2}]}, "has_video": {"Points": [{"co": {"X": 1, "Y": -1}, "interpolation": 2}]}, "id": "D6SMHOE6VB", "layer": 4, "location_x": {"Points": [{"co": {"X": 1, "Y": 0}, "interpolation": 2}]}, "location_y": {"Points": [{"co": {"X": 1, "Y": 0}, "interpolation": 2}]}, "mixing": 0, "perspective_c1_x": {"Points": [{"co": {"X": 1, "Y": -1}, "interpolation": 2}]}, "perspective_c1_y": {"Points": [{"co": {"X": 1, "Y": -1}, "interpolation": 2}]}, "perspective_c2_x": {"Points": [{"co": {"X": 1, "Y": -1}, "interpolation": 2}]}, "perspective_c2_y": {"Points": [{"co": {"X": 1, "Y": -1}, "interpolation": 2}]}, "perspective_c3_x": {"Points": [{"co": {"X": 1, "Y": -1}, "interpolation": 2}]}, "perspective_c3_y": {"Points": [{"co": {"X": 1, "Y": -1}, "interpolation": 2}]}, "perspective_c4_x": {"Points": [{"co": {"X": 1, "Y": -1}, "interpolation": 2}]}, "perspective_c4_y": {"Points": [{"co": {"X": 1, "Y": -1}, "interpolation": 2}]}, "position": 168.8, "reader": {"acodec": "pcm_s16le", "audio_bit_rate": 1536000, "audio_stream_index": 1, "audio_timebase": {"den": 48000, "num": 1}, "channel_layout": 3, "channels": 2, "display_ratio": {"den": 9, "num": 16}, "duration": 18.760000228881836, "file_size": "64342204", "fps": {"den": 1, "num": 50}, "has_audio": true, "has_single_image": false, "has_video": true, "height": 720, "interlaced_frame": false, "metadata": {"com.apple.quicktime.make": "Canon", "com.apple.quicktime.model": "Canon EOS 5D Mark III", "com.apple.quicktime.rating.user": "0.000000", "compatible_brands": "qt  CAEP", "creation_time": "2022-02-27T17:28:58.000000Z", "language": "eng", "major_brand": "qt", "minor_version": "537331968", "timecode": "04:15:45:16"}, "path": "/home/teacher/\u0412\u0438\u0434\u0435\u043e/lyzhi/good/IMG_3257.MOV", "pixel_format": 12, "pixel_ratio": {"den": 1, "num": 1}, "sample_rate": 48000, "top_field_first": true, "type": "FFmpegReader", "vcodec": "h264", "video_bit_rate": 3429755, "video_length": "938", "video_stream_index": 0, "video_timebase": {"den": 50000, "num": 1}, "width": 1280}, "rotation": {"Points": [{"co": {"X": 1, "Y": 0}, "interpolation": 2}]}, "scale": 1, "scale_x": {"Points": [{"co": {"X": 1, "Y": 1}, "interpolation": 2}]}, "scale_y": {"Points": [{"co": {"X": 1, "Y": 1}, "interpolation": 2}]}, "shear_x": {"Points": [{"co": {"X": 1, "Y": 0}, "interpolation": 2}]}, "shear_y": {"Points": [{"co": {"X": 1, "Y": 0}, "interpolation": 2}]}, "start": 9.7, "time": {"Points": [{"co": {"X": 1, "Y": 1}, "interpolation": 2}]}, "volume": {"Points": [{"co": {"X": 1, "Y": 1}, "interpolation": 2}]}, "wave_color": {"alpha": {"Points": [{"co": {"X": 1, "Y": 255}, "handle_left": {"X": 0.5, "Y": 1}, "handle_right": {"X": 0.5, "Y": 0}, "handle_type": 0, "interpolation": 0}]}, "blue": {"Points": [{"co": {"X": 1, "Y": 255}, "handle_left": {"X": 0.5, "Y": 1}, "handle_right": {"X": 0.5, "Y": 0}, "handle_type": 0, "interpolation": 0}]}, "green": {"Points": [{"co": {"X": 1, "Y": 123}, "handle_left": {"X": 0.5, "Y": 1}, "handle_right": {"X": 0.5, "Y": 0}, "handle_type": 0, "interpolation": 0}]}, "red": {"Points": [{"co": {"X": 1, "Y": 0}, "handle_left": {"X": 0.5, "Y": 1}, "handle_right": {"X": 0.5, "Y": 0}, "handle_type": 0, "interpolation": 0}]}}, "waveform": false, "file_id": "H4PGDJ64LT", "title": "IMG_3257.MOV", "image": "/home/teacher/.openshot_qt/thumbnail/H4PGDJ64LT.png"}}, {"type": "update", "key": ["clips", {"id": "D6SMHOE6VB"}], "value": {"id": "D6SMHOE6VB", "layer": 4, "position": 159.2, "image": "/home/teacher/.openshot_qt/thumbnail/H4PGDJ64LT.png", "start": 9.7, "end": 18.633333333333333}, "partial": false, "old_values": {"alpha": {"Points": [{"co": {"X": 1, "Y": 1}, "interpolation": 2}]}, "anchor": 0, "channel_filter": {"Points": [{"co": {"X": 1, "Y": -1}, "interpolation": 2}]}, "channel_mapping": {"Points": [{"co": {"X": 1, "Y": -1}, "interpolation": 2}]}, "crop_height": {"Points": [{"co": {"X": 1, "Y": -1}, "interpolation": 2}]}, "crop_width": {"Points": [{"co": {"X": 1, "Y": -1}, "interpolation": 2}]}, "crop_x": {"Points": [{"co": {"X": 1, "Y": 0}, "interpolation": 2}]}, "crop_y": {"Points": [{"co": {"X": 1, "Y": 0}, "interpolation": 2}]}, "display": 0, "duration": 18.760000228881836, "effects": [], "end": 18.633333333333333, "gravity": 4, "has_audio": {"Points": [{"co": {"X": 1, "Y": -1}, "interpolation": 2}]}, "has_video": {"Points": [{"co": {"X": 1, "Y": -1}, "interpolation": 2}]}, "id": "D6SMHOE6VB", "layer": 4, "location_x": {"Points": [{"co": {"X": 1, "Y": 0}, "interpolation": 2}]}, "location_y": {"Points": [{"co": {"X": 1, "Y": 0}, "interpolation": 2}]}, "mixing": 0, "perspective_c1_x": {"Points": [{"co": {"X": 1, "Y": -1}, "interpolation": 2}]}, "perspective_c1_y": {"Points": [{"co": {"X": 1, "Y": -1}, "interpolation": 2}]}, "perspective_c2_x": {"Points": [{"co": {"X": 1, "Y": -1}, "interpolation": 2}]}, "perspective_c2_y": {"Points": [{"co": {"X": 1, "Y": -1}, "interpolation": 2}]}, "perspective_c3_x": {"Points": [{"co": {"X": 1, "Y": -1}, "interpolation": 2}]}, "perspective_c3_y": {"Points": [{"co": {"X": 1, "Y": -1}, "interpolation": 2}]}, "perspective_c4_x": {"Points": [{"co": {"X": 1, "Y": -1}, "interpolation": 2}]}, "perspective_c4_y": {"Points": [{"co": {"X": 1, "Y": -1}, "interpolation": 2}]}, "position": 168.8, "reader": {"acodec": "pcm_s16le", "audio_bit_rate": 1536000, "audio_stream_index": 1, "audio_timebase": {"den": 48000, "num": 1}, "channel_layout": 3, "channels": 2, "display_ratio": {"den": 9, "num": 16}, "duration": 18.760000228881836, "file_size": "64342204", "fps": {"den": 1, "num": 50}, "has_audio": true, "has_single_image": false, "has_video": true, "height": 720, "interlaced_frame": false, "metadata": {"com.apple.quicktime.make": "Canon", "com.apple.quicktime.model": "Canon EOS 5D Mark III", "com.apple.quicktime.rating.user": "0.000000", "compatible_brands": "qt  CAEP", "creation_time": "2022-02-27T17:28:58.000000Z", "language": "eng", "major_brand": "qt", "minor_version": "537331968", "timecode": "04:15:45:16"}, "path": "/home/teacher/\u0412\u0438\u0434\u0435\u043e/lyzhi/good/IMG_3257.MOV", "pixel_format": 12, "pixel_ratio": {"den": 1, "num": 1}, "sample_rate": 48000, "top_field_first": true, "type": "FFmpegReader", "vcodec": "h264", "video_bit_rate": 3429755, "video_length": "938", "video_stream_index": 0, "video_timebase": {"den": 50000, "num": 1}, "width": 1280}, "rotation": {"Points": [{"co": {"X": 1, "Y": 0}, "interpolation": 2}]}, "scale": 1, "scale_x": {"Points": [{"co": {"X": 1, "Y": 1}, "interpolation": 2}]}, "scale_y": {"Points": [{"co": {"X": 1, "Y": 1}, "interpolation": 2}]}, "shear_x": {"Points": [{"co": {"X": 1, "Y": 0}, "interpolation": 2}]}, "shear_y": {"Points": [{"co": {"X": 1, "Y": 0}, "interpolation": 2}]}, "start": 9.7, "time": {"Points": [{"co": {"X": 1, "Y": 1}, "interpolation": 2}]}, "volume": {"Points": [{"co": {"X": 1, "Y": 1}, "interpolation": 2}]}, "wave_color": {"alpha": {"Points": [{"co": {"X": 1, "Y": 255}, "handle_left": {"X": 0.5, "Y": 1}, "handle_right": {"X": 0.5, "Y": 0}, "handle_type": 0, "interpolation": 0}]}, "blue": {"Points": [{"co": {"X": 1, "Y": 255}, "handle_left": {"X": 0.5, "Y": 1}, "handle_right": {"X": 0.5, "Y": 0}, "handle_type": 0, "interpolation": 0}]}, "green": {"Points": [{"co": {"X": 1, "Y": 123}, "handle_left": {"X": 0.5, "Y": 1}, "handle_right": {"X": 0.5, "Y": 0}, "handle_type": 0, "interpolation": 0}]}, "red": {"Points": [{"co": {"X": 1, "Y": 0}, "handle_left": {"X": 0.5, "Y": 1}, "handle_right": {"X": 0.5, "Y": 0}, "handle_type": 0, "interpolation": 0}]}}, "waveform": false, "file_id": "H4PGDJ64LT", "title": "IMG_3257.MOV", "image": "/home/teacher/.openshot_qt/thumbnail/H4PGDJ64LT.png"}}], "redo": []}, "version": {"openshot-qt": "2.4.3", "libopenshot": "0.2.2"}}